# Blender 5.2.0 LTS
# www.blender.org
mtllib BUGNETBODY.mtl
o bug_net_body
v -0.280230 -1.242804 0.035269
v -0.251532 -1.571300 0.035206
v -0.237122 -1.570052 0.000253
v -0.265736 -1.241783 0.000253
v -0.280230 -1.242804 -0.034731
v -0.261085 -1.598843 0.023290
v -0.251532 -1.571300 -0.034668
v -0.261085 -1.598843 -0.022752
v -0.251584 -1.598035 0.000253
v 0.705039 1.839102 0.395189
v 0.717922 2.035310 0.198339
v 0.705083 1.939897 0.135785
v 0.736491 1.983156 0.165668
v 0.694365 1.776066 0.300123
v 0.724785 1.804529 0.344899
v 0.717548 2.030094 -0.203284
v 0.704712 1.833631 -0.399911
v 0.724470 1.799626 -0.349082
v 0.736178 1.978476 -0.170073
v 0.694063 1.771640 -0.303863
v 0.704818 1.935657 -0.139684
v 0.335477 0.572691 0.035206
v 0.017597 -0.022312 0.035206
v 0.348476 0.566313 0.000253
v -0.133286 -0.363626 0.035110
v 0.030558 -0.028750 0.000253
v -0.119231 -0.366737 0.000253
v -0.133286 -0.363626 -0.034572
v 0.017597 -0.022312 -0.034668
v 0.335477 0.572691 -0.034699
v 0.676349 1.501186 0.304401
v 0.665621 1.337199 0.140221
v 0.665925 1.241911 0.203821
v 0.691128 1.290658 0.170611
v 0.678822 1.438339 0.400449
v 0.702848 1.469505 0.349620
v 0.678434 1.432900 -0.394650
v 0.665614 1.236691 -0.197801
v 0.665331 1.332964 -0.135247
v 0.690828 1.285977 -0.165129
v 0.676073 1.496790 -0.299585
v 0.702519 1.464574 -0.344361
v 0.585031 1.846963 0.395190
v 0.597848 2.043175 0.198339
v 0.659293 2.060711 0.211743
v 0.645928 1.856663 0.416452
v 0.705039 1.839102 0.395189
v 0.717922 2.035310 0.198339
v 0.676349 1.501186 0.304401
v 0.678822 1.438339 0.400449
v 0.702848 1.469505 0.349620
v 0.617910 1.428894 0.421934
v 0.623562 1.515188 0.288556
v 0.569401 1.508191 0.304401
v 0.558748 1.446203 0.400449
v 0.538995 1.480237 0.349620
v 0.569100 1.503797 -0.299585
v 0.617537 1.423203 -0.415914
v 0.558426 1.440761 -0.394650
v 0.538675 1.475305 -0.344361
v 0.623285 1.510952 -0.283930
v 0.676073 1.496790 -0.299585
v 0.678434 1.432900 -0.394650
v 0.702519 1.464574 -0.344361
v 0.558382 1.339969 -0.135247
v 0.569100 1.503797 -0.299585
v 0.623285 1.510952 -0.283930
v 0.612890 1.352247 -0.124727
v 0.665331 1.332964 -0.135247
v 0.676073 1.496790 -0.299585
v -0.315126 -1.245313 0.049656
v -0.286332 -1.574322 0.049688
v -0.280230 -1.242804 0.035269
v -0.251532 -1.571300 0.035206
v -0.261085 -1.598843 0.023290
v -0.284031 -1.600865 0.032829
v -0.306975 -1.602854 0.023290
v -0.321140 -1.577377 0.035206
v -0.349884 -1.247831 0.035143
v 0.694063 1.771640 -0.303863
v 0.587115 1.778645 -0.303863
v 0.704818 1.935657 -0.139684
v 0.597845 1.942664 -0.139684
v 0.650306 1.923508 -0.129005
v 0.639901 1.764646 -0.288050
v 0.704818 1.935657 -0.139684
v 0.658932 2.055210 -0.216909
v 0.650306 1.923508 -0.129005
v 0.597845 1.942664 -0.139684
v 0.717548 2.030094 -0.203284
v 0.736178 1.978476 -0.170073
v 0.597541 2.037954 -0.203284
v 0.572334 1.989208 -0.170073
v 0.335477 0.572691 0.035206
v 0.017597 -0.022312 0.035206
v 0.304120 0.588146 0.049656
v -0.013710 -0.006829 0.049656
v 0.272792 0.603567 0.035174
v -0.133286 -0.363626 0.035110
v -0.167328 -0.356093 0.049688
v -0.045019 0.008688 0.035206
v -0.201604 -0.348450 0.035364
v 0.545917 1.249772 0.203821
v 0.558748 1.446203 0.400449
v 0.617910 1.428894 0.421934
v 0.604533 1.224655 0.217447
v 0.665925 1.241911 0.203821
v 0.678822 1.438339 0.400449
v 0.665331 1.332964 -0.135247
v 0.604173 1.219152 -0.211205
v 0.665614 1.236691 -0.197801
v 0.690828 1.285977 -0.165129
v 0.612890 1.352247 -0.124727
v 0.558382 1.339969 -0.135247
v 0.545540 1.244556 -0.197801
v 0.526974 1.296709 -0.165129
v -0.306975 -1.602854 0.023290
v -0.316481 -1.603692 0.000253
v -0.306975 -1.602854 -0.022752
v -0.321140 -1.577377 -0.034668
v -0.349884 -1.247831 -0.034604
v -0.364247 -1.248892 0.000253
v -0.335560 -1.578626 0.000253
v -0.321140 -1.577377 0.035206
v -0.349884 -1.247831 0.035143
v 0.572638 1.993888 0.165668
v 0.560941 1.815260 0.344899
v 0.585031 1.846963 0.395190
v 0.597848 2.043175 0.198339
v 0.598135 1.946901 0.135785
v 0.587392 1.783073 0.300123
v 0.597541 2.037954 -0.203284
v 0.584638 1.841496 -0.399911
v 0.560617 1.810358 -0.349082
v 0.572334 1.989208 -0.170073
v 0.587115 1.778645 -0.303863
v 0.597845 1.942664 -0.139684
v 0.272792 0.603567 0.035174
v 0.272792 0.603567 -0.034636
v -0.045019 0.008688 -0.034668
v -0.201604 -0.348450 -0.034826
v -0.215895 -0.345258 0.000253
v -0.057991 0.015093 0.000253
v 0.259824 0.609943 0.000253
v -0.045019 0.008688 0.035206
v -0.201604 -0.348450 0.035364
v 0.569401 1.508191 0.304401
v 0.527284 1.301389 0.170611
v 0.538995 1.480237 0.349620
v 0.558647 1.344206 0.140221
v 0.545917 1.249772 0.203821
v 0.558748 1.446203 0.400449
v 0.558426 1.440761 -0.394650
v 0.526974 1.296709 -0.165129
v 0.538675 1.475305 -0.344361
v 0.545540 1.244556 -0.197801
v 0.558382 1.339969 -0.135247
v 0.569100 1.503797 -0.299585
v -0.261085 -1.598843 0.023290
v -0.284031 -1.600865 0.032829
v -0.306975 -1.602854 0.023290
v -0.261085 -1.598843 -0.022752
v -0.251584 -1.598035 0.000253
v -0.284031 -1.600865 -0.032291
v -0.316481 -1.603692 0.000253
v -0.306975 -1.602854 -0.022752
v 0.598135 1.946901 0.135785
v 0.587392 1.783073 0.300123
v 0.640181 1.768914 0.284468
v 0.650575 1.927619 0.125265
v 0.705083 1.939897 0.135785
v 0.694365 1.776066 0.300123
v 0.558426 1.440761 -0.394650
v 0.545540 1.244556 -0.197801
v 0.604173 1.219152 -0.211205
v 0.617537 1.423203 -0.415914
v 0.678434 1.432900 -0.394650
v 0.665614 1.236691 -0.197801
v 0.587392 1.783073 0.300123
v 0.585031 1.846963 0.395190
v 0.560941 1.815260 0.344899
v 0.645928 1.856663 0.416452
v 0.640181 1.768914 0.284468
v 0.694365 1.776066 0.300123
v 0.705039 1.839102 0.395189
v 0.724785 1.804529 0.344899
v 0.587115 1.778645 -0.303863
v 0.645553 1.850938 -0.421396
v 0.639901 1.764646 -0.288050
v 0.694063 1.771640 -0.303863
v 0.584638 1.841496 -0.399911
v 0.560617 1.810358 -0.349082
v 0.704712 1.833631 -0.399911
v 0.724470 1.799626 -0.349082
v -0.280230 -1.242804 -0.034731
v -0.251532 -1.571300 -0.034668
v -0.286332 -1.574322 -0.049150
v -0.315126 -1.245313 -0.049150
v -0.261085 -1.598843 -0.022752
v -0.284031 -1.600865 -0.032291
v -0.306975 -1.602854 -0.022752
v -0.321140 -1.577377 -0.034668
v -0.349884 -1.247831 -0.034604
v 0.645553 1.850938 -0.421396
v 0.658932 2.055210 -0.216909
v 0.717548 2.030094 -0.203284
v 0.597541 2.037954 -0.203284
v 0.704712 1.833631 -0.399911
v 0.584638 1.841496 -0.399911
v 0.705083 1.939897 0.135785
v 0.659293 2.060711 0.211743
v 0.717922 2.035310 0.198339
v 0.736491 1.983156 0.165668
v 0.650575 1.927619 0.125265
v 0.598135 1.946901 0.135785
v 0.597848 2.043175 0.198339
v 0.572638 1.993888 0.165668
v -0.133286 -0.363626 -0.034572
v 0.017597 -0.022312 -0.034668
v 0.335477 0.572691 -0.034699
v 0.304120 0.588146 -0.049150
v -0.013710 -0.006829 -0.049150
v -0.167328 -0.356093 -0.049150
v 0.272792 0.603567 -0.034636
v -0.045019 0.008688 -0.034668
v -0.201604 -0.348450 -0.034826
v 0.569401 1.508191 0.304401
v 0.558647 1.344206 0.140221
v 0.613159 1.356355 0.129511
v 0.623562 1.515188 0.288556
v 0.676349 1.501186 0.304401
v 0.665621 1.337199 0.140221
v 0.558647 1.344206 0.140221
v 0.545917 1.249772 0.203821
v 0.527284 1.301389 0.170611
v 0.604533 1.224655 0.217447
v 0.613159 1.356355 0.129511
v 0.665621 1.337199 0.140221
v 0.665925 1.241911 0.203821
v 0.691128 1.290658 0.170611
v -0.200865 -0.627257 0.042494
v -0.126859 -0.366492 0.042494
v -0.109893 -0.370874 0.000253
v -0.256451 -0.930415 0.042494
v -0.183816 -0.631294 0.000253
v -0.200865 -0.627257 -0.041956
v -0.126859 -0.366492 -0.041956
v -0.256451 -0.930415 -0.041956
v -0.238958 -0.931561 0.000253
v -0.255560 -1.240894 0.000253
v -0.273057 -1.242193 -0.041987
v -0.273057 -1.242193 0.042525
v 0.656242 1.220822 -0.172292
v 0.656242 1.220822 0.172830
v 0.672192 1.464336 -0.416326
v 0.678424 1.267894 -0.152232
v 0.692520 1.483107 -0.367905
v 0.678424 1.267894 0.152770
v 0.658124 1.314034 -0.133726
v 0.670509 1.503127 -0.323193
v 0.712454 1.787459 -0.367905
v 0.694748 1.808721 -0.416326
v 0.692520 1.483107 0.368444
v 0.726550 2.002669 -0.152232
v 0.710699 2.052263 -0.172292
v 0.710699 2.052263 0.172830
v 0.726550 2.002669 0.152770
v 0.694748 1.808721 0.416864
v 0.712454 1.787459 0.368444
v 0.672192 1.464336 0.416864
v 0.688022 1.770512 0.323731
v 0.341878 0.569287 0.042400
v 0.341878 0.569287 -0.041860
v 0.541735 0.965317 0.042336
v 0.648551 1.254577 0.041956
v 0.665387 1.252711 0.000253
v 0.541735 0.965317 -0.041798
v 0.648551 1.254577 -0.041417
v 0.557356 0.957752 0.000253
v 0.357485 0.561500 0.000253
v 0.658124 1.314034 0.134264
v 0.670509 1.503127 0.323731
v 0.688022 1.770512 -0.323193
v 0.700407 1.959605 -0.133726
v 0.700407 1.959605 0.134264
v 0.658124 1.314034 -0.133726
v 0.670509 1.503127 -0.323193
v 0.660316 2.076332 -0.180879
v 0.710699 2.052263 -0.172292
v 0.607223 2.059041 -0.172292
v 0.607223 2.059041 0.172830
v 0.660316 2.076332 0.181417
v 0.710699 2.052263 0.172830
v 0.575441 1.509354 0.323731
v 0.563055 1.320261 0.134264
v 0.623430 1.513164 0.306935
v 0.575440 1.509354 -0.323193
v 0.563055 1.320261 -0.133726
v 0.611689 1.333904 0.127293
v 0.623430 1.513164 -0.306398
v 0.611689 1.333904 -0.126755
v 0.658124 1.314034 0.134264
v 0.670509 1.503127 0.323731
v -0.208433 -0.345461 -0.041798
v -0.109893 -0.370874 0.000253
v -0.126859 -0.366492 -0.041956
v -0.167722 -0.355907 -0.059353
v -0.225247 -0.341184 0.000253
v -0.208433 -0.345461 0.042336
v -0.126859 -0.366492 0.042494
v -0.167722 -0.355907 0.059891
v -0.241963 -0.617578 0.059891
v -0.208433 -0.345461 0.042336
v -0.282939 -0.607941 0.042367
v -0.167722 -0.355907 0.059891
v -0.200865 -0.627257 0.042494
v -0.126859 -0.366492 0.042494
v -0.256451 -0.930415 0.042494
v -0.273057 -1.242193 0.042525
v -0.298593 -0.927718 0.059891
v -0.315167 -1.245310 0.059891
v -0.340578 -0.925097 0.042336
v -0.357099 -1.248470 0.042336
v 0.552766 1.227600 0.172830
v 0.656242 1.220822 0.172830
v 0.619892 1.459156 0.437588
v 0.670509 1.503127 -0.323193
v 0.607223 2.059041 0.172830
v 0.660316 2.076332 0.181417
v 0.592953 1.776739 -0.323193
v 0.710699 2.052263 0.172830
v 0.643571 1.820678 0.437588
v 0.591272 1.815498 0.416864
v 0.694748 1.808721 0.416864
v 0.568715 1.471114 0.416864
v 0.672192 1.464336 0.416864
v 0.565202 1.264354 0.042716
v 0.465827 1.002107 0.042462
v 0.266452 0.606936 0.042431
v 0.304178 0.588111 0.059891
v 0.503845 0.983675 0.059891
v 0.341878 0.569287 0.042400
v 0.607238 1.259316 0.059860
v 0.541735 0.965317 0.042336
v 0.648551 1.254577 0.041956
v 0.575440 1.509354 -0.323193
v 0.563055 1.320261 -0.133726
v 0.623430 1.513164 -0.306398
v 0.611689 1.333904 -0.126755
v 0.640036 1.766701 -0.306398
v 0.688022 1.770512 -0.323193
v 0.700407 1.959605 -0.133726
v 0.651777 1.945959 -0.126755
v -0.208433 -0.345461 0.042336
v -0.282939 -0.607941 0.042367
v -0.208433 -0.345461 -0.041798
v -0.340578 -0.925097 0.042336
v -0.357099 -1.248470 0.042336
v -0.357911 -0.923993 0.000253
v -0.374419 -1.249781 0.000253
v -0.357099 -1.248470 -0.041798
v -0.299870 -0.603942 0.000253
v -0.225247 -0.341184 0.000253
v -0.282939 -0.607941 -0.041829
v -0.340578 -0.925097 -0.041798
v 0.552766 1.227600 0.172830
v 0.552766 1.227600 -0.172292
v 0.568715 1.471114 -0.416326
v 0.591272 1.815498 -0.416326
v 0.551010 1.492375 -0.367905
v 0.570944 1.796727 -0.367905
v 0.585040 2.011938 -0.152232
v 0.607223 2.059041 -0.172292
v 0.607223 2.059041 0.172830
v 0.592953 1.776739 -0.323193
v 0.585040 2.011938 0.152770
v 0.591272 1.815498 0.416864
v 0.568715 1.471114 0.416864
v 0.570944 1.796727 0.368444
v 0.551010 1.492375 0.368444
v 0.450080 1.009743 0.000253
v 0.565202 1.264354 0.042716
v 0.547694 1.266487 0.000253
v 0.565202 1.264354 -0.042178
v 0.465827 1.002107 0.042462
v 0.465827 1.002107 -0.041925
v 0.250816 0.614756 0.000253
v 0.266452 0.606936 0.042431
v 0.266452 0.606936 -0.041893
v 0.592954 1.776739 0.323731
v 0.536914 1.277163 0.152770
v 0.575441 1.509354 0.323731
v 0.536914 1.277163 -0.152232
v 0.563055 1.320261 0.134264
v 0.575440 1.509354 -0.323193
v 0.563055 1.320261 -0.133726
v 0.605339 1.965832 -0.133726
v 0.605339 1.965832 0.134264
v -0.273057 -1.242193 -0.041987
v -0.374419 -1.249781 0.000253
v -0.357099 -1.248470 -0.041798
v -0.315167 -1.245310 -0.059353
v -0.255560 -1.240894 0.000253
v -0.273057 -1.242193 0.042525
v -0.357099 -1.248470 0.042336
v -0.315167 -1.245310 0.059891
v 0.552766 1.227600 0.172830
v 0.552766 1.227600 -0.172292
v 0.603150 1.203531 -0.180879
v 0.603150 1.203531 0.181417
v 0.656242 1.220822 -0.172292
v 0.619892 1.459156 -0.437081
v 0.656242 1.220822 0.172830
v 0.619892 1.459156 0.437588
v 0.592953 1.776739 -0.323193
v 0.688022 1.770512 0.323731
v 0.341878 0.569287 -0.041860
v 0.250816 0.614756 0.000253
v 0.266452 0.606936 -0.041893
v 0.304178 0.588111 -0.059353
v 0.357485 0.561500 0.000253
v 0.341878 0.569287 0.042400
v 0.266452 0.606936 0.042431
v 0.304178 0.588111 0.059891
v 0.592954 1.776739 0.323731
v 0.640036 1.766701 -0.306398
v 0.688022 1.770512 -0.323193
v 0.700407 1.959605 -0.133726
v 0.651777 1.945959 -0.126755
v 0.605339 1.965832 -0.133726
v 0.605339 1.965832 0.134264
v 0.651777 1.945959 0.127293
v 0.640036 1.766701 0.306935
v 0.700407 1.959605 0.134264
v -0.200865 -0.627257 -0.041956
v -0.126859 -0.366492 -0.041956
v -0.167722 -0.355907 -0.059353
v -0.256451 -0.930415 -0.041956
v -0.241963 -0.617578 -0.059353
v -0.208433 -0.345461 -0.041798
v -0.273057 -1.242193 -0.041987
v -0.298593 -0.927718 -0.059353
v -0.315167 -1.245310 -0.059353
v -0.357099 -1.248470 -0.041798
v -0.282939 -0.607941 -0.041829
v -0.340578 -0.925097 -0.041798
v 0.552766 1.227600 -0.172292
v 0.656242 1.220822 -0.172292
v 0.619892 1.459156 -0.437081
v 0.672192 1.464336 -0.416326
v 0.694748 1.808721 -0.416326
v 0.643571 1.820678 -0.437081
v 0.568715 1.471114 -0.416326
v 0.591272 1.815498 -0.416326
v 0.660316 2.076332 -0.180879
v 0.710699 2.052263 -0.172292
v 0.607223 2.059041 -0.172292
v 0.688022 1.770512 0.323731
v 0.565202 1.264354 -0.042178
v 0.465827 1.002107 -0.041925
v 0.266452 0.606936 -0.041893
v 0.304178 0.588111 -0.059353
v 0.503845 0.983675 -0.059353
v 0.341878 0.569287 -0.041860
v 0.607238 1.259316 -0.059322
v 0.541735 0.965317 -0.041798
v 0.648551 1.254577 -0.041417
v 0.592954 1.776739 0.323731
v 0.575441 1.509354 0.323731
v 0.563055 1.320261 0.134264
v 0.623430 1.513164 0.306935
v 0.611689 1.333904 0.127293
v 0.658124 1.314034 0.134264
v 0.670509 1.503127 0.323731
v 0.640036 1.766701 0.306935
vn 0.9845 -0.1752 -0.0000
vn 0.7006 0.0649 0.7106
vn 0.7021 -0.2032 0.6825
vn 0.9965 0.0842 -0.0000
vn 0.7006 0.0649 -0.7106
vn 0.4685 -0.7872 0.4010
vn 0.7021 -0.2032 -0.6825
vn 0.4685 -0.7872 -0.4010
vn 0.6340 -0.7733 -0.0000
vn 0.7234 0.4645 0.5108
vn 0.9973 -0.0732 -0.0079
vn 0.7235 0.4645 0.5107
vn 0.9966 -0.0810 -0.0157
vn 0.6320 -0.5689 -0.5263
vn 0.6320 -0.5688 -0.5263
vn 0.7234 0.4645 -0.5108
vn 0.9973 -0.0732 0.0078
vn 0.9972 -0.0732 0.0157
vn 0.6319 -0.5688 0.5264
vn 0.6320 -0.5689 0.5263
vn 0.6275 -0.3341 0.7033
vn 0.6343 -0.3097 0.7083
vn 0.8838 -0.4678 -0.0000
vn 0.6297 -0.2783 0.7253
vn 0.8996 -0.4366 -0.0000
vn 0.9133 -0.4073 -0.0000
vn 0.6297 -0.2783 -0.7253
vn 0.6344 -0.3097 -0.7083
vn 0.6275 -0.3341 -0.7033
vn 0.7008 0.4816 -0.5263
vn 0.9986 -0.0496 -0.0157
vn 0.9983 -0.0575 -0.0079
vn 0.6567 -0.5549 0.5107
vn 0.6567 -0.5549 -0.5108
vn 0.9983 -0.0575 0.0079
vn 0.9986 -0.0497 0.0157
vn 0.7008 0.4816 0.5263
vn -0.6566 0.5549 0.5108
vn 0.0462 0.7056 0.7071
vn -0.6523 0.5574 0.5136
vn 0.0462 0.7057 0.7070
vn 0.0548 0.8363 0.5455
vn 0.0548 0.8363 0.5456
vn 0.0543 0.8291 -0.5565
vn -0.6319 0.5689 0.5264
vn 0.0462 0.7059 0.7068
vn 0.7007 0.4816 0.5264
vn -0.0079 0.0005 1.0000
vn 0.0223 -0.2609 0.9651
vn 0.7005 0.0649 0.7107
vn 0.4686 -0.7872 0.4010
vn 0.0719 -0.8221 0.5647
vn -0.3248 -0.8560 0.4022
vn -0.6577 -0.3186 0.6826
vn -0.7045 -0.0640 0.7068
vn -0.0462 -0.7055 0.7072
vn 0.6319 -0.5689 0.5263
vn -0.7007 -0.4816 0.5264
vn -0.0462 -0.7052 0.7075
vn 0.0360 0.5499 0.8345
vn 0.0079 -0.0005 1.0000
vn 0.6274 -0.3341 0.7033
vn -0.6193 0.3334 0.7109
vn 0.6296 -0.2783 0.7254
vn -0.0461 0.0188 0.9988
vn -0.6424 0.3103 0.7007
vn -0.6664 0.2959 0.6843
vn -0.7234 -0.4645 0.5108
vn -0.0462 -0.7056 0.7071
vn 0.6566 -0.5549 0.5108
vn -0.0357 -0.5444 0.8381
vn -0.0357 -0.5443 0.8381
vn -0.0356 -0.5444 0.8381
vn -0.6578 -0.3186 -0.6825
vn -0.9965 -0.0842 -0.0000
vn -0.7046 -0.0640 -0.7067
vn -0.3248 -0.8560 -0.4022
vn -0.9398 -0.3418 -0.0000
vn -0.4895 -0.8720 -0.0000
vn -0.7046 -0.0640 0.7067
vn -0.9983 0.0575 -0.0079
vn -0.9986 0.0496 -0.0157
vn -0.6567 0.5549 0.5108
vn -0.6524 0.5574 0.5135
vn -0.7008 -0.4815 -0.5263
vn -0.6567 0.5549 -0.5108
vn -0.9983 0.0575 0.0079
vn -0.9982 0.0575 0.0157
vn -0.7008 -0.4816 0.5263
vn -0.9162 0.4006 -0.0000
vn -0.6424 0.3103 -0.7007
vn -0.6664 0.2959 -0.6843
vn -0.8996 0.4367 -0.0002
vn -0.6193 0.3334 -0.7108
vn -0.8838 0.4678 -0.0000
vn -0.6193 0.3334 0.7108
vn -0.6320 0.5689 -0.5263
vn -0.9966 0.0810 -0.0157
vn -0.9973 0.0732 -0.0079
vn -0.6319 0.5689 -0.5263
vn -0.7234 -0.4645 -0.5108
vn -0.9973 0.0732 0.0079
vn -0.9966 0.0810 0.0157
vn -0.6320 0.5688 0.5263
vn 0.4685 -0.7872 0.4011
vn 0.6340 -0.7734 -0.0000
vn 0.4686 -0.7872 -0.4010
vn 0.0719 -0.8221 -0.5647
vn -0.7007 -0.4816 -0.5264
vn -0.0462 -0.7059 -0.7068
vn -0.7007 -0.4816 -0.5263
vn -0.0462 -0.7056 -0.7071
vn 0.6319 -0.5689 -0.5263
vn 0.6319 -0.5689 -0.5264
vn -0.0462 -0.7057 -0.7070
vn 0.6566 -0.5549 -0.5108
vn -0.0543 -0.8291 0.5565
vn -0.0548 -0.8363 -0.5455
vn -0.0548 -0.8363 -0.5456
vn -0.0547 -0.8363 -0.5455
vn 0.0223 -0.2609 -0.9651
vn 0.7020 -0.2032 -0.6825
vn -0.0078 0.0005 -1.0000
vn -0.6577 -0.3186 -0.6826
vn -0.7046 -0.0640 -0.7068
vn 0.0462 0.7055 -0.7072
vn 0.0462 0.7052 -0.7075
vn -0.6566 0.5549 -0.5108
vn 0.0354 0.5408 -0.8404
vn 0.6343 -0.3097 -0.7083
vn 0.0079 -0.0005 -1.0000
vn 0.6296 -0.2782 -0.7254
vn -0.0079 0.0005 -1.0000
vn -0.0460 0.0188 -0.9988
vn -0.6193 0.3334 -0.7109
vn -0.6319 0.5689 -0.5264
vn 0.0462 0.7053 -0.7074
vn 0.7007 0.4816 -0.5263
vn -0.0360 -0.5499 -0.8345
vn 0.6801 -0.1941 0.7070
vn 0.6823 -0.1549 0.7145
vn 0.9611 -0.2762 -0.0000
vn 0.9732 -0.2297 -0.0000
vn 0.6946 -0.0848 0.7144
vn 0.6823 -0.1549 -0.7145
vn 0.6801 -0.1941 -0.7070
vn 0.6946 -0.0848 -0.7144
vn 0.9928 -0.1202 -0.0000
vn 0.9988 -0.0496 -0.0000
vn 0.6903 -0.0373 -0.7226
vn 0.6902 -0.0373 0.7226
vn 0.6367 -0.7175 0.2823
vn 0.6367 -0.7176 -0.2823
vn 0.9935 -0.1124 -0.0157
vn 0.9956 -0.0810 -0.0472
vn 0.6623 -0.3263 -0.6744
vn 0.9935 -0.1124 0.0157
vn 0.7649 0.5893 0.2600
vn 0.7402 0.2120 0.6381
vn 0.9977 -0.0496 -0.0472
vn 0.6992 0.2371 -0.6744
vn 0.9956 -0.0810 0.0472
vn 0.9997 -0.0182 -0.0157
vn 0.7249 0.6284 -0.2823
vn 0.7249 0.6284 0.2823
vn 0.9997 -0.0182 0.0157
vn 0.6993 0.2371 0.6744
vn 0.9977 -0.0496 0.0472
vn 0.6623 -0.3263 0.6744
vn 0.7062 -0.3068 -0.6381
vn 0.6988 -0.2581 0.6671
vn 0.6604 -0.2881 0.6935
vn 0.9386 -0.3450 -0.0000
vn 0.6603 -0.2881 -0.6935
vn 0.6988 -0.2582 -0.6671
vn 0.9173 -0.3981 -0.0000
vn 0.6325 -0.3169 -0.7068
vn 0.6325 -0.3169 0.7068
vn 0.8919 -0.4523 -0.0000
vn 0.7649 0.5893 -0.2599
vn 0.7402 0.2120 -0.6381
vn 0.7062 -0.3068 0.6381
vn 0.6815 -0.6841 0.2599
vn 0.6815 -0.6841 -0.2600
vn -0.6367 0.7176 0.2823
vn 0.0603 0.9204 -0.3863
vn -0.6367 0.7176 -0.2823
vn 0.0603 0.9204 0.3863
vn -0.6815 0.6841 -0.2599
vn -0.7062 0.3068 -0.6381
vn 0.0253 0.3855 -0.9224
vn -0.6815 0.6841 0.2600
vn -0.6815 0.6841 -0.2600
vn 0.0252 0.3854 0.9224
vn -0.7062 0.3068 0.6381
vn 0.7649 0.5894 -0.2600
vn 0.7649 0.5894 0.2599
vn 0.7649 0.5894 -0.2599
vn 0.0253 0.3854 -0.9224
vn 0.2523 0.9676 -0.0000
vn 0.2523 0.9677 -0.0000
vn 0.2524 0.9676 -0.0000
vn -0.0157 0.0010 0.9999
vn -0.6800 0.1941 0.7070
vn -0.6969 0.1636 0.6983
vn -0.0000 -0.0000 1.0000
vn 0.6823 -0.1548 0.7145
vn 0.6800 -0.1941 0.7070
vn 0.6946 -0.0849 0.7144
vn -0.0314 0.0021 0.9995
vn -0.7102 0.0858 0.6987
vn -0.7216 0.0394 0.6912
vn -0.6623 0.3263 0.6744
vn 0.6992 0.2371 0.6744
vn -0.6992 -0.2371 0.6745
vn -0.0252 -0.3854 0.9224
vn 0.6367 -0.7176 0.2823
vn -0.7249 -0.6284 0.2823
vn 0.0001 -0.0000 1.0000
vn -0.6424 0.2780 0.7142
vn -0.6324 0.3169 0.7068
vn 0.0152 -0.0089 0.9998
vn -0.6386 0.2389 0.7315
vn 0.0617 -0.0198 0.9979
vn 0.6603 -0.2881 0.6935
vn 0.0253 0.3854 0.9224
vn -0.7402 -0.2121 0.6381
vn -0.6815 0.6841 0.2599
vn 0.0602 0.9204 0.3863
vn -0.0253 -0.3855 0.9224
vn -0.0603 -0.9204 0.3863
vn -0.9937 0.1125 -0.0000
vn -0.7103 0.0858 0.6986
vn -0.6969 0.1636 0.6982
vn -0.9988 0.0497 -0.0000
vn -0.7216 0.0394 -0.6912
vn -0.9733 0.2297 -0.0000
vn -0.6801 0.1941 0.7070
vn -0.9611 0.2761 -0.0000
vn -0.6801 0.1942 -0.7070
vn -0.6969 0.1636 -0.6982
vn -0.7103 0.0859 -0.6987
vn -0.7249 -0.6283 -0.2823
vn -0.9977 0.0496 -0.0471
vn -0.6992 -0.2371 -0.6744
vn -0.9956 0.0810 -0.0472
vn -0.6623 0.3263 -0.6744
vn -0.9935 0.1124 -0.0157
vn -0.6367 0.7175 0.2823
vn -0.7402 -0.2120 0.6381
vn -0.9935 0.1124 0.0157
vn -0.6624 0.3263 0.6744
vn -0.6992 -0.2372 0.6744
vn -0.9956 0.0810 0.0472
vn -0.9977 0.0496 0.0472
vn -0.9163 0.4006 -0.0000
vn -0.9351 0.3544 -0.0000
vn -0.6386 0.2389 -0.7315
vn -0.6424 0.2780 0.7141
vn -0.6424 0.2780 -0.7141
vn -0.8919 0.4522 -0.0000
vn -0.6325 0.3169 0.7068
vn -0.6325 0.3169 -0.7068
vn -0.7402 -0.2120 -0.6381
vn -0.9997 0.0182 0.0157
vn -0.7062 0.3067 -0.6381
vn -0.9997 0.0182 -0.0157
vn -0.7062 0.3068 0.6380
vn -0.7649 -0.5893 0.2600
vn -0.7649 -0.5893 -0.2599
vn 0.0764 -0.9971 -0.0000
vn -0.7248 -0.6284 0.2823
vn -0.7249 -0.6284 -0.2823
vn -0.0603 -0.9204 -0.3863
vn -0.0253 -0.3855 -0.9224
vn -0.0252 -0.3855 0.9224
vn -0.4458 -0.8951 -0.0000
vn -0.4457 -0.8952 -0.0000
vn 0.7062 -0.3067 0.6381
vn -0.0603 -0.9204 0.3862
vn -0.7649 -0.5894 0.2600
vn -0.7649 -0.5894 -0.2600
vn 0.6815 -0.6841 0.2600
vn -0.7402 -0.2121 -0.6381
vn 0.6822 -0.1548 -0.7145
vn -0.0000 -0.0000 -1.0000
vn 0.6800 -0.1941 -0.7070
vn -0.0157 0.0010 -0.9999
vn -0.6800 0.1941 -0.7070
vn 0.6902 -0.0373 -0.7226
vn -0.0314 0.0021 -0.9995
vn -0.6969 0.1636 -0.6983
vn -0.7102 0.0859 -0.6987
vn 0.6368 -0.7175 -0.2823
vn -0.0252 -0.3855 -0.9224
vn 0.0252 0.3855 -0.9224
vn -0.6424 0.2780 -0.7142
vn 0.0001 -0.0000 -1.0000
vn 0.0152 -0.0089 -0.9998
vn 0.6324 -0.3169 -0.7068
vn 0.0617 -0.0198 -0.9979
vn 0.6988 -0.2581 -0.6671
vn 0.0252 0.3854 -0.9224
vn 0.7649 0.5893 -0.2600
vn 0.7402 0.2121 -0.6381
vn -0.0252 -0.3854 -0.9224
vt 52.000000 -29.718500
vt 51.986198 -29.590799
vt 51.986198 -29.719299
vt 52.000000 -29.590000
vt 52.013802 -29.590799
vt 51.990898 -29.730400
vt 52.013802 -29.719299
vt 52.009102 -29.730400
vt 52.000000 -29.729900
vt 51.844200 -28.352301
vt 51.934700 -28.294800
vt 51.921902 -28.274700
vt 51.864101 -28.365400
vt 51.946499 -28.312599
vt 51.881699 -28.377399
vt 52.080299 -28.276800
vt 52.137798 -28.367300
vt 52.157902 -28.354401
vt 52.067200 -28.296600
vt 52.119999 -28.379101
vt 52.055199 -28.314301
vt 51.986198 -28.860300
vt 51.986198 -29.102699
vt 52.000000 -28.862499
vt 51.986301 -29.240900
vt 52.000000 -29.104900
vt 52.000000 -29.241800
vt 52.013699 -29.240900
vt 52.013802 -29.102699
vt 52.013802 -28.860300
vt 51.880001 -28.486000
vt 51.932800 -28.568501
vt 51.944801 -28.550900
vt 51.862202 -28.497801
vt 51.919701 -28.588400
vt 51.842098 -28.510700
vt 52.155800 -28.512899
vt 52.065300 -28.570400
vt 52.078098 -28.590401
vt 52.135899 -28.499800
vt 52.053501 -28.552500
vt 52.118301 -28.487801
vt 51.881100 -28.844200
vt 51.857399 -28.916599
vt 51.881100 -28.921900
vt 51.857399 -28.835800
vt 51.833698 -28.844200
vt 51.833698 -28.921900
vt 51.836300 -28.879999
vt 51.833698 -28.842100
vt 51.825001 -28.862200
vt 51.857399 -28.833700
vt 51.857399 -28.886299
vt 51.878601 -28.879999
vt 51.881100 -28.842100
vt 51.889801 -28.862200
vt 51.878601 -29.118299
vt 51.857399 -29.164200
vt 51.881100 -29.155800
vt 51.889801 -29.135900
vt 51.857399 -29.112101
vt 51.836300 -29.118299
vt 51.833698 -29.155800
vt 51.825001 -29.135900
vt 51.878601 -29.053499
vt 51.857399 -29.049299
vt 51.836300 -29.053499
vt 51.844299 -29.592699
vt 51.864101 -29.721399
vt 51.857899 -29.590799
vt 51.877701 -29.719299
vt 51.874699 -29.730400
vt 51.865700 -29.731800
vt 51.856701 -29.733200
vt 51.850498 -29.723499
vt 51.830700 -29.594601
vt 52.142601 -28.320499
vt 52.163700 -28.379101
vt 52.163700 -28.314301
vt 52.121399 -28.379101
vt 52.121399 -28.314301
vt 52.142601 -28.383301
vt 52.142601 -28.268400
vt 52.166302 -28.276800
vt 52.174999 -28.296600
vt 52.118900 -28.276800
vt 52.110199 -28.296600
vt 52.040699 -28.855000
vt 51.943699 -29.102699
vt 52.053501 -28.860300
vt 51.931000 -29.097401
vt 52.028000 -28.849800
vt 51.893101 -29.240900
vt 51.879501 -29.238800
vt 51.918301 -29.092100
vt 51.865799 -29.236700
vt 52.118900 -28.588400
vt 52.142601 -28.516001
vt 52.118900 -28.510700
vt 52.142601 -28.596701
vt 52.166302 -28.588400
vt 52.166302 -28.510700
vt 52.163700 -28.552500
vt 52.142601 -28.598900
vt 52.166302 -28.590401
vt 52.174999 -28.570400
vt 52.142601 -28.546301
vt 52.121399 -28.552500
vt 52.118900 -28.590401
vt 52.110199 -28.570400
vt 51.986198 -29.723499
vt 52.000000 -29.595301
vt 51.986198 -29.594601
vt 51.990898 -29.733200
vt 52.000000 -29.724400
vt 52.000000 -29.733801
vt 52.009102 -29.733200
vt 52.013802 -29.723499
vt 52.013802 -29.594601
vt 52.065300 -28.294800
vt 52.135899 -28.365400
vt 52.155800 -28.352301
vt 52.078098 -28.274700
vt 52.053501 -28.312599
vt 52.118301 -28.377399
vt 51.919701 -28.276800
vt 51.842098 -28.354401
vt 51.862202 -28.367300
vt 51.932800 -28.296600
vt 51.880001 -28.379101
vt 51.944801 -28.314301
vt 52.000000 -29.235800
vt 51.986198 -29.092100
vt 51.986198 -29.236700
vt 52.000000 -29.089899
vt 51.986198 -28.849800
vt 52.000000 -28.847601
vt 52.013802 -28.849800
vt 52.013802 -29.092100
vt 52.013802 -29.236700
vt 52.119999 -28.486000
vt 52.067200 -28.568501
vt 52.137798 -28.497801
vt 52.055199 -28.550900
vt 52.080299 -28.588400
vt 52.157902 -28.510700
vt 51.844200 -28.512899
vt 51.934700 -28.570400
vt 51.864101 -28.499800
vt 51.921902 -28.590401
vt 51.946499 -28.552500
vt 51.881699 -28.487801
vt 51.856701 -28.990900
vt 51.874699 -28.990900
vt 51.865700 -28.987200
vt 51.878399 -29.000000
vt 51.853001 -29.000000
vt 51.874699 -29.009100
vt 51.856701 -29.009100
vt 51.865700 -29.012800
vt 52.121399 -28.946501
vt 52.142601 -28.887899
vt 52.121399 -28.881701
vt 52.142601 -28.950701
vt 52.163700 -28.946501
vt 52.163700 -28.881701
vt 52.118900 -29.155800
vt 52.142601 -29.083401
vt 52.118900 -29.078100
vt 52.142601 -29.164200
vt 52.166302 -29.155800
vt 52.166302 -29.078100
vt 52.118900 -28.844200
vt 52.110199 -28.864100
vt 52.142601 -28.835800
vt 52.166302 -28.844200
vt 52.174999 -28.864100
vt 52.121399 -29.120001
vt 52.142601 -29.166300
vt 52.142601 -29.113701
vt 52.163700 -29.120001
vt 52.118900 -29.157900
vt 52.110199 -29.137800
vt 52.166302 -29.157900
vt 52.174999 -29.137800
vt 52.135899 -29.721399
vt 52.142101 -29.590799
vt 52.122299 -29.719299
vt 52.155701 -29.592699
vt 52.125301 -29.730400
vt 52.134300 -29.731800
vt 52.143299 -29.733200
vt 52.149502 -29.723499
vt 52.169300 -29.594601
vt 51.857399 -28.349199
vt 51.857399 -28.268400
vt 51.833698 -28.276800
vt 51.881100 -28.276800
vt 51.833698 -28.354401
vt 51.881100 -28.354401
vt 51.836300 -28.312599
vt 51.857399 -28.266199
vt 51.833698 -28.274700
vt 51.825001 -28.294800
vt 51.857399 -28.318800
vt 51.878601 -28.312599
vt 51.881100 -28.274700
vt 51.889801 -28.294800
vt 52.056301 -29.102699
vt 51.959301 -28.855000
vt 51.946499 -28.860300
vt 52.106899 -29.240900
vt 52.069000 -29.097401
vt 52.120499 -29.238800
vt 51.972000 -28.849800
vt 52.081699 -29.092100
vt 52.134201 -29.236700
vt 51.878601 -28.486000
vt 51.857399 -28.544701
vt 51.878601 -28.550900
vt 51.857399 -28.481899
vt 51.836300 -28.486000
vt 51.836300 -28.550900
vt 51.881100 -28.588400
vt 51.889801 -28.568501
vt 51.857399 -28.596701
vt 51.833698 -28.588400
vt 51.825001 -28.568501
vt 41.983299 -3.313880
vt 41.983299 -3.418440
vt 42.000000 -3.315180
vt 42.000000 -3.419580
vt 41.983299 -3.539210
vt 42.016701 -3.418440
vt 42.016701 -3.313880
vt 42.016701 -3.539210
vt 42.000000 -3.539200
vt 42.000000 -3.661390
vt 42.016701 -3.662350
vt 41.983299 -3.662350
vt 41.931900 -2.668900
vt 42.068100 -2.668900
vt 42.060200 -2.649800
vt 42.145199 -2.564720
vt 42.164299 -2.572630
vt 41.939800 -2.649800
vt 42.052898 -2.632160
vt 42.127602 -2.557420
vt 42.145199 -2.444410
vt 42.164299 -2.436490
vt 41.854801 -2.564720
vt 42.060200 -2.359330
vt 42.068100 -2.340230
vt 41.931900 -2.340230
vt 41.939800 -2.359330
vt 41.835701 -2.436490
vt 41.854801 -2.444410
vt 41.835701 -2.572630
vt 41.872398 -2.451710
vt 41.983601 -2.655820
vt 41.983398 -2.772430
vt 42.000000 -2.656110
vt 42.016602 -2.772430
vt 42.016399 -2.655820
vt 42.000000 -2.775000
vt 42.016602 -2.933470
vt 41.983398 -2.933470
vt 42.000000 -2.936130
vt 41.947102 -2.632160
vt 41.872398 -2.557420
vt 42.127602 -2.451710
vt 42.052898 -2.376960
vt 41.947102 -2.376960
vt 41.872700 -2.931930
vt 41.852299 -3.071460
vt 41.872700 -3.068070
vt 41.852299 -2.928540
vt 41.831799 -2.931930
vt 41.831799 -3.068070
vt 41.871101 -2.947150
vt 41.871101 -2.872400
vt 41.852299 -2.879030
vt 41.871101 -3.052850
vt 41.852299 -2.949890
vt 41.852299 -3.120970
vt 41.871101 -3.127600
vt 41.852299 -3.050110
vt 41.833500 -2.947150
vt 41.833500 -3.052850
vt 41.833500 -3.127600
vt 41.833500 -2.872400
vt 42.131802 -3.016590
vt 42.092300 -3.000000
vt 42.099098 -3.016660
vt 42.115501 -3.023520
vt 42.138500 -3.000000
vt 42.131802 -2.983410
vt 42.099098 -2.983340
vt 42.115501 -2.976480
vt 41.862000 -3.415690
vt 41.868198 -3.307710
vt 41.845699 -3.412950
vt 41.884499 -3.310780
vt 41.878502 -3.418440
vt 41.900902 -3.313880
vt 41.864399 -3.539210
vt 41.847698 -3.539230
vt 41.865898 -3.662350
vt 41.849400 -3.664660
vt 41.831100 -3.539270
vt 41.833000 -3.666990
vt 42.147701 -2.433110
vt 42.147701 -2.332050
vt 42.127300 -2.340230
vt 42.168201 -2.340230
vt 42.127300 -2.436490
vt 42.168201 -2.436490
vt 42.127300 -2.572630
vt 42.168201 -2.572630
vt 42.147701 -2.576020
vt 42.168201 -2.668900
vt 42.127300 -2.668900
vt 42.045898 -2.927030
vt 42.098900 -2.759900
vt 42.030602 -2.920580
vt 42.114300 -2.766180
vt 42.131199 -2.654110
vt 42.061199 -2.933470
vt 42.147900 -2.655020
vt 42.129700 -2.772430
vt 42.164299 -2.655820
vt 42.147701 -2.554670
vt 42.128899 -2.451710
vt 42.128899 -2.557420
vt 42.128899 -2.632160
vt 42.147701 -2.625540
vt 42.166500 -2.557420
vt 42.147701 -2.454460
vt 42.166500 -2.451710
vt 42.147701 -2.383590
vt 42.166500 -2.376960
vt 42.000000 -3.539290
vt 42.016602 -3.666990
vt 42.016602 -3.539270
vt 42.016602 -3.412950
vt 42.000000 -3.667950
vt 41.983398 -3.666990
vt 42.000000 -3.411810
vt 42.016602 -3.307710
vt 42.000000 -3.306460
vt 41.983398 -3.307710
vt 41.983398 -3.412950
vt 41.983398 -3.539270
vt 42.000000 -2.757300
vt 42.016701 -2.654110
vt 42.000000 -2.653720
vt 41.983299 -2.654110
vt 42.016602 -2.759900
vt 41.983398 -2.759900
vt 42.000000 -2.917910
vt 42.016602 -2.920580
vt 41.983398 -2.920580
vt 41.865898 -3.016660
vt 41.826199 -3.000000
vt 41.833000 -3.016590
vt 41.849400 -3.023520
vt 41.872799 -3.000000
vt 41.865898 -2.983340
vt 41.833000 -2.983410
vt 41.849400 -2.976480
vt 42.127300 -2.931930
vt 42.127300 -3.068070
vt 42.147701 -3.071460
vt 42.147701 -2.928540
vt 42.168201 -3.068070
vt 42.147701 -3.172510
vt 42.168201 -2.931930
vt 42.147701 -2.827490
vt 42.061199 -3.016620
vt 42.024200 -3.000000
vt 42.030602 -3.016630
vt 42.045898 -3.023520
vt 42.067600 -3.000000
vt 42.061199 -2.983380
vt 42.030602 -2.983370
vt 42.045898 -2.976480
vt 42.166500 -3.052850
vt 42.147701 -3.120970
vt 42.166500 -3.127600
vt 42.128899 -3.127600
vt 42.147701 -3.050110
vt 42.128899 -3.052850
vt 42.128899 -2.947150
vt 42.147701 -2.949890
vt 42.147701 -2.879030
vt 42.128899 -2.872400
vt 42.166500 -2.947150
vt 42.166500 -2.872400
vt 42.121498 -3.418440
vt 42.115501 -3.310780
vt 42.099098 -3.313880
vt 42.138000 -3.415690
vt 42.135601 -3.539210
vt 42.131802 -3.307710
vt 42.134102 -3.662350
vt 42.152302 -3.539230
vt 42.150600 -3.664660
vt 42.154301 -3.412950
vt 42.168900 -3.539270
vt 42.167000 -3.666990
vt 41.831799 -2.668900
vt 41.852299 -2.576020
vt 41.831799 -2.572630
vt 41.852299 -2.433110
vt 41.831799 -2.436490
vt 41.872700 -2.572630
vt 41.872700 -2.668900
vt 41.872700 -2.436490
vt 41.852299 -2.332050
vt 41.831799 -2.340230
vt 41.872700 -2.340230
vt 41.901100 -2.759900
vt 41.954102 -2.927030
vt 41.969398 -2.920580
vt 41.885700 -2.766180
vt 41.868801 -2.654110
vt 41.938801 -2.933470
vt 41.852100 -2.655020
vt 41.870300 -2.772430
vt 41.835701 -2.655820
vt 41.871101 -2.451710
vt 41.852299 -2.554670
vt 41.871101 -2.557420
vt 41.852299 -2.625540
vt 41.871101 -2.632160
vt 41.833500 -2.632160
vt 41.833500 -2.451710
vt 41.833500 -2.557420
vt 41.852299 -2.454460
s 1
usemtl Meshpart1Mtl.001
f 3/1/1 1/2/2 2/3/3
f 1/2/2 3/1/1 4/4/4
f 4/4/4 3/1/1 5/5/5
f 3/1/1 2/3/3 6/6/6
f 7/7/7 5/5/5 3/1/1
f 3/1/1 8/8/8 7/7/7
f 9/9/9 3/1/1 6/6/6
f 8/8/8 3/1/1 9/9/9
f 10/10/10 13/11/11 11/12/12
f 13/11/11 10/10/10 15/13/13
f 12/14/14 15/13/13 14/15/15
f 15/13/13 12/14/14 13/11/11
f 16/16/16 18/17/17 17/18/16
f 18/17/17 16/16/16 19/19/18
f 19/19/18 20/20/19 18/17/17
f 20/20/19 19/19/18 21/21/20
f 22/22/21 23/23/22 24/24/23
f 23/23/22 25/25/24 26/26/25
f 26/26/25 24/24/23 23/23/22
f 27/27/26 26/26/25 25/25/24
f 28/28/27 26/26/25 27/27/26
f 29/29/28 24/24/23 26/26/25
f 26/26/25 28/28/27 29/29/28
f 24/24/23 29/29/28 30/30/29
f 31/31/30 34/32/31 32/33/30
f 34/32/31 31/31/30 36/34/32
f 33/35/33 36/34/32 35/36/33
f 36/34/32 33/35/33 34/32/31
f 37/37/34 40/38/35 38/39/34
f 40/38/35 37/37/34 42/40/36
f 39/41/37 42/40/36 41/42/37
f 42/40/36 39/41/37 40/38/35
f 43/43/38 45/44/39 44/45/40
f 45/44/39 43/43/38 46/46/41
f 45/44/39 46/46/41 47/47/10
f 45/44/39 47/47/10 48/48/10
f 49/49/42 50/50/42 51/51/42
f 49/49/42 52/52/42 50/50/42
f 53/53/43 52/52/42 49/49/42
f 52/52/42 53/53/43 54/54/42
f 54/54/42 55/55/42 52/52/42
f 55/55/42 54/54/42 56/56/42
f 57/57/44 58/58/44 59/59/44
f 57/57/44 59/59/44 60/60/44
f 61/61/44 58/58/44 57/57/44
f 58/58/44 61/61/44 62/62/44
f 62/62/44 63/63/44 58/58/44
f 63/63/44 62/62/44 64/64/44
f 65/65/45 67/61/46 66/57/45
f 67/61/46 65/65/45 68/66/46
f 67/61/46 68/66/46 69/67/47
f 69/67/47 70/62/47 67/61/46
f 71/68/48 72/69/49 73/70/50
f 74/71/3 73/70/50 72/69/49
f 72/69/49 75/72/51 74/71/3
f 75/72/51 72/69/49 76/73/52
f 77/74/53 76/73/52 72/69/49
f 72/69/49 78/75/54 77/74/53
f 79/76/55 78/75/54 71/68/48
f 72/69/49 71/68/48 78/75/54
f 84/77/56 80/78/57 82/79/57
f 81/80/58 84/77/56 83/81/58
f 80/78/57 84/77/56 85/82/59
f 84/77/56 81/80/58 85/82/59
f 86/79/60 87/83/60 88/77/60
f 87/83/60 89/81/60 88/77/60
f 87/83/60 86/79/60 90/84/60
f 90/84/60 86/79/60 91/85/60
f 89/81/60 87/83/60 92/86/60
f 89/81/60 92/86/60 93/87/60
f 96/88/61 95/89/22 94/90/62
f 95/89/22 96/88/61 97/91/48
f 98/92/63 97/91/48 96/88/61
f 97/91/48 99/93/64 95/89/22
f 99/93/64 97/91/48 100/94/65
f 97/91/48 98/92/63 101/95/66
f 100/94/65 101/95/66 102/96/67
f 101/95/66 100/94/65 97/91/48
f 103/97/68 105/98/59 104/99/68
f 105/98/59 103/97/68 106/100/69
f 105/98/59 106/100/69 107/101/70
f 107/101/70 108/102/70 105/98/59
f 109/103/71 110/104/72 111/105/73
f 109/103/71 111/105/73 112/106/73
f 113/107/71 110/104/72 109/103/71
f 110/104/72 113/107/71 114/108/71
f 114/108/71 115/109/71 110/104/72
f 115/109/71 114/108/71 116/110/71
f 120/111/74 122/112/75 121/113/76
f 119/114/77 123/115/78 120/111/74
f 123/115/78 119/114/77 118/116/79
f 122/112/75 120/111/74 123/115/78
f 117/117/53 123/115/78 118/116/79
f 124/118/54 122/112/75 123/115/78
f 123/115/78 117/117/53 124/118/54
f 122/112/75 124/118/54 125/119/80
f 126/120/81 127/121/82 128/122/83
f 128/122/83 129/123/84 126/120/81
f 127/121/82 126/120/81 130/124/85
f 130/124/85 131/125/85 127/121/82
f 132/126/86 133/127/86 134/128/87
f 134/128/87 135/129/88 132/126/86
f 135/129/88 134/128/87 136/130/89
f 136/130/89 137/131/89 135/129/88
f 142/132/90 140/133/91 141/134/92
f 143/135/93 139/136/94 140/133/91
f 140/133/91 142/132/90 143/135/93
f 139/136/94 143/135/93 144/137/95
f 143/135/93 138/138/96 144/137/95
f 142/132/90 145/139/66 143/135/93
f 138/138/96 143/135/93 145/139/66
f 145/139/66 142/132/90 146/140/67
f 147/141/97 148/142/98 149/143/99
f 148/142/98 147/141/97 150/144/100
f 151/145/68 149/143/99 148/142/98
f 149/143/99 151/145/68 152/146/68
f 153/147/101 154/148/102 155/149/103
f 154/148/102 153/147/101 156/150/101
f 157/151/104 155/149/103 154/148/102
f 155/149/103 157/151/104 158/152/104
f 161/153/53 159/154/105 160/155/52
f 159/154/105 161/153/53 163/156/106
f 163/156/106 161/153/53 165/157/79
f 163/156/106 165/157/79 162/158/107
f 162/158/107 166/159/77 164/160/108
f 162/158/107 165/157/79 166/159/77
f 167/161/109 169/162/110 168/163/111
f 169/162/110 167/161/109 170/164/112
f 171/165/113 169/162/110 170/164/112
f 169/162/110 171/165/113 172/166/114
f 173/167/101 175/168/112 174/169/101
f 175/168/112 173/167/101 176/170/115
f 175/168/112 176/170/115 177/171/116
f 177/171/116 178/172/116 175/168/112
f 179/163/117 180/173/117 181/174/117
f 179/163/117 182/175/117 180/173/117
f 183/162/117 182/175/117 179/163/117
f 182/175/117 183/162/117 184/166/117
f 184/166/117 185/176/117 182/175/117
f 185/176/117 184/166/117 186/177/117
f 187/178/118 188/179/118 189/180/119
f 188/179/118 190/181/118 189/180/119
f 188/179/118 187/178/118 191/182/118
f 191/182/118 187/178/118 192/183/118
f 190/181/118 188/179/118 193/184/118
f 190/181/118 193/184/118 194/185/120
f 197/186/121 195/187/5 196/188/122
f 195/187/5 197/186/121 198/189/123
f 196/188/122 199/190/107 197/186/121
f 197/186/121 199/190/107 200/191/108
f 201/192/77 197/186/121 200/191/108
f 202/193/124 198/189/123 197/186/121
f 197/186/121 201/192/77 202/193/124
f 198/189/123 202/193/124 203/194/125
f 204/195/126 205/196/127 206/197/16
f 204/195/126 207/198/128 205/196/127
f 206/197/16 208/199/16 204/195/126
f 207/198/128 204/195/126 209/200/128
f 210/201/129 211/202/129 212/203/129
f 210/201/129 212/203/129 213/204/129
f 214/205/129 211/202/129 210/201/129
f 211/202/129 214/205/129 215/206/129
f 215/206/129 216/207/129 211/202/129
f 216/207/129 215/206/129 217/208/129
f 219/209/130 221/210/131 220/211/29
f 218/212/132 222/213/133 219/209/130
f 221/210/131 219/209/130 222/213/133
f 222/213/133 218/212/132 223/214/134
f 222/213/133 224/215/135 221/210/131
f 223/214/134 225/216/91 222/213/133
f 224/215/135 222/213/133 225/216/91
f 225/216/91 223/214/134 226/217/92
f 227/218/136 229/219/137 228/220/136
f 229/219/137 227/218/136 230/221/137
f 231/222/138 229/219/137 230/221/137
f 229/219/137 231/222/138 232/223/138
f 233/220/139 234/224/139 235/225/139
f 233/220/139 236/226/139 234/224/139
f 237/219/139 236/226/139 233/220/139
f 236/226/139 237/219/139 238/223/139
f 238/223/139 239/227/139 236/226/139
f 239/227/139 238/223/139 240/228/139
usemtl Meshpart2Mtl.001
f 242/229/140 241/230/141 243/231/142
f 245/232/143 243/231/142 241/230/141
f 241/230/141 244/233/144 245/232/143
f 246/234/145 243/231/142 245/232/143
f 243/231/142 246/234/145 247/235/146
f 245/232/143 248/236/147 246/234/145
f 248/236/147 245/232/143 249/237/148
f 249/237/148 245/232/143 244/233/144
f 249/237/148 250/238/149 248/236/147
f 244/233/144 250/238/149 249/237/148
f 251/239/150 248/236/147 250/238/149
f 250/238/149 244/233/144 252/240/151
f 254/241/152 253/242/153 256/243/154
f 253/242/153 257/244/155 256/243/154
f 257/244/155 253/242/153 255/245/156
f 254/241/152 256/243/154 258/246/157
f 257/244/155 259/247/158 256/243/154
f 258/246/157 256/243/154 259/247/158
f 259/247/158 257/244/155 260/248/159
f 255/245/156 261/249/160 257/244/155
f 261/249/160 260/248/159 257/244/155
f 255/245/156 262/250/161 261/249/160
f 263/251/162 254/241/152 258/246/157
f 264/252/163 261/249/160 262/250/161
f 262/250/161 265/253/164 264/252/163
f 265/253/164 266/254/165 267/255/166
f 265/253/164 267/255/166 264/252/163
f 268/256/167 267/255/166 266/254/165
f 267/255/166 268/256/167 269/257/168
f 270/258/169 269/257/168 268/256/167
f 254/241/152 263/251/162 270/258/169
f 269/257/168 270/258/169 263/251/162
f 267/255/166 269/257/168 271/259/170
f 263/251/162 271/259/170 269/257/168
f 275/260/171 274/261/172 276/262/173
f 276/262/173 277/263/174 278/264/175
f 279/265/176 273/266/177 277/263/174
f 277/263/174 276/262/173 279/265/176
f 279/265/176 276/262/173 274/261/172
f 274/261/172 272/267/178 279/265/176
f 273/266/177 279/265/176 280/268/179
f 280/268/179 279/265/176 272/267/178
f 258/246/157 259/247/158 281/269/180
f 282/270/181 258/246/157 281/269/180
f 258/246/157 282/270/181 263/251/162
f 271/259/170 263/251/162 282/270/181
f 260/248/159 261/249/160 283/271/182
f 264/252/163 283/271/182 261/249/160
f 283/271/182 264/252/163 284/272/183
f 264/252/163 285/273/184 284/272/183
f 267/255/166 271/259/170 285/273/184
f 264/252/163 267/255/166 285/273/184
f 291/274/185 288/275/186 290/276/187
f 288/275/186 291/274/185 292/277/188
f 293/278/165 288/275/186 292/277/188
f 288/275/186 293/278/165 289/279/164
f 295/280/189 294/281/190 296/282/191
f 298/283/192 295/280/193 299/284/186
f 298/283/192 300/285/194 297/286/195
f 299/284/186 301/287/188 298/283/192
f 301/287/188 299/284/186 302/288/196
f 302/288/196 286/289/197 301/287/188
f 287/290/159 301/287/188 286/289/197
f 302/288/198 296/282/199 303/291/181
f 304/292/200 305/293/200 306/294/201
f 304/292/200 306/294/201 307/295/200
f 308/296/200 305/293/200 304/292/200
f 309/297/200 305/293/200 308/296/200
f 305/293/200 309/297/200 310/298/202
f 310/298/202 309/297/200 311/299/202
f 312/300/203 313/301/204 314/302/205
f 313/301/204 312/300/203 315/303/206
f 316/304/207 315/303/206 312/300/203
f 315/303/206 316/304/207 317/305/208
f 312/300/203 318/306/209 316/304/207
f 320/307/203 319/308/151 318/306/209
f 318/306/209 312/300/203 320/307/203
f 319/308/151 320/307/203 321/309/210
f 314/302/205 320/307/203 312/300/203
f 322/310/211 321/309/210 320/307/203
f 320/307/203 314/302/205 322/310/211
f 321/309/210 322/310/211 323/311/212
f 332/312/194 329/313/188 328/314/185
f 332/312/194 331/315/165 329/313/188
f 328/314/185 333/316/213 332/312/194
f 331/315/165 332/312/194 334/317/214
f 335/318/215 332/312/194 333/316/213
f 336/319/169 334/317/214 332/312/194
f 332/312/194 326/320/216 336/319/169
f 332/312/194 335/318/215 326/320/216
f 325/321/217 336/319/169 326/320/216
f 324/322/218 326/320/216 335/318/215
f 340/323/219 338/324/220 339/325/221
f 338/324/220 340/323/219 341/326/222
f 341/326/222 337/327/223 338/324/220
f 342/328/178 341/326/222 340/323/219
f 337/327/223 341/326/222 343/329/224
f 344/330/225 343/329/224 341/326/222
f 341/326/222 342/328/178 344/330/225
f 343/329/224 344/330/225 345/331/171
f 348/332/226 330/333/227 346/334/195
f 348/332/226 347/335/228 349/336/229
f 349/336/229 327/337/159 348/332/226
f 327/337/159 350/338/230 348/332/226
f 330/333/227 348/332/226 350/338/230
f 350/338/230 327/337/159 351/339/182
f 353/340/231 330/333/227 350/338/230
f 350/338/230 352/341/183 353/340/231
f 359/342/232 358/343/212 357/344/233
f 355/345/234 359/342/232 357/344/233
f 358/343/212 359/342/232 360/346/235
f 359/342/232 361/347/236 360/346/235
f 359/342/232 355/345/234 362/348/237
f 354/349/238 362/348/237 355/345/234
f 362/348/237 354/349/238 363/350/239
f 356/351/240 362/348/237 363/350/239
f 362/348/237 356/351/240 364/352/241
f 364/352/241 359/342/232 362/348/237
f 359/342/232 364/352/241 365/353/242
f 361/347/236 359/342/232 365/353/242
f 367/241/243 370/251/244 368/258/245
f 368/258/245 371/257/246 369/256/247
f 371/257/246 368/258/245 370/251/244
f 372/255/248 369/256/247 371/257/246
f 369/256/247 372/255/248 373/254/187
f 372/255/248 374/253/249 373/254/187
f 372/255/248 371/257/246 375/259/250
f 374/253/249 372/255/248 376/252/251
f 377/250/252 374/253/249 376/252/251
f 378/245/253 377/250/252 379/249/254
f 376/252/251 379/249/254 377/250/252
f 380/244/255 366/242/218 378/245/253
f 378/245/253 379/249/254 380/244/255
f 381/354/256 382/355/223 383/356/257
f 384/357/258 381/354/256 383/356/257
f 382/355/223 381/354/256 385/358/259
f 381/354/256 384/357/258 386/359/260
f 387/360/261 385/358/259 381/354/256
f 386/359/260 387/360/261 381/354/256
f 385/358/259 387/360/261 388/361/262
f 387/360/261 386/359/260 389/362/263
f 376/252/251 390/271/264 379/249/254
f 380/244/255 379/249/254 390/271/264
f 366/242/218 380/244/255 391/243/265
f 367/241/243 366/242/218 391/243/265
f 392/248/266 391/243/265 380/244/255
f 380/244/255 390/271/264 392/248/266
f 391/243/265 393/246/267 367/241/243
f 370/251/244 367/241/243 393/246/267
f 391/243/265 392/248/266 394/247/193
f 393/246/267 391/243/265 394/247/193
f 393/246/267 395/270/268 370/251/244
f 371/257/246 370/251/244 395/270/268
f 394/247/193 396/269/228 393/246/267
f 395/270/268 393/246/267 396/269/228
f 371/257/246 395/270/268 375/259/250
f 375/259/250 397/273/269 372/255/248
f 397/273/269 376/252/251 372/255/248
f 376/252/251 397/273/269 398/272/270
f 390/271/264 376/252/251 398/272/270
f 399/363/271 400/364/271 401/365/271
f 399/363/271 401/365/271 402/366/271
f 403/367/271 400/364/271 399/363/271
f 404/368/271 400/364/271 403/367/271
f 400/364/271 404/368/271 405/369/271
f 405/369/271 404/368/271 406/370/271
f 407/371/272 408/372/273 409/373/274
f 409/373/274 410/374/231 407/371/272
f 410/374/231 409/373/274 411/375/153
f 412/376/275 409/373/274 408/372/273
f 412/376/275 411/375/153 409/373/274
f 411/375/153 413/377/217 410/374/231
f 414/378/276 410/374/231 413/377/217
f 414/378/276 407/371/272 410/374/231
f 417/379/277 418/380/277 419/381/278
f 417/379/277 419/381/278 420/382/277
f 421/383/278 418/380/277 417/379/277
f 422/384/277 418/380/277 421/383/278
f 418/380/277 422/384/277 423/385/278
f 423/385/278 422/384/277 424/386/277
f 428/387/183 426/388/216 427/389/279
f 415/390/250 429/391/280 430/392/281
f 429/391/280 431/393/282 430/392/281
f 428/387/283 432/394/274 429/391/280
f 431/393/282 429/391/280 432/394/274
f 431/393/282 433/395/275 425/396/284
f 433/395/275 431/393/282 432/394/274
f 434/397/184 433/395/275 432/394/274
f 434/397/184 416/398/170 433/395/275
f 432/394/274 428/387/283 434/397/184
f 435/399/285 437/400/286 436/401/287
f 437/400/286 435/399/285 439/402/288
f 438/403/147 439/402/288 435/399/285
f 439/402/288 440/404/289 437/400/286
f 441/405/290 442/406/288 438/403/147
f 439/402/288 438/403/147 442/406/288
f 442/406/288 441/405/290 443/407/291
f 440/404/289 439/402/288 445/408/292
f 442/406/288 445/408/292 439/402/288
f 445/408/292 442/406/288 446/409/293
f 443/407/291 446/409/293 442/406/288
f 446/409/293 443/407/291 444/410/236
f 448/411/294 449/412/295 450/413/156
f 452/414/296 450/413/156 449/412/295
f 450/413/156 452/414/296 451/415/161
f 452/414/296 449/412/295 453/416/245
f 447/417/273 453/416/245 449/412/295
f 453/416/245 454/418/247 452/414/296
f 455/419/186 451/415/161 452/414/296
f 454/418/247 455/419/186 452/414/296
f 451/415/161 455/419/186 456/420/164
f 455/419/186 454/418/247 457/421/187
f 460/422/297 462/423/298 461/424/263
f 462/423/298 460/422/297 463/425/299
f 459/426/258 463/425/299 460/422/297
f 463/425/299 464/427/300 462/423/298
f 465/428/301 463/425/299 459/426/258
f 465/428/301 466/429/174 463/425/299
f 464/427/300 463/425/299 466/429/174
f 467/430/302 466/429/174 465/428/301
f 468/431/284 471/432/303 469/433/190
f 471/432/191 472/434/186 470/435/189
f 471/432/191 473/436/304 472/434/186
f 471/432/303 458/437/170 474/438/305
f 471/432/303 468/431/284 475/439/306
f 458/437/170 471/432/303 475/439/306
