# Blender 5.2.0 LTS
# www.blender.org
mtllib crabs over pump.mtl
o Crab_Claws.001
v -1.410457 0.171728 -0.085662
v -1.391733 0.175677 -0.110059
v -1.364152 0.147336 -0.119295
v -1.338225 0.133923 -0.075280
v -1.223979 0.233034 -0.116592
v -1.183069 0.232756 -0.068517
v -1.105750 0.268577 -0.112862
v -0.755004 0.285183 0.020738
v -0.869654 0.309198 0.015312
v -0.819456 0.270807 -0.050160
v -0.882118 0.269293 -0.051186
v -0.952064 0.281866 -0.003384
v -0.948714 0.224728 -0.063591
v -1.027585 0.266991 -0.058330
v -1.053864 0.288971 -0.007883
v -1.088897 0.212447 -0.070762
v -1.115710 0.263514 -0.017142
v -1.183069 0.232756 -0.068517
v -1.241303 0.222133 -0.028286
v -1.338225 0.133923 -0.075280
v -1.059366 0.294511 -0.114835
v -1.027585 0.266991 -0.058330
v -0.976268 0.299566 -0.113771
v -0.948714 0.224728 -0.063591
v -0.930711 0.303602 -0.120221
v -0.882118 0.269293 -0.051186
v -0.805099 0.313271 -0.116323
v -0.819456 0.270807 -0.050160
v -0.747186 0.222233 -0.054905
v -0.731167 0.276624 -0.108897
v -0.648864 0.239546 -0.042243
v -0.588549 0.255130 -0.121318
v -0.563913 0.178223 -0.041827
v -0.429675 -0.145002 -0.181799
v -0.445379 -0.199769 -0.057927
v -0.381564 -0.238853 -0.057083
v -0.360135 -0.186191 -0.180499
v -0.173348 -0.259446 -0.050057
v -0.133133 -0.214051 -0.182343
v -0.016611 -0.241752 -0.054137
v -0.102475 -0.100066 -0.293370
v 0.014861 -0.194121 -0.189428
v 0.108796 -0.202849 -0.048296
v 0.118507 -0.166264 -0.176129
v 0.280159 -0.219793 -0.039516
v 0.053767 -0.087774 -0.300094
v 0.124918 -0.076379 -0.282704
v 0.286937 -0.110184 -0.260898
v 0.278517 -0.187793 -0.164296
v 0.279337 -0.203793 -0.101906
v 0.386047 -0.144748 -0.270861
v 0.379535 -0.222369 -0.166704
v 0.456187 -0.141339 -0.249482
v 0.453734 -0.203225 -0.152484
v 0.377934 -0.235818 -0.098145
v 0.448841 -0.214053 -0.028860
v 0.376333 -0.249268 -0.029586
v 0.443948 -0.224882 0.094762
v -0.173348 -0.259446 -0.050057
v -0.376820 -0.197745 0.074897
v -0.381564 -0.238853 -0.057083
v -0.441566 -0.160637 0.069457
v -0.445379 -0.199769 -0.057927
v -0.163259 -0.229932 0.074692
v -0.016611 -0.241752 -0.054137
v -0.129884 -0.135598 0.198126
v -0.004167 -0.211341 0.084448
v 0.104296 -0.180778 0.082934
v 0.108796 -0.202849 -0.048296
v -0.563913 0.178223 -0.041827
v 0.103701 -0.104326 0.201880
v 0.265972 -0.201732 0.095268
v 0.264691 -0.135476 0.203536
v 0.365312 -0.237553 0.110556
v 0.432114 -0.168314 0.221540
v 0.360053 -0.172579 0.226797
v -0.571277 0.240716 0.072651
v -0.639397 0.271796 0.039990
v -0.648864 0.239546 -0.042243
v -0.747186 0.222233 -0.054905
v -0.665034 0.353990 0.101449
v -0.755004 0.285183 0.020738
v -0.869654 0.309198 0.015312
v -0.775975 0.444321 0.132216
v -0.882118 0.269293 -0.051186
v -0.952064 0.281866 -0.003384
v -0.948714 0.224728 -0.063591
v -0.892427 0.443093 0.116541
v -0.860625 0.527816 0.146267
v -0.515718 0.482744 0.216124
v -1.053864 0.288971 -0.007883
v -1.088897 0.212447 -0.070762
v -1.029561 0.357240 0.041651
v -1.115710 0.263514 -0.017142
v -1.241303 0.222133 -0.028286
v -1.338225 0.133923 -0.075280
v -1.230303 0.288998 0.018784
v -1.375466 0.150990 -0.048693
v -1.416462 0.082132 -0.090011
v -1.410457 0.171728 -0.085662
v -1.031703 0.420536 0.076880
v -1.266854 0.314962 0.014927
v -1.388283 0.191302 -0.048310
v -0.999995 0.480288 0.100399
v -1.267825 0.436022 -0.013408
v -1.124507 0.469971 0.065499
v -1.129768 0.588734 0.015926
v -1.089504 0.545725 0.062276
v -0.995681 0.530616 0.097548
v -0.959708 0.619489 0.069532
v -0.869155 0.580871 0.131123
v -0.909681 0.705167 0.031872
v -0.675074 0.764757 0.056100
v -0.796331 0.667591 0.108062
v -0.701417 0.610497 0.160280
v -0.493594 0.669142 0.147352
v -0.491186 0.566825 0.204249
v -0.354910 0.467065 0.281232
v -0.341600 0.626917 0.205857
v -0.092761 0.580101 0.233307
v -0.312231 0.730990 0.113701
v -0.376820 -0.197745 0.074897
v -0.441566 -0.160637 0.069457
v -0.129884 -0.135598 0.198126
v -0.518189 0.140092 0.078741
v 0.103701 -0.104326 0.201880
v 0.264691 -0.135476 0.203536
v 0.432114 -0.168314 0.221540
v 0.360053 -0.172579 0.226797
v 0.447457 -0.044086 0.277244
v 0.376768 -0.016070 0.299386
v 0.494154 0.224891 0.288812
v 0.424962 0.243325 0.304670
v 0.520134 0.338710 0.251256
v 0.278415 -0.022444 0.265860
v 0.300854 0.114921 0.288970
v 0.123055 0.014969 0.275582
v 0.453432 0.368831 0.259537
v 0.350951 0.370285 0.234715
v 0.188668 0.395632 0.232765
v 0.324953 0.253679 0.282808
v 0.142732 0.146761 0.304068
v 0.160002 0.274356 0.294646
v 0.073767 0.493374 0.244791
v 0.042442 0.171214 0.335030
v -0.025506 0.384645 0.316876
v 0.015185 0.012115 0.298588
v -0.178303 0.228019 0.333964
v -0.309599 0.055710 0.281826
v -0.373200 0.281698 0.308897
v -0.388697 -0.070154 0.188246
v -0.437732 0.022155 0.178181
v -0.401191 0.117056 0.264275
v -0.508820 0.350895 0.199021
v -0.571277 0.240716 0.072651
v -0.607344 0.424914 0.168394
v -0.639397 0.271796 0.039990
v -0.665034 0.353990 0.101449
v -0.486931 0.375070 -0.258671
v -0.514741 0.280764 -0.201389
v -0.372782 0.150003 -0.338170
v -1.111469 0.603464 -0.110897
v -1.149675 0.611953 -0.048202
v -1.231196 0.486900 -0.111576
v -1.277910 0.473675 -0.061676
v -1.326524 0.325438 -0.117464
v -1.410457 0.171728 -0.085662
v -1.391733 0.175677 -0.110059
v -1.375466 0.150990 -0.048693
v -1.410457 0.171728 -0.085662
v -1.388283 0.191302 -0.048310
v -1.277910 0.473675 -0.061676
v -1.267825 0.436022 -0.013408
v -1.129768 0.588734 0.015926
v -1.149675 0.611953 -0.048202
v -0.588549 0.255130 -0.121318
v -0.563913 0.178223 -0.041827
v -0.513375 0.141984 -0.139780
v -0.481069 -0.082851 -0.052291
v -0.429675 -0.145002 -0.181799
v -0.445379 -0.199769 -0.057927
v -0.414029 0.060702 -0.271984
v -0.367314 -0.060094 -0.275941
v -0.441566 -0.160637 0.069457
v -0.445379 -0.199769 -0.057927
v -0.481069 -0.082851 -0.052291
v -0.518189 0.140092 0.078741
v -0.563913 0.178223 -0.041827
v -0.388697 -0.070154 0.188246
v -0.437732 0.022155 0.178181
v -0.401191 0.117056 0.264275
v -0.508820 0.350895 0.199021
v -0.571277 0.240716 0.072651
v -0.087452 0.750706 0.010295
v -0.304916 0.744935 -0.112016
v -0.405816 0.778486 -0.002657
v -0.441836 0.751786 -0.094252
v -0.635607 0.801335 -0.012699
v -0.054529 0.708049 -0.114328
v 0.072827 0.679898 0.008753
v 0.090157 0.636951 -0.125127
v 0.234037 0.512859 -0.004454
v -0.008183 0.588140 -0.239087
v 0.231580 0.494071 -0.132817
v 0.397788 0.468042 0.012195
v 0.136699 0.488438 -0.259585
v -0.650869 0.772642 -0.088716
v -0.885422 0.718186 -0.097145
v -0.940378 0.729662 -0.031337
v -1.111469 0.603464 -0.110897
v -1.149675 0.611953 -0.048202
v -1.129768 0.588734 0.015926
v -1.149675 0.611953 -0.048202
v -0.940378 0.729662 -0.031337
v -0.909681 0.705167 0.031872
v -0.675074 0.764757 0.056100
v -0.635607 0.801335 -0.012699
v -0.493594 0.669142 0.147352
v -0.458805 0.743085 0.079480
v -0.405816 0.778486 -0.002657
v -0.092761 0.580101 0.233307
v -0.312231 0.730990 0.113701
v -0.087452 0.750706 0.010295
v -0.068673 0.696426 0.128108
v 0.074083 0.624732 0.132527
v 0.072827 0.679898 0.008753
v 0.478623 0.394430 -0.234819
v 0.543233 0.362463 -0.214658
v 0.497365 0.453655 -0.122489
v 0.560501 0.407581 -0.111879
v 0.211011 0.424505 -0.248240
v 0.372908 0.395534 -0.227897
v 0.390164 0.456077 -0.122714
v 0.393975 0.462059 -0.055258
v 0.499350 0.457614 -0.053504
v 0.501335 0.461573 0.015481
v 0.557255 0.404156 0.009922
v 0.520134 0.338710 0.251256
v 0.453432 0.368831 0.259537
v 0.483514 0.439048 0.152191
v 0.350951 0.370285 0.234715
v 0.554010 0.400731 0.131722
v 0.501335 0.461573 0.015481
v 0.557255 0.404156 0.009922
v 0.397788 0.468042 0.012195
v 0.377778 0.441837 0.135351
v 0.221063 0.478062 0.124514
v 0.234037 0.512859 -0.004454
v 0.188668 0.395632 0.232765
v 0.073767 0.493374 0.244791
v -0.676797 0.470991 -0.219198
v -0.867180 0.536312 -0.219419
v -0.590040 0.543956 -0.244841
v -0.883117 0.464748 -0.204693
v -0.946914 0.527081 -0.200835
v -0.568147 0.410474 -0.228596
v -0.847653 0.602037 -0.203071
v -0.867770 0.657751 -0.156972
v -0.654143 0.707426 -0.158060
v -0.644845 0.630473 -0.213834
v -0.472712 0.590281 -0.239757
v -0.468314 0.479889 -0.277873
v -0.344923 0.505585 -0.308596
v -0.347097 0.315341 -0.362329
v -0.486931 0.375070 -0.258671
v -0.514741 0.280764 -0.201389
v -0.372782 0.150003 -0.338170
v -0.304916 0.744935 -0.112016
v -0.441836 0.751786 -0.094252
v -0.054529 0.708049 -0.114328
v -0.321242 0.649763 -0.218868
v -0.008183 0.588140 -0.239087
v 0.136699 0.488438 -0.259585
v -0.455408 0.675613 -0.179945
v -0.022443 0.430418 -0.337771
v -0.650869 0.772642 -0.088716
v -0.885422 0.718186 -0.097145
v -1.111469 0.603464 -0.110897
v -1.231196 0.486900 -0.111576
v -1.093328 0.552467 -0.155491
v -1.326524 0.325438 -0.117464
v -1.085580 0.504077 -0.176776
v -1.410457 0.171728 -0.085662
v -1.253515 0.330404 -0.157500
v -1.391733 0.175677 -0.110059
v -1.306143 0.227699 -0.140235
v -1.364152 0.147336 -0.119295
v -1.416462 0.082132 -0.090011
v -1.223979 0.233034 -0.116592
v -1.183069 0.232756 -0.068517
v -1.163235 0.363817 -0.167428
v -1.101009 0.322624 -0.144162
v -1.105750 0.268577 -0.112862
v -1.088897 0.212447 -0.070762
v -1.059366 0.294511 -0.114835
v -1.005014 0.438340 -0.182710
v -0.963258 0.361148 -0.151769
v -0.976268 0.299566 -0.113771
v -0.948714 0.224728 -0.063591
v -0.930711 0.303602 -0.120221
v -0.882118 0.269293 -0.051186
v -0.805099 0.313271 -0.116323
v -0.731167 0.276624 -0.108897
v -0.670185 0.368274 -0.173020
v -0.588549 0.255130 -0.121318
v -0.513375 0.141984 -0.139780
v -0.429675 -0.145002 -0.181799
v -0.414029 0.060702 -0.271984
v -0.360135 -0.186191 -0.180499
v -0.367314 -0.060094 -0.275941
v -0.102475 -0.100066 -0.293370
v -0.268968 0.084716 -0.354885
v 0.013626 0.050214 -0.367077
v 0.053767 -0.087774 -0.300094
v 0.124918 -0.076379 -0.282704
v 0.116766 0.039504 -0.344066
v 0.010810 0.233313 -0.387144
v 0.151891 0.173923 -0.351414
v 0.295639 0.004772 -0.302653
v 0.286937 -0.110184 -0.260898
v 0.405402 -0.016720 -0.309236
v 0.386047 -0.144748 -0.270861
v 0.456187 -0.141339 -0.249482
v 0.473311 -0.025574 -0.279968
v 0.446683 0.249833 -0.299003
v 0.520480 0.249653 -0.262115
v 0.327816 0.147574 -0.305567
v 0.478623 0.394430 -0.234819
v 0.543233 0.362463 -0.214658
v 0.355724 0.287611 -0.284010
v 0.189698 0.313509 -0.316933
v 0.120011 0.354550 -0.341126
v 0.211011 0.424505 -0.248240
v 0.372908 0.395534 -0.227897
v 0.560501 0.407581 -0.111879
v 0.569522 0.296307 -0.165442
v 0.543233 0.362463 -0.214658
v 0.520480 0.249653 -0.262115
v 0.582917 0.331305 -0.085719
v 0.557255 0.404156 0.009922
v 0.551872 0.208803 -0.202252
v 0.580398 0.328648 0.008760
v 0.402271 0.113985 -0.005250
v 0.577880 0.325991 0.103238
v 0.554010 0.400731 0.131722
v 0.515285 -0.004685 -0.216102
v 0.473311 -0.025574 -0.279968
v 0.551605 0.277883 0.195959
v 0.520134 0.338710 0.251256
v 0.494154 0.224891 0.288812
v 0.502001 -0.094480 -0.192453
v 0.456187 -0.141339 -0.249482
v 0.453734 -0.203225 -0.152484
v 0.531453 0.189597 0.225090
v 0.447457 -0.044086 0.277244
v 0.500099 -0.142485 -0.117213
v 0.448841 -0.214053 -0.028860
v 0.495231 -0.019043 0.216117
v 0.496304 -0.150885 -0.021322
v 0.492508 -0.159283 0.074571
v 0.443948 -0.224882 0.094762
v 0.483330 -0.115404 0.172909
v 0.432114 -0.168314 0.221540
v -1.364152 0.147336 -0.119295
v -1.416462 0.082132 -0.090011
v -1.338225 0.133923 -0.075280
v -1.027585 0.266991 -0.058330
v -1.053864 0.288971 -0.007883
v -1.088897 0.212447 -0.070762
v -1.088897 0.212447 -0.070762
v -1.059366 0.294511 -0.114835
v -1.027585 0.266991 -0.058330
v -0.636015 -0.270343 -0.017546
v -0.929230 -0.254388 -0.000506
v -0.918059 -0.281069 -0.068885
v -0.637121 -0.293600 -0.070722
v -1.065875 -0.171259 -0.066762
v -0.439746 -0.209093 -0.006542
v -0.442411 -0.225495 -0.064481
v -1.067647 -0.140877 -0.019678
v -1.192411 -0.103071 -0.064049
v -1.168121 -0.074783 0.003633
v -1.248063 0.016843 0.002366
v -1.278922 0.021962 -0.057215
v -0.439066 -0.204375 -0.120817
v -1.278931 0.021962 -0.057382
v -1.236825 0.010980 -0.125026
v -1.192420 -0.103071 -0.064216
v -1.175560 -0.061770 -0.129583
v -1.070301 -0.137224 -0.108896
v -1.065884 -0.171259 -0.066929
v -0.924566 -0.248332 -0.138156
v -0.918068 -0.281069 -0.069052
v -0.635394 -0.266034 -0.121948
v -0.637130 -0.293600 -0.070889
v -0.442420 -0.225495 -0.064648
v -0.636024 -0.270343 -0.017713
v -0.631853 -0.186623 0.043732
v -0.929239 -0.254388 -0.000673
v -0.439755 -0.209093 -0.006709
v -0.430448 -0.152642 0.058395
v -1.067656 -0.140877 -0.019844
v -0.920698 -0.176382 0.051822
v -0.592777 -0.082975 0.062208
v -0.890690 -0.086037 0.090822
v -0.419404 -0.083850 0.078929
v -1.041644 -0.056162 0.036533
v -1.168130 -0.074783 0.003466
v -1.248072 0.016843 0.002199
v -1.278931 0.021962 -0.057382
v -1.185614 0.020390 0.032907
v -1.030990 0.011638 0.051994
v -1.257538 0.115950 -0.018651
v -1.310291 0.175852 -0.053286
v -1.204251 0.072918 0.021743
v -1.064499 0.102578 -0.011471
v -1.035533 0.054457 0.036702
v -0.830756 0.046374 0.011703
v -0.933067 0.037923 0.059289
v -0.914936 -0.007370 0.082785
v -0.783742 0.000279 0.053911
v -0.581665 0.035758 0.014502
v -0.401721 0.027355 0.018964
v -0.751222 -0.058744 0.079456
v -1.241469 0.015345 -0.001138
v -1.277951 0.022454 -0.057448
v -1.256985 0.116628 -0.017623
v -1.006654 0.090010 -0.062487
v -0.940898 0.084220 0.001994
v -0.933684 0.129085 -0.052775
v -0.875515 0.077581 -0.060237
v -0.830747 0.046374 0.011870
v -0.805999 0.105020 -0.054254
v -0.933684 0.129085 -0.052775
v -1.024806 0.066779 -0.146089
v -1.006654 0.090010 -0.062487
v -1.229615 0.089769 -0.124304
v -1.278922 0.021962 -0.057215
v -1.236816 0.010980 -0.124859
v -1.257538 0.115950 -0.018651
v -1.310291 0.175852 -0.053286
v -1.177740 0.126436 -0.059984
v -1.204251 0.072918 0.021743
v -1.064499 0.102578 -0.011471
v -1.050763 0.127231 -0.053727
v -1.006663 0.090010 -0.062654
v -1.035533 0.054457 0.036702
v -0.940907 0.084220 0.001827
v -0.933693 0.129085 -0.052942
v -0.875524 0.077581 -0.060404
v -0.830756 0.046374 0.011703
v -0.806008 0.105020 -0.054421
v -0.707715 0.082290 -0.057074
v -0.933067 0.037923 0.059289
v -0.783742 0.000279 0.053911
v -0.581665 0.035758 0.014502
v -0.396388 0.060594 -0.069849
v -0.401721 0.027355 0.018964
v -0.575090 0.042853 -0.126602
v -0.409597 -0.021370 -0.175068
v -0.396388 0.060594 -0.069849
v -0.707715 0.082290 -0.057074
v -0.846920 0.054567 -0.123581
v -0.806008 0.105020 -0.054421
v -0.875524 0.077581 -0.060404
v -0.779312 0.005940 -0.163828
v -0.944697 0.060282 -0.162076
v -0.933693 0.129085 -0.052942
v -1.024815 0.066779 -0.146256
v -1.006663 0.090010 -0.062654
v -1.050763 0.127231 -0.053727
v -1.178528 0.112790 -0.103050
v -1.177740 0.126436 -0.059984
v -1.229624 0.089769 -0.124471
v -1.310291 0.175852 -0.053286
v -0.575090 0.042853 -0.126602
v -0.409597 -0.021370 -0.175068
v -0.697044 -0.048755 -0.179131
v -0.590158 -0.122583 -0.186638
v -0.424002 -0.112379 -0.195257
v -0.432189 -0.162752 -0.163719
v -0.644909 -0.193828 -0.168683
v -0.439066 -0.204375 -0.120817
v -0.846920 0.054567 -0.123581
v -0.779312 0.005940 -0.163828
v -0.944697 0.060282 -0.162076
v -0.909102 -0.000838 -0.202502
v -0.893682 -0.050047 -0.211360
v -1.024815 0.066779 -0.146256
v -1.178528 0.112790 -0.103050
v -1.229624 0.089769 -0.124471
v -1.310291 0.175852 -0.053286
v -1.043452 0.032081 -0.164421
v -1.278931 0.021962 -0.057382
v -1.026339 -0.019845 -0.168049
v -1.185914 0.028653 -0.150596
v -1.236825 0.010980 -0.125026
v -1.175560 -0.061770 -0.129583
v -1.070301 -0.137224 -0.108896
v -1.043472 -0.084588 -0.144728
v -0.921262 -0.160259 -0.183616
v -0.879164 -0.120576 -0.206789
v -0.924566 -0.248332 -0.138156
v -0.635394 -0.266034 -0.121948
vn 0.0086 -0.4320 -0.9019
vn -0.7021 0.1335 -0.6995
vn -0.5996 0.1139 -0.7922
vn 0.3378 -0.6850 -0.6456
vn 0.5019 -0.7169 -0.4839
vn 0.0083 -0.4319 -0.9019
vn 0.2580 -0.8584 -0.4435
vn 0.1782 -0.5974 -0.7819
vn -0.2377 -0.7076 0.6654
vn -0.0537 -0.7405 0.6699
vn -0.2238 -0.8491 0.4785
vn 0.1588 -0.8164 0.5553
vn -0.0163 -0.7211 0.6926
vn -0.0164 -0.7210 0.6927
vn 0.1049 -0.8295 0.5486
vn -0.0097 -0.7218 0.6920
vn 0.1122 -0.7036 0.7017
vn 0.1026 -0.6941 0.7125
vn 0.2303 -0.8988 0.3729
vn 0.1129 -0.7357 0.6678
vn 0.2938 -0.7082 0.6419
vn 0.2696 -0.6469 0.7133
vn 0.1396 -0.7405 -0.6574
vn 0.2293 -0.6303 -0.7417
vn -0.0734 -0.6110 -0.7882
vn 0.0716 -0.6412 -0.7641
vn -0.1142 -0.6469 -0.7540
vn 0.2293 -0.7856 -0.5746
vn 0.0697 -0.5975 -0.7988
vn -0.1551 -0.7920 -0.5905
vn -0.0925 -0.7304 -0.6767
vn -0.1608 -0.6762 -0.7190
vn -0.2117 -0.8495 -0.4833
vn -0.5070 -0.5904 -0.6281
vn -0.7824 -0.5002 -0.3709
vn -0.6905 -0.4935 -0.5288
vn -0.2814 -0.8658 -0.4137
vn -0.7126 -0.6039 -0.3571
vn -0.2503 -0.7735 -0.5823
vn -0.0160 -0.9392 -0.3429
vn -0.0060 -0.8528 -0.5222
vn 0.1812 -0.9417 -0.2834
vn -0.0457 -0.5655 -0.8235
vn 0.1803 -0.8557 -0.4850
vn 0.1086 -0.9578 -0.2663
vn 0.1038 -0.8785 -0.4662
vn -0.2156 -0.9738 -0.0730
vn 0.1548 -0.5920 -0.7910
vn 0.1502 -0.5970 -0.7880
vn -0.1232 -0.5650 -0.8158
vn -0.2024 -0.8746 -0.4406
vn -0.1992 -0.9520 -0.2325
vn 0.0218 -0.5877 -0.8088
vn -0.0102 -0.9217 -0.3877
vn 0.3053 -0.5864 -0.7503
vn 0.3013 -0.8957 -0.3270
vn 0.0359 -0.9841 -0.1738
vn 0.4074 -0.9074 -0.1034
vn 0.0460 -0.9958 -0.0790
vn 0.2247 -0.9474 0.2279
vn -0.0198 -0.9706 0.2399
vn -0.3031 -0.8176 0.4896
vn -0.3021 -0.9082 0.2898
vn -0.7386 -0.5450 0.3967
vn -0.7362 -0.6395 0.2217
vn -0.0222 -0.9067 0.4212
vn 0.1855 -0.9621 0.2000
vn -0.0528 -0.6671 0.7431
vn 0.1638 -0.9005 0.4028
vn 0.0666 -0.9305 0.3601
vn 0.0894 -0.9812 0.1713
vn 0.0067 -0.6877 0.7260
vn -0.2620 -0.9174 0.2995
vn -0.2535 -0.6607 0.7066
vn -0.1010 -0.9503 0.2945
vn 0.1346 -0.6852 0.7158
vn -0.1209 -0.6845 0.7190
vn -0.7978 -0.5283 0.2907
vn -0.6603 -0.5307 0.5314
vn -0.3811 -0.7377 0.5572
vn -0.2042 -0.9023 0.3798
vn -0.2371 -0.8071 0.5407
vn -0.2934 -0.5616 0.7737
vn -0.2376 -0.7075 0.6656
vn -0.1868 -0.4746 0.8601
vn -0.0537 -0.7403 0.6701
vn 0.1589 -0.8162 0.5554
vn -0.0161 -0.7210 0.6927
vn -0.0096 -0.7219 0.6920
vn -0.1373 -0.4180 0.8980
vn -0.0164 -0.7209 0.6928
vn -0.2347 -0.0223 0.9718
vn -0.3465 0.0417 0.9371
vn -0.0180 -0.5376 0.8430
vn 0.1122 -0.7035 0.7018
vn 0.1130 -0.7357 0.6678
vn 0.1026 -0.6940 0.7127
vn -0.0543 -0.3726 0.9264
vn 0.2937 -0.7081 0.6421
vn -0.2554 -0.3851 0.8868
vn 0.2695 -0.6468 0.7134
vn -0.3393 -0.3811 0.8600
vn -0.7949 0.0653 0.6032
vn -0.1209 -0.3797 0.9172
vn -0.4088 0.0018 0.9126
vn -0.6972 0.0951 0.7106
vn -0.2544 -0.0786 0.9639
vn -0.6852 0.3309 0.6489
vn -0.3861 0.1090 0.9160
vn -0.3874 0.3523 0.8519
vn -0.5272 0.5758 0.6249
vn -0.3176 0.2439 0.9163
vn -0.3427 0.4866 0.8036
vn -0.2949 0.3382 0.8937
vn -0.3310 0.7146 0.6163
vn -0.2331 0.5579 0.7965
vn -0.1341 0.7877 0.6013
vn -0.1565 0.3772 0.9128
vn -0.0986 0.5944 0.7981
vn -0.1950 0.3452 0.9180
vn -0.1709 0.2868 0.9426
vn -0.0675 0.5522 0.8310
vn 0.1143 0.5424 0.8323
vn 0.0173 0.8211 0.5705
vn 0.1631 -0.2816 0.9456
vn -0.1208 -0.6843 0.7191
vn 0.1346 -0.6850 0.7160
vn -0.0549 -0.2183 0.9743
vn -0.2535 -0.6605 0.7068
vn 0.2521 0.0953 0.9630
vn 0.0376 0.1645 0.9857
vn 0.3760 0.5066 0.7759
vn -0.1777 -0.3257 0.9286
vn 0.0067 -0.6875 0.7261
vn -0.0652 -0.0397 0.9971
vn 0.0937 -0.3622 0.9274
vn 0.1159 0.6032 0.7891
vn -0.0172 0.6284 0.7777
vn 0.3028 0.5238 0.7962
vn -0.0466 0.2240 0.9735
vn 0.1616 -0.0984 0.9819
vn 0.1910 0.2058 0.9598
vn 0.3692 0.4899 0.7897
vn 0.1280 -0.0671 0.9895
vn 0.1060 0.2678 0.9576
vn 0.0586 -0.3990 0.9151
vn -0.0529 -0.6670 0.7432
vn -0.0785 -0.0323 0.9964
vn -0.2223 -0.3439 0.9123
vn -0.3563 -0.0095 0.9343
vn -0.4660 -0.4906 0.7363
vn -0.3031 -0.8175 0.4898
vn -0.7387 -0.5450 0.3967
vn -0.5938 -0.2332 0.7701
vn -0.8021 -0.2504 0.5422
vn -0.6559 -0.2437 0.7144
vn -0.6603 -0.5305 0.5316
vn -0.8758 -0.2977 0.3799
vn -0.3295 -0.4011 0.8547
vn -0.2932 -0.5616 0.7737
vn -0.3810 -0.7376 0.5574
vn -0.5569 -0.1571 -0.8156
vn -0.5071 -0.1545 -0.8479
vn -0.6863 -0.2827 -0.6702
vn -0.4457 0.6694 -0.5943
vn -0.5712 0.4763 -0.6685
vn -0.5529 0.7200 -0.4195
vn -0.7025 0.5050 -0.5014
vn -0.6849 0.3149 -0.6571
vn -0.7021 0.1334 -0.6994
vn -0.5997 0.1139 -0.7921
vn -0.6974 0.0952 0.7104
vn -0.7950 0.0653 0.6031
vn -0.2554 -0.3851 0.8869
vn -0.7518 0.4604 0.4720
vn -0.6853 0.3310 0.6486
vn -0.5274 0.5759 0.6246
vn -0.5918 0.6821 0.4296
vn -0.8505 -0.2868 -0.4409
vn -0.7825 -0.5002 -0.3708
vn -0.5070 -0.5903 -0.6281
vn -0.9293 -0.2557 -0.2665
vn -0.6906 -0.4933 -0.5288
vn -0.7128 -0.6036 -0.3571
vn -0.7487 -0.1986 -0.6325
vn -0.4018 -0.4115 -0.8181
vn -0.7388 -0.5449 0.3967
vn -0.9499 -0.2721 0.1540
vn -0.7364 -0.6393 0.2216
vn -0.8759 -0.2976 0.3798
vn -0.7979 -0.5281 0.2906
vn -0.4662 -0.4905 0.7363
vn -0.8022 -0.2503 0.5421
vn -0.5940 -0.2332 0.7699
vn -0.6560 -0.2436 0.7144
vn -0.6603 -0.5306 0.5314
vn 0.2395 0.9379 -0.2508
vn 0.0524 0.8789 -0.4741
vn 0.0729 0.9582 -0.2767
vn 0.0338 0.8700 -0.4918
vn -0.0309 0.9399 -0.3399
vn 0.2470 0.8608 -0.4449
vn 0.5323 0.8254 -0.1880
vn 0.5271 0.7605 -0.3791
vn 0.5113 0.8479 -0.1399
vn 0.2053 0.6383 -0.7419
vn 0.4704 0.8124 -0.3446
vn 0.1515 0.9838 -0.0964
vn 0.4480 0.5652 -0.6927
vn -0.0621 0.8514 -0.5208
vn -0.2441 0.8041 -0.5421
vn -0.3255 0.8547 -0.4044
vn -0.4456 0.6695 -0.5943
vn -0.5527 0.7202 -0.4194
vn -0.5273 0.5761 0.6246
vn -0.3673 0.8010 0.4728
vn -0.5916 0.6823 0.4295
vn -0.3310 0.7147 0.6162
vn -0.1341 0.7878 0.6011
vn -0.0530 0.9008 0.4310
vn -0.0109 0.8119 0.5837
vn -0.0985 0.5945 0.7981
vn 0.0381 0.9198 0.3905
vn 0.0174 0.8212 0.5703
vn 0.2206 0.9017 0.3720
vn 0.1144 0.5426 0.8322
vn 0.2265 0.7901 0.5696
vn 0.4986 0.6966 0.5159
vn 0.5394 0.7757 0.3276
vn 0.5078 0.5284 -0.6804
vn 0.2489 0.6409 -0.7262
vn 0.3221 0.9097 -0.2621
vn 0.6094 0.7625 -0.2174
vn 0.4047 0.5821 -0.7053
vn 0.1086 0.6707 -0.7337
vn 0.1277 0.9438 -0.3049
vn 0.1429 0.9856 -0.0906
vn 0.3696 0.9277 -0.0528
vn 0.4051 0.9111 -0.0755
vn 0.6702 0.7417 -0.0285
vn 0.3760 0.5068 0.7757
vn 0.2384 0.8836 0.4030
vn 0.1159 0.6034 0.7890
vn -0.0172 0.6286 0.7775
vn 0.5483 0.7715 0.3227
vn 0.3744 0.9153 0.1484
vn 0.7158 0.6972 0.0393
vn 0.1191 0.9680 0.2210
vn 0.0633 0.9107 0.4083
vn 0.4190 0.7761 0.4713
vn 0.4885 0.8262 0.2806
vn 0.3029 0.5239 0.7961
vn 0.3694 0.4901 0.7895
vn -0.1278 -0.2993 -0.9456
vn -0.1530 0.0734 -0.9855
vn -0.1385 0.1021 -0.9851
vn -0.0924 -0.3037 -0.9483
vn -0.2090 0.1580 -0.9651
vn -0.3418 -0.2992 -0.8909
vn -0.2152 0.4445 -0.8696
vn -0.2243 0.6055 -0.7636
vn -0.0552 0.6621 -0.7474
vn -0.0647 0.4535 -0.8889
vn -0.1003 0.4554 -0.8846
vn -0.3346 0.1180 -0.9349
vn -0.1154 0.3947 -0.9115
vn -0.2940 0.0814 -0.9523
vn -0.5567 -0.1570 -0.8157
vn -0.6861 -0.2829 -0.6703
vn -0.5069 -0.1545 -0.8481
vn 0.2469 0.8607 -0.4452
vn -0.0018 0.6440 -0.7650
vn 0.0525 0.8788 -0.4743
vn 0.0338 0.8699 -0.4920
vn 0.2052 0.6382 -0.7420
vn -0.0215 0.6648 -0.7467
vn 0.0997 0.3923 -0.9144
vn 0.4478 0.5651 -0.6929
vn -0.0620 0.8513 -0.5211
vn -0.2441 0.8039 -0.5424
vn -0.4456 0.6694 -0.5944
vn -0.3375 0.4507 -0.8264
vn -0.5711 0.4761 -0.6687
vn -0.2756 0.2409 -0.9306
vn -0.2811 0.0823 -0.9561
vn -0.6847 0.3148 -0.6573
vn -0.0980 -0.1824 -0.9783
vn -0.5995 0.1138 -0.7923
vn 0.0085 -0.4319 -0.9019
vn 0.0086 -0.4321 -0.9018
vn -0.1120 -0.4139 -0.9034
vn -0.7020 0.1333 -0.6996
vn 0.3377 -0.6848 -0.6457
vn 0.0343 -0.2436 -0.9693
vn 0.1455 -0.4586 -0.8767
vn 0.1781 -0.5974 -0.7819
vn 0.1859 -0.6079 -0.7719
vn 0.2578 -0.8584 -0.4435
vn 0.2293 -0.6301 -0.7418
vn -0.0367 -0.2648 -0.9636
vn 0.0187 -0.4564 -0.8896
vn -0.0733 -0.6109 -0.7883
vn 0.0697 -0.5974 -0.7989
vn 0.0717 -0.6411 -0.7641
vn 0.2296 -0.7855 -0.5747
vn -0.1141 -0.6467 -0.7542
vn -0.1683 -0.4860 -0.8576
vn -0.1609 -0.6760 -0.7192
vn -0.5070 -0.5902 -0.6282
vn -0.8504 -0.2868 -0.4411
vn -0.4015 -0.4117 -0.8181
vn -0.2502 -0.7733 -0.5825
vn -0.6906 -0.4934 -0.5288
vn -0.7486 -0.1987 -0.6326
vn -0.0457 -0.5652 -0.8237
vn -0.1614 -0.2339 -0.9588
vn 0.0607 -0.2595 -0.9638
vn 0.1547 -0.5918 -0.7911
vn 0.1829 -0.2669 -0.9462
vn 0.1502 -0.5968 -0.7882
vn 0.0898 0.0544 -0.9945
vn 0.2445 0.0082 -0.9696
vn 0.0457 -0.1964 -0.9795
vn -0.1232 -0.5648 -0.8160
vn 0.1443 -0.1547 -0.9774
vn 0.0218 -0.5875 -0.8089
vn 0.3054 -0.5862 -0.7504
vn 0.3721 -0.1650 -0.9134
vn 0.1949 0.1877 -0.9627
vn 0.4271 0.1571 -0.8905
vn 0.1135 0.0306 -0.9931
vn 0.2489 0.6406 -0.7264
vn 0.5078 0.5282 -0.6806
vn 0.0937 0.3200 -0.9428
vn 0.3347 0.2874 -0.8974
vn 0.3181 0.3071 -0.8969
vn 0.4047 0.5819 -0.7055
vn 0.1086 0.6705 -0.7339
vn 0.9641 0.2380 -0.1179
vn 0.9809 -0.1522 -0.1208
vn 0.9297 0.1165 -0.3494
vn 0.8737 -0.0362 -0.4851
vn 0.9892 -0.1451 -0.0212
vn 0.9563 0.2907 0.0324
vn 0.9815 -0.1839 -0.0531
vn 0.9796 -0.1993 0.0236
vn 0.9825 -0.1786 0.0521
vn 0.9838 -0.1561 0.0879
vn 0.9516 0.2222 0.2123
vn 0.9875 -0.1486 -0.0534
vn 0.8463 -0.1951 -0.4957
vn 0.9666 -0.1671 0.1944
vn 0.8973 0.0716 0.4356
vn 0.8391 -0.0811 0.5379
vn 0.9762 -0.1805 -0.1203
vn 0.8465 -0.3755 -0.3775
vn 0.8293 -0.5328 -0.1684
vn 0.9735 -0.1902 0.1271
vn 0.8092 -0.2592 0.5273
vn 0.9783 -0.2059 -0.0237
vn 0.8014 -0.5978 -0.0181
vn 0.9770 -0.1628 0.1375
vn 0.9885 -0.1497 0.0217
vn 0.9748 -0.2073 0.0824
vn 0.8165 -0.5559 0.1556
vn 0.9629 -0.1970 0.1847
vn 0.8144 -0.4196 0.4009
vn 0.0084 -0.4319 -0.9019
vn 0.5019 -0.7169 -0.4840
vn -0.1121 -0.4138 -0.9034
vn 0.1052 -0.8294 0.5486
vn 0.1123 -0.7036 0.7017
vn 0.1131 -0.7357 0.6678
vn 0.1397 -0.7405 -0.6574
vn 0.1860 -0.6080 -0.7719
vn 0.2294 -0.6302 -0.7418
vn -0.2723 -0.9062 0.3234
vn 0.1087 -0.8212 0.5602
vn -0.3076 -0.7478 0.5884
vn 0.1167 -0.9284 0.3528
vn -0.5314 -0.7378 0.4163
vn 0.1906 -0.7965 0.5738
vn 0.2859 -0.9048 0.3157
vn -0.4354 -0.6280 0.6450
vn -0.5699 -0.6831 0.4568
vn -0.4211 -0.5539 0.7183
vn -0.6574 -0.2512 0.7105
vn -0.7738 -0.2985 0.5586
vn -0.5590 -0.6470 -0.5186
vn -0.7785 -0.2491 -0.5761
vn -0.6528 -0.2563 -0.7129
vn -0.4396 -0.4909 -0.7522
vn -0.4216 -0.5924 -0.6866
vn -0.5234 -0.7029 -0.4816
vn -0.2924 -0.6928 -0.6592
vn -0.2739 -0.8719 -0.4060
vn 0.1141 -0.7759 -0.6205
vn 0.1233 -0.8982 -0.4219
vn 0.2191 -0.7465 -0.6283
vn 0.2993 -0.8757 -0.3789
vn 0.1087 -0.8210 0.5605
vn 0.0538 -0.4568 0.8880
vn -0.3075 -0.7476 0.5887
vn 0.1904 -0.7963 0.5741
vn 0.0067 -0.4059 0.9139
vn -0.2362 -0.4348 0.8690
vn -0.4354 -0.6279 0.6451
vn 0.0227 0.1020 0.9945
vn -0.1096 -0.1506 0.9825
vn -0.0560 0.1453 0.9878
vn -0.2950 -0.3181 0.9010
vn -0.4210 -0.5538 0.7184
vn -0.2837 -0.0752 0.9560
vn -0.6573 -0.2510 0.7106
vn -0.1989 0.0710 0.9774
vn -0.3289 0.3695 0.8691
vn -0.7738 -0.2984 0.5588
vn -0.3461 0.4143 0.8417
vn -0.2351 0.3929 0.8890
vn -0.3462 0.4142 0.8418
vn 0.2326 0.7874 0.5709
vn -0.0019 0.6203 0.7844
vn -0.0412 0.2710 0.9617
vn 0.0375 0.6259 0.7790
vn 0.1202 0.5712 0.8120
vn 0.1049 0.8090 0.5783
vn 0.0451 0.7139 0.6987
vn 0.0116 0.7218 0.6920
vn 0.1160 0.1737 0.9779
vn -0.2832 0.3718 0.8840
vn -0.7089 -0.3514 0.6116
vn -0.5798 -0.3056 0.7553
vn 0.0672 0.8521 0.5190
vn 0.0864 0.7634 0.6402
vn 0.0694 0.8776 0.4744
vn 0.1049 0.8091 0.5782
vn -0.0264 0.7530 0.6575
vn 0.1708 0.8731 0.4567
vn 0.0993 0.9042 -0.4154
vn -0.0382 0.7258 -0.6869
vn 0.1708 0.8999 -0.4012
vn -0.6528 -0.2562 -0.7129
vn -0.7785 -0.2487 -0.5762
vn -0.3602 0.3901 -0.8474
vn 0.0875 0.8952 0.4371
vn -0.3291 0.3694 0.8690
vn -0.3462 0.4140 0.8418
vn 0.2327 0.7874 0.5709
vn 0.3055 0.8092 0.5019
vn 0.0696 0.8776 0.4744
vn -0.0018 0.6204 0.7843
vn 0.0673 0.8521 0.5190
vn 0.1709 0.8731 0.4566
vn 0.0863 0.7633 0.6403
vn 0.1050 0.8091 0.5782
vn 0.0670 0.8450 0.5305
vn -0.0263 0.7529 0.6576
vn 0.1050 0.8091 0.5783
vn 0.0375 0.6260 0.7789
vn 0.1203 0.5713 0.8119
vn 0.0451 0.7141 0.6986
vn 0.0665 0.9107 0.4076
vn 0.0116 0.7220 0.6918
vn 0.0326 0.7481 -0.6628
vn 0.0988 0.8107 -0.5770
vn 0.0329 0.5013 -0.8647
vn 0.0589 0.8736 -0.4830
vn 0.1638 0.8268 -0.5381
vn 0.0109 0.8030 -0.5959
vn 0.1284 0.8882 -0.4412
vn 0.0329 0.7434 -0.6680
vn 0.1326 0.6001 -0.7889
vn -0.0383 0.7259 -0.6868
vn 0.1706 0.9000 -0.4012
vn -0.0382 0.7259 -0.6868
vn 0.2465 0.8652 -0.4366
vn 0.0784 0.7917 -0.6059
vn 0.1230 0.8413 -0.5265
vn -0.3603 0.3899 -0.8474
vn -0.4267 0.4471 -0.7861
vn 0.0325 0.7480 -0.6629
vn 0.0328 0.5011 -0.8648
vn 0.1015 0.3493 -0.9315
vn 0.0220 -0.1121 -0.9935
vn 0.0048 -0.0851 -0.9964
vn 0.0864 -0.4881 -0.8685
vn 0.0642 -0.4681 -0.8814
vn 0.2191 -0.7464 -0.6284
vn 0.1638 0.8267 -0.5383
vn 0.1325 0.6000 -0.7890
vn -0.0273 0.3671 -0.9298
vn 0.0328 0.7433 -0.6682
vn -0.0937 0.0588 -0.9939
vn 0.0785 0.7915 -0.6061
vn -0.0384 0.7257 -0.6869
vn -0.3602 0.3900 -0.8474
vn -0.1191 0.2748 -0.9541
vn -0.3601 0.3901 -0.8474
vn -0.7785 -0.2488 -0.5762
vn -0.4265 0.4473 -0.7862
vn -0.2592 -0.1173 -0.9587
vn -0.2516 0.0311 -0.9673
vn -0.6526 -0.2562 -0.7130
vn -0.4395 -0.4907 -0.7524
vn -0.3192 -0.3354 -0.8864
vn -0.4215 -0.5922 -0.6868
vn -0.2605 -0.3600 -0.8959
vn -0.1047 -0.2497 -0.9626
vn -0.2923 -0.6926 -0.6594
vn 0.1141 -0.7757 -0.6207
vt 51.080502 -41.026001
vt 51.031898 -40.991600
vt 51.048698 -41.016998
vt 51.203300 -41.034698
vt 51.110001 -40.982601
vt 51.245399 -40.988800
vt 51.313400 -41.038700
vt 51.660500 -40.923302
vt 51.543301 -40.924500
vt 51.597000 -40.990101
vt 51.535599 -40.987999
vt 51.466400 -40.937599
vt 51.392601 -40.987999
vt 51.477501 -40.994701
vt 51.364799 -40.937599
vt 51.308102 -40.942402
vt 51.341499 -40.994499
vt 51.191502 -40.945202
vt 51.354401 -41.044300
vt 51.435200 -41.047501
vt 51.601101 -41.059101
vt 51.479099 -41.056400
vt 51.676498 -40.995701
vt 51.680500 -41.053299
vt 51.770599 -40.988800
vt 51.824100 -41.071400
vt 51.865002 -40.989101
vt 52.048901 -41.117699
vt 52.117500 -40.990501
vt 52.047798 -40.990398
vt 52.124599 -41.117500
vt 52.326199 -40.992500
vt 52.352699 -41.128799
vt 52.477100 -41.005100
vt 52.358501 -41.247200
vt 52.494499 -41.144100
vt 52.593800 -41.007500
vt 52.591999 -41.137402
vt 52.765598 -41.006100
vt 52.509701 -41.262199
vt 52.578300 -41.248901
vt 52.744499 -41.233101
vt 52.753601 -41.132198
vt 52.759602 -41.069099
vt 52.847698 -41.245998
vt 52.859001 -41.137600
vt 52.916901 -41.228199
vt 52.929100 -41.127998
vt 52.862400 -41.068401
vt 52.930901 -41.003899
vt 52.865799 -40.999199
vt 52.932701 -40.879799
vt 52.119900 -40.861401
vt 52.049500 -40.865700
vt 52.335701 -40.870201
vt 52.356499 -40.753799
vt 52.489201 -40.869099
vt 52.590401 -40.877499
vt 52.580799 -40.763000
vt 52.753601 -40.871899
vt 52.744701 -40.767502
vt 52.858200 -40.859501
vt 52.915901 -40.755798
vt 52.846001 -40.746899
vt 51.851002 -40.877998
vt 51.777302 -40.909000
vt 51.739899 -40.850899
vt 51.940701 -40.660500
vt 52.100399 -40.616001
vt 51.944000 -40.543301
vt 51.898499 -40.535599
vt 51.901600 -40.466400
vt 51.842300 -40.477501
vt 52.077900 -40.501099
vt 52.168499 -40.518501
vt 52.188702 -40.868301
vt 51.965000 -40.378502
vt 51.890598 -40.364799
vt 51.805401 -40.341499
vt 51.854198 -40.308102
vt 51.861500 -40.192299
vt 51.790901 -40.191502
vt 51.696400 -40.071400
vt 51.684399 -40.110001
vt 51.618999 -40.041698
vt 51.708401 -40.031898
vt 52.028999 -40.366600
vt 51.880402 -40.151600
vt 51.733799 -40.051701
vt 52.094700 -40.388100
vt 51.997398 -40.128201
vt 52.060699 -40.266102
vt 52.140999 -40.286999
vt 52.173401 -40.237999
vt 52.144699 -40.383301
vt 52.236599 -40.401901
vt 52.218201 -40.500099
vt 52.327202 -40.434502
vt 52.314701 -40.555500
vt 52.428101 -40.655602
vt 52.278400 -40.660999
vt 52.371498 -40.854500
vt 52.274899 -40.877102
vt 52.205399 -41.031700
vt 52.360100 -41.013699
vt 52.359200 -41.267700
vt 52.461800 -41.020599
vt 51.842701 -41.911098
vt 51.698101 -41.846001
vt 51.714500 -41.915901
vt 51.859299 -41.837502
vt 51.716400 -41.744701
vt 52.115898 -41.909901
vt 52.122898 -41.839199
vt 52.229900 -41.913898
vt 51.833801 -41.740601
vt 51.718899 -41.580799
vt 51.974098 -41.739300
vt 51.844101 -41.581600
vt 52.248402 -41.843300
vt 52.230400 -41.741299
vt 52.226898 -41.577099
vt 52.114300 -41.738201
vt 51.978802 -41.578701
vt 52.106602 -41.572800
vt 52.303699 -41.447300
vt 51.987202 -41.476898
vt 52.183998 -41.371601
vt 51.823898 -41.476898
vt 51.647202 -41.356499
vt 52.004501 -41.249699
vt 51.808998 -41.149101
vt 52.021702 -41.047600
vt 51.665798 -41.090000
vt 51.535400 -41.119900
vt 51.560299 -41.049500
vt 51.852299 -41.047501
vt 51.747299 -41.025101
vt 52.059299 -40.897800
vt 51.932301 -40.851002
vt 51.842999 -40.921299
vt 52.112900 -40.786598
vt 52.028999 -40.739899
vt 51.948898 -40.777302
vt 51.941502 -41.219799
vt 52.147701 -41.292400
vt 52.035500 -41.156200
vt 51.816799 -41.054600
vt 51.952301 -41.043201
vt 51.811199 -40.990700
vt 51.970299 -40.990398
vt 52.127899 -41.035702
vt 52.291599 -40.991600
vt 52.285999 -41.016998
vt 52.266201 -40.956402
vt 52.303600 -40.955200
vt 52.002602 -40.940701
vt 51.826599 -40.926399
vt 52.167801 -41.087299
vt 52.134899 -40.989101
vt 52.068600 -41.071400
vt 52.377701 -40.989399
vt 52.437801 -41.117699
vt 52.486698 -40.990398
vt 52.238499 -41.219601
vt 52.349300 -41.219200
vt 52.439701 -40.865700
vt 52.157001 -40.868999
vt 52.334202 -40.754700
vt 52.252701 -40.767300
vt 52.147701 -40.688400
vt 51.940701 -40.760899
vt 52.067699 -40.877998
vt 51.765701 -40.991199
vt 51.983200 -41.102402
vt 52.084202 -40.990299
vt 52.118401 -41.078400
vt 52.314701 -40.990398
vt 51.730499 -41.114799
vt 51.595600 -40.996700
vt 51.576099 -41.128700
vt 51.408001 -41.008598
vt 51.668499 -41.235001
vt 51.411999 -41.135502
vt 51.238400 -40.997501
vt 51.509102 -41.257000
vt 52.327499 -41.063900
vt 52.548801 -41.057999
vt 52.602402 -40.990398
vt 52.751400 -41.054600
vt 52.788101 -40.990700
vt 52.762001 -40.926399
vt 52.565498 -40.927502
vt 52.344398 -40.917900
vt 52.126900 -40.903900
vt 52.145500 -40.830502
vt 51.979401 -40.876202
vt 51.732300 -40.759300
vt 51.733200 -40.871700
vt 51.579899 -40.870300
vt 51.085300 -41.224998
vt 51.155300 -41.243801
vt 51.143101 -41.135799
vt 51.072399 -41.125801
vt 51.424301 -41.245800
vt 51.259201 -41.231800
vt 51.248901 -41.131001
vt 51.243698 -41.064201
vt 51.139198 -41.067402
vt 51.135300 -40.998901
vt 51.070400 -41.004002
vt 51.086102 -40.757999
vt 51.143600 -40.860401
vt 51.156700 -40.748100
vt 51.258701 -40.768002
vt 51.068298 -40.882198
vt 51.248798 -40.872299
vt 51.409698 -40.877499
vt 51.422901 -40.763500
vt 51.552700 -40.751202
vt 51.877899 -40.695400
vt 51.846901 -40.496601
vt 51.792599 -40.766899
vt 51.919102 -40.494202
vt 51.868698 -40.420502
vt 51.918999 -40.812599
vt 51.777901 -40.504799
vt 51.723801 -40.476898
vt 51.637798 -40.678200
vt 51.715302 -40.698799
vt 51.726299 -40.874298
vt 51.836399 -40.896702
vt 51.791599 -41.012299
vt 51.982201 -41.041801
vt 51.941502 -40.897598
vt 52.035500 -40.889099
vt 52.147701 -41.046700
vt 51.529900 -41.269501
vt 51.640202 -41.013500
vt 51.537201 -41.016800
vt 51.553200 -40.881599
vt 51.647400 -41.331501
vt 51.635799 -40.878502
vt 51.811001 -41.341599
vt 51.721401 -41.490898
vt 51.568802 -40.672501
vt 51.663799 -40.451199
vt 51.816799 -40.248600
vt 51.866501 -40.273800
vt 51.952301 -40.151501
vt 51.914001 -40.289101
vt 52.112801 -40.155399
vt 52.127899 -40.085999
vt 52.221802 -40.122501
vt 52.285999 -40.048698
vt 52.309601 -40.080502
vt 52.381001 -40.041698
vt 52.291599 -40.031898
vt 52.200802 -40.203300
vt 52.064800 -40.237900
vt 52.092999 -40.307301
vt 52.145000 -40.313400
vt 52.194599 -40.341499
vt 52.191002 -40.245399
vt 52.111599 -40.354401
vt 51.964901 -40.379799
vt 52.031601 -40.435699
vt 52.091999 -40.435200
vt 52.080502 -40.479099
vt 52.157700 -40.477501
vt 52.101501 -40.535599
vt 52.048901 -40.601101
vt 51.974800 -40.721901
vt 52.071602 -40.680500
vt 52.068600 -40.824100
vt 52.167801 -40.917400
vt 52.349300 -41.091599
vt 52.466099 -41.124599
vt 52.437801 -41.048901
vt 52.238499 -41.024399
vt 52.343498 -41.358501
vt 52.194801 -41.159698
vt 52.180199 -41.443298
vt 52.304600 -41.509701
vt 52.171299 -41.547501
vt 52.279900 -41.578300
vt 52.001999 -41.407299
vt 52.033501 -41.557899
vt 52.171700 -41.731098
vt 52.283600 -41.744499
vt 52.174000 -41.842602
vt 52.300900 -41.847698
vt 52.284000 -41.916901
vt 52.169102 -41.912102
vt 51.904301 -41.836399
vt 51.889301 -41.910500
vt 52.025902 -41.737400
vt 51.752602 -41.844700
vt 51.771500 -41.914700
vt 51.882099 -41.740898
vt 51.887600 -41.571701
vt 51.860901 -41.494999
vt 51.770599 -41.575699
vt 51.769501 -41.740799
vt 52.282200 -41.125801
vt 52.171101 -41.173599
vt 52.228500 -41.224998
vt 52.110699 -41.265202
vt 52.212799 -41.096699
vt 52.285801 -41.004002
vt 52.079700 -41.204800
vt 52.215500 -41.002201
vt 51.972698 -40.995899
vt 52.218300 -40.907700
vt 52.289398 -40.882198
vt 51.862701 -41.205200
vt 51.830898 -41.265800
vt 52.172199 -40.811298
vt 52.229900 -40.757999
vt 52.115898 -40.713100
vt 51.773602 -41.176102
vt 51.716000 -41.228199
vt 51.660801 -41.127998
vt 52.083801 -40.776501
vt 51.842701 -40.707802
vt 51.730801 -41.098400
vt 51.657001 -41.003899
vt 51.871799 -40.772400
vt 51.727798 -41.002102
vt 51.724800 -40.905800
vt 51.653099 -40.879799
vt 51.772400 -40.809700
vt 51.714500 -40.755798
vt 51.690399 -41.026001
vt 51.684399 -40.982601
vt 51.618999 -40.990700
vt 51.870399 -40.987999
vt 51.890598 -40.937599
vt 51.805401 -40.994499
vt 51.888401 -41.044300
vt 28.065399 -26.999800
vt 28.318501 -26.950701
vt 28.043600 -26.932501
vt 28.327499 -27.002800
vt 27.885799 -27.001301
vt 28.473200 -26.943399
vt 28.478001 -27.000601
vt 27.871401 -26.955500
vt 27.742500 -27.000700
vt 27.752501 -26.934401
vt 27.642401 -26.938900
vt 27.612801 -26.998501
vt 27.656500 -27.065901
vt 27.742001 -27.067801
vt 27.868500 -27.044701
vt 28.047001 -27.070200
vt 28.318501 -27.055000
vt 28.473200 -27.057600
vt 27.864300 -27.318501
vt 27.945000 -27.287800
vt 27.761200 -27.043600
vt 28.000000 -27.473200
vt 28.058001 -27.458200
vt 27.837999 -27.019400
vt 27.808300 -26.871401
vt 28.056200 -27.281500
vt 27.934299 -27.009899
vt 28.126101 -27.440300
vt 27.898500 -26.860399
vt 27.829000 -26.752501
vt 27.910200 -26.697800
vt 27.880501 -26.642401
vt 27.965401 -26.842600
vt 27.998400 -26.521999
vt 27.870300 -26.612801
vt 27.966400 -26.594000
vt 27.950199 -26.659700
vt 28.032400 -26.775900
vt 28.002001 -26.821301
vt 27.996099 -26.956100
vt 28.029200 -26.921499
vt 28.054899 -27.073299
vt 28.076300 -27.012199
vt 28.167299 -27.244301
vt 28.232500 -27.412300
vt 28.015100 -27.126600
vt 28.033600 -26.963800
vt 28.129700 -26.998501
vt 28.119499 -26.938900
vt 27.934000 -26.944000
vt 27.892200 -27.000601
vt 27.957800 -27.008200
vt 27.923700 -26.933201
vt 27.862700 -27.001801
vt 27.916100 -27.006300
vt 27.989700 -27.090700
vt 28.125500 -27.065901
vt 28.050501 -27.068600
vt 28.336800 -27.006001
vt 28.406000 -26.963800
vt 28.224100 -26.957199
vt 28.221001 -27.000601
vt 28.165501 -27.008200
vt 28.340300 -26.922001
vt 28.178699 -26.907301
vt 28.103800 -26.944000
vt 28.040600 -27.006300
vt 28.114700 -27.000601
vt 27.987801 -26.933201
vt 27.889000 -27.004101
vt 27.988100 -27.001801
vt 28.078501 -26.884701
vt 27.926701 -26.889400
vt 27.755699 -26.931499
vt 27.595301 -27.017900
vt 27.587700 -26.927700
vt 27.750999 -27.072800
vt 27.573099 -27.119499
vt 28.004400 -27.068600
vt 28.095699 -27.106701
vt 27.922501 -27.107201
vt 28.171801 -27.090700
vt 28.331499 -27.048500
vt 28.368700 -27.068600
vt 27.829201 -27.249001
vt 27.823000 -27.426901
vt 27.964300 -27.174999
vt 27.988899 -27.302700
vt 27.912800 -27.450701
vt 27.960899 -27.463200
vt 28.075399 -27.281200
vt 27.928101 -26.995600
vt 27.946899 -27.077499
vt 28.007099 -26.962000
vt 27.964001 -26.904301
vt 28.046200 -26.996000
vt 28.007999 -26.668501
vt 27.989700 -26.828199
vt 28.050501 -26.631300
vt 28.029699 -26.825300
vt 28.129700 -26.612801
vt 28.001600 -26.521999
vt 28.070400 -26.862000
vt 28.089800 -26.696199
vt 28.125500 -26.656500
vt 28.167400 -26.742001
vt 28.135500 -26.872200
vt 28.193001 -26.868500
vt 28.156900 -27.014999
vt 28.104601 -27.037701
vt 28.236900 -27.047001
vt 28.135700 -27.318501
s 1
usemtl Meshpart1Mtl
f 3/1/1 1/2/2 2/3/3
f 5/4/4 4/5/5 3/1/6
f 4/5/5 5/4/4 6/6/7
f 7/7/8 6/6/7 5/4/4
f 8/8/9 9/9/10 10/10/11
f 10/10/11 9/9/10 11/11/12
f 11/11/12 9/9/10 12/12/13
f 12/12/14 14/13/15 13/14/16
f 14/13/15 12/12/14 15/15/17
f 17/16/18 18/6/19 16/17/20
f 17/16/18 19/18/21 18/6/19
f 18/6/19 19/18/21 20/5/22
f 22/13/23 21/19/24 23/20/25
f 23/20/25 24/14/26 22/13/23
f 27/21/27 26/11/28 25/22/29
f 26/11/28 27/21/27 28/10/30
f 27/21/27 29/23/31 28/10/30
f 29/23/31 27/21/27 30/24/32
f 31/25/33 29/23/31 30/24/32
f 31/25/33 30/24/32 32/26/34
f 33/27/35 31/25/33 32/26/34
f 34/28/36 36/29/37 35/30/38
f 36/29/37 34/28/36 37/31/39
f 38/32/40 36/29/37 37/31/39
f 38/32/40 37/31/39 39/33/41
f 39/33/41 40/34/42 38/32/40
f 39/33/41 37/31/39 41/35/43
f 40/34/42 39/33/41 42/36/44
f 41/35/43 42/36/44 39/33/41
f 43/37/45 40/34/42 42/36/44
f 44/38/46 43/37/45 42/36/44
f 43/37/45 44/38/46 45/39/47
f 42/36/44 41/35/43 46/40/48
f 47/41/49 42/36/44 46/40/48
f 42/36/44 47/41/49 44/38/46
f 48/42/50 44/38/46 47/41/49
f 49/43/51 44/38/46 48/42/50
f 44/38/46 49/43/51 50/44/52
f 51/45/53 49/43/51 48/42/50
f 45/39/47 44/38/46 50/44/52
f 52/46/54 49/43/51 51/45/53
f 52/46/54 50/44/52 49/43/51
f 52/46/54 51/45/53 53/47/55
f 53/47/55 54/48/56 52/46/54
f 54/48/56 55/49/57 52/46/54
f 55/49/57 50/44/52 52/46/54
f 55/49/57 45/39/47 50/44/52
f 54/48/56 56/50/58 55/49/57
f 57/51/59 55/49/57 56/50/58
f 57/51/59 45/39/47 55/49/57
f 58/52/60 57/51/59 56/50/58
f 59/32/61 60/53/62 61/29/63
f 62/54/64 61/29/63 60/53/62
f 61/29/63 62/54/64 63/30/65
f 64/55/66 60/53/62 59/32/61
f 65/34/67 64/55/66 59/32/61
f 64/55/66 66/56/68 60/53/62
f 65/34/67 67/57/69 64/55/66
f 67/57/69 66/56/68 64/55/66
f 65/34/67 68/58/70 67/57/69
f 68/58/70 65/34/67 69/37/71
f 68/58/70 69/37/71 45/39/47
f 71/59/72 67/57/69 68/58/70
f 67/57/69 71/59/72 66/56/68
f 45/39/47 72/60/73 68/58/70
f 57/51/59 72/60/73 45/39/47
f 72/60/73 73/61/74 68/58/70
f 73/61/74 71/59/72 68/58/70
f 72/60/73 57/51/59 74/62/75
f 74/62/75 73/61/74 72/60/73
f 58/52/60 74/62/75 57/51/59
f 75/63/76 74/62/75 58/52/60
f 74/62/75 75/63/76 76/64/77
f 73/61/74 74/62/75 76/64/77
f 70/27/78 77/65/79 78/66/80
f 70/27/78 78/66/80 79/25/81
f 79/25/81 78/66/80 80/23/82
f 78/66/80 77/65/79 81/67/83
f 80/23/82 78/66/80 8/8/9
f 8/8/9 10/10/11 80/23/82
f 82/68/84 84/69/85 83/70/86
f 85/71/87 86/72/88 87/73/89
f 83/70/86 84/69/85 88/74/90
f 88/74/90 86/72/91 83/70/86
f 84/69/85 89/75/92 88/74/90
f 84/69/85 90/76/93 89/75/92
f 86/72/91 88/74/90 93/77/94
f 86/72/91 93/77/94 91/78/95
f 92/79/96 91/78/95 94/80/97
f 91/78/95 93/77/94 94/80/97
f 93/77/94 97/81/98 94/80/97
f 97/81/98 95/82/99 94/80/97
f 98/83/100 96/84/101 95/82/99
f 97/81/98 98/83/100 95/82/99
f 96/84/101 98/83/100 99/85/102
f 100/86/103 99/85/102 98/83/100
f 93/77/94 101/87/104 97/81/98
f 88/74/90 101/87/104 93/77/94
f 97/81/98 102/88/105 98/83/100
f 101/87/104 102/88/105 97/81/98
f 103/89/106 98/83/100 102/88/105
f 104/90/107 101/87/104 88/74/90
f 101/87/104 104/90/107 102/88/105
f 89/75/92 104/90/107 88/74/90
f 105/91/108 103/89/106 102/88/105
f 104/90/107 106/92/109 102/88/105
f 102/88/105 106/92/109 105/91/108
f 106/92/109 108/93/110 105/91/108
f 108/93/110 107/94/111 105/91/108
f 109/95/112 108/93/110 106/92/109
f 104/90/107 109/95/112 106/92/109
f 104/90/107 89/75/92 109/95/112
f 109/95/112 110/96/113 108/93/110
f 110/96/113 107/94/111 108/93/110
f 111/97/114 109/95/112 89/75/92
f 111/97/114 110/96/113 109/95/112
f 110/96/113 112/98/115 107/94/111
f 114/99/116 112/98/115 110/96/113
f 111/97/114 114/99/116 110/96/113
f 114/99/116 113/100/117 112/98/115
f 115/101/118 114/99/116 111/97/114
f 89/75/92 115/101/118 111/97/114
f 90/76/93 115/101/118 89/75/92
f 115/101/118 116/102/119 114/99/116
f 116/102/119 113/100/117 114/99/116
f 117/103/120 115/101/118 90/76/93
f 116/102/119 115/101/118 117/103/120
f 90/76/93 118/104/121 117/103/120
f 119/105/122 117/103/120 118/104/121
f 119/105/122 116/102/119 117/103/120
f 118/104/121 120/106/123 119/105/122
f 121/107/124 116/102/119 119/105/122
f 120/106/123 121/107/124 119/105/122
f 130/108/125 129/109/126 128/110/127
f 129/109/126 130/108/125 131/111/128
f 129/109/126 131/111/128 127/112/129
f 130/108/125 132/113/130 131/111/128
f 133/114/131 131/111/128 132/113/130
f 132/113/130 134/115/132 133/114/131
f 131/111/128 135/116/133 127/112/129
f 127/112/129 135/116/133 126/117/134
f 135/116/133 131/111/128 136/118/135
f 133/114/131 136/118/135 131/111/128
f 135/116/133 137/119/136 126/117/134
f 135/116/133 136/118/135 137/119/136
f 134/115/132 138/120/137 133/114/131
f 138/120/137 139/121/138 133/114/131
f 139/121/138 140/122/139 141/123/140
f 133/114/131 139/121/138 141/123/140
f 136/118/135 133/114/131 141/123/140
f 141/123/140 142/124/141 136/118/135
f 136/118/135 142/124/141 137/119/136
f 141/123/140 140/122/139 143/125/142
f 142/124/141 141/123/140 143/125/142
f 143/125/142 140/122/139 144/126/143
f 145/127/144 142/124/141 143/125/142
f 145/127/144 137/119/136 142/124/141
f 144/126/143 146/128/145 143/125/142
f 143/125/142 146/128/145 145/127/144
f 144/126/143 120/106/123 146/128/145
f 137/119/136 145/127/144 147/129/146
f 147/129/146 126/117/134 137/119/136
f 126/117/134 147/129/146 124/130/147
f 145/127/144 148/131/148 147/129/146
f 146/128/145 148/131/148 145/127/144
f 124/130/147 147/129/146 149/132/149
f 148/131/148 149/132/149 147/129/146
f 118/104/121 148/131/148 146/128/145
f 120/106/123 118/104/121 146/128/145
f 148/131/148 150/133/150 149/132/149
f 148/131/148 118/104/121 150/133/150
f 149/132/149 151/134/151 124/130/147
f 124/130/147 151/134/151 122/135/152
f 151/134/151 123/136/153 122/135/152
f 149/132/149 153/137/154 151/134/151
f 153/137/154 152/138/155 151/134/151
f 150/133/150 153/137/154 149/132/149
f 150/133/150 90/76/93 153/137/154
f 150/133/150 118/104/121 90/76/93
f 90/76/93 154/139/156 153/137/154
f 154/139/156 155/140/157 125/141/158
f 154/139/156 156/142/159 155/140/157
f 90/76/93 156/142/159 154/139/156
f 156/142/159 158/143/160 155/140/157
f 157/144/161 158/143/160 82/68/84
f 158/143/160 156/142/159 84/69/85
f 158/143/160 84/69/85 82/68/84
f 90/76/93 84/69/85 156/142/159
f 159/145/162 161/146/163 160/147/164
f 162/148/165 164/149/166 163/150/167
f 165/151/168 163/150/167 164/149/166
f 165/151/168 164/149/166 166/152/169
f 165/151/168 166/152/169 167/153/170
f 167/153/170 166/152/169 168/154/171
f 171/155/172 170/153/173 169/156/174
f 172/151/175 170/153/173 171/155/172
f 172/151/175 171/155/172 173/157/176
f 172/151/175 173/157/176 174/158/177
f 175/150/178 172/151/175 174/158/177
f 178/159/179 177/160/180 176/161/181
f 178/159/179 179/162/182 177/160/180
f 180/163/183 179/162/182 178/159/179
f 180/163/183 181/164/184 179/162/182
f 182/165/185 178/159/179 160/147/164
f 182/165/185 180/163/183 178/159/179
f 160/147/164 161/146/163 182/165/185
f 183/166/186 180/163/183 182/165/185
f 184/167/187 186/162/188 185/164/189
f 184/167/187 187/168/190 186/162/188
f 187/168/190 188/160/191 186/162/188
f 189/169/192 190/170/193 184/167/187
f 190/170/193 187/168/190 184/167/187
f 191/171/194 187/168/190 190/170/193
f 191/171/194 192/172/195 187/168/190
f 187/168/190 193/173/196 188/160/191
f 194/174/197 195/175/198 196/176/199
f 196/176/199 195/175/198 197/177/200
f 196/176/199 197/177/200 198/178/201
f 194/174/197 199/179/202 195/175/198
f 200/180/203 199/179/202 194/174/197
f 200/180/203 201/181/204 199/179/202
f 202/182/205 201/181/204 200/180/203
f 201/181/204 203/183/206 199/179/202
f 201/181/204 202/182/205 204/184/207
f 202/182/205 205/185/208 204/184/207
f 201/181/204 206/186/209 203/183/206
f 201/181/204 204/184/207 206/186/209
f 198/178/201 197/177/200 207/187/210
f 208/188/211 198/178/201 207/187/210
f 198/178/201 208/188/211 209/189/212
f 208/188/211 210/190/213 209/189/212
f 210/190/213 211/191/214 209/189/212
f 212/192/215 214/189/216 213/191/217
f 215/193/218 214/189/216 212/192/215
f 216/194/219 214/189/216 215/193/218
f 216/194/219 217/178/220 214/189/216
f 217/178/220 216/194/219 219/195/221
f 219/195/221 216/194/219 218/196/222
f 220/176/223 217/178/220 219/195/221
f 218/196/222 222/197/224 219/195/221
f 220/176/223 219/195/221 222/197/224
f 223/174/225 220/176/223 222/197/224
f 222/197/224 221/198/226 224/199/227
f 224/199/227 223/174/225 222/197/224
f 221/198/226 225/200/228 224/199/227
f 224/199/227 226/180/229 223/174/225
f 226/180/229 224/199/227 225/200/228
f 228/201/230 227/202/231 229/203/232
f 230/204/233 228/201/230 229/203/232
f 206/186/209 204/184/207 231/205/234
f 232/206/235 231/205/234 204/184/207
f 227/202/231 232/206/235 233/207/236
f 233/207/236 232/206/235 204/184/207
f 229/203/232 227/202/231 233/207/236
f 233/207/236 204/184/207 234/208/237
f 229/203/232 233/207/236 234/208/237
f 204/184/207 205/185/208 234/208/237
f 235/209/238 229/203/232 234/208/237
f 235/209/238 234/208/237 205/185/208
f 230/204/233 229/203/232 235/209/238
f 236/210/239 235/209/238 205/185/208
f 237/211/240 230/204/233 235/209/238
f 237/211/240 235/209/238 236/210/239
f 238/212/241 240/213/242 239/214/243
f 240/213/242 241/215/244 239/214/243
f 242/216/245 240/213/242 238/212/241
f 240/213/242 242/216/245 243/210/246
f 242/216/245 244/211/247 243/210/246
f 243/210/246 245/185/248 240/213/242
f 240/213/242 245/185/248 246/217/249
f 241/215/244 240/213/242 246/217/249
f 245/185/248 247/218/250 246/217/249
f 246/217/249 247/218/250 241/215/244
f 248/182/251 247/218/250 245/185/248
f 225/200/228 247/218/250 248/182/251
f 248/182/251 226/180/229 225/200/228
f 241/215/244 247/218/250 249/219/252
f 225/200/228 249/219/252 247/218/250
f 249/219/252 225/200/228 250/220/253
f 225/200/228 221/198/226 250/220/253
f 251/221/254 252/222/255 253/223/256
f 251/221/254 254/224/257 252/222/255
f 254/224/257 255/225/258 252/222/255
f 253/223/256 256/226/259 251/221/254
f 252/222/255 255/225/258 257/227/260
f 257/227/260 255/225/258 258/228/261
f 257/227/260 258/228/261 259/229/262
f 260/230/263 252/222/255 257/227/260
f 260/230/263 257/227/260 259/229/262
f 252/222/255 260/230/263 253/223/256
f 259/229/262 261/231/264 260/230/263
f 261/231/264 253/223/256 260/230/263
f 261/231/264 262/232/265 253/223/256
f 256/226/259 253/223/256 262/232/265
f 262/232/265 261/231/264 263/233/266
f 264/234/267 262/232/265 263/233/266
f 262/232/265 265/235/268 256/226/259
f 262/232/265 264/234/267 265/235/268
f 265/235/268 266/236/269 256/226/259
f 267/237/270 265/235/268 264/234/267
f 270/238/271 271/239/272 268/240/273
f 271/239/272 269/241/274 268/240/273
f 272/242/275 271/239/272 270/238/271
f 269/241/274 271/239/272 274/243/276
f 272/242/275 263/233/266 271/239/272
f 271/239/272 261/231/264 274/243/276
f 271/239/272 263/233/266 261/231/264
f 275/244/277 263/233/266 272/242/275
f 275/244/277 272/242/275 273/245/278
f 269/241/274 274/243/276 259/229/262
f 274/243/276 261/231/264 259/229/262
f 269/241/274 259/229/262 276/246/279
f 259/229/262 277/247/280 276/246/279
f 277/247/280 259/229/262 258/228/261
f 258/228/261 278/248/281 277/247/280
f 258/228/261 280/249/282 278/248/281
f 280/249/282 279/250/283 278/248/281
f 282/251/284 279/250/283 280/249/282
f 284/252/285 279/250/283 282/251/284
f 281/253/286 279/250/283 284/252/285
f 280/249/282 255/225/258 282/251/284
f 258/228/261 255/225/258 280/249/282
f 255/225/258 284/252/285 282/251/284
f 284/252/285 286/254/287 281/253/286
f 285/255/288 281/253/286 286/254/287
f 287/256/289 285/255/288 286/254/287
f 287/256/290 288/257/291 283/258/292
f 286/254/287 289/259/293 287/256/289
f 286/254/287 284/252/285 291/260/294
f 284/252/285 255/225/258 291/260/294
f 292/261/295 289/259/293 286/254/287
f 292/261/295 286/254/287 291/260/294
f 289/259/293 292/261/295 293/262/296
f 293/262/296 294/263/297 290/264/298
f 294/263/297 293/262/296 295/265/299
f 295/265/299 293/262/296 292/261/295
f 292/261/295 291/260/294 296/266/300
f 291/260/294 255/225/258 296/266/300
f 295/265/299 292/261/295 297/267/301
f 297/267/301 292/261/295 296/266/300
f 298/268/302 295/265/299 297/267/301
f 300/269/303 299/270/304 298/268/302
f 300/269/303 298/268/302 297/267/301
f 301/271/305 299/270/304 300/269/303
f 297/267/301 296/266/300 254/224/257
f 254/224/257 300/269/303 297/267/301
f 255/225/258 254/224/257 296/266/300
f 300/269/303 254/224/257 302/272/306
f 302/272/306 254/224/257 304/273/307
f 304/273/307 303/274/308 302/272/306
f 304/273/307 305/275/309 303/274/308
f 304/273/307 254/224/257 251/221/254
f 256/226/259 305/275/309 304/273/307
f 256/226/259 304/273/307 251/221/254
f 266/236/269 306/276/310 305/275/309
f 266/236/269 305/275/309 256/226/259
f 310/277/311 309/278/312 307/279/313
f 267/237/270 310/277/311 308/280/314
f 309/278/312 310/277/311 311/281/315
f 312/282/316 311/281/315 310/277/311
f 312/282/316 310/277/311 267/237/270
f 311/281/315 312/282/316 313/283/317
f 314/284/318 311/281/315 313/283/317
f 314/284/318 313/283/317 316/285/319
f 316/285/319 315/286/320 314/284/318
f 317/287/321 313/283/317 312/282/316
f 318/288/322 316/285/319 313/283/317
f 313/283/317 317/287/321 318/288/322
f 312/282/316 264/234/267 317/287/321
f 264/234/267 312/282/316 267/237/270
f 315/286/320 316/285/319 319/289/323
f 316/285/319 318/288/322 319/289/323
f 315/286/320 319/289/323 320/290/324
f 321/291/325 320/290/324 319/289/323
f 322/292/326 320/290/324 321/291/325
f 323/293/327 322/292/326 321/291/325
f 324/294/328 323/293/327 321/291/325
f 321/291/325 325/295/329 324/294/328
f 326/296/330 324/294/328 325/295/329
f 321/291/325 327/297/331 325/295/329
f 327/297/331 321/291/325 319/289/323
f 328/298/332 326/296/330 325/295/329
f 319/289/323 318/288/322 327/297/331
f 326/296/330 328/298/332 329/299/333
f 330/300/334 325/295/329 327/297/331
f 330/300/334 327/297/331 318/288/322
f 330/300/334 328/298/332 325/295/329
f 331/301/335 330/300/334 318/288/322
f 318/288/322 332/302/336 331/301/335
f 332/302/336 318/288/322 317/287/321
f 332/302/336 317/287/321 275/244/277
f 275/244/277 317/287/321 264/234/267
f 273/245/278 332/302/336 275/244/277
f 275/244/277 264/234/267 263/233/266
f 333/303/337 332/302/336 273/245/278
f 331/301/335 332/302/336 333/303/337
f 333/303/337 330/300/334 331/301/335
f 333/303/337 334/304/338 330/300/334
f 328/298/332 330/300/334 334/304/338
f 335/305/339 336/306/340 337/307/341
f 338/308/342 337/307/341 336/306/340
f 336/306/340 335/305/339 339/309/343
f 340/310/344 339/309/343 335/305/339
f 336/306/340 341/311/345 338/308/342
f 339/309/343 340/310/344 342/312/346
f 336/306/340 339/309/343 343/313/347
f 339/309/343 342/312/346 343/313/347
f 341/311/345 336/306/340 343/313/347
f 340/310/344 344/314/348 342/312/346
f 342/312/346 344/314/348 343/313/347
f 344/314/348 340/310/344 345/315/349
f 346/316/350 338/308/342 341/311/345
f 346/316/350 341/311/345 343/313/347
f 338/308/342 346/316/350 347/317/351
f 345/315/349 348/318/352 344/314/348
f 344/314/348 348/318/352 343/313/347
f 345/315/349 349/319/353 348/318/352
f 350/320/354 348/318/352 349/319/353
f 351/321/355 347/317/351 346/316/350
f 351/321/355 346/316/350 343/313/347
f 347/317/351 351/321/355 352/322/356
f 352/322/356 351/321/355 353/323/357
f 348/318/352 350/320/354 354/324/358
f 348/318/352 354/324/358 343/313/347
f 355/325/359 354/324/358 350/320/354
f 353/323/357 351/321/355 356/326/360
f 356/326/360 351/321/355 343/313/347
f 357/327/361 353/323/357 356/326/360
f 354/324/358 355/325/359 358/328/362
f 354/324/358 358/328/362 343/313/347
f 359/329/363 357/327/361 356/326/360
f 359/329/363 356/326/360 343/313/347
f 360/330/364 357/327/361 359/329/363
f 360/330/364 359/329/363 343/313/347
f 357/327/361 360/330/364 361/331/365
f 355/325/359 362/332/366 358/328/362
f 358/328/362 362/332/366 343/313/347
f 362/332/366 360/330/364 343/313/347
f 362/332/366 361/331/365 360/330/364
f 362/332/366 355/325/359 363/333/367
f 361/331/365 362/332/366 363/333/367
f 364/334/368 366/335/369 365/336/370
f 367/337/371 368/338/372 369/339/373
f 372/337/374 370/339/375 371/340/376
f 375/341/377 373/342/378 374/343/379
f 373/342/378 375/341/377 376/344/380
f 374/343/379 377/345/381 375/341/377
f 376/344/380 378/346/382 373/342/378
f 378/346/382 376/344/380 379/347/383
f 374/343/379 380/348/384 377/345/381
f 380/348/384 381/349/385 377/345/381
f 381/349/385 380/348/384 382/350/386
f 381/349/385 382/350/386 383/351/387
f 381/349/385 383/351/387 384/352/388
f 388/349/389 386/352/390 387/353/391
f 388/349/389 387/353/391 389/354/392
f 390/355/393 388/349/389 389/354/392
f 388/349/389 390/355/393 391/345/394
f 392/356/395 391/345/394 390/355/393
f 392/356/395 393/341/396 391/345/394
f 394/357/397 393/341/396 392/356/395
f 393/341/396 394/357/397 395/344/398
f 385/358/399 395/344/398 394/357/397
f 395/344/398 385/358/399 396/347/400
f 397/359/401 398/360/402 399/361/403
f 397/359/401 400/362/404 398/360/402
f 401/363/405 398/360/402 400/362/404
f 398/360/402 403/364/406 399/361/403
f 403/364/406 402/365/407 399/361/403
f 401/363/405 404/366/408 398/360/402
f 398/360/402 405/367/409 403/364/406
f 405/367/409 398/360/402 404/366/408
f 404/366/408 401/363/405 406/368/410
f 402/365/407 403/364/406 407/369/411
f 405/367/409 407/369/411 403/364/406
f 402/365/407 407/369/411 408/370/412
f 407/369/411 411/371/413 408/370/412
f 408/370/412 411/371/413 409/372/414
f 405/367/409 412/373/415 407/369/411
f 411/371/413 407/369/411 412/373/415
f 414/374/416 410/375/417 413/376/418
f 415/377/419 409/372/414 411/371/413
f 415/377/419 411/371/413 412/373/415
f 413/376/420 409/372/414 415/377/419
f 416/378/421 413/376/420 415/377/419
f 417/379/422 415/377/419 412/373/415
f 417/379/422 412/373/415 420/380/423
f 419/381/424 417/379/422 420/380/423
f 420/380/423 412/373/415 405/367/409
f 421/382/425 419/381/424 420/380/423
f 418/383/426 421/382/425 422/384/427
f 422/384/427 406/368/410 423/385/428
f 406/368/410 422/384/427 404/366/408
f 421/382/425 420/380/423 424/386/429
f 424/386/429 422/384/427 421/382/425
f 424/386/429 420/380/423 405/367/409
f 422/384/427 424/386/429 404/366/408
f 424/386/429 405/367/409 404/366/408
f 427/387/430 426/388/431 425/389/432
f 429/390/433 430/391/434 428/392/435
f 432/393/436 433/394/437 431/395/438
f 434/391/439 435/396/440 436/392/441
f 439/397/442 438/388/443 437/398/444
f 442/399/445 441/347/446 440/400/447
f 442/399/445 440/400/447 444/401/448
f 445/402/449 442/399/445 444/401/448
f 444/401/448 446/403/450 445/402/449
f 443/404/419 447/405/451 444/401/448
f 447/405/451 446/403/450 444/401/448
f 446/403/450 447/405/451 448/406/452
f 450/407/453 449/408/454 448/406/452
f 450/407/453 448/406/452 451/409/455
f 453/410/456 452/411/457 451/409/458
f 448/406/452 447/405/451 454/412/459
f 451/409/455 448/406/452 454/412/459
f 454/412/459 455/413/460 451/409/455
f 453/410/456 451/409/458 456/414/461
f 456/414/461 457/415/462 453/410/456
f 457/415/462 456/414/461 458/416/463
f 459/417/464 461/415/465 460/418/466
f 462/410/467 461/415/465 459/417/464
f 462/410/467 459/417/464 463/419/468
f 462/410/467 463/419/468 464/411/469
f 463/419/468 465/407/470 464/411/469
f 467/420/471 465/407/470 463/419/468
f 463/419/468 466/421/472 467/420/471
f 465/407/470 467/420/471 468/408/439
f 469/422/473 468/408/439 467/420/471
f 470/403/474 469/422/475 471/402/476
f 469/422/475 472/423/477 471/402/476
f 471/402/476 472/423/477 473/399/478
f 474/424/479 473/399/478 472/423/477
f 475/347/480 473/399/478 474/424/479
f 476/425/481 477/426/482 478/427/483
f 477/426/482 479/428/484 478/427/483
f 479/428/484 477/426/482 480/429/485
f 479/428/484 480/429/485 481/430/486
f 481/430/486 482/431/487 479/428/484
f 482/431/487 481/430/486 483/362/488
f 484/432/489 476/425/481 485/433/490
f 485/433/490 476/425/481 478/427/483
f 485/433/490 478/427/483 487/434/491
f 485/433/490 487/434/491 486/435/492
f 478/427/483 488/436/493 487/434/491
f 479/428/484 488/436/493 478/427/483
f 490/437/494 489/438/495 491/439/496
f 486/435/492 493/440/497 489/438/495
f 493/440/497 486/435/492 487/434/491
f 489/438/495 493/440/497 491/439/496
f 491/439/498 494/441/499 492/442/500
f 487/434/491 495/443/501 493/440/497
f 487/434/491 488/436/493 495/443/501
f 491/439/496 493/440/497 496/444/502
f 493/440/497 495/443/501 496/444/502
f 497/445/503 491/439/496 496/444/502
f 498/446/504 497/445/503 496/444/502
f 496/444/502 495/443/501 498/446/504
f 495/443/501 500/447/505 498/446/504
f 499/448/506 498/446/504 500/447/505
f 495/443/501 501/449/507 500/447/505
f 499/448/506 500/447/505 501/449/507
f 488/436/493 502/450/508 495/443/501
f 502/450/508 501/449/507 495/443/501
f 479/428/484 502/450/508 488/436/493
f 502/450/508 479/428/484 482/431/487
f 502/450/508 482/431/487 501/449/507
f 503/451/509 499/448/506 501/449/507
f 482/431/487 503/451/509 501/449/507
f 504/452/510 503/451/509 482/431/487
f 482/431/487 483/362/488 504/452/510
