# Blender 5.2.0 LTS
# www.blender.org
mtllib CRABS ON pumpkin.mtl
o Crab_Claws.001
v 0.070394 0.019175 -1.307976
v 0.066873 0.043787 -1.289449
v 0.094897 0.052181 -1.261281
v 0.106207 0.007861 -1.234876
v 0.006069 0.053123 -1.123046
v 0.003783 0.005272 -1.081938
v -0.032195 0.051208 -1.005627
v -0.061169 -0.079993 -0.654777
v -0.082434 -0.074316 -0.769958
v -0.042932 -0.009953 -0.719192
v -0.039995 -0.009292 -0.781808
v -0.052654 -0.056982 -0.851815
v 0.006438 0.001242 -0.847443
v -0.034222 -0.002956 -0.927216
v -0.057340 -0.052749 -0.953766
v 0.022064 0.007287 -0.987347
v -0.030213 -0.044679 -1.015066
v 0.003783 0.005272 -1.081938
v 0.014302 -0.035590 -1.139750
v 0.106207 0.007861 -1.234876
v -0.059067 0.054301 -0.959842
v -0.034222 -0.002956 -0.927216
v -0.065997 0.053826 -0.876874
v 0.006438 0.001242 -0.847443
v -0.070818 0.060638 -0.831445
v -0.039995 -0.009292 -0.781808
v -0.083399 0.057702 -0.706065
v -0.042932 -0.009953 -0.719192
v 0.004162 -0.006519 -0.645876
v -0.048678 0.049389 -0.631303
v -0.015754 -0.018088 -0.547912
v -0.029936 0.061776 -0.488294
v 0.043620 -0.020187 -0.461612
v 0.368421 0.109262 -0.320779
v 0.419220 -0.016496 -0.334734
v 0.456827 -0.018365 -0.270059
v 0.407989 0.106894 -0.250332
v 0.472543 -0.025055 -0.061406
v 0.430854 0.108912 -0.022775
v 0.451529 -0.019587 0.094877
v 0.320112 0.223942 0.004861
v 0.407904 0.117416 0.124706
v 0.409677 -0.023463 0.219408
v 0.377313 0.105599 0.227759
v 0.422504 -0.031965 0.391142
v 0.304597 0.231863 0.160759
v 0.291034 0.215230 0.231711
v 0.320466 0.193084 0.394535
v 0.394868 0.093831 0.388259
v 0.408685 0.030933 0.389700
v 0.353148 0.202348 0.494350
v 0.427257 0.095553 0.490013
v 0.347449 0.181448 0.564485
v 0.405994 0.082370 0.563825
v 0.438368 0.026566 0.489002
v 0.412661 -0.041576 0.559697
v 0.449478 -0.042422 0.487991
v 0.419328 -0.165520 0.555569
v 0.472543 -0.025055 -0.061406
v 0.411099 -0.148829 -0.265677
v 0.456827 -0.018365 -0.270059
v 0.375646 -0.142439 -0.331258
v 0.419220 -0.016496 -0.334734
v 0.438531 -0.148664 -0.051453
v 0.451529 -0.019587 0.094877
v 0.339281 -0.268615 -0.019672
v 0.416091 -0.156982 0.107224
v 0.383200 -0.153878 0.214970
v 0.409677 -0.023463 0.219408
v 0.043620 -0.020187 -0.461612
v 0.302726 -0.270128 0.213170
v 0.400127 -0.166118 0.377125
v 0.330223 -0.272050 0.374821
v 0.433187 -0.182132 0.477304
v 0.358699 -0.290336 0.543010
v 0.364378 -0.296097 0.471085
v -0.022603 -0.132485 -0.469886
v -0.051021 -0.099116 -0.538820
v -0.015754 -0.018088 -0.547912
v 0.004162 -0.006519 -0.645876
v -0.134696 -0.157842 -0.566027
v -0.061169 -0.079993 -0.654777
v -0.082434 -0.074316 -0.769958
v -0.223551 -0.186039 -0.678827
v -0.039995 -0.009292 -0.781808
v -0.052654 -0.056982 -0.851815
v 0.006438 0.001242 -0.847443
v -0.219201 -0.170996 -0.795288
v -0.305583 -0.197634 -0.765260
v -0.270605 -0.267277 -0.419142
v -0.057340 -0.052749 -0.953766
v 0.022064 0.007287 -0.987347
v -0.127798 -0.099786 -0.930785
v -0.030213 -0.044679 -1.015066
v 0.014302 -0.035590 -1.139750
v 0.106207 0.007861 -1.234876
v -0.054373 -0.080279 -1.130048
v 0.089063 -0.018309 -1.272375
v 0.160197 0.020413 -1.311997
v 0.070394 0.019175 -1.307976
v -0.192207 -0.132829 -0.934191
v -0.079372 -0.075714 -1.167185
v 0.049057 -0.017371 -1.286088
v -0.253423 -0.154122 -0.903727
v -0.199332 -0.043241 -1.170979
v -0.239151 -0.120219 -1.028124
v -0.355989 -0.066621 -1.036245
v -0.315506 -0.114220 -0.994836
v -0.303706 -0.149522 -0.900550
v -0.392337 -0.118290 -0.866689
v -0.357882 -0.180718 -0.775037
v -0.477754 -0.077458 -0.818749
v -0.543331 -0.098454 -0.585431
v -0.445349 -0.154328 -0.704266
v -0.392208 -0.208003 -0.607882
v -0.454967 -0.192031 -0.401476
v -0.354751 -0.252397 -0.396544
v -0.260750 -0.332083 -0.257750
v -0.418164 -0.251193 -0.248331
v -0.377852 -0.278995 0.001605
v -0.519625 -0.155370 -0.221684
v 0.411099 -0.148829 -0.265677
v 0.375646 -0.142439 -0.331258
v 0.339281 -0.268615 -0.019672
v 0.076549 -0.141765 -0.414538
v 0.302726 -0.270128 0.213170
v 0.330223 -0.272050 0.374821
v 0.358699 -0.290336 0.543010
v 0.364378 -0.296097 0.471085
v 0.232315 -0.341661 0.555810
v 0.205127 -0.363179 0.484607
v -0.037870 -0.343745 0.596536
v -0.055300 -0.359306 0.527017
v -0.150874 -0.302172 0.619808
v 0.214833 -0.330384 0.386280
v 0.076290 -0.348647 0.405743
v 0.180562 -0.339589 0.230165
v -0.179777 -0.309745 0.552486
v -0.178101 -0.285399 0.449894
v -0.199761 -0.283389 0.287079
v -0.062674 -0.337600 0.426710
v 0.047462 -0.363430 0.247014
v -0.080084 -0.349543 0.261390
v -0.295287 -0.292621 0.170075
v 0.024187 -0.394033 0.146335
v -0.186932 -0.368894 0.073560
v 0.185012 -0.363218 0.122484
v -0.027638 -0.392117 -0.075627
v 0.149234 -0.346587 -0.203260
v -0.076087 -0.366193 -0.271778
v 0.279972 -0.257783 -0.279922
v 0.189175 -0.244797 -0.331049
v 0.090576 -0.327396 -0.296273
v -0.138431 -0.254681 -0.409373
v -0.022603 -0.132485 -0.469886
v -0.209146 -0.222021 -0.509654
v -0.051021 -0.099116 -0.538820
v -0.134696 -0.157842 -0.566027
v -0.147295 0.203675 -0.389962
v -0.054426 0.143047 -0.415416
v 0.077792 0.275960 -0.271150
v -0.366740 0.060723 -1.018816
v -0.376536 -0.001833 -1.056937
v -0.247596 0.056799 -1.135911
v -0.235066 0.006241 -1.182106
v -0.083953 0.056659 -1.227633
v 0.070394 0.019175 -1.307976
v 0.066873 0.043787 -1.289449
v 0.089063 -0.018309 -1.272375
v 0.070394 0.019175 -1.307976
v 0.049057 -0.017371 -1.286088
v -0.235066 0.006241 -1.182106
v -0.199332 -0.043241 -1.170979
v -0.355989 -0.066621 -1.036245
v -0.376536 -0.001833 -1.056937
v -0.029936 0.061776 -0.488294
v 0.043620 -0.020187 -0.461612
v 0.082083 0.076713 -0.410691
v 0.302998 -0.018289 -0.373002
v 0.368421 0.109262 -0.320779
v 0.419220 -0.016496 -0.334734
v 0.165651 0.206540 -0.310113
v 0.285446 0.206577 -0.260728
v 0.375646 -0.142439 -0.331258
v 0.419220 -0.016496 -0.334734
v 0.302998 -0.018289 -0.373002
v 0.076549 -0.141765 -0.414538
v 0.043620 -0.020187 -0.461612
v 0.279972 -0.257783 -0.279922
v 0.189175 -0.244797 -0.331049
v 0.090576 -0.327396 -0.296273
v -0.138431 -0.254681 -0.409373
v -0.022603 -0.132485 -0.469886
v -0.540745 -0.050228 0.002160
v -0.525940 0.070727 -0.215635
v -0.560995 -0.037917 -0.316797
v -0.530361 0.052525 -0.352597
v -0.578383 -0.028242 -0.547081
v -0.494558 0.073018 0.035502
v -0.473497 -0.050320 0.163973
v -0.426357 0.082089 0.181693
v -0.309719 -0.042058 0.328816
v -0.371477 0.193813 0.083987
v -0.286467 0.085569 0.326238
v -0.269145 -0.059420 0.493596
v -0.274366 0.211594 0.230972
v -0.546755 0.046667 -0.562019
v -0.486854 0.052049 -0.795331
v -0.499369 -0.013598 -0.850251
v -0.366740 0.060723 -1.018816
v -0.376536 -0.001833 -1.056937
v -0.355989 -0.066621 -1.036245
v -0.376536 -0.001833 -1.056937
v -0.499369 -0.013598 -0.850251
v -0.477754 -0.077458 -0.818749
v -0.543331 -0.098454 -0.585431
v -0.578383 -0.028242 -0.547081
v -0.454967 -0.192031 -0.401476
v -0.527279 -0.121485 -0.368635
v -0.560995 -0.037917 -0.316797
v -0.377852 -0.278995 0.001605
v -0.519625 -0.155370 -0.221684
v -0.540745 -0.050228 0.002160
v -0.490988 -0.169742 0.022645
v -0.422672 -0.175910 0.166983
v -0.473497 -0.050320 0.163973
v -0.188873 0.185318 0.575011
v -0.159060 0.164394 0.640404
v -0.252336 0.075185 0.592900
v -0.208067 0.063313 0.657094
v -0.212526 0.198430 0.306741
v -0.187870 0.177911 0.469328
v -0.252371 0.074958 0.485672
v -0.260757 0.007768 0.489633
v -0.258713 0.006387 0.595088
v -0.265091 -0.062410 0.597275
v -0.208771 -0.058548 0.654440
v -0.150874 -0.302172 0.619808
v -0.179777 -0.309745 0.552486
v -0.246901 -0.199900 0.580539
v -0.178101 -0.285399 0.449894
v -0.209475 -0.180409 0.651785
v -0.265091 -0.062410 0.597275
v -0.208771 -0.058548 0.654440
v -0.269145 -0.059420 0.493596
v -0.246762 -0.183502 0.474697
v -0.279109 -0.172209 0.317167
v -0.309719 -0.042058 0.328816
v -0.199761 -0.283389 0.287079
v -0.295287 -0.292621 0.170075
v -0.240285 0.166574 -0.581754
v -0.301322 0.168091 -0.773547
v -0.314229 0.195142 -0.496757
v -0.229972 0.150835 -0.787820
v -0.290971 0.148803 -0.852976
v -0.181904 0.174429 -0.471820
v -0.367988 0.154109 -0.755424
v -0.424798 0.109852 -0.776586
v -0.479132 0.113712 -0.564129
v -0.400527 0.166854 -0.553350
v -0.363292 0.192239 -0.380473
v -0.251776 0.226560 -0.373771
v -0.279129 0.258763 -0.251116
v -0.087144 0.305915 -0.249267
v -0.147295 0.203675 -0.389962
v -0.054426 0.143047 -0.415416
v 0.077792 0.275960 -0.271150
v -0.525940 0.070727 -0.215635
v -0.530361 0.052525 -0.352597
v -0.494558 0.073018 0.035502
v -0.426803 0.174162 -0.230282
v -0.371477 0.193813 0.083987
v -0.274366 0.211594 0.230972
v -0.450998 0.135481 -0.364827
v -0.210171 0.286946 0.072837
v -0.546755 0.046667 -0.562019
v -0.486854 0.052049 -0.795331
v -0.366740 0.060723 -1.018816
v -0.247596 0.056799 -1.135911
v -0.314652 0.103629 -0.999728
v -0.083953 0.056659 -1.227633
v -0.265740 0.123276 -0.990991
v 0.070394 0.019175 -1.307976
v -0.089154 0.097206 -1.154922
v 0.066873 0.043787 -1.289449
v 0.014037 0.076159 -1.205170
v 0.094897 0.052181 -1.261281
v 0.160197 0.020413 -1.311997
v 0.006069 0.053123 -1.123046
v 0.003783 0.005272 -1.081938
v -0.124198 0.108726 -1.065454
v -0.085222 0.084369 -1.002226
v -0.032195 0.051208 -1.005627
v 0.022064 0.007287 -0.987347
v -0.059067 0.054301 -0.959842
v -0.201641 0.127349 -0.909003
v -0.126506 0.093982 -0.865403
v -0.065997 0.053826 -0.876874
v 0.006438 0.001242 -0.847443
v -0.070818 0.060638 -0.831445
v -0.039995 -0.009292 -0.781808
v -0.083399 0.057702 -0.706065
v -0.048678 0.049389 -0.631303
v -0.139393 0.116927 -0.572655
v -0.029936 0.061776 -0.488294
v 0.082083 0.076713 -0.410691
v 0.368421 0.109262 -0.320779
v 0.165651 0.206540 -0.310113
v 0.407989 0.106894 -0.250332
v 0.285446 0.206577 -0.260728
v 0.320112 0.223942 0.004861
v 0.141297 0.290940 -0.165975
v 0.169924 0.303348 0.117265
v 0.304597 0.231863 0.160759
v 0.291034 0.215230 0.231711
v 0.177545 0.280497 0.220715
v -0.012267 0.329681 0.110275
v 0.042713 0.292636 0.252797
v 0.206854 0.238808 0.400492
v 0.320466 0.193084 0.394535
v 0.226120 0.245196 0.510678
v 0.353148 0.202348 0.494350
v 0.347449 0.181448 0.564485
v 0.232452 0.215980 0.578891
v -0.041477 0.244335 0.546039
v -0.044205 0.207831 0.619976
v 0.063559 0.246788 0.429458
v -0.188873 0.185318 0.575011
v -0.159060 0.164394 0.640404
v -0.077722 0.230195 0.454323
v -0.098782 0.263160 0.287622
v -0.137410 0.288402 0.216935
v -0.212526 0.198430 0.306741
v -0.187870 0.177911 0.469328
v -0.208067 0.063313 0.657094
v -0.095240 0.113065 0.668372
v -0.159060 0.164394 0.640404
v -0.044205 0.207831 0.619976
v -0.133253 0.034659 0.681318
v -0.208771 -0.058548 0.654440
v -0.006149 0.146757 0.652525
v -0.133799 -0.059867 0.679258
v 0.085117 -0.054131 0.505912
v -0.134345 -0.154392 0.677198
v -0.209475 -0.180409 0.651785
v 0.208449 0.153080 0.620657
v 0.232452 0.215980 0.578891
v -0.088890 -0.248841 0.652396
v -0.150874 -0.302172 0.619808
v -0.037870 -0.343745 0.596536
v 0.297647 0.126293 0.609482
v 0.347449 0.181448 0.564485
v 0.405994 0.082370 0.563825
v -0.001236 -0.281089 0.634344
v 0.232315 -0.341661 0.555810
v 0.343061 0.049439 0.608970
v 0.412661 -0.041576 0.559697
v 0.208342 -0.279472 0.602754
v 0.348232 -0.046702 0.605769
v 0.353403 -0.142844 0.602567
v 0.419328 -0.165520 0.555569
v 0.306375 -0.239661 0.592826
v 0.358699 -0.290336 0.543010
v 0.094897 0.052181 -1.261281
v 0.160197 0.020413 -1.311997
v 0.106207 0.007861 -1.234876
v -0.034222 -0.002956 -0.927216
v -0.057340 -0.052749 -0.953766
v 0.022064 0.007287 -0.987347
v 0.022064 0.007287 -0.987347
v -0.059067 0.054301 -0.959842
v -0.034222 -0.002956 -0.927216
v 0.492571 -0.060229 -0.523573
v 0.482544 -0.078173 -0.816997
v 0.511312 -0.010696 -0.805522
v 0.517666 -0.007889 -0.524385
v 0.404799 -0.009781 -0.955743
v 0.426641 -0.068142 -0.328677
v 0.445085 -0.010815 -0.331220
v 0.372858 -0.055802 -0.957994
v 0.339381 -0.010780 -1.083758
v 0.308245 -0.077328 -1.059821
v 0.218512 -0.073312 -1.141793
v 0.216136 -0.013745 -1.173011
v 0.425851 0.046230 -0.328585
v 0.216142 -0.013579 -1.173020
v 0.228513 0.053857 -1.130966
v 0.339387 -0.010614 -1.083768
v 0.299999 0.056217 -1.068111
v 0.372343 0.033475 -0.961106
v 0.404805 -0.009614 -0.955753
v 0.481134 0.059626 -0.813051
v 0.511318 -0.010530 -0.805532
v 0.491850 0.044261 -0.523489
v 0.517672 -0.007723 -0.524394
v 0.445091 -0.010649 -0.331229
v 0.492577 -0.060062 -0.523583
v 0.406716 -0.118571 -0.521024
v 0.482550 -0.078006 -0.817007
v 0.426647 -0.067976 -0.328687
v 0.367792 -0.131054 -0.320368
v 0.372865 -0.055635 -0.958004
v 0.402611 -0.127745 -0.809988
v 0.301653 -0.133280 -0.484195
v 0.310332 -0.163467 -0.781841
v 0.298106 -0.149156 -0.310777
v 0.285701 -0.108937 -0.933653
v 0.308251 -0.077161 -1.059831
v 0.218518 -0.073145 -1.141803
v 0.216142 -0.013579 -1.173020
v 0.212531 -0.103401 -1.079311
v 0.217189 -0.122007 -0.924451
v 0.120423 -0.048949 -1.153568
v 0.062935 -0.012540 -1.207792
v 0.160845 -0.090532 -1.099164
v 0.129256 -0.055622 -0.960250
v 0.175034 -0.105275 -0.930014
v 0.179431 -0.079547 -0.725215
v 0.188503 -0.127906 -0.827109
v 0.232546 -0.152854 -0.807873
v 0.222990 -0.123079 -0.677005
v 0.184418 -0.081467 -0.475939
v 0.188669 -0.085318 -0.295835
v 0.280361 -0.150475 -0.643067
v 0.219984 -0.069829 -1.135183
v 0.215631 -0.013490 -1.172052
v 0.119698 -0.049951 -1.153027
v 0.142289 -0.004780 -0.902355
v 0.144394 -0.069093 -0.836215
v 0.101293 -0.012779 -0.830236
v 0.151722 -0.006801 -0.770963
v 0.179425 -0.079714 -0.725205
v 0.122558 -0.011491 -0.702053
v 0.101293 -0.012779 -0.830236
v 0.168785 0.077883 -0.920337
v 0.142289 -0.004780 -0.902355
v 0.149605 0.055880 -1.125514
v 0.216136 -0.013745 -1.173011
v 0.228507 0.053691 -1.130956
v 0.120423 -0.048949 -1.153568
v 0.062935 -0.012540 -1.207792
v 0.109602 -0.006883 -1.074200
v 0.160845 -0.090532 -1.099164
v 0.129256 -0.055622 -0.960250
v 0.105775 -0.012476 -0.947247
v 0.142295 -0.004613 -0.902364
v 0.175034 -0.105275 -0.930014
v 0.144400 -0.068926 -0.836224
v 0.101299 -0.012613 -0.830246
v 0.151728 -0.006634 -0.770973
v 0.179431 -0.079547 -0.725215
v 0.122564 -0.011324 -0.702062
v 0.143186 -0.008963 -0.603298
v 0.188503 -0.127906 -0.827109
v 0.222990 -0.123079 -0.677005
v 0.184418 -0.081467 -0.475939
v 0.158400 0.004610 -0.291621
v 0.188669 -0.085318 -0.295835
v 0.182046 0.059829 -0.470120
v 0.244216 0.106884 -0.303440
v 0.158400 0.004610 -0.291621
v 0.143186 -0.008963 -0.603298
v 0.176266 0.055856 -0.742128
v 0.122564 -0.011324 -0.702062
v 0.151728 -0.006634 -0.770973
v 0.224739 0.094745 -0.673622
v 0.174051 0.094036 -0.840170
v 0.101299 -0.012613 -0.830246
v 0.168791 0.078050 -0.920346
v 0.142295 -0.004613 -0.902364
v 0.105775 -0.012476 -0.947247
v 0.124738 0.035684 -1.074865
v 0.109602 -0.006883 -1.074200
v 0.149611 0.056046 -1.125523
v 0.062935 -0.012540 -1.207792
v 0.182046 0.059829 -0.470120
v 0.244216 0.106884 -0.303440
v 0.278092 0.108570 -0.590218
v 0.349747 0.114068 -0.481743
v 0.336164 0.123861 -0.315894
v 0.385588 0.090571 -0.322820
v 0.421526 0.093402 -0.534812
v 0.425851 0.046230 -0.328585
v 0.176266 0.055856 -0.742128
v 0.224739 0.094745 -0.673622
v 0.174051 0.094036 -0.840170
v 0.235723 0.132516 -0.803390
v 0.284855 0.139754 -0.786913
v 0.168791 0.078050 -0.920346
v 0.124738 0.035684 -1.074865
v 0.149611 0.056046 -1.125523
v 0.062935 -0.012540 -1.207792
v 0.204499 0.094919 -0.938280
v 0.216142 -0.013579 -1.173020
v 0.256127 0.096845 -0.920027
v 0.210607 0.080273 -1.080570
v 0.228513 0.053857 -1.130966
v 0.299999 0.056217 -1.068111
v 0.372343 0.033475 -0.961106
v 0.320391 0.071227 -0.935611
v 0.394629 0.108102 -0.811907
v 0.354845 0.132834 -0.770804
v 0.481134 0.059626 -0.813051
v 0.491850 0.044261 -0.523489
vn 0.4625 0.8865 0.0144
vn -0.0937 0.7002 -0.7078
vn -0.0732 0.7926 -0.6053
vn 0.6991 0.6233 0.3502
vn 0.7218 0.4615 0.5157
vn 0.4624 0.8865 0.0142
vn 0.8672 0.4150 0.2752
vn 0.6199 0.7618 0.1882
vn 0.6894 -0.6905 -0.2190
vn 0.7180 -0.6952 -0.0343
vn 0.8368 -0.5085 -0.2027
vn 0.7930 -0.5822 0.1793
vn 0.6970 -0.7171 0.0028
vn 0.6969 -0.7171 0.0026
vn 0.8076 -0.5762 0.1257
vn 0.6976 -0.7164 0.0093
vn 0.6763 -0.7249 0.1308
vn 0.6667 -0.7354 0.1211
vn 0.8801 -0.4025 0.2519
vn 0.7096 -0.6921 0.1321
vn 0.6790 -0.6644 0.3123
vn 0.6158 -0.7338 0.2870
vn 0.7594 0.6323 0.1533
vn 0.6503 0.7207 0.2402
vn 0.6393 0.7664 -0.0631
vn 0.6654 0.7419 0.0826
vn 0.6749 0.7307 -0.1029
vn 0.7997 0.5484 0.2444
vn 0.6230 0.7782 0.0797
vn 0.8151 0.5622 -0.1399
vn 0.7552 0.6507 -0.0791
vn 0.7039 0.6945 -0.1487
vn 0.8701 0.4527 -0.1947
vn 0.6228 0.6049 -0.4963
vn 0.5299 0.3496 -0.7726
vn 0.5267 0.5080 -0.6816
vn 0.8856 0.3823 -0.2637
vn 0.6315 0.3326 -0.7005
vn 0.7984 0.5542 -0.2354
vn 0.9506 0.3103 0.0036
vn 0.8702 0.4925 0.0109
vn 0.9467 0.2517 0.2010
vn 0.5944 0.8033 -0.0365
vn 0.8677 0.4561 0.1974
vn 0.9637 0.2338 0.1288
vn 0.8916 0.4363 0.1214
vn 0.9802 0.0384 -0.1941
vn 0.6153 0.7709 0.1646
vn 0.6204 0.7678 0.1602
vn 0.5954 0.7953 -0.1140
vn 0.8935 0.4092 -0.1847
vn 0.9636 0.1987 -0.1788
vn 0.6146 0.7882 0.0315
vn 0.9345 0.3558 0.0088
vn 0.6050 0.7312 0.3152
vn 0.8995 0.2975 0.3198
vn 0.9885 0.1401 0.0572
vn 0.9011 0.0741 0.4272
vn 0.9967 0.0449 0.0679
vn 0.9338 -0.2592 0.2468
vn 0.9620 -0.2732 0.0029
vn 0.8067 -0.5189 -0.2827
vn 0.9041 -0.3224 -0.2805
vn 0.5473 -0.4189 -0.7246
vn 0.6476 -0.2472 -0.7208
vn 0.8919 -0.4522 -0.0002
vn 0.9503 -0.2320 0.2078
vn 0.6421 -0.7659 -0.0348
vn 0.8823 -0.4327 0.1855
vn 0.9158 -0.3916 0.0889
vn 0.9724 -0.2044 0.1121
vn 0.6620 -0.7491 0.0251
vn 0.9121 -0.3322 -0.2402
vn 0.6414 -0.7301 -0.2357
vn 0.9416 -0.3275 -0.0785
vn 0.6570 -0.7383 0.1529
vn 0.6618 -0.7426 -0.1026
vn 0.5355 -0.3126 -0.7845
vn 0.5266 -0.5527 -0.6460
vn 0.7264 -0.5842 -0.3622
vn 0.8929 -0.4116 -0.1824
vn 0.7930 -0.5693 -0.2167
vn 0.5409 -0.7940 -0.2775
vn 0.6892 -0.6907 -0.2190
vn 0.4487 -0.8769 -0.1725
vn 0.7178 -0.6954 -0.0343
vn 0.7929 -0.5824 0.1795
vn 0.6969 -0.7171 0.0029
vn 0.6976 -0.7164 0.0095
vn 0.3898 -0.9125 -0.1242
vn 0.6968 -0.7173 0.0027
vn -0.0060 -0.9732 -0.2300
vn -0.0663 -0.9369 -0.3434
vn 0.5085 -0.8610 -0.0024
vn 0.7095 -0.6921 0.1323
vn 0.6665 -0.7356 0.1211
vn 0.3416 -0.9389 -0.0421
vn 0.6789 -0.6646 0.3122
vn 0.3598 -0.9008 -0.2430
vn 0.6157 -0.7339 0.2869
vn 0.3586 -0.8743 -0.3271
vn -0.0684 -0.6046 -0.7936
vn 0.3504 -0.9303 -0.1085
vn -0.0242 -0.9140 -0.4049
vn -0.1041 -0.7103 -0.6961
vn 0.0510 -0.9673 -0.2485
vn -0.3377 -0.6406 -0.6896
vn -0.1319 -0.9136 -0.3846
vn -0.3728 -0.8412 -0.3916
vn -0.5852 -0.6074 -0.5373
vn -0.2682 -0.9090 -0.3191
vn -0.5063 -0.7881 -0.3501
vn -0.3622 -0.8830 -0.2986
vn -0.7279 -0.5930 -0.3443
vn -0.5797 -0.7780 -0.2422
vn -0.8048 -0.5745 -0.1491
vn -0.4049 -0.9001 -0.1611
vn -0.6192 -0.7777 -0.1085
vn -0.3723 -0.9066 -0.1988
vn -0.3152 -0.9331 -0.1733
vn -0.5789 -0.8118 -0.0763
vn -0.5732 -0.8126 0.1056
vn -0.8405 -0.5419 0.0013
vn 0.2451 -0.9539 0.1733
vn 0.6616 -0.7428 -0.1024
vn 0.6568 -0.7384 0.1529
vn 0.1858 -0.9815 -0.0459
vn 0.6412 -0.7303 -0.2357
vn -0.1340 -0.9579 0.2540
vn -0.1992 -0.9792 0.0380
vn -0.5413 -0.7561 0.3678
vn 0.2974 -0.9401 -0.1665
vn 0.6617 -0.7493 0.0251
vn 0.0068 -0.9982 -0.0600
vn 0.3279 -0.9388 0.1057
vn -0.6324 -0.7674 0.1057
vn -0.6543 -0.7557 -0.0279
vn -0.5575 -0.7762 0.2944
vn -0.2563 -0.9654 -0.0475
vn 0.0609 -0.9839 0.1679
vn -0.2430 -0.9512 0.1904
vn -0.5249 -0.7705 0.3615
vn 0.0301 -0.9906 0.1336
vn -0.3029 -0.9473 0.1040
vn 0.3659 -0.9279 0.0714
vn 0.6420 -0.7659 -0.0348
vn -0.0003 -0.9973 -0.0736
vn 0.3171 -0.9247 -0.2107
vn -0.0148 -0.9359 -0.3520
vn 0.4751 -0.7551 -0.4518
vn 0.8066 -0.5191 -0.2827
vn 0.5472 -0.4188 -0.7246
vn 0.2197 -0.7806 -0.5852
vn 0.2493 -0.5544 -0.7940
vn 0.2334 -0.7256 -0.6473
vn 0.5264 -0.5528 -0.6460
vn 0.3038 -0.3943 -0.8673
vn 0.3786 -0.8696 -0.3168
vn 0.5409 -0.7940 -0.2773
vn 0.7263 -0.5843 -0.3621
vn 0.1974 0.8069 -0.5567
vn 0.1949 0.8396 -0.5071
vn 0.3208 0.6566 -0.6826
vn -0.6385 0.6147 -0.4631
vn -0.4402 0.6816 -0.5845
vn -0.6926 0.4413 -0.5706
vn -0.4717 0.5150 -0.7158
vn -0.2768 0.6641 -0.6945
vn -0.0936 0.7001 -0.7079
vn -0.0732 0.7925 -0.6054
vn -0.1042 -0.7101 -0.6963
vn -0.0684 -0.6044 -0.7937
vn -0.4597 -0.4597 -0.7599
vn -0.3379 -0.6403 -0.6898
vn -0.5853 -0.6071 -0.5375
vn -0.6832 -0.4088 -0.6051
vn 0.3206 0.4265 -0.8458
vn 0.5299 0.3495 -0.7727
vn 0.6227 0.6049 -0.4964
vn 0.2852 0.2529 -0.9245
vn 0.5265 0.5081 -0.6817
vn 0.6312 0.3326 -0.7007
vn 0.2369 0.6215 -0.7467
vn 0.4482 0.8015 -0.3959
vn 0.5471 -0.4188 -0.7247
vn 0.2877 -0.1680 -0.9429
vn 0.6474 -0.2471 -0.7210
vn 0.3037 -0.3942 -0.8674
vn 0.5354 -0.3125 -0.7847
vn 0.4750 -0.7550 -0.4520
vn 0.2492 -0.5543 -0.7941
vn 0.2197 -0.7804 -0.5854
vn 0.2334 -0.7256 -0.6474
vn 0.5265 -0.5526 -0.6461
vn -0.9338 0.2841 0.2174
vn -0.8630 0.5043 0.0308
vn -0.9495 0.3098 0.0503
vn -0.8531 0.5216 0.0123
vn -0.9268 0.3719 -0.0533
vn -0.8502 0.4755 0.2259
vn -0.8300 0.2189 0.5129
vn -0.7585 0.4076 0.5084
vn -0.8538 0.1715 0.4916
vn -0.6167 0.7644 0.1879
vn -0.8102 0.3747 0.4507
vn -0.9830 0.1309 0.1291
vn -0.5508 0.7140 0.4323
vn -0.8314 0.5494 -0.0833
vn -0.7793 0.5682 -0.2643
vn -0.8328 0.4319 -0.3462
vn -0.6386 0.6147 -0.4630
vn -0.6928 0.4411 -0.5704
vn -0.5854 -0.6071 -0.5374
vn -0.8085 -0.4468 -0.3831
vn -0.6834 -0.4088 -0.6049
vn -0.7280 -0.5929 -0.3443
vn -0.8049 -0.5744 -0.1491
vn -0.9137 -0.4000 -0.0713
vn -0.8311 -0.5555 -0.0266
vn -0.6193 -0.7776 -0.1084
vn -0.9334 -0.3584 0.0192
vn -0.8406 -0.5417 0.0014
vn -0.9186 -0.3396 0.2019
vn -0.5733 -0.8125 0.1058
vn -0.8141 -0.5409 0.2112
vn -0.7249 -0.4892 0.4851
vn -0.7983 -0.2980 0.5234
vn -0.5158 0.7006 0.4930
vn -0.6208 0.7490 0.2315
vn -0.9070 0.2948 0.3006
vn -0.7679 0.2465 0.5912
vn -0.5663 0.7269 0.3886
vn -0.6472 0.7569 0.0905
vn -0.9353 0.3378 0.1053
vn -0.9848 0.1251 0.1205
vn -0.9333 0.0865 0.3486
vn -0.9168 0.1088 0.3843
vn -0.7549 0.0573 0.6533
vn -0.5415 -0.7560 0.3678
vn -0.9020 -0.3712 0.2203
vn -0.6327 -0.7672 0.1057
vn -0.6545 -0.7555 -0.0279
vn -0.7941 -0.2933 0.5323
vn -0.9280 -0.1149 0.3545
vn -0.7138 -0.0117 0.7002
vn -0.9774 -0.1870 0.0984
vn -0.9254 -0.3764 0.0447
vn -0.8010 -0.4423 0.4035
vn -0.8460 -0.2496 0.4711
vn -0.5576 -0.7761 0.2945
vn -0.5251 -0.7704 0.3617
vn 0.3345 0.9341 -0.1251
vn -0.0360 0.9867 -0.1588
vn -0.0650 0.9873 -0.1449
vn 0.3382 0.9368 -0.0896
vn -0.1200 0.9689 -0.2165
vn 0.3372 0.8784 -0.3388
vn -0.4093 0.8832 -0.2287
vn -0.5737 0.7828 -0.2410
vn -0.6346 0.7694 -0.0731
vn -0.4210 0.9036 -0.0785
vn -0.4223 0.8992 -0.1142
vn -0.0783 0.9368 -0.3411
vn -0.3604 0.9240 -0.1280
vn -0.0420 0.9531 -0.2997
vn 0.1973 0.8070 -0.5565
vn 0.3209 0.6567 -0.6824
vn 0.1949 0.8397 -0.5069
vn -0.8501 0.4757 0.2257
vn -0.6171 0.7867 -0.0194
vn -0.8629 0.5045 0.0308
vn -0.8530 0.5218 0.0123
vn -0.6166 0.7645 0.1877
vn -0.6380 0.7690 -0.0395
vn -0.3627 0.9279 0.0871
vn -0.5507 0.7141 0.4322
vn -0.8312 0.5497 -0.0832
vn -0.7791 0.5684 -0.2643
vn -0.6385 0.6149 -0.4629
vn -0.4143 0.8397 -0.3510
vn -0.4400 0.6818 -0.5844
vn -0.2025 0.9369 -0.2849
vn -0.0430 0.9570 -0.2869
vn -0.2767 0.6643 -0.6943
vn 0.2182 0.9710 -0.0981
vn -0.0731 0.7927 -0.6052
vn 0.4624 0.8865 0.0143
vn 0.4626 0.8865 0.0144
vn 0.4472 0.8881 -0.1065
vn -0.0936 0.7002 -0.7078
vn 0.6990 0.6235 0.3502
vn 0.2761 0.9605 0.0356
vn 0.4852 0.8611 0.1520
vn 0.6199 0.7618 0.1881
vn 0.6299 0.7515 0.1962
vn 0.8672 0.4150 0.2750
vn 0.6501 0.7209 0.2402
vn 0.2986 0.9537 -0.0348
vn 0.4863 0.8734 0.0252
vn 0.6392 0.7665 -0.0630
vn 0.6229 0.7782 0.0796
vn 0.6653 0.7419 0.0828
vn 0.7996 0.5485 0.2446
vn 0.6747 0.7309 -0.1028
vn 0.5189 0.8395 -0.1610
vn 0.7037 0.6947 -0.1488
vn 0.6226 0.6050 -0.4963
vn 0.3206 0.4267 -0.8456
vn 0.4484 0.8015 -0.3957
vn 0.7983 0.5543 -0.2353
vn 0.5265 0.5081 -0.6816
vn 0.2370 0.6216 -0.7466
vn 0.5941 0.8035 -0.0366
vn 0.2703 0.9494 -0.1602
vn 0.2912 0.9546 0.0624
vn 0.6151 0.7711 0.1646
vn 0.2953 0.9374 0.1848
vn 0.6201 0.7680 0.1602
vn -0.0220 0.9962 0.0844
vn 0.0198 0.9705 0.2401
vn 0.2289 0.9724 0.0459
vn 0.5952 0.7954 -0.1140
vn 0.1850 0.9722 0.1436
vn 0.6144 0.7883 0.0315
vn 0.6048 0.7313 0.3152
vn 0.1881 0.9091 0.3718
vn -0.1587 0.9695 0.1866
vn -0.1357 0.8975 0.4197
vn 0.0012 0.9941 0.1086
vn -0.6205 0.7492 0.2314
vn -0.5155 0.7009 0.4930
vn -0.2893 0.9537 0.0826
vn -0.2637 0.9084 0.3245
vn -0.2830 0.9085 0.3074
vn -0.5660 0.7270 0.3886
vn -0.6470 0.7571 0.0905
vn -0.2551 0.1308 0.9580
vn 0.1345 0.1204 0.9836
vn -0.1250 0.3579 0.9254
vn 0.0335 0.4879 0.8723
vn 0.1238 0.0211 0.9921
vn -0.3128 -0.0176 0.9497
vn 0.1638 0.0516 0.9851
vn 0.1766 -0.0255 0.9839
vn 0.1549 -0.0533 0.9865
vn 0.1312 -0.0883 0.9874
vn -0.2505 -0.1998 0.9473
vn 0.1284 0.0532 0.9903
vn 0.1933 0.4929 0.8483
vn 0.1388 -0.1952 0.9709
vn -0.1065 -0.4284 0.8973
vn 0.0438 -0.5362 0.8430
vn 0.1628 0.1189 0.9795
vn 0.3694 0.3686 0.8530
vn 0.5198 0.1541 0.8403
vn 0.1641 -0.1287 0.9780
vn 0.2229 -0.5318 0.8170
vn 0.1848 0.0215 0.9825
vn 0.5802 0.0015 0.8145
vn 0.1362 -0.1381 0.9810
vn 0.1269 -0.0219 0.9917
vn 0.1827 -0.0846 0.9795
vn 0.5320 -0.1705 0.8294
vn 0.1691 -0.1866 0.9678
vn 0.3874 -0.4110 0.8253
vn 0.4471 0.8881 -0.1066
vn 0.8075 -0.5763 0.1260
vn 0.6763 -0.7249 0.1309
vn 0.7594 0.6323 0.1535
vn 0.6299 0.7514 0.1963
vn 0.6501 0.7208 0.2403
vn 0.9004 -0.3557 -0.2507
vn 0.7987 -0.5876 0.1294
vn 0.7337 -0.6153 -0.2883
vn 0.9129 -0.3839 0.1389
vn 0.7346 -0.4440 -0.5130
vn 0.7718 -0.5999 0.2108
vn 0.8868 -0.3452 0.3074
vn 0.6149 -0.6683 -0.4186
vn 0.6794 -0.4828 -0.5525
vn 0.5380 -0.7390 -0.4056
vn 0.2410 -0.7219 -0.6486
vn 0.2962 -0.5724 -0.7646
vn 0.6767 0.4933 -0.5466
vn 0.2860 0.5633 -0.7751
vn 0.2951 0.7004 -0.6499
vn 0.5261 0.7327 -0.4317
vn 0.6249 0.6637 -0.4111
vn 0.7306 0.4546 -0.5096
vn 0.7214 0.6335 -0.2796
vn 0.8912 0.3744 -0.2561
vn 0.7941 0.5940 0.1288
vn 0.9093 0.3913 0.1416
vn 0.7627 0.6033 0.2331
vn 0.8814 0.3500 0.3171
vn 0.7986 -0.5878 0.1294
vn 0.4246 -0.9028 0.0677
vn 0.7335 -0.6155 -0.2882
vn 0.7717 -0.6002 0.2106
vn 0.3739 -0.9273 0.0196
vn 0.4097 -0.8846 -0.2228
vn 0.6148 -0.6685 -0.4185
vn -0.1367 -0.9903 0.0246
vn 0.1190 -0.9876 -0.1020
vn -0.1780 -0.9825 -0.0551
vn 0.2933 -0.9129 -0.2840
vn 0.5379 -0.7391 -0.4055
vn 0.0484 -0.9594 -0.2779
vn 0.2408 -0.7221 -0.6485
vn -0.1002 -0.9754 -0.1963
vn -0.3918 -0.8575 -0.3334
vn 0.2961 -0.5726 -0.7645
vn -0.4353 -0.8287 -0.3517
vn -0.4180 -0.8762 -0.2401
vn -0.4352 -0.8287 -0.3518
vn -0.8115 -0.5424 0.2174
vn -0.6468 -0.7626 -0.0124
vn -0.3030 -0.9520 -0.0432
vn -0.6530 -0.7569 0.0268
vn -0.6013 -0.7913 0.1108
vn -0.8306 -0.5497 0.0893
vn -0.7384 -0.6736 0.0321
vn -0.7453 -0.6667 -0.0016
vn -0.2098 -0.9708 0.1162
vn -0.3957 -0.8721 -0.2877
vn 0.3457 -0.6268 -0.6983
vn 0.2921 -0.7682 -0.5697
vn -0.8708 -0.4891 0.0504
vn -0.7867 -0.6131 0.0721
vn -0.8947 -0.4436 0.0518
vn -0.8307 -0.5495 0.0893
vn -0.7744 -0.6314 -0.0404
vn -0.8918 -0.4256 0.1532
vn -0.8913 0.4467 0.0773
vn -0.7006 0.7112 -0.0573
vn -0.8891 0.4327 0.1489
vn 0.2950 0.7004 -0.6499
vn 0.2857 0.5634 -0.7752
vn -0.3525 0.8585 -0.3724
vn -0.9114 -0.4056 0.0694
vn -0.3917 -0.8575 -0.3336
vn -0.4350 -0.8288 -0.3518
vn -0.8115 -0.5423 0.2175
vn -0.8326 -0.4722 0.2894
vn -0.8947 -0.4436 0.0520
vn -0.6469 -0.7625 -0.0124
vn -0.8708 -0.4890 0.0505
vn -0.8919 -0.4254 0.1533
vn -0.7866 -0.6132 0.0719
vn -0.8307 -0.5495 0.0894
vn -0.8641 -0.5008 0.0504
vn -0.7744 -0.6314 -0.0403
vn -0.8306 -0.5496 0.0893
vn -0.6532 -0.7567 0.0268
vn -0.6015 -0.7911 0.1109
vn -0.7386 -0.6734 0.0321
vn -0.9255 -0.3757 0.0479
vn -0.7455 -0.6665 -0.0016
vn -0.7254 0.6882 0.0131
vn -0.7923 0.6050 0.0782
vn -0.4718 0.8815 0.0180
vn -0.8576 0.5130 0.0373
vn -0.8112 0.5670 0.1430
vn -0.7820 0.6232 -0.0096
vn -0.8751 0.4721 0.1067
vn -0.7205 0.6933 0.0135
vn -0.5753 0.8097 0.1158
vn -0.7007 0.7111 -0.0574
vn -0.8892 0.4327 0.1488
vn -0.7008 0.7111 -0.0573
vn -0.8549 0.4673 0.2252
vn -0.7719 0.6331 0.0582
vn -0.8251 0.5557 0.1019
vn -0.3524 0.8585 -0.3725
vn -0.4102 0.7989 -0.4399
vn -0.7252 0.6884 0.0130
vn -0.4716 0.8816 0.0179
vn -0.3192 0.9434 0.0898
vn 0.1457 0.9891 0.0203
vn 0.1193 0.9929 0.0024
vn 0.5157 0.8517 0.0937
vn 0.4966 0.8651 0.0710
vn 0.7625 0.6035 0.2330
vn -0.8110 0.5672 0.1430
vn -0.5752 0.8098 0.1158
vn -0.3341 0.9417 -0.0394
vn -0.7203 0.6935 0.0134
vn -0.0224 0.9948 -0.0992
vn -0.7717 0.6333 0.0583
vn -0.7006 0.7113 -0.0575
vn -0.2390 0.9624 -0.1293
vn -0.3526 0.8585 -0.3723
vn 0.2857 0.5635 -0.7752
vn -0.4103 0.7989 -0.4397
vn 0.1560 0.9528 -0.2605
vn 0.0078 0.9666 -0.2563
vn 0.2951 0.7005 -0.6498
vn 0.5260 0.7329 -0.4316
vn 0.3727 0.8727 -0.3153
vn 0.6247 0.6639 -0.4111
vn 0.3963 0.8817 -0.2562
vn 0.2850 0.9530 -0.1031
vn 0.7213 0.6338 -0.2795
vn 0.7939 0.5942 0.1288
vt 51.080502 -41.026001
vt 51.031898 -40.991600
vt 51.048698 -41.016998
vt 51.203300 -41.034698
vt 51.110001 -40.982601
vt 51.245399 -40.988800
vt 51.313400 -41.038700
vt 51.660500 -40.923302
vt 51.543301 -40.924500
vt 51.597000 -40.990101
vt 51.535599 -40.987999
vt 51.466400 -40.937599
vt 51.392601 -40.987999
vt 51.477501 -40.994701
vt 51.364799 -40.937599
vt 51.308102 -40.942402
vt 51.341499 -40.994499
vt 51.191502 -40.945202
vt 51.354401 -41.044300
vt 51.435200 -41.047501
vt 51.601101 -41.059101
vt 51.479099 -41.056400
vt 51.676498 -40.995701
vt 51.680500 -41.053299
vt 51.770599 -40.988800
vt 51.824100 -41.071400
vt 51.865002 -40.989101
vt 52.048901 -41.117699
vt 52.117500 -40.990501
vt 52.047798 -40.990398
vt 52.124599 -41.117500
vt 52.326199 -40.992500
vt 52.352699 -41.128799
vt 52.477100 -41.005100
vt 52.358501 -41.247200
vt 52.494499 -41.144100
vt 52.593800 -41.007500
vt 52.591999 -41.137402
vt 52.765598 -41.006100
vt 52.509701 -41.262199
vt 52.578300 -41.248901
vt 52.744499 -41.233101
vt 52.753601 -41.132198
vt 52.759602 -41.069099
vt 52.847698 -41.245998
vt 52.859001 -41.137600
vt 52.916901 -41.228199
vt 52.929100 -41.127998
vt 52.862400 -41.068401
vt 52.930901 -41.003899
vt 52.865799 -40.999199
vt 52.932701 -40.879799
vt 52.119900 -40.861401
vt 52.049500 -40.865700
vt 52.335701 -40.870201
vt 52.356499 -40.753799
vt 52.489201 -40.869099
vt 52.590401 -40.877499
vt 52.580799 -40.763000
vt 52.753601 -40.871899
vt 52.744701 -40.767502
vt 52.858200 -40.859501
vt 52.915901 -40.755798
vt 52.846001 -40.746899
vt 51.851002 -40.877998
vt 51.777302 -40.909000
vt 51.739899 -40.850899
vt 51.940701 -40.660500
vt 52.100399 -40.616001
vt 51.944000 -40.543301
vt 51.898499 -40.535599
vt 51.901600 -40.466400
vt 51.842300 -40.477501
vt 52.077900 -40.501099
vt 52.168499 -40.518501
vt 52.188702 -40.868301
vt 51.965000 -40.378502
vt 51.890598 -40.364799
vt 51.805401 -40.341499
vt 51.854198 -40.308102
vt 51.861500 -40.192299
vt 51.790901 -40.191502
vt 51.696400 -40.071400
vt 51.684399 -40.110001
vt 51.618999 -40.041698
vt 51.708401 -40.031898
vt 52.028999 -40.366600
vt 51.880402 -40.151600
vt 51.733799 -40.051701
vt 52.094700 -40.388100
vt 51.997398 -40.128201
vt 52.060699 -40.266102
vt 52.140999 -40.286999
vt 52.173401 -40.237999
vt 52.144699 -40.383301
vt 52.236599 -40.401901
vt 52.218201 -40.500099
vt 52.327202 -40.434502
vt 52.314701 -40.555500
vt 52.428101 -40.655602
vt 52.278400 -40.660999
vt 52.371498 -40.854500
vt 52.274899 -40.877102
vt 52.205399 -41.031700
vt 52.360100 -41.013699
vt 52.359200 -41.267700
vt 52.461800 -41.020599
vt 51.842701 -41.911098
vt 51.698101 -41.846001
vt 51.714500 -41.915901
vt 51.859299 -41.837502
vt 51.716400 -41.744701
vt 52.115898 -41.909901
vt 52.122898 -41.839199
vt 52.229900 -41.913898
vt 51.833801 -41.740601
vt 51.718899 -41.580799
vt 51.974098 -41.739300
vt 51.844101 -41.581600
vt 52.248402 -41.843300
vt 52.230400 -41.741299
vt 52.226898 -41.577099
vt 52.114300 -41.738201
vt 51.978802 -41.578701
vt 52.106602 -41.572800
vt 52.303699 -41.447300
vt 51.987202 -41.476898
vt 52.183998 -41.371601
vt 51.823898 -41.476898
vt 51.647202 -41.356499
vt 52.004501 -41.249699
vt 51.808998 -41.149101
vt 52.021702 -41.047600
vt 51.665798 -41.090000
vt 51.535400 -41.119900
vt 51.560299 -41.049500
vt 51.852299 -41.047501
vt 51.747299 -41.025101
vt 52.059299 -40.897800
vt 51.932301 -40.851002
vt 51.842999 -40.921299
vt 52.112900 -40.786598
vt 52.028999 -40.739899
vt 51.948898 -40.777302
vt 51.941502 -41.219799
vt 52.147701 -41.292400
vt 52.035500 -41.156200
vt 51.816799 -41.054600
vt 51.952301 -41.043201
vt 51.811199 -40.990700
vt 51.970299 -40.990398
vt 52.127899 -41.035702
vt 52.291599 -40.991600
vt 52.285999 -41.016998
vt 52.266201 -40.956402
vt 52.303600 -40.955200
vt 52.002602 -40.940701
vt 51.826599 -40.926399
vt 52.167801 -41.087299
vt 52.134899 -40.989101
vt 52.068600 -41.071400
vt 52.377701 -40.989399
vt 52.437801 -41.117699
vt 52.486698 -40.990398
vt 52.238499 -41.219601
vt 52.349300 -41.219200
vt 52.439701 -40.865700
vt 52.157001 -40.868999
vt 52.334202 -40.754700
vt 52.252701 -40.767300
vt 52.147701 -40.688400
vt 51.940701 -40.760899
vt 52.067699 -40.877998
vt 51.765701 -40.991199
vt 51.983200 -41.102402
vt 52.084202 -40.990299
vt 52.118401 -41.078400
vt 52.314701 -40.990398
vt 51.730499 -41.114799
vt 51.595600 -40.996700
vt 51.576099 -41.128700
vt 51.408001 -41.008598
vt 51.668499 -41.235001
vt 51.411999 -41.135502
vt 51.238400 -40.997501
vt 51.509102 -41.257000
vt 52.327499 -41.063900
vt 52.548801 -41.057999
vt 52.602402 -40.990398
vt 52.751400 -41.054600
vt 52.788101 -40.990700
vt 52.762001 -40.926399
vt 52.565498 -40.927502
vt 52.344398 -40.917900
vt 52.126900 -40.903900
vt 52.145500 -40.830502
vt 51.979401 -40.876202
vt 51.732300 -40.759300
vt 51.733200 -40.871700
vt 51.579899 -40.870300
vt 51.085300 -41.224998
vt 51.155300 -41.243801
vt 51.143101 -41.135799
vt 51.072399 -41.125801
vt 51.424301 -41.245800
vt 51.259201 -41.231800
vt 51.248901 -41.131001
vt 51.243698 -41.064201
vt 51.139198 -41.067402
vt 51.135300 -40.998901
vt 51.070400 -41.004002
vt 51.086102 -40.757999
vt 51.143600 -40.860401
vt 51.156700 -40.748100
vt 51.258701 -40.768002
vt 51.068298 -40.882198
vt 51.248798 -40.872299
vt 51.409698 -40.877499
vt 51.422901 -40.763500
vt 51.552700 -40.751202
vt 51.877899 -40.695400
vt 51.846901 -40.496601
vt 51.792599 -40.766899
vt 51.919102 -40.494202
vt 51.868698 -40.420502
vt 51.918999 -40.812599
vt 51.777901 -40.504799
vt 51.723801 -40.476898
vt 51.637798 -40.678200
vt 51.715302 -40.698799
vt 51.726299 -40.874298
vt 51.836399 -40.896702
vt 51.791599 -41.012299
vt 51.982201 -41.041801
vt 51.941502 -40.897598
vt 52.035500 -40.889099
vt 52.147701 -41.046700
vt 51.529900 -41.269501
vt 51.640202 -41.013500
vt 51.537201 -41.016800
vt 51.553200 -40.881599
vt 51.647400 -41.331501
vt 51.635799 -40.878502
vt 51.811001 -41.341599
vt 51.721401 -41.490898
vt 51.568802 -40.672501
vt 51.663799 -40.451199
vt 51.816799 -40.248600
vt 51.866501 -40.273800
vt 51.952301 -40.151501
vt 51.914001 -40.289101
vt 52.112801 -40.155399
vt 52.127899 -40.085999
vt 52.221802 -40.122501
vt 52.285999 -40.048698
vt 52.309601 -40.080502
vt 52.381001 -40.041698
vt 52.291599 -40.031898
vt 52.200802 -40.203300
vt 52.064800 -40.237900
vt 52.092999 -40.307301
vt 52.145000 -40.313400
vt 52.194599 -40.341499
vt 52.191002 -40.245399
vt 52.111599 -40.354401
vt 51.964901 -40.379799
vt 52.031601 -40.435699
vt 52.091999 -40.435200
vt 52.080502 -40.479099
vt 52.157700 -40.477501
vt 52.101501 -40.535599
vt 52.048901 -40.601101
vt 51.974800 -40.721901
vt 52.071602 -40.680500
vt 52.068600 -40.824100
vt 52.167801 -40.917400
vt 52.349300 -41.091599
vt 52.466099 -41.124599
vt 52.437801 -41.048901
vt 52.238499 -41.024399
vt 52.343498 -41.358501
vt 52.194801 -41.159698
vt 52.180199 -41.443298
vt 52.304600 -41.509701
vt 52.171299 -41.547501
vt 52.279900 -41.578300
vt 52.001999 -41.407299
vt 52.033501 -41.557899
vt 52.171700 -41.731098
vt 52.283600 -41.744499
vt 52.174000 -41.842602
vt 52.300900 -41.847698
vt 52.284000 -41.916901
vt 52.169102 -41.912102
vt 51.904301 -41.836399
vt 51.889301 -41.910500
vt 52.025902 -41.737400
vt 51.752602 -41.844700
vt 51.771500 -41.914700
vt 51.882099 -41.740898
vt 51.887600 -41.571701
vt 51.860901 -41.494999
vt 51.770599 -41.575699
vt 51.769501 -41.740799
vt 52.282200 -41.125801
vt 52.171101 -41.173599
vt 52.228500 -41.224998
vt 52.110699 -41.265202
vt 52.212799 -41.096699
vt 52.285801 -41.004002
vt 52.079700 -41.204800
vt 52.215500 -41.002201
vt 51.972698 -40.995899
vt 52.218300 -40.907700
vt 52.289398 -40.882198
vt 51.862701 -41.205200
vt 51.830898 -41.265800
vt 52.172199 -40.811298
vt 52.229900 -40.757999
vt 52.115898 -40.713100
vt 51.773602 -41.176102
vt 51.716000 -41.228199
vt 51.660801 -41.127998
vt 52.083801 -40.776501
vt 51.842701 -40.707802
vt 51.730801 -41.098400
vt 51.657001 -41.003899
vt 51.871799 -40.772400
vt 51.727798 -41.002102
vt 51.724800 -40.905800
vt 51.653099 -40.879799
vt 51.772400 -40.809700
vt 51.714500 -40.755798
vt 51.690399 -41.026001
vt 51.684399 -40.982601
vt 51.618999 -40.990700
vt 51.870399 -40.987999
vt 51.890598 -40.937599
vt 51.805401 -40.994499
vt 51.888401 -41.044300
vt 28.065399 -26.999800
vt 28.318501 -26.950701
vt 28.043600 -26.932501
vt 28.327499 -27.002800
vt 27.885799 -27.001301
vt 28.473200 -26.943399
vt 28.478001 -27.000601
vt 27.871401 -26.955500
vt 27.742500 -27.000700
vt 27.752501 -26.934401
vt 27.642401 -26.938900
vt 27.612801 -26.998501
vt 27.656500 -27.065901
vt 27.742001 -27.067801
vt 27.868500 -27.044701
vt 28.047001 -27.070200
vt 28.318501 -27.055000
vt 28.473200 -27.057600
vt 27.864300 -27.318501
vt 27.945000 -27.287800
vt 27.761200 -27.043600
vt 28.000000 -27.473200
vt 28.058001 -27.458200
vt 27.837999 -27.019400
vt 27.808300 -26.871401
vt 28.056200 -27.281500
vt 27.934299 -27.009899
vt 28.126101 -27.440300
vt 27.898500 -26.860399
vt 27.829000 -26.752501
vt 27.910200 -26.697800
vt 27.880501 -26.642401
vt 27.965401 -26.842600
vt 27.998400 -26.521999
vt 27.870300 -26.612801
vt 27.966400 -26.594000
vt 27.950199 -26.659700
vt 28.032400 -26.775900
vt 28.002001 -26.821301
vt 27.996099 -26.956100
vt 28.029200 -26.921499
vt 28.054899 -27.073299
vt 28.076300 -27.012199
vt 28.167299 -27.244301
vt 28.232500 -27.412300
vt 28.015100 -27.126600
vt 28.033600 -26.963800
vt 28.129700 -26.998501
vt 28.119499 -26.938900
vt 27.934000 -26.944000
vt 27.892200 -27.000601
vt 27.957800 -27.008200
vt 27.923700 -26.933201
vt 27.862700 -27.001801
vt 27.916100 -27.006300
vt 27.989700 -27.090700
vt 28.125500 -27.065901
vt 28.050501 -27.068600
vt 28.336800 -27.006001
vt 28.406000 -26.963800
vt 28.224100 -26.957199
vt 28.221001 -27.000601
vt 28.165501 -27.008200
vt 28.340300 -26.922001
vt 28.178699 -26.907301
vt 28.103800 -26.944000
vt 28.040600 -27.006300
vt 28.114700 -27.000601
vt 27.987801 -26.933201
vt 27.889000 -27.004101
vt 27.988100 -27.001801
vt 28.078501 -26.884701
vt 27.926701 -26.889400
vt 27.755699 -26.931499
vt 27.595301 -27.017900
vt 27.587700 -26.927700
vt 27.750999 -27.072800
vt 27.573099 -27.119499
vt 28.004400 -27.068600
vt 28.095699 -27.106701
vt 27.922501 -27.107201
vt 28.171801 -27.090700
vt 28.331499 -27.048500
vt 28.368700 -27.068600
vt 27.829201 -27.249001
vt 27.823000 -27.426901
vt 27.964300 -27.174999
vt 27.988899 -27.302700
vt 27.912800 -27.450701
vt 27.960899 -27.463200
vt 28.075399 -27.281200
vt 27.928101 -26.995600
vt 27.946899 -27.077499
vt 28.007099 -26.962000
vt 27.964001 -26.904301
vt 28.046200 -26.996000
vt 28.007999 -26.668501
vt 27.989700 -26.828199
vt 28.050501 -26.631300
vt 28.029699 -26.825300
vt 28.129700 -26.612801
vt 28.001600 -26.521999
vt 28.070400 -26.862000
vt 28.089800 -26.696199
vt 28.125500 -26.656500
vt 28.167400 -26.742001
vt 28.135500 -26.872200
vt 28.193001 -26.868500
vt 28.156900 -27.014999
vt 28.104601 -27.037701
vt 28.236900 -27.047001
vt 28.135700 -27.318501
s 1
usemtl Meshpart1Mtl
f 3/1/1 1/2/2 2/3/3
f 5/4/4 4/5/5 3/1/6
f 4/5/5 5/4/4 6/6/7
f 7/7/8 6/6/7 5/4/4
f 8/8/9 9/9/10 10/10/11
f 10/10/11 9/9/10 11/11/12
f 11/11/12 9/9/10 12/12/13
f 12/12/14 14/13/15 13/14/16
f 14/13/15 12/12/14 15/15/17
f 17/16/18 18/6/19 16/17/20
f 17/16/18 19/18/21 18/6/19
f 18/6/19 19/18/21 20/5/22
f 22/13/23 21/19/24 23/20/25
f 23/20/25 24/14/26 22/13/23
f 27/21/27 26/11/28 25/22/29
f 26/11/28 27/21/27 28/10/30
f 27/21/27 29/23/31 28/10/30
f 29/23/31 27/21/27 30/24/32
f 31/25/33 29/23/31 30/24/32
f 31/25/33 30/24/32 32/26/34
f 33/27/35 31/25/33 32/26/34
f 34/28/36 36/29/37 35/30/38
f 36/29/37 34/28/36 37/31/39
f 38/32/40 36/29/37 37/31/39
f 38/32/40 37/31/39 39/33/41
f 39/33/41 40/34/42 38/32/40
f 39/33/41 37/31/39 41/35/43
f 40/34/42 39/33/41 42/36/44
f 41/35/43 42/36/44 39/33/41
f 43/37/45 40/34/42 42/36/44
f 44/38/46 43/37/45 42/36/44
f 43/37/45 44/38/46 45/39/47
f 42/36/44 41/35/43 46/40/48
f 47/41/49 42/36/44 46/40/48
f 42/36/44 47/41/49 44/38/46
f 48/42/50 44/38/46 47/41/49
f 49/43/51 44/38/46 48/42/50
f 44/38/46 49/43/51 50/44/52
f 51/45/53 49/43/51 48/42/50
f 45/39/47 44/38/46 50/44/52
f 52/46/54 49/43/51 51/45/53
f 52/46/54 50/44/52 49/43/51
f 52/46/54 51/45/53 53/47/55
f 53/47/55 54/48/56 52/46/54
f 54/48/56 55/49/57 52/46/54
f 55/49/57 50/44/52 52/46/54
f 55/49/57 45/39/47 50/44/52
f 54/48/56 56/50/58 55/49/57
f 57/51/59 55/49/57 56/50/58
f 57/51/59 45/39/47 55/49/57
f 58/52/60 57/51/59 56/50/58
f 59/32/61 60/53/62 61/29/63
f 62/54/64 61/29/63 60/53/62
f 61/29/63 62/54/64 63/30/65
f 64/55/66 60/53/62 59/32/61
f 65/34/67 64/55/66 59/32/61
f 64/55/66 66/56/68 60/53/62
f 65/34/67 67/57/69 64/55/66
f 67/57/69 66/56/68 64/55/66
f 65/34/67 68/58/70 67/57/69
f 68/58/70 65/34/67 69/37/71
f 68/58/70 69/37/71 45/39/47
f 71/59/72 67/57/69 68/58/70
f 67/57/69 71/59/72 66/56/68
f 45/39/47 72/60/73 68/58/70
f 57/51/59 72/60/73 45/39/47
f 72/60/73 73/61/74 68/58/70
f 73/61/74 71/59/72 68/58/70
f 72/60/73 57/51/59 74/62/75
f 74/62/75 73/61/74 72/60/73
f 58/52/60 74/62/75 57/51/59
f 75/63/76 74/62/75 58/52/60
f 74/62/75 75/63/76 76/64/77
f 73/61/74 74/62/75 76/64/77
f 70/27/78 77/65/79 78/66/80
f 70/27/78 78/66/80 79/25/81
f 79/25/81 78/66/80 80/23/82
f 78/66/80 77/65/79 81/67/83
f 80/23/82 78/66/80 8/8/9
f 8/8/9 10/10/11 80/23/82
f 82/68/84 84/69/85 83/70/86
f 85/71/87 86/72/88 87/73/89
f 83/70/86 84/69/85 88/74/90
f 88/74/90 86/72/91 83/70/86
f 84/69/85 89/75/92 88/74/90
f 84/69/85 90/76/93 89/75/92
f 86/72/91 88/74/90 93/77/94
f 86/72/91 93/77/94 91/78/17
f 92/79/95 91/78/17 94/80/96
f 91/78/17 93/77/94 94/80/96
f 93/77/94 97/81/97 94/80/96
f 97/81/97 95/82/98 94/80/96
f 98/83/99 96/84/100 95/82/98
f 97/81/97 98/83/99 95/82/98
f 96/84/100 98/83/99 99/85/101
f 100/86/102 99/85/101 98/83/99
f 93/77/94 101/87/103 97/81/97
f 88/74/90 101/87/103 93/77/94
f 97/81/97 102/88/104 98/83/99
f 101/87/103 102/88/104 97/81/97
f 103/89/105 98/83/99 102/88/104
f 104/90/106 101/87/103 88/74/90
f 101/87/103 104/90/106 102/88/104
f 89/75/92 104/90/106 88/74/90
f 105/91/107 103/89/105 102/88/104
f 104/90/106 106/92/108 102/88/104
f 102/88/104 106/92/108 105/91/107
f 106/92/108 108/93/109 105/91/107
f 108/93/109 107/94/110 105/91/107
f 109/95/111 108/93/109 106/92/108
f 104/90/106 109/95/111 106/92/108
f 104/90/106 89/75/92 109/95/111
f 109/95/111 110/96/112 108/93/109
f 110/96/112 107/94/110 108/93/109
f 111/97/113 109/95/111 89/75/92
f 111/97/113 110/96/112 109/95/111
f 110/96/112 112/98/114 107/94/110
f 114/99/115 112/98/114 110/96/112
f 111/97/113 114/99/115 110/96/112
f 114/99/115 113/100/116 112/98/114
f 115/101/117 114/99/115 111/97/113
f 89/75/92 115/101/117 111/97/113
f 90/76/93 115/101/117 89/75/92
f 115/101/117 116/102/118 114/99/115
f 116/102/118 113/100/116 114/99/115
f 117/103/119 115/101/117 90/76/93
f 116/102/118 115/101/117 117/103/119
f 90/76/93 118/104/120 117/103/119
f 119/105/121 117/103/119 118/104/120
f 119/105/121 116/102/118 117/103/119
f 118/104/120 120/106/122 119/105/121
f 121/107/123 116/102/118 119/105/121
f 120/106/122 121/107/123 119/105/121
f 130/108/124 129/109/125 128/110/126
f 129/109/125 130/108/124 131/111/127
f 129/109/125 131/111/127 127/112/128
f 130/108/124 132/113/129 131/111/127
f 133/114/130 131/111/127 132/113/129
f 132/113/129 134/115/131 133/114/130
f 131/111/127 135/116/132 127/112/128
f 127/112/128 135/116/132 126/117/133
f 135/116/132 131/111/127 136/118/134
f 133/114/130 136/118/134 131/111/127
f 135/116/132 137/119/135 126/117/133
f 135/116/132 136/118/134 137/119/135
f 134/115/131 138/120/136 133/114/130
f 138/120/136 139/121/137 133/114/130
f 139/121/137 140/122/138 141/123/139
f 133/114/130 139/121/137 141/123/139
f 136/118/134 133/114/130 141/123/139
f 141/123/139 142/124/140 136/118/134
f 136/118/134 142/124/140 137/119/135
f 141/123/139 140/122/138 143/125/141
f 142/124/140 141/123/139 143/125/141
f 143/125/141 140/122/138 144/126/142
f 145/127/143 142/124/140 143/125/141
f 145/127/143 137/119/135 142/124/140
f 144/126/142 146/128/144 143/125/141
f 143/125/141 146/128/144 145/127/143
f 144/126/142 120/106/122 146/128/144
f 137/119/135 145/127/143 147/129/145
f 147/129/145 126/117/133 137/119/135
f 126/117/133 147/129/145 124/130/146
f 145/127/143 148/131/147 147/129/145
f 146/128/144 148/131/147 145/127/143
f 124/130/146 147/129/145 149/132/148
f 148/131/147 149/132/148 147/129/145
f 118/104/120 148/131/147 146/128/144
f 120/106/122 118/104/120 146/128/144
f 148/131/147 150/133/149 149/132/148
f 148/131/147 118/104/120 150/133/149
f 149/132/148 151/134/150 124/130/146
f 124/130/146 151/134/150 122/135/151
f 151/134/150 123/136/152 122/135/151
f 149/132/148 153/137/153 151/134/150
f 153/137/153 152/138/154 151/134/150
f 150/133/149 153/137/153 149/132/148
f 150/133/149 90/76/93 153/137/153
f 150/133/149 118/104/120 90/76/93
f 90/76/93 154/139/155 153/137/153
f 154/139/155 155/140/156 125/141/157
f 154/139/155 156/142/158 155/140/156
f 90/76/93 156/142/158 154/139/155
f 156/142/158 158/143/159 155/140/156
f 157/144/160 158/143/159 82/68/84
f 158/143/159 156/142/158 84/69/85
f 158/143/159 84/69/85 82/68/84
f 90/76/93 84/69/85 156/142/158
f 159/145/161 161/146/162 160/147/163
f 162/148/164 164/149/165 163/150/166
f 165/151/167 163/150/166 164/149/165
f 165/151/167 164/149/165 166/152/168
f 165/151/167 166/152/168 167/153/169
f 167/153/169 166/152/168 168/154/170
f 171/155/171 170/153/172 169/156/99
f 172/151/173 170/153/172 171/155/171
f 172/151/173 171/155/171 173/157/174
f 172/151/173 173/157/174 174/158/175
f 175/150/176 172/151/173 174/158/175
f 178/159/177 177/160/178 176/161/179
f 178/159/177 179/162/180 177/160/178
f 180/163/181 179/162/180 178/159/177
f 180/163/181 181/164/182 179/162/180
f 182/165/183 178/159/177 160/147/163
f 182/165/183 180/163/181 178/159/177
f 160/147/163 161/146/162 182/165/183
f 183/166/184 180/163/181 182/165/183
f 184/167/185 186/162/186 185/164/187
f 184/167/185 187/168/188 186/162/186
f 187/168/188 188/160/189 186/162/186
f 189/169/190 190/170/191 184/167/185
f 190/170/191 187/168/188 184/167/185
f 191/171/192 187/168/188 190/170/191
f 191/171/192 192/172/193 187/168/188
f 187/168/188 193/173/194 188/160/189
f 194/174/195 195/175/196 196/176/197
f 196/176/197 195/175/196 197/177/198
f 196/176/197 197/177/198 198/178/199
f 194/174/195 199/179/200 195/175/196
f 200/180/201 199/179/200 194/174/195
f 200/180/201 201/181/202 199/179/200
f 202/182/203 201/181/202 200/180/201
f 201/181/202 203/183/204 199/179/200
f 201/181/202 202/182/203 204/184/205
f 202/182/203 205/185/206 204/184/205
f 201/181/202 206/186/207 203/183/204
f 201/181/202 204/184/205 206/186/207
f 198/178/199 197/177/198 207/187/208
f 208/188/209 198/178/199 207/187/208
f 198/178/199 208/188/209 209/189/210
f 208/188/209 210/190/211 209/189/210
f 210/190/211 211/191/212 209/189/210
f 212/192/213 214/189/214 213/191/215
f 215/193/216 214/189/214 212/192/213
f 216/194/217 214/189/214 215/193/216
f 216/194/217 217/178/218 214/189/214
f 217/178/218 216/194/217 219/195/219
f 219/195/219 216/194/217 218/196/220
f 220/176/221 217/178/218 219/195/219
f 218/196/220 222/197/222 219/195/219
f 220/176/221 219/195/219 222/197/222
f 223/174/223 220/176/221 222/197/222
f 222/197/222 221/198/224 224/199/225
f 224/199/225 223/174/223 222/197/222
f 221/198/224 225/200/226 224/199/225
f 224/199/225 226/180/227 223/174/223
f 226/180/227 224/199/225 225/200/226
f 228/201/228 227/202/229 229/203/230
f 230/204/231 228/201/228 229/203/230
f 206/186/207 204/184/205 231/205/232
f 232/206/233 231/205/232 204/184/205
f 227/202/229 232/206/233 233/207/234
f 233/207/234 232/206/233 204/184/205
f 229/203/230 227/202/229 233/207/234
f 233/207/234 204/184/205 234/208/235
f 229/203/230 233/207/234 234/208/235
f 204/184/205 205/185/206 234/208/235
f 235/209/236 229/203/230 234/208/235
f 235/209/236 234/208/235 205/185/206
f 230/204/231 229/203/230 235/209/236
f 236/210/237 235/209/236 205/185/206
f 237/211/238 230/204/231 235/209/236
f 237/211/238 235/209/236 236/210/237
f 238/212/239 240/213/240 239/214/241
f 240/213/240 241/215/242 239/214/241
f 242/216/243 240/213/240 238/212/239
f 240/213/240 242/216/243 243/210/244
f 242/216/243 244/211/245 243/210/244
f 243/210/244 245/185/246 240/213/240
f 240/213/240 245/185/246 246/217/247
f 241/215/242 240/213/240 246/217/247
f 245/185/246 247/218/248 246/217/247
f 246/217/247 247/218/248 241/215/242
f 248/182/249 247/218/248 245/185/246
f 225/200/226 247/218/248 248/182/249
f 248/182/249 226/180/227 225/200/226
f 241/215/242 247/218/248 249/219/250
f 225/200/226 249/219/250 247/218/248
f 249/219/250 225/200/226 250/220/251
f 225/200/226 221/198/224 250/220/251
f 251/221/252 252/222/253 253/223/254
f 251/221/252 254/224/255 252/222/253
f 254/224/255 255/225/256 252/222/253
f 253/223/254 256/226/257 251/221/252
f 252/222/253 255/225/256 257/227/258
f 257/227/258 255/225/256 258/228/259
f 257/227/258 258/228/259 259/229/260
f 260/230/261 252/222/253 257/227/258
f 260/230/261 257/227/258 259/229/260
f 252/222/253 260/230/261 253/223/254
f 259/229/260 261/231/262 260/230/261
f 261/231/262 253/223/254 260/230/261
f 261/231/262 262/232/263 253/223/254
f 256/226/257 253/223/254 262/232/263
f 262/232/263 261/231/262 263/233/264
f 264/234/265 262/232/263 263/233/264
f 262/232/263 265/235/266 256/226/257
f 262/232/263 264/234/265 265/235/266
f 265/235/266 266/236/267 256/226/257
f 267/237/268 265/235/266 264/234/265
f 270/238/269 271/239/270 268/240/271
f 271/239/270 269/241/272 268/240/271
f 272/242/273 271/239/270 270/238/269
f 269/241/272 271/239/270 274/243/274
f 272/242/273 263/233/264 271/239/270
f 271/239/270 261/231/262 274/243/274
f 271/239/270 263/233/264 261/231/262
f 275/244/275 263/233/264 272/242/273
f 275/244/275 272/242/273 273/245/276
f 269/241/272 274/243/274 259/229/260
f 274/243/274 261/231/262 259/229/260
f 269/241/272 259/229/260 276/246/277
f 259/229/260 277/247/278 276/246/277
f 277/247/278 259/229/260 258/228/259
f 258/228/259 278/248/279 277/247/278
f 258/228/259 280/249/280 278/248/279
f 280/249/280 279/250/281 278/248/279
f 282/251/282 279/250/281 280/249/280
f 284/252/283 279/250/281 282/251/282
f 281/253/284 279/250/281 284/252/283
f 280/249/280 255/225/256 282/251/282
f 258/228/259 255/225/256 280/249/280
f 255/225/256 284/252/283 282/251/282
f 284/252/283 286/254/285 281/253/284
f 285/255/286 281/253/284 286/254/285
f 287/256/287 285/255/286 286/254/285
f 287/256/288 288/257/289 283/258/290
f 286/254/285 289/259/291 287/256/287
f 286/254/285 284/252/283 291/260/292
f 284/252/283 255/225/256 291/260/292
f 292/261/293 289/259/291 286/254/285
f 292/261/293 286/254/285 291/260/292
f 289/259/291 292/261/293 293/262/294
f 293/262/294 294/263/295 290/264/296
f 294/263/295 293/262/294 295/265/297
f 295/265/297 293/262/294 292/261/293
f 292/261/293 291/260/292 296/266/298
f 291/260/292 255/225/256 296/266/298
f 295/265/297 292/261/293 297/267/299
f 297/267/299 292/261/293 296/266/298
f 298/268/300 295/265/297 297/267/299
f 300/269/301 299/270/302 298/268/300
f 300/269/301 298/268/300 297/267/299
f 301/271/303 299/270/302 300/269/301
f 297/267/299 296/266/298 254/224/255
f 254/224/255 300/269/301 297/267/299
f 255/225/256 254/224/255 296/266/298
f 300/269/301 254/224/255 302/272/304
f 302/272/304 254/224/255 304/273/305
f 304/273/305 303/274/306 302/272/304
f 304/273/305 305/275/307 303/274/306
f 304/273/305 254/224/255 251/221/252
f 256/226/257 305/275/307 304/273/305
f 256/226/257 304/273/305 251/221/252
f 266/236/267 306/276/308 305/275/307
f 266/236/267 305/275/307 256/226/257
f 310/277/309 309/278/310 307/279/311
f 267/237/268 310/277/309 308/280/312
f 309/278/310 310/277/309 311/281/313
f 312/282/314 311/281/313 310/277/309
f 312/282/314 310/277/309 267/237/268
f 311/281/313 312/282/314 313/283/315
f 314/284/316 311/281/313 313/283/315
f 314/284/316 313/283/315 316/285/317
f 316/285/317 315/286/318 314/284/316
f 317/287/319 313/283/315 312/282/314
f 318/288/320 316/285/317 313/283/315
f 313/283/315 317/287/319 318/288/320
f 312/282/314 264/234/265 317/287/319
f 264/234/265 312/282/314 267/237/268
f 315/286/318 316/285/317 319/289/321
f 316/285/317 318/288/320 319/289/321
f 315/286/318 319/289/321 320/290/322
f 321/291/323 320/290/322 319/289/321
f 322/292/324 320/290/322 321/291/323
f 323/293/325 322/292/324 321/291/323
f 324/294/326 323/293/325 321/291/323
f 321/291/323 325/295/327 324/294/326
f 326/296/328 324/294/326 325/295/327
f 321/291/323 327/297/329 325/295/327
f 327/297/329 321/291/323 319/289/321
f 328/298/330 326/296/328 325/295/327
f 319/289/321 318/288/320 327/297/329
f 326/296/328 328/298/330 329/299/331
f 330/300/332 325/295/327 327/297/329
f 330/300/332 327/297/329 318/288/320
f 330/300/332 328/298/330 325/295/327
f 331/301/333 330/300/332 318/288/320
f 318/288/320 332/302/334 331/301/333
f 332/302/334 318/288/320 317/287/319
f 332/302/334 317/287/319 275/244/275
f 275/244/275 317/287/319 264/234/265
f 273/245/276 332/302/334 275/244/275
f 275/244/275 264/234/265 263/233/264
f 333/303/335 332/302/334 273/245/276
f 331/301/333 332/302/334 333/303/335
f 333/303/335 330/300/332 331/301/333
f 333/303/335 334/304/336 330/300/332
f 328/298/330 330/300/332 334/304/336
f 335/305/337 336/306/338 337/307/339
f 338/308/340 337/307/339 336/306/338
f 336/306/338 335/305/337 339/309/341
f 340/310/342 339/309/341 335/305/337
f 336/306/338 341/311/343 338/308/340
f 339/309/341 340/310/342 342/312/344
f 336/306/338 339/309/341 343/313/345
f 339/309/341 342/312/344 343/313/345
f 341/311/343 336/306/338 343/313/345
f 340/310/342 344/314/346 342/312/344
f 342/312/344 344/314/346 343/313/345
f 344/314/346 340/310/342 345/315/347
f 346/316/348 338/308/340 341/311/343
f 346/316/348 341/311/343 343/313/345
f 338/308/340 346/316/348 347/317/349
f 345/315/347 348/318/350 344/314/346
f 344/314/346 348/318/350 343/313/345
f 345/315/347 349/319/351 348/318/350
f 350/320/352 348/318/350 349/319/351
f 351/321/353 347/317/349 346/316/348
f 351/321/353 346/316/348 343/313/345
f 347/317/349 351/321/353 352/322/354
f 352/322/354 351/321/353 353/323/355
f 348/318/350 350/320/352 354/324/356
f 348/318/350 354/324/356 343/313/345
f 355/325/357 354/324/356 350/320/352
f 353/323/355 351/321/353 356/326/358
f 356/326/358 351/321/353 343/313/345
f 357/327/359 353/323/355 356/326/358
f 354/324/356 355/325/357 358/328/360
f 354/324/356 358/328/360 343/313/345
f 359/329/361 357/327/359 356/326/358
f 359/329/361 356/326/358 343/313/345
f 360/330/362 357/327/359 359/329/361
f 360/330/362 359/329/361 343/313/345
f 357/327/359 360/330/362 361/331/363
f 355/325/357 362/332/364 358/328/360
f 358/328/360 362/332/364 343/313/345
f 362/332/364 360/330/362 343/313/345
f 362/332/364 361/331/363 360/330/362
f 362/332/364 355/325/357 363/333/365
f 361/331/363 362/332/364 363/333/365
f 364/334/287 366/335/5 365/336/366
f 367/337/367 368/338/368 369/339/95
f 372/337/369 370/339/370 371/340/371
f 375/341/372 373/342/373 374/343/374
f 373/342/373 375/341/372 376/344/375
f 374/343/374 377/345/376 375/341/372
f 376/344/375 378/346/377 373/342/373
f 378/346/377 376/344/375 379/347/378
f 374/343/374 380/348/379 377/345/376
f 380/348/379 381/349/380 377/345/376
f 381/349/380 380/348/379 382/350/381
f 381/349/380 382/350/381 383/351/382
f 381/349/380 383/351/382 384/352/383
f 388/349/384 386/352/385 387/353/386
f 388/349/384 387/353/386 389/354/387
f 390/355/388 388/349/384 389/354/387
f 388/349/384 390/355/388 391/345/389
f 392/356/390 391/345/389 390/355/388
f 392/356/390 393/341/391 391/345/389
f 394/357/392 393/341/391 392/356/390
f 393/341/391 394/357/392 395/344/393
f 385/358/394 395/344/393 394/357/392
f 395/344/393 385/358/394 396/347/395
f 397/359/396 398/360/397 399/361/398
f 397/359/396 400/362/399 398/360/397
f 401/363/400 398/360/397 400/362/399
f 398/360/397 403/364/401 399/361/398
f 403/364/401 402/365/402 399/361/398
f 401/363/400 404/366/403 398/360/397
f 398/360/397 405/367/404 403/364/401
f 405/367/404 398/360/397 404/366/403
f 404/366/403 401/363/400 406/368/405
f 402/365/402 403/364/401 407/369/406
f 405/367/404 407/369/406 403/364/401
f 402/365/402 407/369/406 408/370/407
f 407/369/406 411/371/408 408/370/407
f 408/370/407 411/371/408 409/372/409
f 405/367/404 412/373/410 407/369/406
f 411/371/408 407/369/406 412/373/410
f 414/374/411 410/375/412 413/376/413
f 415/377/414 409/372/409 411/371/408
f 415/377/414 411/371/408 412/373/410
f 413/376/415 409/372/409 415/377/414
f 416/378/416 413/376/415 415/377/414
f 417/379/417 415/377/414 412/373/410
f 417/379/417 412/373/410 420/380/418
f 419/381/419 417/379/417 420/380/418
f 420/380/418 412/373/410 405/367/404
f 421/382/420 419/381/419 420/380/418
f 418/383/421 421/382/420 422/384/422
f 422/384/422 406/368/405 423/385/423
f 406/368/405 422/384/422 404/366/403
f 421/382/420 420/380/418 424/386/424
f 424/386/424 422/384/422 421/382/420
f 424/386/424 420/380/418 405/367/404
f 422/384/422 424/386/424 404/366/403
f 424/386/424 405/367/404 404/366/403
f 427/387/425 426/388/426 425/389/427
f 429/390/428 430/391/429 428/392/430
f 432/393/431 433/394/432 431/395/433
f 434/391/434 435/396/435 436/392/436
f 439/397/437 438/388/438 437/398/439
f 442/399/440 441/347/441 440/400/442
f 442/399/440 440/400/442 444/401/443
f 445/402/444 442/399/440 444/401/443
f 444/401/443 446/403/445 445/402/444
f 443/404/414 447/405/446 444/401/443
f 447/405/446 446/403/445 444/401/443
f 446/403/445 447/405/446 448/406/447
f 450/407/448 449/408/449 448/406/447
f 450/407/448 448/406/447 451/409/450
f 453/410/451 452/411/452 451/409/453
f 448/406/447 447/405/446 454/412/454
f 451/409/450 448/406/447 454/412/454
f 454/412/454 455/413/455 451/409/450
f 453/410/451 451/409/453 456/414/456
f 456/414/456 457/415/457 453/410/451
f 457/415/457 456/414/456 458/416/458
f 459/417/459 461/415/460 460/418/461
f 462/410/462 461/415/460 459/417/459
f 462/410/462 459/417/459 463/419/463
f 462/410/462 463/419/463 464/411/464
f 463/419/463 465/407/465 464/411/464
f 467/420/466 465/407/465 463/419/463
f 463/419/463 466/421/467 467/420/466
f 465/407/465 467/420/466 468/408/434
f 469/422/468 468/408/434 467/420/466
f 470/403/469 469/422/470 471/402/471
f 469/422/470 472/423/472 471/402/471
f 471/402/471 472/423/472 473/399/473
f 474/424/474 473/399/473 472/423/472
f 475/347/475 473/399/473 474/424/474
f 476/425/476 477/426/477 478/427/478
f 477/426/477 479/428/479 478/427/478
f 479/428/479 477/426/477 480/429/480
f 479/428/479 480/429/480 481/430/481
f 481/430/481 482/431/482 479/428/479
f 482/431/482 481/430/481 483/362/483
f 484/432/484 476/425/476 485/433/485
f 485/433/485 476/425/476 478/427/478
f 485/433/485 478/427/478 487/434/486
f 485/433/485 487/434/486 486/435/487
f 478/427/478 488/436/488 487/434/486
f 479/428/479 488/436/488 478/427/478
f 490/437/489 489/438/490 491/439/439
f 486/435/487 493/440/491 489/438/490
f 493/440/491 486/435/487 487/434/486
f 489/438/490 493/440/491 491/439/439
f 491/439/492 494/441/493 492/442/494
f 487/434/486 495/443/495 493/440/491
f 487/434/486 488/436/488 495/443/495
f 491/439/439 493/440/491 496/444/496
f 493/440/491 495/443/495 496/444/496
f 497/445/497 491/439/439 496/444/496
f 498/446/498 497/445/497 496/444/496
f 496/444/496 495/443/495 498/446/498
f 495/443/495 500/447/499 498/446/498
f 499/448/500 498/446/498 500/447/499
f 495/443/495 501/449/501 500/447/499
f 499/448/500 500/447/499 501/449/501
f 488/436/488 502/450/502 495/443/495
f 502/450/502 501/449/501 495/443/495
f 479/428/479 502/450/502 488/436/488
f 502/450/502 479/428/479 482/431/482
f 502/450/502 482/431/482 501/449/501
f 503/451/503 499/448/500 501/449/501
f 482/431/482 503/451/503 501/449/501
f 504/452/504 503/451/503 482/431/482
f 482/431/482 483/362/483 504/452/504
