# Blender 5.2.0 LTS
# www.blender.org
mtllib CRAB.mtl
o Crab_Claws.001
v 0.001215 -0.732485 -0.134526
v -0.023443 -0.714308 -0.129735
v -0.031453 -0.683787 -0.155300
v 0.013017 -0.656547 -0.163654
v -0.033608 -0.553846 -0.054748
v 0.014208 -0.513153 -0.048226
v -0.032215 -0.440224 -0.006342
v 0.098577 -0.093408 0.054978
v 0.092611 -0.209999 0.066012
v 0.028793 -0.155897 0.030228
v 0.028173 -0.218016 0.021819
v 0.075685 -0.288919 0.028956
v 0.018273 -0.279329 -0.030313
v 0.021916 -0.362355 0.003270
v 0.071388 -0.390884 0.024653
v 0.012442 -0.417323 -0.058192
v 0.063689 -0.449569 -0.007837
v 0.014208 -0.513153 -0.048226
v 0.055210 -0.569872 -0.063202
v 0.013017 -0.656547 -0.163654
v -0.035675 -0.396960 0.024386
v 0.021916 -0.362355 0.003270
v -0.035295 -0.314916 0.038550
v 0.018273 -0.279329 -0.030313
v -0.042172 -0.270075 0.047230
v 0.028173 -0.218016 0.021819
v -0.039408 -0.146278 0.070764
v 0.028793 -0.155897 0.030228
v 0.026002 -0.078741 -0.010318
v -0.030622 -0.068777 0.042828
v 0.037298 0.017093 0.018242
v -0.042751 0.075337 0.036495
v 0.040208 0.108250 -0.033325
v -0.084795 0.277092 -0.346299
v 0.041644 0.267483 -0.396409
v 0.044026 0.335195 -0.428188
v -0.081887 0.350726 -0.379521
v 0.050931 0.544415 -0.425510
v -0.083593 0.579414 -0.382429
v 0.045177 0.698269 -0.390988
v -0.200124 0.597399 -0.271269
v -0.092409 0.724334 -0.346789
v 0.048480 0.818659 -0.338360
v -0.081011 0.824304 -0.307148
v 0.057156 0.990847 -0.336006
v -0.208257 0.751354 -0.242292
v -0.191810 0.820828 -0.222353
v -0.169264 0.985576 -0.237133
v -0.069005 0.985709 -0.310442
v -0.005924 0.988278 -0.323224
v -0.178081 1.087876 -0.261085
v -0.070285 1.089907 -0.333831
v -0.157261 1.157220 -0.248992
v -0.057393 1.161562 -0.306018
v -0.001152 1.089789 -0.344048
v 0.066632 1.157885 -0.311334
v 0.067981 1.089671 -0.354265
v 0.190656 1.154207 -0.316651
v 0.050931 0.544415 -0.425510
v 0.173854 0.335407 -0.380483
v 0.044026 0.335195 -0.428188
v 0.166981 0.266986 -0.350990
v 0.041644 0.267483 -0.396409
v 0.174064 0.551209 -0.389079
v 0.045177 0.698269 -0.390988
v 0.292649 0.574048 -0.285809
v 0.182075 0.707306 -0.352741
v 0.178522 0.811769 -0.310602
v 0.048480 0.818659 -0.338360
v 0.040208 0.108250 -0.033325
v 0.293662 0.802801 -0.229019
v 0.190992 0.974767 -0.313118
v 0.295960 0.966235 -0.242250
v 0.207456 1.077434 -0.337073
v 0.314633 1.136248 -0.255661
v 0.320470 1.065087 -0.267527
v 0.151592 0.094084 0.033442
v 0.117837 0.022970 0.055268
v 0.037298 0.017093 0.018242
v 0.026002 -0.078741 -0.010318
v 0.175415 -0.011518 0.137034
v 0.098577 -0.093408 0.054978
v 0.092611 -0.209999 0.066012
v 0.202397 -0.131687 0.216063
v 0.028173 -0.218016 0.021819
v 0.075685 -0.288919 0.028956
v 0.018273 -0.279329 -0.030313
v 0.187415 -0.247305 0.201343
v 0.212871 -0.224975 0.290374
v 0.282985 0.122793 0.286741
v 0.071388 -0.390884 0.024653
v 0.012442 -0.417323 -0.058192
v 0.117459 -0.374207 0.097483
v 0.063689 -0.449569 -0.007837
v 0.055210 -0.569872 -0.063202
v 0.013017 -0.656547 -0.163654
v 0.098957 -0.566264 0.006660
v 0.038951 -0.695434 -0.149501
v 0.001203 -0.728639 -0.224346
v 0.001215 -0.732485 -0.134526
v 0.149621 -0.383270 0.161792
v 0.094051 -0.605440 0.028251
v 0.037466 -0.712590 -0.110863
v 0.170076 -0.358300 0.225720
v 0.059943 -0.619668 0.146967
v 0.136370 -0.480932 0.200167
v 0.081182 -0.499173 0.315108
v 0.129330 -0.454439 0.279051
v 0.164789 -0.359525 0.276021
v 0.132350 -0.333505 0.366840
v 0.195243 -0.239267 0.341382
v 0.090356 -0.293167 0.455558
v 0.110455 -0.066500 0.541563
v 0.167662 -0.176382 0.434336
v 0.222057 -0.075784 0.390559
v 0.205229 0.124363 0.470901
v 0.266958 0.137966 0.372330
v 0.347920 0.284351 0.291916
v 0.264888 0.280068 0.448437
v 0.293237 0.532538 0.430512
v 0.167689 0.297859 0.550526
v 0.173854 0.335407 -0.380483
v 0.166981 0.266986 -0.350990
v 0.292649 0.574048 -0.285809
v 0.162224 0.157877 -0.060356
v 0.293662 0.802801 -0.229019
v 0.295960 0.966235 -0.242250
v 0.314633 1.136248 -0.255661
v 0.320470 1.065087 -0.267527
v 0.364228 1.137889 -0.127955
v 0.385373 1.064555 -0.106807
v 0.362623 1.154836 0.144759
v 0.377944 1.084041 0.156255
v 0.319511 1.168190 0.258790
v 0.352713 0.967493 -0.125517
v 0.369083 0.974748 0.014433
v 0.361449 0.808969 -0.104904
v 0.326689 1.098590 0.281796
v 0.302368 0.996566 0.270826
v 0.300062 0.832483 0.278138
v 0.356140 0.983499 0.154535
v 0.383471 0.814089 0.029471
v 0.367844 0.817276 0.157585
v 0.307990 0.707565 0.363186
v 0.413754 0.711724 0.044269
v 0.385735 0.620802 0.247855
v 0.385136 0.702061 -0.118430
v 0.411130 0.486084 0.076458
v 0.368019 0.374456 -0.111499
v 0.384547 0.286480 0.107215
v 0.281008 0.309623 -0.249634
v 0.266784 0.250770 -0.163839
v 0.348029 0.276694 -0.061464
v 0.272195 0.144094 0.155768
v 0.151592 0.094084 0.033442
v 0.238572 0.038054 0.216995
v 0.117837 0.022970 0.055268
v 0.175415 -0.011518 0.137034
v -0.186239 0.163203 0.160061
v -0.124350 0.145893 0.066155
v -0.255446 0.301323 -0.054738
v -0.046297 -0.482598 0.325609
v 0.016120 -0.521503 0.332884
v -0.040746 -0.588833 0.196748
v 0.009978 -0.633817 0.180916
v -0.038372 -0.665898 0.025729
v 0.001215 -0.732485 -0.134526
v -0.023443 -0.714308 -0.129735
v 0.038951 -0.695434 -0.149501
v 0.001215 -0.732485 -0.134526
v 0.037466 -0.712590 -0.110863
v 0.009978 -0.633817 0.180916
v 0.059943 -0.619668 0.146967
v 0.081182 -0.499173 0.315108
v 0.016120 -0.521503 0.332884
v -0.042751 0.075337 0.036495
v 0.040208 0.108250 -0.033325
v -0.056158 0.162454 -0.068503
v 0.041851 0.219199 -0.283964
v -0.084795 0.277092 -0.346299
v 0.041644 0.267483 -0.396409
v -0.184832 0.270108 -0.144715
v -0.183233 0.329776 -0.259723
v 0.166981 0.266986 -0.350990
v 0.041644 0.267483 -0.396409
v 0.041851 0.219199 -0.283964
v 0.162224 0.157877 -0.060356
v 0.040208 0.108250 -0.033325
v 0.281008 0.309623 -0.249634
v 0.266784 0.250770 -0.163839
v 0.348029 0.276694 -0.061464
v 0.272195 0.144094 0.155768
v 0.151592 0.094084 0.033442
v 0.062268 0.519124 0.589704
v -0.058473 0.303602 0.554271
v 0.049682 0.199633 0.581821
v -0.040333 0.166756 0.546948
v 0.039771 -0.031278 0.578875
v -0.060336 0.556523 0.544937
v 0.063279 0.686197 0.536869
v -0.068475 0.708127 0.489662
v 0.057253 0.864736 0.388032
v -0.179439 0.615727 0.424936
v -0.070045 0.864352 0.362911
v 0.075168 1.032411 0.362260
v -0.195893 0.770659 0.340814
v -0.034699 -0.043305 0.545047
v -0.039263 -0.270479 0.464909
v 0.026207 -0.326362 0.473466
v -0.046297 -0.482598 0.325609
v 0.016120 -0.521503 0.332884
v 0.081182 -0.499173 0.315108
v 0.016120 -0.521503 0.332884
v 0.026207 -0.326362 0.473466
v 0.090356 -0.293167 0.455558
v 0.110455 -0.066500 0.541563
v 0.039771 -0.031278 0.578875
v 0.205229 0.124363 0.470901
v 0.133703 0.150842 0.544842
v 0.049682 0.199633 0.581821
v 0.293237 0.532538 0.430512
v 0.167689 0.297859 0.550526
v 0.062268 0.519124 0.589704
v 0.182450 0.543737 0.543558
v 0.189550 0.693488 0.488214
v 0.063279 0.686197 0.536869
v -0.168452 1.120824 0.286094
v -0.147123 1.188548 0.262399
v -0.059196 1.132965 0.352369
v -0.046721 1.200769 0.314047
v -0.181886 0.851529 0.286020
v -0.161032 1.015624 0.275955
v -0.058970 1.026144 0.343032
v 0.008100 1.029277 0.352646
v 0.009508 1.134504 0.359848
v 0.078212 1.136044 0.367327
v 0.075120 1.197918 0.316174
v 0.319511 1.168190 0.258790
v 0.326689 1.098590 0.281796
v 0.215938 1.120798 0.349616
v 0.302368 0.996566 0.270826
v 0.196959 1.195067 0.318300
v 0.078212 1.136044 0.367327
v 0.075120 1.197918 0.316174
v 0.075168 1.032411 0.362260
v 0.199543 1.015393 0.340001
v 0.187810 0.855652 0.358294
v 0.057253 0.864736 0.388032
v 0.300062 0.832483 0.278138
v 0.307990 0.707565 0.363186
v -0.150412 -0.036029 0.236423
v -0.152761 -0.232421 0.280431
v -0.179986 0.042213 0.317120
v -0.134533 -0.240423 0.208348
v -0.133334 -0.310664 0.263438
v -0.157469 0.078598 0.187776
v -0.139691 -0.220212 0.348610
v -0.096214 -0.246313 0.403949
v -0.100815 -0.039414 0.476593
v -0.152879 -0.021742 0.398516
v -0.177753 0.153759 0.376196
v -0.210549 0.170225 0.265237
v -0.243122 0.290058 0.302768
v -0.287649 0.308740 0.111057
v -0.186239 0.163203 0.160061
v -0.124350 0.145893 0.066155
v -0.255446 0.301323 -0.054738
v -0.058473 0.303602 0.554271
v -0.040333 0.166756 0.546948
v -0.060336 0.556523 0.544937
v -0.160545 0.297801 0.452835
v -0.179439 0.615727 0.424936
v -0.195893 0.770659 0.340814
v -0.122198 0.161610 0.465698
v -0.270361 0.618832 0.262021
v -0.034699 -0.043305 0.545047
v -0.039263 -0.270479 0.464909
v -0.046297 -0.482598 0.325609
v -0.040746 -0.588833 0.196748
v -0.088487 -0.458979 0.274810
v -0.038372 -0.665898 0.025729
v -0.107465 -0.445976 0.226588
v 0.001215 -0.732485 -0.134526
v -0.078987 -0.593872 0.036716
v -0.023443 -0.714308 -0.129735
v -0.056533 -0.634932 -0.070178
v -0.031453 -0.683787 -0.155300
v 0.001203 -0.728639 -0.224346
v -0.033608 -0.553846 -0.054748
v 0.014208 -0.513153 -0.048226
v -0.090984 -0.507797 0.079288
v -0.066097 -0.441433 0.046324
v -0.032215 -0.440224 -0.006342
v 0.012442 -0.417323 -0.058192
v -0.035675 -0.396960 0.024386
v -0.110663 -0.358693 0.169852
v -0.076273 -0.308731 0.099277
v -0.035295 -0.314916 0.038550
v 0.018273 -0.279329 -0.030313
v -0.042172 -0.270075 0.047230
v 0.028173 -0.218016 0.021819
v -0.039408 -0.146278 0.070764
v -0.030622 -0.068777 0.042828
v -0.099392 -0.018203 0.137397
v -0.042751 0.075337 0.036495
v -0.056158 0.162454 -0.068503
v -0.084795 0.277092 -0.346299
v -0.184832 0.270108 -0.144715
v -0.081887 0.350726 -0.379521
v -0.183233 0.329776 -0.259723
v -0.200124 0.597399 -0.271269
v -0.269556 0.411665 -0.109003
v -0.281573 0.696338 -0.112923
v -0.208257 0.751354 -0.242292
v -0.191810 0.820828 -0.222353
v -0.258620 0.800031 -0.111158
v -0.310391 0.673479 0.067585
v -0.272598 0.820217 0.025785
v -0.216535 0.981632 -0.124067
v -0.169264 0.985576 -0.237133
v -0.222660 1.093088 -0.133711
v -0.178081 1.087876 -0.261085
v -0.157261 1.157220 -0.248992
v -0.193360 1.161559 -0.133657
v -0.225452 1.104919 0.135940
v -0.188988 1.178290 0.145618
v -0.226470 0.997970 0.021090
v -0.168452 1.120824 0.286094
v -0.147123 1.188548 0.262399
v -0.211808 1.010368 0.164217
v -0.245057 0.842504 0.170171
v -0.270824 0.768741 0.202123
v -0.181886 0.851529 0.286020
v -0.161032 1.015624 0.275955
v -0.046721 1.200769 0.314047
v -0.094927 1.221927 0.201973
v -0.147123 1.188548 0.262399
v -0.188988 1.178290 0.145618
v -0.017048 1.231406 0.242035
v 0.075120 1.197918 0.316174
v -0.127400 1.213969 0.111388
v 0.077462 1.229194 0.243684
v 0.074715 1.075657 0.010393
v 0.171971 1.226982 0.245333
v 0.196959 1.195067 0.318300
v -0.130793 1.200991 -0.105241
v -0.193360 1.161559 -0.133657
v 0.267031 1.206135 0.199173
v 0.319511 1.168190 0.258790
v 0.362623 1.154836 0.144759
v -0.102791 1.197625 -0.194702
v -0.157261 1.157220 -0.248992
v -0.057393 1.161562 -0.306018
v 0.300473 1.195777 0.110722
v 0.364228 1.137889 -0.127955
v -0.025324 1.200993 -0.238937
v 0.066632 1.157885 -0.311334
v 0.301717 1.182631 -0.100817
v 0.070879 1.198141 -0.243061
v 0.167082 1.195289 -0.247183
v 0.190656 1.154207 -0.316651
v 0.263248 1.181359 -0.199875
v 0.314633 1.136248 -0.255661
v -0.031453 -0.683787 -0.155300
v 0.001203 -0.728639 -0.224346
v 0.013017 -0.656547 -0.163654
v 0.021916 -0.362355 0.003270
v 0.071388 -0.390884 0.024653
v 0.012442 -0.417323 -0.058192
v 0.012442 -0.417323 -0.058192
v -0.035675 -0.396960 0.024386
v 0.021916 -0.362355 0.003270
v 0.086375 0.085726 -0.485388
v 0.104180 -0.207472 -0.500810
v 0.037103 -0.193445 -0.529379
v 0.034383 0.087174 -0.511167
v 0.034734 -0.352401 -0.436430
v 0.093388 0.274103 -0.402569
v 0.036317 0.273251 -0.421942
v 0.080314 -0.357491 -0.404186
v 0.034840 -0.485647 -0.382448
v 0.100956 -0.464602 -0.348436
v 0.095715 -0.554101 -0.266277
v 0.036122 -0.585335 -0.267449
v -0.020985 0.274263 -0.403329
v 0.035955 -0.585344 -0.267458
v -0.031305 -0.542288 -0.277021
v 0.034673 -0.485656 -0.382457
v -0.032689 -0.473422 -0.342764
v -0.008961 -0.360529 -0.405160
v 0.034567 -0.352410 -0.436440
v -0.033625 -0.203499 -0.500935
v 0.036936 -0.193454 -0.529389
v -0.018116 0.085872 -0.486083
v 0.034216 0.087165 -0.511176
v 0.036151 0.273242 -0.421951
v 0.086208 0.085717 -0.485397
v 0.143540 0.080691 -0.398854
v 0.104013 -0.207481 -0.500820
v 0.093221 0.274094 -0.402578
v 0.155489 0.277161 -0.342369
v 0.080148 -0.357500 -0.404196
v 0.152657 -0.207537 -0.419904
v 0.156813 0.108176 -0.290782
v 0.187116 -0.187608 -0.325040
v 0.172639 0.280601 -0.271871
v 0.132255 -0.340926 -0.314520
v 0.100790 -0.464611 -0.348445
v 0.095549 -0.554110 -0.266286
v 0.035955 -0.585344 -0.267458
v 0.125720 -0.492417 -0.254447
v 0.144388 -0.337764 -0.245294
v 0.070016 -0.574376 -0.169934
v 0.032825 -0.633375 -0.117907
v 0.112147 -0.516696 -0.204875
v 0.076809 -0.381035 -0.161739
v 0.127082 -0.346971 -0.204019
v 0.101417 -0.142541 -0.190843
v 0.149894 -0.243310 -0.208130
v 0.175441 -0.220327 -0.249980
v 0.145539 -0.090760 -0.229424
v 0.103404 0.106214 -0.173990
v 0.107312 0.285995 -0.162425
v 0.173716 -0.051970 -0.283230
v 0.092253 -0.547383 -0.267213
v 0.035860 -0.584424 -0.266866
v 0.071008 -0.573901 -0.169150
v 0.026149 -0.322161 -0.170351
v 0.090485 -0.256167 -0.165790
v 0.033588 -0.253912 -0.123102
v 0.028299 -0.190450 -0.168232
v 0.101583 -0.142532 -0.190833
v 0.032590 -0.124359 -0.133093
v 0.033588 -0.253912 -0.123102
v -0.056144 -0.337659 -0.199439
v 0.026149 -0.322161 -0.170351
v -0.034405 -0.543753 -0.197973
v 0.036122 -0.585335 -0.267449
v -0.031139 -0.542280 -0.277012
v 0.070016 -0.574376 -0.169934
v 0.032825 -0.633375 -0.117907
v 0.027806 -0.496208 -0.152787
v 0.112147 -0.516696 -0.204875
v 0.076809 -0.381035 -0.161739
v 0.033346 -0.370082 -0.137800
v 0.025983 -0.322169 -0.170360
v 0.127082 -0.346971 -0.204019
v 0.090318 -0.256175 -0.165799
v 0.033422 -0.253921 -0.123111
v 0.028132 -0.190459 -0.168241
v 0.101417 -0.142541 -0.190843
v 0.032423 -0.124367 -0.133102
v 0.030344 -0.024176 -0.145041
v 0.149894 -0.243310 -0.208130
v 0.145539 -0.090760 -0.229424
v 0.103404 0.106214 -0.173990
v 0.016980 0.287654 -0.133130
v 0.107312 0.285995 -0.162425
v -0.037911 0.111971 -0.173040
v -0.084113 0.283504 -0.221033
v 0.016980 0.287654 -0.133130
v 0.030344 -0.024176 -0.145041
v -0.034018 -0.159505 -0.191010
v 0.032423 -0.124367 -0.133102
v 0.028132 -0.190459 -0.168241
v -0.072241 -0.086977 -0.233833
v -0.072224 -0.257320 -0.197895
v 0.033422 -0.253921 -0.123111
v -0.056311 -0.337668 -0.199448
v 0.025983 -0.322169 -0.170360
v 0.033346 -0.370082 -0.137800
v -0.014550 -0.495496 -0.168501
v 0.027806 -0.496208 -0.152787
v -0.034571 -0.543762 -0.197982
v 0.032825 -0.633375 -0.117907
v -0.037911 0.111971 -0.173040
v -0.084113 0.283504 -0.221033
v -0.085336 0.000788 -0.279872
v -0.089856 0.115119 -0.341837
v -0.099833 0.279157 -0.313940
v -0.065871 0.276538 -0.363324
v -0.068212 0.068503 -0.417694
v -0.020985 0.274263 -0.403329
v -0.034018 -0.159505 -0.191010
v -0.072241 -0.086977 -0.233833
v -0.072224 -0.257320 -0.197895
v -0.109858 -0.215243 -0.256633
v -0.116425 -0.194525 -0.304230
v -0.056311 -0.337668 -0.199448
v -0.014550 -0.495496 -0.168501
v -0.034571 -0.543762 -0.197982
v 0.032825 -0.633375 -0.117907
v -0.072691 -0.352391 -0.236814
v 0.035955 -0.585344 -0.267458
v -0.073912 -0.329692 -0.286669
v -0.057963 -0.493620 -0.255139
v -0.031305 -0.542288 -0.277021
v -0.032689 -0.473422 -0.342764
v -0.008961 -0.360529 -0.405160
v -0.047420 -0.339629 -0.351695
v -0.083277 -0.209864 -0.415329
v -0.108551 -0.172367 -0.372443
v -0.033625 -0.203499 -0.500935
v -0.018116 0.085872 -0.486083
vn -0.8801 0.0559 -0.4715
vn -0.7014 -0.7125 0.0219
vn -0.7935 -0.6085 0.0092
vn -0.6137 0.4108 -0.6743
vn -0.4516 0.5774 -0.6802
vn -0.8801 0.0556 -0.4714
vn -0.4031 0.3504 -0.8454
vn -0.7533 0.2425 -0.6114
vn 0.6999 -0.1587 -0.6964
vn 0.7050 0.0277 -0.7087
vn 0.5199 -0.1294 -0.8444
vn 0.5930 0.2472 -0.7663
vn 0.7265 0.0628 -0.6843
vn 0.7266 0.0626 -0.6842
vn 0.5872 0.1952 -0.7856
vn 0.7259 0.0694 -0.6843
vn 0.7341 0.1886 -0.6524
vn 0.7445 0.1780 -0.6435
vn 0.4144 0.3274 -0.8492
vn 0.7017 0.1928 -0.6859
vn 0.6736 0.3697 -0.6400
vn 0.7421 0.3388 -0.5783
vn -0.6219 0.2199 -0.7516
vn -0.7118 0.2970 -0.6365
vn -0.7576 -0.0060 -0.6527
vn -0.7328 0.1414 -0.6656
vn -0.7215 -0.0426 -0.6911
vn -0.5375 0.3140 -0.7826
vn -0.7696 0.1348 -0.6242
vn -0.5510 -0.0674 -0.8318
vn -0.6404 -0.0120 -0.7680
vn -0.6848 -0.0857 -0.7236
vn -0.4408 -0.1174 -0.8899
vn -0.5963 -0.4392 -0.6719
vn -0.3423 -0.7229 -0.6002
vn -0.5008 -0.6323 -0.5911
vn -0.3702 -0.1848 -0.9104
vn -0.3239 -0.6422 -0.6947
vn -0.5432 -0.1640 -0.8234
vn -0.2973 0.0870 -0.9508
vn -0.4806 0.0875 -0.8726
vn -0.2388 0.2833 -0.9288
vn -0.7951 0.0166 -0.6062
vn -0.4443 0.2730 -0.8533
vn -0.2206 0.2129 -0.9519
vn -0.4241 0.1994 -0.8834
vn -0.0250 -0.1076 -0.9939
vn -0.7624 0.2187 -0.6090
vn -0.7592 0.2147 -0.6144
vn -0.7871 -0.0606 -0.6139
vn -0.3970 -0.1054 -0.9117
vn -0.1855 -0.0937 -0.9782
vn -0.7797 0.0860 -0.6202
vn -0.3430 0.0909 -0.9349
vn -0.7229 0.3677 -0.5850
vn -0.2852 0.3976 -0.8721
vn -0.1266 0.1435 -0.9815
vn -0.0618 0.5044 -0.8613
vn -0.0313 0.1548 -0.9874
vn 0.2719 0.3272 -0.9050
vn 0.2863 0.0866 -0.9542
vn 0.5299 -0.2117 -0.8212
vn 0.3347 -0.2008 -0.9207
vn 0.4263 -0.6744 -0.6028
vn 0.2560 -0.6617 -0.7047
vn 0.4643 0.0772 -0.8823
vn 0.2450 0.2898 -0.9252
vn 0.7746 0.0206 -0.6322
vn 0.4447 0.2614 -0.8567
vn 0.4040 0.1682 -0.8992
vn 0.2177 0.1964 -0.9561
vn 0.7581 0.0820 -0.6470
vn 0.3446 -0.1600 -0.9250
vn 0.7388 -0.1796 -0.6495
vn 0.3403 0.0038 -0.9403
vn 0.7472 0.2089 -0.6310
vn 0.7516 -0.0452 -0.6581
vn 0.3199 -0.7351 -0.5978
vn 0.5598 -0.5982 -0.5735
vn 0.5940 -0.2980 -0.7472
vn 0.4237 -0.1042 -0.8998
vn 0.5801 -0.1472 -0.8011
vn 0.8013 -0.2301 -0.5523
vn 0.7000 -0.1587 -0.6963
vn 0.8829 -0.1337 -0.4501
vn 0.7051 0.0277 -0.7085
vn 0.5931 0.2474 -0.7661
vn 0.7266 0.0630 -0.6842
vn 0.7259 0.0696 -0.6843
vn 0.9177 -0.0907 -0.3867
vn 0.7267 0.0627 -0.6841
vn 0.9730 -0.2308 -0.0009
vn 0.9359 -0.3490 0.0487
vn 0.8679 0.0410 -0.4950
vn 0.7341 0.1886 -0.6523
vn 0.7018 0.1930 -0.6858
vn 0.7446 0.1780 -0.6433
vn 0.9435 -0.0132 -0.3311
vn 0.6738 0.3695 -0.6399
vn 0.9056 -0.2117 -0.3674
vn 0.7422 0.3387 -0.5782
vn 0.8791 -0.2956 -0.3739
vn 0.6036 -0.7972 0.0070
vn 0.9350 -0.0786 -0.3459
vn 0.9136 -0.4065 0.0012
vn 0.7089 -0.7034 0.0525
vn 0.9679 -0.2443 -0.0594
vn 0.6359 -0.7173 0.2848
vn 0.9117 -0.3957 0.1102
vn 0.8361 -0.4237 0.3485
vn 0.5993 -0.5871 0.5442
vn 0.9052 -0.3424 0.2516
vn 0.7811 -0.3940 0.4844
vn 0.8780 -0.3302 0.3466
vn 0.5831 -0.4073 0.7030
vn 0.7700 -0.2929 0.5669
vn 0.5635 -0.2196 0.7964
vn 0.8944 -0.1969 0.4015
vn 0.7692 -0.1631 0.6179
vn 0.9014 -0.2317 0.3658
vn 0.9287 -0.2013 0.3115
vn 0.8038 -0.1276 0.5810
vn 0.8047 0.0542 0.5912
vn 0.5304 -0.0728 0.8446
vn 0.9571 0.1929 -0.2160
vn 0.7518 -0.0451 -0.6579
vn 0.7473 0.2089 -0.6308
vn 0.9840 -0.0307 -0.1757
vn 0.7390 -0.1796 -0.6494
vn 0.9560 0.2402 0.1687
vn 0.9764 0.0193 0.2150
vn 0.7487 0.3182 0.5816
vn 0.9441 -0.1410 -0.2980
vn 0.7583 0.0820 -0.6468
vn 0.9982 -0.0604 0.0016
vn 0.9432 0.1329 -0.3046
vn 0.7586 0.0491 0.6496
vn 0.7467 -0.0859 0.6596
vn 0.7685 0.2436 0.5916
vn 0.9618 -0.0709 0.2643
vn 0.9847 0.1714 -0.0326
vn 0.9477 0.1673 0.2716
vn 0.7633 0.3133 0.5650
vn 0.9909 0.1346 -0.0048
vn 0.9431 0.0760 0.3237
vn 0.9328 0.1020 -0.3456
vn 0.7746 0.0205 -0.6321
vn 0.9972 -0.0745 0.0074
vn 0.9289 -0.1833 -0.3217
vn 0.9356 -0.3531 -0.0033
vn 0.7615 -0.4094 -0.5025
vn 0.5301 -0.2117 -0.8211
vn 0.4263 -0.6745 -0.6028
vn 0.7835 -0.5647 -0.2594
vn 0.5578 -0.7698 -0.3102
vn 0.7288 -0.6253 -0.2792
vn 0.5599 -0.5982 -0.5733
vn 0.3984 -0.8379 -0.3731
vn 0.8747 -0.2835 -0.3930
vn 0.8013 -0.2299 -0.5523
vn 0.5942 -0.2979 -0.7471
vn -0.8042 -0.5363 -0.2563
vn -0.8368 -0.4871 -0.2499
vn -0.6522 -0.6512 -0.3881
vn -0.6234 -0.5164 0.5872
vn -0.6875 -0.6200 0.3781
vn -0.4507 -0.6284 0.6340
vn -0.5214 -0.7536 0.4003
vn -0.6679 -0.7152 0.2060
vn -0.7013 -0.7125 0.0219
vn -0.7935 -0.6086 0.0092
vn 0.7087 -0.7036 0.0525
vn 0.6035 -0.7974 0.0070
vn 0.9057 -0.2117 -0.3674
vn 0.4534 -0.7977 0.3977
vn 0.6356 -0.7175 0.2850
vn 0.5991 -0.5873 0.5442
vn 0.3994 -0.6630 0.6332
vn -0.4221 -0.8140 -0.3991
vn -0.3422 -0.7230 -0.6001
vn -0.5963 -0.4393 -0.6719
vn -0.2490 -0.8957 -0.3684
vn -0.5008 -0.6324 -0.5909
vn -0.3239 -0.6424 -0.6945
vn -0.6182 -0.7224 -0.3097
vn -0.7953 -0.3543 -0.4920
vn 0.4263 -0.6746 -0.6026
vn 0.1719 -0.9143 -0.3667
vn 0.2559 -0.6619 -0.7045
vn 0.3983 -0.8380 -0.3730
vn 0.3198 -0.7352 -0.5976
vn 0.7614 -0.4097 -0.5024
vn 0.5577 -0.7699 -0.3101
vn 0.7833 -0.5649 -0.2594
vn 0.7287 -0.6253 -0.2792
vn 0.5597 -0.5982 -0.5734
vn -0.2968 0.1353 0.9453
vn -0.5160 -0.0442 0.8554
vn -0.3227 -0.0325 0.9459
vn -0.5332 -0.0617 0.8437
vn -0.3845 -0.1336 0.9134
vn -0.4870 0.1512 0.8602
vn -0.2303 0.4387 0.8686
vn -0.4179 0.4406 0.7945
vn -0.1831 0.4153 0.8911
vn -0.7728 0.1342 0.6203
vn -0.3857 0.3786 0.8414
vn -0.1443 0.0428 0.9886
vn -0.7214 0.3834 0.5767
vn -0.5607 -0.1550 0.8134
vn -0.5788 -0.3307 0.7454
vn -0.4433 -0.4172 0.7934
vn -0.6234 -0.5163 0.5872
vn -0.4505 -0.6283 0.6343
vn 0.5990 -0.5872 0.5444
vn 0.4357 -0.4528 0.7779
vn 0.3994 -0.6628 0.6334
vn 0.5829 -0.4073 0.7031
vn 0.5633 -0.2196 0.7965
vn 0.3875 -0.1514 0.9093
vn 0.5441 -0.0998 0.8331
vn 0.7691 -0.1631 0.6180
vn 0.3457 -0.0629 0.9362
vn 0.5302 -0.0727 0.8448
vn 0.3271 0.1204 0.9373
vn 0.8046 0.0543 0.5914
vn 0.5298 0.1386 0.8367
vn 0.4792 0.4193 0.7711
vn 0.2871 0.4512 0.8450
vn -0.7076 0.4469 0.5473
vn -0.7574 0.1772 0.6284
vn -0.3072 0.2205 0.9258
vn -0.2569 0.5221 0.8132
vn -0.7345 0.3385 0.5881
vn -0.7657 0.0345 0.6423
vn -0.3506 0.0236 0.9362
vn -0.1385 0.0341 0.9898
vn -0.0992 0.2658 0.9589
vn -0.1213 0.3028 0.9453
vn -0.0676 0.5849 0.8083
vn 0.7485 0.3182 0.5818
vn 0.3588 0.1402 0.9228
vn 0.7585 0.0491 0.6498
vn 0.7465 -0.0860 0.6598
vn 0.2824 0.4605 0.8415
vn 0.1023 0.2718 0.9569
vn 0.0020 0.6351 0.7724
vn 0.1737 0.0123 0.9847
vn 0.3637 -0.0368 0.9308
vn 0.4313 0.3314 0.8391
vn 0.2380 0.3951 0.8873
vn 0.7684 0.2437 0.5917
vn 0.7631 0.3135 0.5651
vn -0.9294 -0.0943 -0.3568
vn -0.9871 -0.1601 0.0085
vn -0.9881 -0.1488 0.0386
vn -0.9321 -0.0586 -0.3574
vn -0.9704 -0.2250 0.0874
vn -0.8737 -0.3069 -0.3775
vn -0.8888 -0.2626 0.3757
vn -0.7906 -0.2893 0.5397
vn -0.7780 -0.1274 0.6152
vn -0.9093 -0.1140 0.4002
vn -0.9049 -0.1496 0.3985
vn -0.9377 -0.3455 0.0354
vn -0.9288 -0.1579 0.3352
vn -0.9536 -0.3011 0.0026
vn -0.8043 -0.5362 -0.2562
vn -0.6523 -0.6510 -0.3883
vn -0.8370 -0.4869 -0.2498
vn -0.4873 0.1511 0.8601
vn -0.7950 -0.0724 0.6022
vn -0.5163 -0.0441 0.8553
vn -0.5334 -0.0617 0.8436
vn -0.7729 0.1340 0.6202
vn -0.7776 -0.0942 0.6216
vn -0.9327 0.0561 0.3562
vn -0.7216 0.3832 0.5766
vn -0.5610 -0.1549 0.8132
vn -0.5790 -0.3307 0.7452
vn -0.6235 -0.5162 0.5871
vn -0.8453 -0.3849 0.3706
vn -0.6878 -0.6198 0.3779
vn -0.9396 -0.3004 0.1641
vn -0.9575 -0.2885 0.0048
vn -0.6680 -0.7151 0.2059
vn -0.9679 -0.0775 -0.2391
vn -0.7936 -0.6083 0.0091
vn -0.8801 0.0558 -0.4714
vn -0.8801 0.0558 -0.4716
vn -0.8819 -0.0659 -0.4668
vn -0.7014 -0.7124 0.0218
vn -0.6139 0.4107 -0.6741
vn -0.9566 0.0608 -0.2849
vn -0.8544 0.1948 -0.4817
vn -0.7428 0.2514 -0.6205
vn -0.4031 0.3503 -0.8454
vn -0.7119 0.2970 -0.6364
vn -0.9496 -0.0074 -0.3135
vn -0.8667 0.0686 -0.4941
vn -0.7577 -0.0060 -0.6526
vn -0.7696 0.1347 -0.6241
vn -0.7328 0.1416 -0.6656
vn -0.5375 0.3142 -0.7825
vn -0.7217 -0.0425 -0.6909
vn -0.8324 -0.1140 -0.5423
vn -0.6850 -0.0859 -0.7234
vn -0.5965 -0.4393 -0.6717
vn -0.4223 -0.8139 -0.3991
vn -0.7953 -0.3540 -0.4922
vn -0.5434 -0.1640 -0.8233
vn -0.5009 -0.6324 -0.5909
vn -0.6183 -0.7223 -0.3098
vn -0.7953 0.0165 -0.6059
vn -0.9456 -0.1348 -0.2961
vn -0.9506 0.0888 -0.2975
vn -0.7626 0.2186 -0.6088
vn -0.9333 0.2110 -0.2907
vn -0.7594 0.2147 -0.6141
vn -0.9964 0.0833 0.0158
vn -0.9702 0.2421 -0.0119
vn -0.9691 0.0669 -0.2372
vn -0.7873 -0.0606 -0.6136
vn -0.9696 0.1604 -0.1850
vn -0.7799 0.0860 -0.6200
vn -0.7230 0.3678 -0.5849
vn -0.9064 0.3879 -0.1672
vn -0.9716 0.1732 0.1612
vn -0.8992 0.4073 0.1597
vn -0.9940 0.1095 -0.0052
vn -0.7577 0.1772 0.6281
vn -0.7078 0.4468 0.5471
vn -0.9575 0.0581 0.2824
vn -0.9119 0.3012 0.2787
vn -0.9123 0.2825 0.2964
vn -0.7347 0.3385 0.5879
vn -0.7659 0.0344 0.6421
vn -0.1343 0.9322 0.3361
vn -0.1186 0.9917 -0.0496
vn -0.3595 0.9113 0.2006
vn -0.4874 0.8724 0.0363
vn -0.0194 0.9991 -0.0369
vn 0.0134 0.9187 0.3948
vn -0.0494 0.9958 -0.0777
vn 0.0280 0.9956 -0.0896
vn 0.0554 0.9962 -0.0673
vn 0.0901 0.9950 -0.0431
vn 0.1964 0.9215 0.3350
vn -0.0514 0.9978 -0.0421
vn -0.4903 0.8626 -0.1251
vn 0.1971 0.9791 -0.0508
vn 0.4269 0.8840 0.1903
vn 0.5367 0.8429 0.0373
vn -0.1167 0.9901 -0.0781
vn -0.3635 0.8825 -0.2984
vn -0.1470 0.8827 -0.4463
vn 0.1310 0.9885 -0.0762
vn 0.5348 0.8327 -0.1433
vn -0.0190 0.9950 -0.0985
vn 0.0064 0.8621 -0.5067
vn 0.1399 0.9890 -0.0480
vn 0.0236 0.9989 -0.0394
vn 0.0871 0.9916 -0.0952
vn 0.1778 0.8725 -0.4551
vn 0.1888 0.9786 -0.0813
vn 0.4162 0.8555 -0.3081
vn -0.8801 0.0557 -0.4714
vn -0.8819 -0.0661 -0.4667
vn 0.5872 0.1954 -0.7855
vn 0.7340 0.1887 -0.6524
vn -0.6219 0.2200 -0.7516
vn -0.7428 0.2515 -0.6205
vn -0.7119 0.2971 -0.6364
vn 0.3679 -0.1714 -0.9139
vn 0.5984 0.1981 -0.7763
vn 0.6252 -0.2238 -0.7477
vn 0.3964 0.2177 -0.8919
vn 0.4540 -0.4474 -0.7705
vn 0.6104 0.2767 -0.7422
vn 0.3573 0.3833 -0.8517
vn 0.6767 -0.3640 -0.6400
vn 0.4920 -0.4916 -0.7185
vn 0.7462 -0.3579 -0.5613
vn 0.7252 -0.6259 -0.2870
vn 0.5764 -0.7364 -0.3541
vn -0.4840 -0.4847 -0.7285
vn -0.5594 -0.7465 -0.3603
vn -0.6963 -0.6208 -0.3603
vn -0.7255 -0.3831 -0.5718
vn -0.6551 -0.3541 -0.6674
vn -0.4445 -0.4432 -0.7784
vn -0.6236 -0.2147 -0.7517
vn -0.3622 -0.1767 -0.9152
vn -0.5831 0.1984 -0.7878
vn -0.3789 0.2210 -0.8987
vn -0.5928 0.2996 -0.7475
vn -0.3380 0.3934 -0.8550
vn 0.5987 0.1980 -0.7761
vn 0.9086 0.1035 -0.4047
vn 0.6255 -0.2237 -0.7475
vn 0.6106 0.2765 -0.7421
vn 0.9323 0.0511 -0.3581
vn 0.8901 -0.1872 -0.4156
vn 0.6768 -0.3640 -0.6399
vn 0.9883 0.0114 0.1518
vn 0.9892 -0.0924 -0.1140
vn 0.9800 -0.0716 0.1858
vn 0.9168 -0.2584 -0.3046
vn 0.7464 -0.3578 -0.5612
vn 0.9600 -0.2737 -0.0595
vn 0.7253 -0.6258 -0.2868
vn 0.9739 -0.2055 0.0959
vn 0.8521 -0.3674 0.3728
vn 0.5766 -0.7364 -0.3540
vn 0.8227 -0.3894 0.4141
vn 0.8704 -0.2767 0.4073
vn 0.8227 -0.3895 0.4140
vn 0.5312 0.1450 0.8347
vn 0.7537 -0.0698 0.6535
vn 0.9478 -0.0706 0.3110
vn 0.7479 -0.0313 0.6631
vn 0.7830 0.0569 0.6194
vn 0.5383 0.0156 0.8426
vn 0.6634 -0.0334 0.7475
vn 0.6565 -0.0676 0.7513
vn 0.9678 0.0963 0.2324
vn 0.8667 -0.3223 0.3809
vn 0.6315 -0.6661 -0.3969
vn 0.7721 -0.5429 -0.3303
vn 0.4772 -0.0265 0.8784
vn 0.6023 0.0023 0.7982
vn 0.4313 -0.0271 0.9018
vn 0.5381 0.0156 0.8427
vn 0.6207 -0.1087 0.7764
vn 0.4134 0.0742 0.9075
vn -0.4588 -0.0004 0.8885
vn -0.7207 -0.1175 0.6832
vn -0.4448 0.0712 0.8928
vn -0.6963 -0.6208 -0.3602
vn -0.5595 -0.7466 -0.3600
vn -0.8632 -0.4008 0.3069
vn 0.3931 -0.0111 0.9194
vn 0.8520 -0.3676 0.3727
vn 0.8228 -0.3895 0.4138
vn 0.5312 0.1451 0.8348
vn 0.4608 0.2150 0.8611
vn 0.4313 -0.0269 0.9018
vn 0.7536 -0.0698 0.6536
vn 0.4771 -0.0264 0.8784
vn 0.4132 0.0742 0.9076
vn 0.6024 0.0022 0.7982
vn 0.5381 0.0158 0.8427
vn 0.4890 -0.0259 0.8719
vn 0.6208 -0.1086 0.7764
vn 0.5382 0.0157 0.8427
vn 0.7477 -0.0313 0.6633
vn 0.7829 0.0569 0.6196
vn 0.6632 -0.0334 0.7477
vn 0.3631 -0.0337 0.9312
vn 0.6563 -0.0676 0.7515
vn -0.6981 -0.0496 0.7143
vn -0.6158 0.0093 0.7878
vn -0.8879 -0.0222 0.4595
vn -0.5247 -0.0372 0.8505
vn -0.5780 0.0722 0.8128
vn -0.6338 -0.0772 0.7696
vn -0.4840 0.0304 0.8745
vn -0.7031 -0.0487 0.7094
vn -0.8175 0.0660 0.5722
vn -0.7206 -0.1176 0.6833
vn -0.4448 0.0710 0.8928
vn -0.7206 -0.1175 0.6833
vn -0.4789 0.1502 0.8649
vn -0.6436 -0.0088 0.7653
vn -0.5669 0.0301 0.8233
vn -0.8633 -0.4008 0.3068
vn -0.8044 -0.4731 0.3592
vn -0.6982 -0.0497 0.7142
vn -0.8880 -0.0223 0.4593
vn -0.9477 0.0626 0.3129
vn -0.9870 0.0341 -0.1568
vn -0.9911 0.0141 -0.1321
vn -0.8445 0.1394 -0.5170
vn -0.8582 0.1151 -0.5002
vn -0.5930 0.2995 -0.7474
vn -0.5783 0.0722 0.8126
vn -0.8175 0.0660 0.5721
vn -0.9462 -0.0673 0.3166
vn -0.7033 -0.0488 0.7093
vn -0.9950 -0.0996 0.0002
vn -0.6438 -0.0087 0.7652
vn -0.7208 -0.1177 0.6831
vn -0.8633 -0.4008 0.3069
vn -0.9655 -0.1485 0.2137
vn -0.8633 -0.4007 0.3070
vn -0.5595 -0.7465 -0.3601
vn -0.8045 -0.4729 0.3594
vn -0.9506 -0.2448 -0.1911
vn -0.9664 -0.2535 -0.0434
vn -0.6965 -0.6206 -0.3602
vn -0.7256 -0.3831 -0.5716
vn -0.8676 -0.2805 -0.4107
vn -0.6553 -0.3541 -0.6672
vn -0.8762 -0.2195 -0.4291
vn -0.9490 -0.0767 -0.3059
vn -0.6239 -0.2146 -0.7515
vn -0.5833 0.1984 -0.7876
vt 51.080502 -41.026001
vt 51.031898 -40.991600
vt 51.048698 -41.016998
vt 51.203300 -41.034698
vt 51.110001 -40.982601
vt 51.245399 -40.988800
vt 51.313400 -41.038700
vt 51.660500 -40.923302
vt 51.543301 -40.924500
vt 51.597000 -40.990101
vt 51.535599 -40.987999
vt 51.466400 -40.937599
vt 51.392601 -40.987999
vt 51.477501 -40.994701
vt 51.364799 -40.937599
vt 51.308102 -40.942402
vt 51.341499 -40.994499
vt 51.191502 -40.945202
vt 51.354401 -41.044300
vt 51.435200 -41.047501
vt 51.601101 -41.059101
vt 51.479099 -41.056400
vt 51.676498 -40.995701
vt 51.680500 -41.053299
vt 51.770599 -40.988800
vt 51.824100 -41.071400
vt 51.865002 -40.989101
vt 52.048901 -41.117699
vt 52.117500 -40.990501
vt 52.047798 -40.990398
vt 52.124599 -41.117500
vt 52.326199 -40.992500
vt 52.352699 -41.128799
vt 52.477100 -41.005100
vt 52.358501 -41.247200
vt 52.494499 -41.144100
vt 52.593800 -41.007500
vt 52.591999 -41.137402
vt 52.765598 -41.006100
vt 52.509701 -41.262199
vt 52.578300 -41.248901
vt 52.744499 -41.233101
vt 52.753601 -41.132198
vt 52.759602 -41.069099
vt 52.847698 -41.245998
vt 52.859001 -41.137600
vt 52.916901 -41.228199
vt 52.929100 -41.127998
vt 52.862400 -41.068401
vt 52.930901 -41.003899
vt 52.865799 -40.999199
vt 52.932701 -40.879799
vt 52.119900 -40.861401
vt 52.049500 -40.865700
vt 52.335701 -40.870201
vt 52.356499 -40.753799
vt 52.489201 -40.869099
vt 52.590401 -40.877499
vt 52.580799 -40.763000
vt 52.753601 -40.871899
vt 52.744701 -40.767502
vt 52.858200 -40.859501
vt 52.915901 -40.755798
vt 52.846001 -40.746899
vt 51.851002 -40.877998
vt 51.777302 -40.909000
vt 51.739899 -40.850899
vt 51.940701 -40.660500
vt 52.100399 -40.616001
vt 51.944000 -40.543301
vt 51.898499 -40.535599
vt 51.901600 -40.466400
vt 51.842300 -40.477501
vt 52.077900 -40.501099
vt 52.168499 -40.518501
vt 52.188702 -40.868301
vt 51.965000 -40.378502
vt 51.890598 -40.364799
vt 51.805401 -40.341499
vt 51.854198 -40.308102
vt 51.861500 -40.192299
vt 51.790901 -40.191502
vt 51.696400 -40.071400
vt 51.684399 -40.110001
vt 51.618999 -40.041698
vt 51.708401 -40.031898
vt 52.028999 -40.366600
vt 51.880402 -40.151600
vt 51.733799 -40.051701
vt 52.094700 -40.388100
vt 51.997398 -40.128201
vt 52.060699 -40.266102
vt 52.140999 -40.286999
vt 52.173401 -40.237999
vt 52.144699 -40.383301
vt 52.236599 -40.401901
vt 52.218201 -40.500099
vt 52.327202 -40.434502
vt 52.314701 -40.555500
vt 52.428101 -40.655602
vt 52.278400 -40.660999
vt 52.371498 -40.854500
vt 52.274899 -40.877102
vt 52.205399 -41.031700
vt 52.360100 -41.013699
vt 52.359200 -41.267700
vt 52.461800 -41.020599
vt 51.842701 -41.911098
vt 51.698101 -41.846001
vt 51.714500 -41.915901
vt 51.859299 -41.837502
vt 51.716400 -41.744701
vt 52.115898 -41.909901
vt 52.122898 -41.839199
vt 52.229900 -41.913898
vt 51.833801 -41.740601
vt 51.718899 -41.580799
vt 51.974098 -41.739300
vt 51.844101 -41.581600
vt 52.248402 -41.843300
vt 52.230400 -41.741299
vt 52.226898 -41.577099
vt 52.114300 -41.738201
vt 51.978802 -41.578701
vt 52.106602 -41.572800
vt 52.303699 -41.447300
vt 51.987202 -41.476898
vt 52.183998 -41.371601
vt 51.823898 -41.476898
vt 51.647202 -41.356499
vt 52.004501 -41.249699
vt 51.808998 -41.149101
vt 52.021702 -41.047600
vt 51.665798 -41.090000
vt 51.535400 -41.119900
vt 51.560299 -41.049500
vt 51.852299 -41.047501
vt 51.747299 -41.025101
vt 52.059299 -40.897800
vt 51.932301 -40.851002
vt 51.842999 -40.921299
vt 52.112900 -40.786598
vt 52.028999 -40.739899
vt 51.948898 -40.777302
vt 51.941502 -41.219799
vt 52.147701 -41.292400
vt 52.035500 -41.156200
vt 51.816799 -41.054600
vt 51.952301 -41.043201
vt 51.811199 -40.990700
vt 51.970299 -40.990398
vt 52.127899 -41.035702
vt 52.291599 -40.991600
vt 52.285999 -41.016998
vt 52.266201 -40.956402
vt 52.303600 -40.955200
vt 52.002602 -40.940701
vt 51.826599 -40.926399
vt 52.167801 -41.087299
vt 52.134899 -40.989101
vt 52.068600 -41.071400
vt 52.377701 -40.989399
vt 52.437801 -41.117699
vt 52.486698 -40.990398
vt 52.238499 -41.219601
vt 52.349300 -41.219200
vt 52.439701 -40.865700
vt 52.157001 -40.868999
vt 52.334202 -40.754700
vt 52.252701 -40.767300
vt 52.147701 -40.688400
vt 51.940701 -40.760899
vt 52.067699 -40.877998
vt 51.765701 -40.991199
vt 51.983200 -41.102402
vt 52.084202 -40.990299
vt 52.118401 -41.078400
vt 52.314701 -40.990398
vt 51.730499 -41.114799
vt 51.595600 -40.996700
vt 51.576099 -41.128700
vt 51.408001 -41.008598
vt 51.668499 -41.235001
vt 51.411999 -41.135502
vt 51.238400 -40.997501
vt 51.509102 -41.257000
vt 52.327499 -41.063900
vt 52.548801 -41.057999
vt 52.602402 -40.990398
vt 52.751400 -41.054600
vt 52.788101 -40.990700
vt 52.762001 -40.926399
vt 52.565498 -40.927502
vt 52.344398 -40.917900
vt 52.126900 -40.903900
vt 52.145500 -40.830502
vt 51.979401 -40.876202
vt 51.732300 -40.759300
vt 51.733200 -40.871700
vt 51.579899 -40.870300
vt 51.085300 -41.224998
vt 51.155300 -41.243801
vt 51.143101 -41.135799
vt 51.072399 -41.125801
vt 51.424301 -41.245800
vt 51.259201 -41.231800
vt 51.248901 -41.131001
vt 51.243698 -41.064201
vt 51.139198 -41.067402
vt 51.135300 -40.998901
vt 51.070400 -41.004002
vt 51.086102 -40.757999
vt 51.143600 -40.860401
vt 51.156700 -40.748100
vt 51.258701 -40.768002
vt 51.068298 -40.882198
vt 51.248798 -40.872299
vt 51.409698 -40.877499
vt 51.422901 -40.763500
vt 51.552700 -40.751202
vt 51.877899 -40.695400
vt 51.846901 -40.496601
vt 51.792599 -40.766899
vt 51.919102 -40.494202
vt 51.868698 -40.420502
vt 51.918999 -40.812599
vt 51.777901 -40.504799
vt 51.723801 -40.476898
vt 51.637798 -40.678200
vt 51.715302 -40.698799
vt 51.726299 -40.874298
vt 51.836399 -40.896702
vt 51.791599 -41.012299
vt 51.982201 -41.041801
vt 51.941502 -40.897598
vt 52.035500 -40.889099
vt 52.147701 -41.046700
vt 51.529900 -41.269501
vt 51.640202 -41.013500
vt 51.537201 -41.016800
vt 51.553200 -40.881599
vt 51.647400 -41.331501
vt 51.635799 -40.878502
vt 51.811001 -41.341599
vt 51.721401 -41.490898
vt 51.568802 -40.672501
vt 51.663799 -40.451199
vt 51.816799 -40.248600
vt 51.866501 -40.273800
vt 51.952301 -40.151501
vt 51.914001 -40.289101
vt 52.112801 -40.155399
vt 52.127899 -40.085999
vt 52.221802 -40.122501
vt 52.285999 -40.048698
vt 52.309601 -40.080502
vt 52.381001 -40.041698
vt 52.291599 -40.031898
vt 52.200802 -40.203300
vt 52.064800 -40.237900
vt 52.092999 -40.307301
vt 52.145000 -40.313400
vt 52.194599 -40.341499
vt 52.191002 -40.245399
vt 52.111599 -40.354401
vt 51.964901 -40.379799
vt 52.031601 -40.435699
vt 52.091999 -40.435200
vt 52.080502 -40.479099
vt 52.157700 -40.477501
vt 52.101501 -40.535599
vt 52.048901 -40.601101
vt 51.974800 -40.721901
vt 52.071602 -40.680500
vt 52.068600 -40.824100
vt 52.167801 -40.917400
vt 52.349300 -41.091599
vt 52.466099 -41.124599
vt 52.437801 -41.048901
vt 52.238499 -41.024399
vt 52.343498 -41.358501
vt 52.194801 -41.159698
vt 52.180199 -41.443298
vt 52.304600 -41.509701
vt 52.171299 -41.547501
vt 52.279900 -41.578300
vt 52.001999 -41.407299
vt 52.033501 -41.557899
vt 52.171700 -41.731098
vt 52.283600 -41.744499
vt 52.174000 -41.842602
vt 52.300900 -41.847698
vt 52.284000 -41.916901
vt 52.169102 -41.912102
vt 51.904301 -41.836399
vt 51.889301 -41.910500
vt 52.025902 -41.737400
vt 51.752602 -41.844700
vt 51.771500 -41.914700
vt 51.882099 -41.740898
vt 51.887600 -41.571701
vt 51.860901 -41.494999
vt 51.770599 -41.575699
vt 51.769501 -41.740799
vt 52.282200 -41.125801
vt 52.171101 -41.173599
vt 52.228500 -41.224998
vt 52.110699 -41.265202
vt 52.212799 -41.096699
vt 52.285801 -41.004002
vt 52.079700 -41.204800
vt 52.215500 -41.002201
vt 51.972698 -40.995899
vt 52.218300 -40.907700
vt 52.289398 -40.882198
vt 51.862701 -41.205200
vt 51.830898 -41.265800
vt 52.172199 -40.811298
vt 52.229900 -40.757999
vt 52.115898 -40.713100
vt 51.773602 -41.176102
vt 51.716000 -41.228199
vt 51.660801 -41.127998
vt 52.083801 -40.776501
vt 51.842701 -40.707802
vt 51.730801 -41.098400
vt 51.657001 -41.003899
vt 51.871799 -40.772400
vt 51.727798 -41.002102
vt 51.724800 -40.905800
vt 51.653099 -40.879799
vt 51.772400 -40.809700
vt 51.714500 -40.755798
vt 51.690399 -41.026001
vt 51.684399 -40.982601
vt 51.618999 -40.990700
vt 51.870399 -40.987999
vt 51.890598 -40.937599
vt 51.805401 -40.994499
vt 51.888401 -41.044300
vt 28.065399 -26.999800
vt 28.318501 -26.950701
vt 28.043600 -26.932501
vt 28.327499 -27.002800
vt 27.885799 -27.001301
vt 28.473200 -26.943399
vt 28.478001 -27.000601
vt 27.871401 -26.955500
vt 27.742500 -27.000700
vt 27.752501 -26.934401
vt 27.642401 -26.938900
vt 27.612801 -26.998501
vt 27.656500 -27.065901
vt 27.742001 -27.067801
vt 27.868500 -27.044701
vt 28.047001 -27.070200
vt 28.318501 -27.055000
vt 28.473200 -27.057600
vt 27.864300 -27.318501
vt 27.945000 -27.287800
vt 27.761200 -27.043600
vt 28.000000 -27.473200
vt 28.058001 -27.458200
vt 27.837999 -27.019400
vt 27.808300 -26.871401
vt 28.056200 -27.281500
vt 27.934299 -27.009899
vt 28.126101 -27.440300
vt 27.898500 -26.860399
vt 27.829000 -26.752501
vt 27.910200 -26.697800
vt 27.880501 -26.642401
vt 27.965401 -26.842600
vt 27.998400 -26.521999
vt 27.870300 -26.612801
vt 27.966400 -26.594000
vt 27.950199 -26.659700
vt 28.032400 -26.775900
vt 28.002001 -26.821301
vt 27.996099 -26.956100
vt 28.029200 -26.921499
vt 28.054899 -27.073299
vt 28.076300 -27.012199
vt 28.167299 -27.244301
vt 28.232500 -27.412300
vt 28.015100 -27.126600
vt 28.033600 -26.963800
vt 28.129700 -26.998501
vt 28.119499 -26.938900
vt 27.934000 -26.944000
vt 27.892200 -27.000601
vt 27.957800 -27.008200
vt 27.923700 -26.933201
vt 27.862700 -27.001801
vt 27.916100 -27.006300
vt 27.989700 -27.090700
vt 28.125500 -27.065901
vt 28.050501 -27.068600
vt 28.336800 -27.006001
vt 28.406000 -26.963800
vt 28.224100 -26.957199
vt 28.221001 -27.000601
vt 28.165501 -27.008200
vt 28.340300 -26.922001
vt 28.178699 -26.907301
vt 28.103800 -26.944000
vt 28.040600 -27.006300
vt 28.114700 -27.000601
vt 27.987801 -26.933201
vt 27.889000 -27.004101
vt 27.988100 -27.001801
vt 28.078501 -26.884701
vt 27.926701 -26.889400
vt 27.755699 -26.931499
vt 27.595301 -27.017900
vt 27.587700 -26.927700
vt 27.750999 -27.072800
vt 27.573099 -27.119499
vt 28.004400 -27.068600
vt 28.095699 -27.106701
vt 27.922501 -27.107201
vt 28.171801 -27.090700
vt 28.331499 -27.048500
vt 28.368700 -27.068600
vt 27.829201 -27.249001
vt 27.823000 -27.426901
vt 27.964300 -27.174999
vt 27.988899 -27.302700
vt 27.912800 -27.450701
vt 27.960899 -27.463200
vt 28.075399 -27.281200
vt 27.928101 -26.995600
vt 27.946899 -27.077499
vt 28.007099 -26.962000
vt 27.964001 -26.904301
vt 28.046200 -26.996000
vt 28.007999 -26.668501
vt 27.989700 -26.828199
vt 28.050501 -26.631300
vt 28.029699 -26.825300
vt 28.129700 -26.612801
vt 28.001600 -26.521999
vt 28.070400 -26.862000
vt 28.089800 -26.696199
vt 28.125500 -26.656500
vt 28.167400 -26.742001
vt 28.135500 -26.872200
vt 28.193001 -26.868500
vt 28.156900 -27.014999
vt 28.104601 -27.037701
vt 28.236900 -27.047001
vt 28.135700 -27.318501
s 1
usemtl Meshpart1Mtl
f 3/1/1 1/2/2 2/3/3
f 5/4/4 4/5/5 3/1/6
f 4/5/5 5/4/4 6/6/7
f 7/7/8 6/6/7 5/4/4
f 8/8/9 9/9/10 10/10/11
f 10/10/11 9/9/10 11/11/12
f 11/11/12 9/9/10 12/12/13
f 12/12/14 14/13/15 13/14/16
f 14/13/15 12/12/14 15/15/17
f 17/16/18 18/6/19 16/17/20
f 17/16/18 19/18/21 18/6/19
f 18/6/19 19/18/21 20/5/22
f 22/13/23 21/19/24 23/20/25
f 23/20/25 24/14/26 22/13/23
f 27/21/27 26/11/28 25/22/29
f 26/11/28 27/21/27 28/10/30
f 27/21/27 29/23/31 28/10/30
f 29/23/31 27/21/27 30/24/32
f 31/25/33 29/23/31 30/24/32
f 31/25/33 30/24/32 32/26/34
f 33/27/35 31/25/33 32/26/34
f 34/28/36 36/29/37 35/30/38
f 36/29/37 34/28/36 37/31/39
f 38/32/40 36/29/37 37/31/39
f 38/32/40 37/31/39 39/33/41
f 39/33/41 40/34/42 38/32/40
f 39/33/41 37/31/39 41/35/43
f 40/34/42 39/33/41 42/36/44
f 41/35/43 42/36/44 39/33/41
f 43/37/45 40/34/42 42/36/44
f 44/38/46 43/37/45 42/36/44
f 43/37/45 44/38/46 45/39/47
f 42/36/44 41/35/43 46/40/48
f 47/41/49 42/36/44 46/40/48
f 42/36/44 47/41/49 44/38/46
f 48/42/50 44/38/46 47/41/49
f 49/43/51 44/38/46 48/42/50
f 44/38/46 49/43/51 50/44/52
f 51/45/53 49/43/51 48/42/50
f 45/39/47 44/38/46 50/44/52
f 52/46/54 49/43/51 51/45/53
f 52/46/54 50/44/52 49/43/51
f 52/46/54 51/45/53 53/47/55
f 53/47/55 54/48/56 52/46/54
f 54/48/56 55/49/57 52/46/54
f 55/49/57 50/44/52 52/46/54
f 55/49/57 45/39/47 50/44/52
f 54/48/56 56/50/58 55/49/57
f 57/51/59 55/49/57 56/50/58
f 57/51/59 45/39/47 55/49/57
f 58/52/60 57/51/59 56/50/58
f 59/32/61 60/53/62 61/29/63
f 62/54/64 61/29/63 60/53/62
f 61/29/63 62/54/64 63/30/65
f 64/55/66 60/53/62 59/32/61
f 65/34/67 64/55/66 59/32/61
f 64/55/66 66/56/68 60/53/62
f 65/34/67 67/57/69 64/55/66
f 67/57/69 66/56/68 64/55/66
f 65/34/67 68/58/70 67/57/69
f 68/58/70 65/34/67 69/37/71
f 68/58/70 69/37/71 45/39/47
f 71/59/72 67/57/69 68/58/70
f 67/57/69 71/59/72 66/56/68
f 45/39/47 72/60/73 68/58/70
f 57/51/59 72/60/73 45/39/47
f 72/60/73 73/61/74 68/58/70
f 73/61/74 71/59/72 68/58/70
f 72/60/73 57/51/59 74/62/75
f 74/62/75 73/61/74 72/60/73
f 58/52/60 74/62/75 57/51/59
f 75/63/76 74/62/75 58/52/60
f 74/62/75 75/63/76 76/64/77
f 73/61/74 74/62/75 76/64/77
f 70/27/78 77/65/79 78/66/80
f 70/27/78 78/66/80 79/25/81
f 79/25/81 78/66/80 80/23/82
f 78/66/80 77/65/79 81/67/83
f 80/23/82 78/66/80 8/8/9
f 8/8/9 10/10/11 80/23/82
f 82/68/84 84/69/85 83/70/86
f 85/71/87 86/72/88 87/73/89
f 83/70/86 84/69/85 88/74/90
f 88/74/90 86/72/91 83/70/86
f 84/69/85 89/75/92 88/74/90
f 84/69/85 90/76/93 89/75/92
f 86/72/91 88/74/90 93/77/94
f 86/72/91 93/77/94 91/78/95
f 92/79/96 91/78/95 94/80/97
f 91/78/95 93/77/94 94/80/97
f 93/77/94 97/81/98 94/80/97
f 97/81/98 95/82/99 94/80/97
f 98/83/100 96/84/101 95/82/99
f 97/81/98 98/83/100 95/82/99
f 96/84/101 98/83/100 99/85/102
f 100/86/103 99/85/102 98/83/100
f 93/77/94 101/87/104 97/81/98
f 88/74/90 101/87/104 93/77/94
f 97/81/98 102/88/105 98/83/100
f 101/87/104 102/88/105 97/81/98
f 103/89/106 98/83/100 102/88/105
f 104/90/107 101/87/104 88/74/90
f 101/87/104 104/90/107 102/88/105
f 89/75/92 104/90/107 88/74/90
f 105/91/108 103/89/106 102/88/105
f 104/90/107 106/92/109 102/88/105
f 102/88/105 106/92/109 105/91/108
f 106/92/109 108/93/110 105/91/108
f 108/93/110 107/94/111 105/91/108
f 109/95/112 108/93/110 106/92/109
f 104/90/107 109/95/112 106/92/109
f 104/90/107 89/75/92 109/95/112
f 109/95/112 110/96/113 108/93/110
f 110/96/113 107/94/111 108/93/110
f 111/97/114 109/95/112 89/75/92
f 111/97/114 110/96/113 109/95/112
f 110/96/113 112/98/115 107/94/111
f 114/99/116 112/98/115 110/96/113
f 111/97/114 114/99/116 110/96/113
f 114/99/116 113/100/117 112/98/115
f 115/101/118 114/99/116 111/97/114
f 89/75/92 115/101/118 111/97/114
f 90/76/93 115/101/118 89/75/92
f 115/101/118 116/102/119 114/99/116
f 116/102/119 113/100/117 114/99/116
f 117/103/120 115/101/118 90/76/93
f 116/102/119 115/101/118 117/103/120
f 90/76/93 118/104/121 117/103/120
f 119/105/122 117/103/120 118/104/121
f 119/105/122 116/102/119 117/103/120
f 118/104/121 120/106/123 119/105/122
f 121/107/124 116/102/119 119/105/122
f 120/106/123 121/107/124 119/105/122
f 130/108/125 129/109/126 128/110/127
f 129/109/126 130/108/125 131/111/128
f 129/109/126 131/111/128 127/112/129
f 130/108/125 132/113/130 131/111/128
f 133/114/131 131/111/128 132/113/130
f 132/113/130 134/115/132 133/114/131
f 131/111/128 135/116/133 127/112/129
f 127/112/129 135/116/133 126/117/134
f 135/116/133 131/111/128 136/118/135
f 133/114/131 136/118/135 131/111/128
f 135/116/133 137/119/136 126/117/134
f 135/116/133 136/118/135 137/119/136
f 134/115/132 138/120/137 133/114/131
f 138/120/137 139/121/138 133/114/131
f 139/121/138 140/122/139 141/123/140
f 133/114/131 139/121/138 141/123/140
f 136/118/135 133/114/131 141/123/140
f 141/123/140 142/124/141 136/118/135
f 136/118/135 142/124/141 137/119/136
f 141/123/140 140/122/139 143/125/142
f 142/124/141 141/123/140 143/125/142
f 143/125/142 140/122/139 144/126/143
f 145/127/144 142/124/141 143/125/142
f 145/127/144 137/119/136 142/124/141
f 144/126/143 146/128/145 143/125/142
f 143/125/142 146/128/145 145/127/144
f 144/126/143 120/106/123 146/128/145
f 137/119/136 145/127/144 147/129/146
f 147/129/146 126/117/134 137/119/136
f 126/117/134 147/129/146 124/130/147
f 145/127/144 148/131/148 147/129/146
f 146/128/145 148/131/148 145/127/144
f 124/130/147 147/129/146 149/132/149
f 148/131/148 149/132/149 147/129/146
f 118/104/121 148/131/148 146/128/145
f 120/106/123 118/104/121 146/128/145
f 148/131/148 150/133/150 149/132/149
f 148/131/148 118/104/121 150/133/150
f 149/132/149 151/134/151 124/130/147
f 124/130/147 151/134/151 122/135/152
f 151/134/151 123/136/153 122/135/152
f 149/132/149 153/137/154 151/134/151
f 153/137/154 152/138/155 151/134/151
f 150/133/150 153/137/154 149/132/149
f 150/133/150 90/76/93 153/137/154
f 150/133/150 118/104/121 90/76/93
f 90/76/93 154/139/156 153/137/154
f 154/139/156 155/140/157 125/141/158
f 154/139/156 156/142/159 155/140/157
f 90/76/93 156/142/159 154/139/156
f 156/142/159 158/143/160 155/140/157
f 157/144/161 158/143/160 82/68/84
f 158/143/160 156/142/159 84/69/85
f 158/143/160 84/69/85 82/68/84
f 90/76/93 84/69/85 156/142/159
f 159/145/162 161/146/163 160/147/164
f 162/148/165 164/149/166 163/150/167
f 165/151/168 163/150/167 164/149/166
f 165/151/168 164/149/166 166/152/169
f 165/151/168 166/152/169 167/153/170
f 167/153/170 166/152/169 168/154/171
f 171/155/172 170/153/173 169/156/174
f 172/151/175 170/153/173 171/155/172
f 172/151/175 171/155/172 173/157/176
f 172/151/175 173/157/176 174/158/177
f 175/150/178 172/151/175 174/158/177
f 178/159/179 177/160/180 176/161/181
f 178/159/179 179/162/182 177/160/180
f 180/163/183 179/162/182 178/159/179
f 180/163/183 181/164/184 179/162/182
f 182/165/185 178/159/179 160/147/164
f 182/165/185 180/163/183 178/159/179
f 160/147/164 161/146/163 182/165/185
f 183/166/186 180/163/183 182/165/185
f 184/167/187 186/162/188 185/164/189
f 184/167/187 187/168/190 186/162/188
f 187/168/190 188/160/191 186/162/188
f 189/169/192 190/170/193 184/167/187
f 190/170/193 187/168/190 184/167/187
f 191/171/194 187/168/190 190/170/193
f 191/171/194 192/172/195 187/168/190
f 187/168/190 193/173/196 188/160/191
f 194/174/197 195/175/198 196/176/199
f 196/176/199 195/175/198 197/177/200
f 196/176/199 197/177/200 198/178/201
f 194/174/197 199/179/202 195/175/198
f 200/180/203 199/179/202 194/174/197
f 200/180/203 201/181/204 199/179/202
f 202/182/205 201/181/204 200/180/203
f 201/181/204 203/183/206 199/179/202
f 201/181/204 202/182/205 204/184/207
f 202/182/205 205/185/208 204/184/207
f 201/181/204 206/186/209 203/183/206
f 201/181/204 204/184/207 206/186/209
f 198/178/201 197/177/200 207/187/210
f 208/188/211 198/178/201 207/187/210
f 198/178/201 208/188/211 209/189/212
f 208/188/211 210/190/213 209/189/212
f 210/190/213 211/191/214 209/189/212
f 212/192/215 214/189/216 213/191/217
f 215/193/218 214/189/216 212/192/215
f 216/194/219 214/189/216 215/193/218
f 216/194/219 217/178/220 214/189/216
f 217/178/220 216/194/219 219/195/221
f 219/195/221 216/194/219 218/196/222
f 220/176/223 217/178/220 219/195/221
f 218/196/222 222/197/224 219/195/221
f 220/176/223 219/195/221 222/197/224
f 223/174/225 220/176/223 222/197/224
f 222/197/224 221/198/226 224/199/227
f 224/199/227 223/174/225 222/197/224
f 221/198/226 225/200/228 224/199/227
f 224/199/227 226/180/229 223/174/225
f 226/180/229 224/199/227 225/200/228
f 228/201/230 227/202/231 229/203/232
f 230/204/233 228/201/230 229/203/232
f 206/186/209 204/184/207 231/205/234
f 232/206/235 231/205/234 204/184/207
f 227/202/231 232/206/235 233/207/236
f 233/207/236 232/206/235 204/184/207
f 229/203/232 227/202/231 233/207/236
f 233/207/236 204/184/207 234/208/237
f 229/203/232 233/207/236 234/208/237
f 204/184/207 205/185/208 234/208/237
f 235/209/238 229/203/232 234/208/237
f 235/209/238 234/208/237 205/185/208
f 230/204/233 229/203/232 235/209/238
f 236/210/239 235/209/238 205/185/208
f 237/211/240 230/204/233 235/209/238
f 237/211/240 235/209/238 236/210/239
f 238/212/241 240/213/242 239/214/243
f 240/213/242 241/215/244 239/214/243
f 242/216/245 240/213/242 238/212/241
f 240/213/242 242/216/245 243/210/246
f 242/216/245 244/211/247 243/210/246
f 243/210/246 245/185/248 240/213/242
f 240/213/242 245/185/248 246/217/249
f 241/215/244 240/213/242 246/217/249
f 245/185/248 247/218/250 246/217/249
f 246/217/249 247/218/250 241/215/244
f 248/182/251 247/218/250 245/185/248
f 225/200/228 247/218/250 248/182/251
f 248/182/251 226/180/229 225/200/228
f 241/215/244 247/218/250 249/219/252
f 225/200/228 249/219/252 247/218/250
f 249/219/252 225/200/228 250/220/253
f 225/200/228 221/198/226 250/220/253
f 251/221/254 252/222/255 253/223/256
f 251/221/254 254/224/257 252/222/255
f 254/224/257 255/225/258 252/222/255
f 253/223/256 256/226/259 251/221/254
f 252/222/255 255/225/258 257/227/260
f 257/227/260 255/225/258 258/228/261
f 257/227/260 258/228/261 259/229/262
f 260/230/263 252/222/255 257/227/260
f 260/230/263 257/227/260 259/229/262
f 252/222/255 260/230/263 253/223/256
f 259/229/262 261/231/264 260/230/263
f 261/231/264 253/223/256 260/230/263
f 261/231/264 262/232/265 253/223/256
f 256/226/259 253/223/256 262/232/265
f 262/232/265 261/231/264 263/233/266
f 264/234/267 262/232/265 263/233/266
f 262/232/265 265/235/268 256/226/259
f 262/232/265 264/234/267 265/235/268
f 265/235/268 266/236/269 256/226/259
f 267/237/270 265/235/268 264/234/267
f 270/238/271 271/239/272 268/240/273
f 271/239/272 269/241/274 268/240/273
f 272/242/275 271/239/272 270/238/271
f 269/241/274 271/239/272 274/243/276
f 272/242/275 263/233/266 271/239/272
f 271/239/272 261/231/264 274/243/276
f 271/239/272 263/233/266 261/231/264
f 275/244/277 263/233/266 272/242/275
f 275/244/277 272/242/275 273/245/278
f 269/241/274 274/243/276 259/229/262
f 274/243/276 261/231/264 259/229/262
f 269/241/274 259/229/262 276/246/279
f 259/229/262 277/247/280 276/246/279
f 277/247/280 259/229/262 258/228/261
f 258/228/261 278/248/281 277/247/280
f 258/228/261 280/249/282 278/248/281
f 280/249/282 279/250/283 278/248/281
f 282/251/284 279/250/283 280/249/282
f 284/252/285 279/250/283 282/251/284
f 281/253/286 279/250/283 284/252/285
f 280/249/282 255/225/258 282/251/284
f 258/228/261 255/225/258 280/249/282
f 255/225/258 284/252/285 282/251/284
f 284/252/285 286/254/287 281/253/286
f 285/255/288 281/253/286 286/254/287
f 287/256/289 285/255/288 286/254/287
f 287/256/290 288/257/291 283/258/292
f 286/254/287 289/259/293 287/256/289
f 286/254/287 284/252/285 291/260/294
f 284/252/285 255/225/258 291/260/294
f 292/261/295 289/259/293 286/254/287
f 292/261/295 286/254/287 291/260/294
f 289/259/293 292/261/295 293/262/8
f 293/262/8 294/263/296 290/264/297
f 294/263/296 293/262/8 295/265/298
f 295/265/298 293/262/8 292/261/295
f 292/261/295 291/260/294 296/266/299
f 291/260/294 255/225/258 296/266/299
f 295/265/298 292/261/295 297/267/300
f 297/267/300 292/261/295 296/266/299
f 298/268/301 295/265/298 297/267/300
f 300/269/302 299/270/303 298/268/301
f 300/269/302 298/268/301 297/267/300
f 301/271/304 299/270/303 300/269/302
f 297/267/300 296/266/299 254/224/257
f 254/224/257 300/269/302 297/267/300
f 255/225/258 254/224/257 296/266/299
f 300/269/302 254/224/257 302/272/305
f 302/272/305 254/224/257 304/273/306
f 304/273/306 303/274/307 302/272/305
f 304/273/306 305/275/308 303/274/307
f 304/273/306 254/224/257 251/221/254
f 256/226/259 305/275/308 304/273/306
f 256/226/259 304/273/306 251/221/254
f 266/236/269 306/276/309 305/275/308
f 266/236/269 305/275/308 256/226/259
f 310/277/310 309/278/311 307/279/312
f 267/237/270 310/277/310 308/280/313
f 309/278/311 310/277/310 311/281/314
f 312/282/315 311/281/314 310/277/310
f 312/282/315 310/277/310 267/237/270
f 311/281/314 312/282/315 313/283/316
f 314/284/317 311/281/314 313/283/316
f 314/284/317 313/283/316 316/285/318
f 316/285/318 315/286/319 314/284/317
f 317/287/320 313/283/316 312/282/315
f 318/288/321 316/285/318 313/283/316
f 313/283/316 317/287/320 318/288/321
f 312/282/315 264/234/267 317/287/320
f 264/234/267 312/282/315 267/237/270
f 315/286/319 316/285/318 319/289/322
f 316/285/318 318/288/321 319/289/322
f 315/286/319 319/289/322 320/290/323
f 321/291/324 320/290/323 319/289/322
f 322/292/325 320/290/323 321/291/324
f 323/293/326 322/292/325 321/291/324
f 324/294/327 323/293/326 321/291/324
f 321/291/324 325/295/328 324/294/327
f 326/296/329 324/294/327 325/295/328
f 321/291/324 327/297/330 325/295/328
f 327/297/330 321/291/324 319/289/322
f 328/298/331 326/296/329 325/295/328
f 319/289/322 318/288/321 327/297/330
f 326/296/329 328/298/331 329/299/332
f 330/300/333 325/295/328 327/297/330
f 330/300/333 327/297/330 318/288/321
f 330/300/333 328/298/331 325/295/328
f 331/301/334 330/300/333 318/288/321
f 318/288/321 332/302/335 331/301/334
f 332/302/335 318/288/321 317/287/320
f 332/302/335 317/287/320 275/244/277
f 275/244/277 317/287/320 264/234/267
f 273/245/278 332/302/335 275/244/277
f 275/244/277 264/234/267 263/233/266
f 333/303/336 332/302/335 273/245/278
f 331/301/334 332/302/335 333/303/336
f 333/303/336 330/300/333 331/301/334
f 333/303/336 334/304/337 330/300/333
f 328/298/331 330/300/333 334/304/337
f 335/305/338 336/306/339 337/307/340
f 338/308/341 337/307/340 336/306/339
f 336/306/339 335/305/338 339/309/342
f 340/310/343 339/309/342 335/305/338
f 336/306/339 341/311/344 338/308/341
f 339/309/342 340/310/343 342/312/345
f 336/306/339 339/309/342 343/313/346
f 339/309/342 342/312/345 343/313/346
f 341/311/344 336/306/339 343/313/346
f 340/310/343 344/314/347 342/312/345
f 342/312/345 344/314/347 343/313/346
f 344/314/347 340/310/343 345/315/348
f 346/316/349 338/308/341 341/311/344
f 346/316/349 341/311/344 343/313/346
f 338/308/341 346/316/349 347/317/350
f 345/315/348 348/318/351 344/314/347
f 344/314/347 348/318/351 343/313/346
f 345/315/348 349/319/352 348/318/351
f 350/320/353 348/318/351 349/319/352
f 351/321/354 347/317/350 346/316/349
f 351/321/354 346/316/349 343/313/346
f 347/317/350 351/321/354 352/322/355
f 352/322/355 351/321/354 353/323/356
f 348/318/351 350/320/353 354/324/357
f 348/318/351 354/324/357 343/313/346
f 355/325/358 354/324/357 350/320/353
f 353/323/356 351/321/354 356/326/359
f 356/326/359 351/321/354 343/313/346
f 357/327/360 353/323/356 356/326/359
f 354/324/357 355/325/358 358/328/361
f 354/324/357 358/328/361 343/313/346
f 359/329/362 357/327/360 356/326/359
f 359/329/362 356/326/359 343/313/346
f 360/330/363 357/327/360 359/329/362
f 360/330/363 359/329/362 343/313/346
f 357/327/360 360/330/363 361/331/364
f 355/325/358 362/332/365 358/328/361
f 358/328/361 362/332/365 343/313/346
f 362/332/365 360/330/363 343/313/346
f 362/332/365 361/331/364 360/330/363
f 362/332/365 355/325/358 363/333/366
f 361/331/364 362/332/365 363/333/366
f 364/334/367 366/335/5 365/336/368
f 367/337/369 368/338/370 369/339/96
f 372/337/371 370/339/372 371/340/373
f 375/341/374 373/342/375 374/343/376
f 373/342/375 375/341/374 376/344/377
f 374/343/376 377/345/378 375/341/374
f 376/344/377 378/346/379 373/342/375
f 378/346/379 376/344/377 379/347/380
f 374/343/376 380/348/381 377/345/378
f 380/348/381 381/349/382 377/345/378
f 381/349/382 380/348/381 382/350/383
f 381/349/382 382/350/383 383/351/384
f 381/349/382 383/351/384 384/352/385
f 388/349/386 386/352/387 387/353/388
f 388/349/386 387/353/388 389/354/389
f 390/355/390 388/349/386 389/354/389
f 388/349/386 390/355/390 391/345/391
f 392/356/392 391/345/391 390/355/390
f 392/356/392 393/341/393 391/345/391
f 394/357/394 393/341/393 392/356/392
f 393/341/393 394/357/394 395/344/395
f 385/358/396 395/344/395 394/357/394
f 395/344/395 385/358/396 396/347/397
f 397/359/398 398/360/399 399/361/400
f 397/359/398 400/362/401 398/360/399
f 401/363/402 398/360/399 400/362/401
f 398/360/399 403/364/403 399/361/400
f 403/364/403 402/365/404 399/361/400
f 401/363/402 404/366/405 398/360/399
f 398/360/399 405/367/406 403/364/403
f 405/367/406 398/360/399 404/366/405
f 404/366/405 401/363/402 406/368/407
f 402/365/404 403/364/403 407/369/408
f 405/367/406 407/369/408 403/364/403
f 402/365/404 407/369/408 408/370/409
f 407/369/408 411/371/410 408/370/409
f 408/370/409 411/371/410 409/372/411
f 405/367/406 412/373/412 407/369/408
f 411/371/410 407/369/408 412/373/412
f 414/374/413 410/375/414 413/376/415
f 415/377/416 409/372/411 411/371/410
f 415/377/416 411/371/410 412/373/412
f 413/376/417 409/372/411 415/377/416
f 416/378/418 413/376/417 415/377/416
f 417/379/419 415/377/416 412/373/412
f 417/379/419 412/373/412 420/380/420
f 419/381/421 417/379/419 420/380/420
f 420/380/420 412/373/412 405/367/406
f 421/382/422 419/381/421 420/380/420
f 418/383/423 421/382/422 422/384/424
f 422/384/424 406/368/407 423/385/425
f 406/368/407 422/384/424 404/366/405
f 421/382/422 420/380/420 424/386/426
f 424/386/426 422/384/424 421/382/422
f 424/386/426 420/380/420 405/367/406
f 422/384/424 424/386/426 404/366/405
f 424/386/426 405/367/406 404/366/405
f 427/387/427 426/388/428 425/389/429
f 429/390/430 430/391/431 428/392/432
f 432/393/433 433/394/434 431/395/435
f 434/391/436 435/396/437 436/392/438
f 439/397/439 438/388/440 437/398/441
f 442/399/442 441/347/443 440/400/444
f 442/399/442 440/400/444 444/401/445
f 445/402/446 442/399/442 444/401/445
f 444/401/445 446/403/447 445/402/446
f 443/404/416 447/405/448 444/401/445
f 447/405/448 446/403/447 444/401/445
f 446/403/447 447/405/448 448/406/449
f 450/407/450 449/408/451 448/406/449
f 450/407/450 448/406/449 451/409/452
f 453/410/453 452/411/454 451/409/455
f 448/406/449 447/405/448 454/412/456
f 451/409/452 448/406/449 454/412/456
f 454/412/456 455/413/457 451/409/452
f 453/410/453 451/409/455 456/414/458
f 456/414/458 457/415/459 453/410/453
f 457/415/459 456/414/458 458/416/460
f 459/417/461 461/415/462 460/418/463
f 462/410/464 461/415/462 459/417/461
f 462/410/464 459/417/461 463/419/465
f 462/410/464 463/419/465 464/411/466
f 463/419/465 465/407/467 464/411/466
f 467/420/468 465/407/467 463/419/465
f 463/419/465 466/421/469 467/420/468
f 465/407/467 467/420/468 468/408/436
f 469/422/470 468/408/436 467/420/468
f 470/403/471 469/422/472 471/402/473
f 469/422/472 472/423/474 471/402/473
f 471/402/473 472/423/474 473/399/475
f 474/424/476 473/399/475 472/423/474
f 475/347/477 473/399/475 474/424/476
f 476/425/478 477/426/479 478/427/480
f 477/426/479 479/428/481 478/427/480
f 479/428/481 477/426/479 480/429/482
f 479/428/481 480/429/482 481/430/483
f 481/430/483 482/431/484 479/428/481
f 482/431/484 481/430/483 483/362/485
f 484/432/486 476/425/478 485/433/487
f 485/433/487 476/425/478 478/427/480
f 485/433/487 478/427/480 487/434/488
f 485/433/487 487/434/488 486/435/489
f 478/427/480 488/436/490 487/434/488
f 479/428/481 488/436/490 478/427/480
f 490/437/491 489/438/492 491/439/493
f 486/435/489 493/440/494 489/438/492
f 493/440/494 486/435/489 487/434/488
f 489/438/492 493/440/494 491/439/493
f 491/439/495 494/441/496 492/442/497
f 487/434/488 495/443/498 493/440/494
f 487/434/488 488/436/490 495/443/498
f 491/439/493 493/440/494 496/444/499
f 493/440/494 495/443/498 496/444/499
f 497/445/500 491/439/493 496/444/499
f 498/446/501 497/445/500 496/444/499
f 496/444/499 495/443/498 498/446/501
f 495/443/498 500/447/502 498/446/501
f 499/448/503 498/446/501 500/447/502
f 495/443/498 501/449/504 500/447/502
f 499/448/503 500/447/502 501/449/504
f 488/436/490 502/450/505 495/443/498
f 502/450/505 501/449/504 495/443/498
f 479/428/481 502/450/505 488/436/490
f 502/450/505 479/428/481 482/431/484
f 502/450/505 482/431/484 501/449/504
f 503/451/506 499/448/503 501/449/504
f 482/431/484 503/451/506 501/449/504
f 504/452/507 503/451/506 482/431/484
f 482/431/484 483/362/485 504/452/507
