# Blender 5.2.0 LTS
# www.blender.org
mtllib crabs wow.mtl
o Crab_Claws.001
v 0.052092 -0.066223 -1.307976
v 0.074428 -0.077143 -1.289449
v 0.065622 -0.105040 -1.261281
v 0.022607 -0.089488 -1.234876
v 0.116320 -0.032095 -1.123046
v 0.078025 -0.003313 -1.081938
v 0.136239 0.000631 -1.005627
v 0.044000 0.098329 -0.654777
v 0.060646 0.112728 -0.769958
v 0.091685 0.043884 -0.719192
v 0.090581 0.041083 -0.781808
v 0.058248 0.078354 -0.851815
v 0.073200 -0.003244 -0.847443
v 0.092577 0.032747 -0.927216
v 0.064383 0.079851 -0.953766
v 0.069419 -0.019566 -0.987347
v 0.055814 0.052878 -1.015066
v 0.078025 -0.003313 -1.081938
v 0.038315 0.010950 -1.139750
v 0.022607 -0.089488 -1.234876
v 0.153900 0.021120 -0.959842
v 0.092577 0.032747 -0.927216
v 0.157402 0.027120 -0.876874
v 0.073200 -0.003244 -0.847443
v 0.165745 0.027279 -0.831445
v 0.090581 0.041083 -0.781808
v 0.170387 0.039335 -0.706065
v 0.091685 0.043884 -0.719192
v 0.068060 0.003000 -0.645876
v 0.143998 0.015287 -0.631303
v 0.069682 0.025975 -0.547912
v 0.143712 -0.007176 -0.488294
v 0.034579 -0.021957 -0.461612
v -0.040877 -0.363364 -0.320779
v -0.173446 -0.334710 -0.334734
v -0.196126 -0.364766 -0.270059
v -0.065072 -0.394762 -0.250332
v -0.210492 -0.374006 -0.061407
v -0.076253 -0.414810 -0.022775
v -0.194160 -0.359697 0.094877
v 0.081130 -0.387853 0.004860
v -0.056321 -0.400605 0.124706
v -0.173845 -0.322901 0.219408
v -0.048904 -0.368661 0.227759
v -0.188086 -0.328733 0.391142
v 0.096401 -0.379472 0.160759
v 0.090265 -0.358905 0.231711
v 0.055406 -0.370804 0.394535
v -0.068503 -0.376568 0.388259
v -0.128295 -0.352650 0.389700
v 0.044702 -0.403043 0.494350
v -0.085281 -0.404327 0.490013
v 0.030618 -0.386584 0.564485
v -0.084236 -0.379330 0.563825
v -0.148588 -0.374748 0.489002
v -0.190505 -0.315190 0.559697
v -0.211895 -0.345168 0.487991
v -0.296773 -0.251051 0.555569
v -0.210492 -0.374006 -0.061407
v -0.278342 -0.253625 -0.265677
v -0.196126 -0.364766 -0.270059
v -0.253133 -0.227891 -0.331258
v -0.173446 -0.334710 -0.334734
v -0.293622 -0.276408 -0.051453
v -0.194160 -0.359697 0.094877
v -0.337064 -0.126903 -0.019672
v -0.287891 -0.253172 0.107224
v -0.266840 -0.227711 0.214970
v -0.173845 -0.322901 0.219408
v 0.034579 -0.021957 -0.461612
v -0.317771 -0.095816 0.213170
v -0.286477 -0.234833 0.377125
v -0.334815 -0.117480 0.374821
v -0.318302 -0.253179 0.477304
v -0.365943 -0.130758 0.543010
v -0.373899 -0.132218 0.471085
v -0.021093 0.095929 -0.469886
v 0.022479 0.100682 -0.538820
v 0.069682 0.025975 -0.547912
v 0.068060 0.003000 -0.645876
v 0.020927 0.202896 -0.566027
v 0.044000 0.098329 -0.654777
v 0.060646 0.112728 -0.769958
v 0.047538 0.292240 -0.678827
v 0.090581 0.041083 -0.781808
v 0.058248 0.078354 -0.851815
v 0.073200 -0.003244 -0.847443
v 0.057536 0.280187 -0.795288
v 0.084047 0.366609 -0.765260
v 0.006785 0.376815 -0.419142
v 0.064383 0.079851 -0.953766
v 0.069419 -0.019566 -0.987347
v 0.065072 0.164564 -0.930785
v 0.055814 0.052878 -1.015066
v 0.038315 0.010950 -1.139750
v 0.022607 -0.089488 -1.234876
v 0.039943 0.092869 -1.130048
v 0.010594 -0.060601 -1.272376
v 0.002648 -0.141200 -1.311997
v 0.052092 -0.066223 -1.307976
v 0.073936 0.236411 -0.934191
v 0.057768 0.110981 -1.167185
v 0.033853 -0.028037 -1.286088
v 0.090726 0.299012 -0.903727
v 0.152043 0.191957 -1.170980
v 0.110748 0.268154 -1.028124
v 0.220742 0.334675 -1.036245
v 0.158620 0.327939 -0.994836
v 0.122788 0.338018 -0.900550
v 0.198431 0.393778 -0.866689
v 0.127430 0.400361 -0.775037
v 0.280207 0.441484 -0.818749
v 0.299693 0.507526 -0.585431
v 0.198413 0.457880 -0.704266
v 0.124151 0.444088 -0.607882
v 0.172632 0.487023 -0.401476
v 0.066381 0.438053 -0.396544
v -0.052358 0.405082 -0.257750
v 0.103013 0.489829 -0.248331
v 0.057363 0.472109 0.001605
v 0.239292 0.519902 -0.221683
v -0.278342 -0.253625 -0.265677
v -0.253133 -0.227891 -0.331258
v -0.337064 -0.126903 -0.019672
v -0.084490 0.019129 -0.414538
v -0.317771 -0.095816 0.213170
v -0.334815 -0.117480 0.374821
v -0.365943 -0.130758 0.543010
v -0.373899 -0.132218 0.471085
v -0.337372 0.002624 0.555810
v -0.339891 0.037205 0.484607
v -0.187258 0.227280 0.596536
v -0.190333 0.250442 0.527017
v -0.089364 0.297388 0.619808
v -0.318219 0.010747 0.386280
v -0.255467 0.135607 0.405743
v -0.306573 0.044267 0.230165
v -0.079386 0.325551 0.552486
v -0.060190 0.310483 0.449894
v -0.046355 0.327269 0.287079
v -0.168236 0.244343 0.426710
v -0.251495 0.167759 0.247014
v -0.168330 0.265455 0.261390
v -0.000308 0.411473 0.170075
v -0.263728 0.204210 0.146335
v -0.124290 0.364711 0.073560
v -0.328619 0.053865 0.122484
v -0.233019 0.246000 -0.075627
v -0.294756 0.074113 -0.203260
v -0.184348 0.271506 -0.271778
v -0.294774 -0.083933 -0.279922
v -0.233006 -0.016128 -0.331049
v -0.245918 0.111847 -0.296273
v -0.057075 0.260407 -0.409373
v -0.021093 0.095929 -0.469886
v 0.009680 0.300546 -0.509654
v 0.022479 0.100682 -0.538820
v 0.020927 0.202896 -0.566027
v 0.327037 0.010154 -0.389962
v 0.224698 -0.032592 -0.415416
v 0.260335 -0.216650 -0.271150
v 0.332117 0.272004 -1.018815
v 0.285879 0.315262 -1.056936
v 0.261915 0.175659 -1.135911
v 0.213054 0.193707 -1.182106
v 0.169836 0.040380 -1.227633
v 0.052092 -0.066223 -1.307976
v 0.074428 -0.077143 -1.289449
v 0.010594 -0.060601 -1.272376
v 0.052092 -0.066223 -1.307976
v 0.033853 -0.028037 -1.286088
v 0.213054 0.193707 -1.182106
v 0.152043 0.191957 -1.170980
v 0.220742 0.334675 -1.036245
v 0.285879 0.315262 -1.056936
v 0.143712 -0.007176 -0.488294
v 0.034579 -0.021957 -0.461612
v 0.093115 -0.108228 -0.410691
v -0.109615 -0.237569 -0.373002
v -0.040877 -0.363364 -0.320779
v -0.173446 -0.334710 -0.334734
v 0.153539 -0.250310 -0.310113
v 0.086247 -0.349420 -0.260728
v -0.253133 -0.227891 -0.331258
v -0.173446 -0.334710 -0.334734
v -0.109615 -0.237569 -0.373002
v -0.084490 0.019129 -0.414538
v 0.034579 -0.021957 -0.461612
v -0.294774 -0.083933 -0.279922
v -0.233006 -0.016128 -0.331049
v -0.245918 0.111847 -0.296273
v -0.057075 0.260407 -0.409373
v -0.021093 0.095929 -0.469886
v 0.338130 0.478284 0.002160
v 0.429858 0.398065 -0.215635
v 0.359694 0.488116 -0.316797
v 0.417287 0.411951 -0.352597
v 0.377467 0.497062 -0.547081
v 0.414118 0.370820 0.035502
v 0.300262 0.422713 0.163973
v 0.383293 0.309309 0.181693
v 0.215057 0.282599 0.328816
v 0.444864 0.201129 0.083987
v 0.307557 0.191643 0.326238
v 0.177893 0.258796 0.493596
v 0.404998 0.110810 0.230972
v 0.421655 0.428804 -0.562019
v 0.392443 0.376231 -0.795331
v 0.345176 0.423476 -0.850251
v 0.332117 0.272004 -1.018815
v 0.285879 0.315262 -1.056936
v 0.220742 0.334675 -1.036245
v 0.285879 0.315262 -1.056936
v 0.345176 0.423476 -0.850251
v 0.280207 0.441484 -0.818749
v 0.299693 0.507526 -0.585431
v 0.377467 0.497062 -0.547081
v 0.172632 0.487023 -0.401476
v 0.271622 0.507191 -0.368635
v 0.359694 0.488116 -0.316797
v 0.057363 0.472109 0.001605
v 0.239292 0.519902 -0.221683
v 0.338130 0.478284 0.002160
v 0.211311 0.504292 0.022645
v 0.167818 0.451251 0.166983
v 0.300262 0.422713 0.163973
v 0.335219 0.054862 0.575011
v 0.301157 0.041961 0.640404
v 0.279787 0.169247 0.592901
v 0.245088 0.139301 0.657094
v 0.359357 0.067057 0.306741
v 0.328528 0.058194 0.469328
v 0.279619 0.169403 0.485672
v 0.228755 0.214100 0.489633
v 0.226464 0.213185 0.595088
v 0.173142 0.257122 0.597275
v 0.144686 0.208367 0.654440
v -0.089364 0.297388 0.619808
v -0.079386 0.325551 0.552486
v 0.049195 0.319343 0.580539
v -0.060190 0.310483 0.449894
v 0.044284 0.277432 0.651785
v 0.173142 0.257122 0.597275
v 0.144686 0.208367 0.654440
v 0.177893 0.258796 0.493596
v 0.062680 0.310013 0.474697
v 0.090200 0.330422 0.317167
v 0.215057 0.282599 0.328816
v -0.046355 0.327269 0.287079
v -0.000308 0.411473 0.170075
v 0.348607 0.107921 -0.581754
v 0.384163 0.157555 -0.773547
v 0.413792 0.153029 -0.496757
v 0.329793 0.108236 -0.787820
v 0.362392 0.159832 -0.852976
v 0.322296 0.055217 -0.471820
v 0.410063 0.220556 -0.755424
v 0.405381 0.292418 -0.776586
v 0.439108 0.335191 -0.564129
v 0.438891 0.240308 -0.553350
v 0.438963 0.195243 -0.380473
v 0.404682 0.083715 -0.373771
v 0.446691 0.088242 -0.251116
v 0.377802 -0.097056 -0.249267
v 0.327037 0.010154 -0.389962
v 0.224698 -0.032592 -0.415416
v 0.260335 -0.216650 -0.271150
v 0.429858 0.398065 -0.215635
v 0.417287 0.411951 -0.352597
v 0.414118 0.370820 0.035502
v 0.459702 0.257936 -0.230282
v 0.444864 0.201129 0.083987
v 0.404998 0.110810 0.230972
v 0.441304 0.299686 -0.364827
v 0.431250 0.015365 0.072837
v 0.421655 0.428804 -0.562019
v 0.392443 0.376231 -0.795331
v 0.332117 0.272004 -1.018815
v 0.261915 0.175659 -1.135911
v 0.338334 0.204807 -0.999728
v 0.169836 0.040380 -1.227633
v 0.327099 0.153309 -0.990991
v 0.052092 -0.066223 -1.307976
v 0.206297 0.021895 -1.154922
v 0.074428 -0.077143 -1.289449
v 0.130897 -0.051632 -1.205170
v 0.065622 -0.105040 -1.261281
v 0.002648 -0.141200 -1.311997
v 0.116320 -0.032095 -1.123046
v 0.078025 -0.003313 -1.081938
v 0.235520 0.044408 -1.065454
v 0.193469 0.025857 -1.002226
v 0.136239 0.000631 -1.005627
v 0.069419 -0.019566 -0.987347
v 0.153900 0.021120 -0.959842
v 0.294445 0.097999 -0.909003
v 0.224621 0.054603 -0.865403
v 0.157402 0.027120 -0.876874
v 0.073200 -0.003244 -0.847443
v 0.165745 0.027279 -0.831445
v 0.090581 0.041083 -0.781808
v 0.170387 0.039335 -0.706065
v 0.143998 0.015287 -0.631303
v 0.250843 0.052368 -0.572655
v 0.143712 -0.007176 -0.488294
v 0.093115 -0.108228 -0.410691
v -0.040877 -0.363364 -0.320779
v 0.153539 -0.250310 -0.310113
v -0.065072 -0.394762 -0.250332
v 0.086247 -0.349420 -0.260728
v 0.081130 -0.387853 0.004860
v 0.237036 -0.277597 -0.165975
v 0.231212 -0.308249 0.117265
v 0.096401 -0.379472 0.160759
v 0.090265 -0.358905 0.231711
v 0.208029 -0.301711 0.220715
v 0.355381 -0.172348 0.110275
v 0.293841 -0.197006 0.252797
v 0.157074 -0.302525 0.400492
v 0.055406 -0.370804 0.394535
v 0.151531 -0.322051 0.510678
v 0.044702 -0.403043 0.494350
v 0.030618 -0.386584 0.564485
v 0.123806 -0.310871 0.578891
v 0.301202 -0.100224 0.546039
v 0.272541 -0.077453 0.619976
v 0.244203 -0.188483 0.429458
v 0.335219 0.054862 0.575011
v 0.301157 0.041961 0.640404
v 0.309875 -0.062297 0.454323
v 0.348978 -0.063403 0.287622
v 0.391564 -0.045638 0.216935
v 0.359357 0.067057 0.306741
v 0.328528 0.058194 0.469328
v 0.245088 0.139301 0.657094
v 0.222835 0.018017 0.668372
v 0.301157 0.041961 0.640404
v 0.272541 -0.077453 0.619976
v 0.179343 0.093522 0.681318
v 0.144686 0.208367 0.654440
v 0.200636 -0.074609 0.652525
v 0.101463 0.147095 0.679258
v -0.016818 -0.037205 0.505912
v 0.023583 0.200668 0.677198
v 0.044284 0.277432 0.651785
v 0.085268 -0.255667 0.620657
v 0.123806 -0.310871 0.578891
v -0.080085 0.216148 0.652396
v -0.089364 0.297388 0.619808
v -0.187258 0.227280 0.596536
v 0.012983 -0.314395 0.609482
v 0.030618 -0.386584 0.564485
v -0.084236 -0.379330 0.563825
v -0.156019 0.161766 0.634344
v -0.337372 0.002624 0.555810
v -0.076108 -0.308769 0.608970
v -0.190505 -0.315190 0.559697
v -0.272459 -0.012495 0.602754
v -0.158538 -0.259017 0.605769
v -0.240968 -0.209264 0.602566
v -0.296773 -0.251051 0.555569
v -0.294621 -0.115956 0.592826
v -0.365943 -0.130758 0.543010
v 0.065622 -0.105040 -1.261281
v 0.002648 -0.141200 -1.311997
v 0.022607 -0.089488 -1.234876
v 0.092577 0.032747 -0.927216
v 0.064383 0.079851 -0.953766
v 0.069419 -0.019566 -0.987347
v 0.069419 -0.019566 -0.987347
v 0.153900 0.021120 -0.959842
v 0.092577 0.032747 -0.927216
v -0.250841 -0.370805 -0.523573
v -0.260049 -0.352428 -0.816997
v -0.220402 -0.414143 -0.805522
v -0.221651 -0.420976 -0.524385
v -0.159787 -0.326555 -0.955743
v -0.220336 -0.311824 -0.328677
v -0.183283 -0.359296 -0.331220
v -0.179904 -0.274273 -0.957994
v -0.123851 -0.271883 -1.083758
v -0.161398 -0.208730 -1.059821
v -0.107648 -0.136765 -1.141793
v -0.057042 -0.168274 -1.173011
v -0.125288 -0.375445 -0.328585
v -0.056908 -0.168372 -1.173020
v -0.008080 -0.216503 -1.130966
v -0.123716 -0.271982 -1.083768
v -0.046302 -0.276959 -1.068111
v -0.105769 -0.324018 -0.961106
v -0.159653 -0.326654 -0.955753
v -0.145276 -0.428701 -0.813051
v -0.220268 -0.414242 -0.805532
v -0.164007 -0.428930 -0.523489
v -0.221517 -0.421075 -0.524395
v -0.183148 -0.359395 -0.331229
v -0.250707 -0.370904 -0.523583
v -0.250851 -0.267004 -0.521024
v -0.259914 -0.352527 -0.817007
v -0.220201 -0.311922 -0.328687
v -0.239302 -0.227793 -0.320368
v -0.179770 -0.274371 -0.958004
v -0.256133 -0.258452 -0.809988
v -0.203974 -0.171834 -0.484195
v -0.233821 -0.162048 -0.781841
v -0.215113 -0.159978 -0.310777
v -0.174875 -0.172320 -0.933653
v -0.161264 -0.208829 -1.059831
v -0.107514 -0.136863 -1.141803
v -0.056908 -0.168372 -1.173020
v -0.129176 -0.114908 -1.079311
v -0.147183 -0.108305 -0.924451
v -0.032373 -0.069321 -1.153568
v 0.030050 -0.042231 -1.207792
v -0.089485 -0.079388 -1.099164
v -0.042856 -0.072878 -0.960250
v -0.109653 -0.082839 -0.930014
v -0.090843 -0.100934 -0.725215
v -0.135941 -0.081262 -0.827109
v -0.181328 -0.103672 -0.807873
v -0.151330 -0.112500 -0.677005
v -0.095234 -0.103980 -0.475939
v -0.100808 -0.105333 -0.295835
v -0.206232 -0.144559 -0.643067
v -0.105595 -0.139940 -1.135183
v -0.056548 -0.168000 -1.172052
v -0.032794 -0.068159 -1.153027
v -0.008126 -0.112230 -0.902355
v -0.062506 -0.077828 -0.836215
v 0.008295 -0.073825 -0.830236
v -0.015099 -0.118897 -0.770963
v -0.090978 -0.100835 -0.725205
v -0.002589 -0.092138 -0.702053
v 0.008295 -0.073825 -0.830236
v 0.045359 -0.180600 -0.920337
v -0.008126 -0.112230 -0.902355
v 0.037937 -0.152370 -1.125514
v -0.057042 -0.168274 -1.173011
v -0.008215 -0.216404 -1.130956
v -0.032373 -0.069321 -1.153568
v 0.030050 -0.042231 -1.207792
v 0.008503 -0.084010 -1.074200
v -0.089485 -0.079388 -1.099164
v -0.042856 -0.072878 -0.960250
v 0.006028 -0.077702 -0.947247
v -0.007992 -0.112328 -0.902364
v -0.109653 -0.082839 -0.930014
v -0.062371 -0.077927 -0.836224
v 0.008430 -0.073923 -0.830246
v -0.014965 -0.118995 -0.770973
v -0.090843 -0.100934 -0.725215
v -0.002454 -0.092236 -0.702062
v -0.012091 -0.110621 -0.603298
v -0.135941 -0.081262 -0.827109
v -0.151330 -0.112500 -0.677005
v -0.095234 -0.103980 -0.475939
v -0.009413 -0.130833 -0.291621
v -0.100808 -0.105333 -0.295835
v 0.022973 -0.181423 -0.470120
v 0.026956 -0.259291 -0.303440
v -0.009413 -0.130833 -0.291621
v -0.012091 -0.110621 -0.603298
v 0.022935 -0.174410 -0.742128
v -0.002454 -0.092236 -0.702062
v -0.014965 -0.118995 -0.770973
v 0.027861 -0.236359 -0.673622
v 0.055760 -0.194034 -0.840171
v 0.008430 -0.073923 -0.830246
v 0.045493 -0.180699 -0.920346
v -0.007992 -0.112328 -0.902364
v 0.006028 -0.077702 -0.947247
v 0.035207 -0.120452 -1.074865
v 0.008503 -0.084010 -1.074200
v 0.038072 -0.152469 -1.125523
v 0.030050 -0.042231 -1.207792
v 0.022973 -0.181423 -0.470120
v 0.026956 -0.259291 -0.303440
v 0.009313 -0.288260 -0.590218
v -0.026407 -0.350619 -0.481743
v -0.010674 -0.344887 -0.315894
v -0.065985 -0.367060 -0.322820
v -0.083840 -0.398378 -0.534812
v -0.125288 -0.375445 -0.328585
v 0.022935 -0.174410 -0.742128
v 0.027861 -0.236359 -0.673622
v 0.055760 -0.194034 -0.840171
v 0.052930 -0.266671 -0.803390
v 0.031306 -0.311378 -0.786913
v 0.045493 -0.180699 -0.920346
v 0.035207 -0.120452 -1.074865
v 0.038072 -0.152469 -1.125523
v 0.030050 -0.042231 -1.207792
v 0.039379 -0.219715 -0.938280
v -0.056908 -0.168372 -1.173020
v 0.011959 -0.263502 -0.920027
v 0.023833 -0.216537 -1.080570
v -0.008080 -0.216503 -1.130966
v -0.046302 -0.276959 -1.068111
v -0.105769 -0.324018 -0.961106
v -0.045346 -0.302262 -0.935611
v -0.056565 -0.384391 -0.811907
v -0.013750 -0.365382 -0.770804
v -0.145276 -0.428701 -0.813051
v -0.164007 -0.428930 -0.523489
vn 0.4734 -0.8807 0.0144
vn 0.6318 -0.3160 -0.7078
vn 0.6967 -0.3849 -0.6053
vn 0.1227 -0.9286 0.3502
vn -0.0239 -0.8564 0.5157
vn 0.4734 -0.8807 0.0142
vn -0.1441 -0.9505 0.2752
vn 0.2817 -0.9409 0.1882
vn -0.9586 -0.1822 -0.2190
vn -0.9785 -0.2032 -0.0343
vn -0.8909 -0.4064 -0.2027
vn -0.9272 -0.3287 0.1793
vn -0.9848 -0.1736 0.0028
vn -0.9848 -0.1734 0.0026
vn -0.9305 -0.3442 0.1257
vn -0.9846 -0.1744 0.0093
vn -0.9797 -0.1521 0.1308
vn -0.9830 -0.1381 0.1211
vn -0.8275 -0.5018 0.2519
vn -0.9713 -0.1980 0.1321
vn -0.9312 -0.1882 0.3123
vn -0.9530 -0.0970 0.2870
vn 0.0962 -0.9835 0.1533
vn 0.2307 -0.9429 0.2402
vn 0.2747 -0.9595 -0.0631
vn 0.2397 -0.9673 0.0826
vn 0.2252 -0.9689 -0.1029
vn 0.0042 -0.9697 0.2444
vn 0.2935 -0.9526 0.0797
vn 0.0070 -0.9901 -0.1399
vn 0.1139 -0.9903 -0.0791
vn 0.1789 -0.9726 -0.1487
vn -0.1145 -0.9742 -0.1947
vn 0.1503 -0.8550 -0.4963
vn -0.0086 -0.6348 -0.7726
vn 0.1243 -0.7211 -0.6816
vn -0.1815 -0.9474 -0.2637
vn -0.0798 -0.7092 -0.7005
vn 0.0097 -0.9719 -0.2354
vn -0.2776 -0.9607 0.0036
vn -0.0816 -0.9966 0.0109
vn -0.3238 -0.9245 0.2010
vn 0.3304 -0.9431 -0.0365
vn -0.1103 -0.9741 0.1974
vn -0.3482 -0.9285 0.1288
vn -0.1402 -0.9827 0.1214
vn -0.5191 -0.8324 -0.1941
vn 0.2919 -0.9422 0.1646
vn 0.2865 -0.9446 0.1602
vn 0.3232 -0.9394 -0.1140
vn -0.1636 -0.9691 -0.1847
vn -0.3772 -0.9087 -0.1788
vn 0.3066 -0.9513 0.0315
vn -0.2309 -0.9729 0.0088
vn 0.2648 -0.9113 0.3152
vn -0.2594 -0.9113 0.3198
vn -0.4396 -0.8964 0.0572
vn -0.4451 -0.7870 0.4272
vn -0.5230 -0.8496 0.0679
vn -0.7391 -0.6267 0.2468
vn -0.7666 -0.6422 0.0029
vn -0.8826 -0.3757 -0.2827
vn -0.7747 -0.5667 -0.2805
vn -0.6541 -0.2173 -0.7246
vn -0.5684 -0.3968 -0.7208
vn -0.8753 -0.4836 -0.0002
vn -0.7259 -0.6556 0.2078
vn -0.9943 -0.1007 -0.0348
vn -0.8537 -0.4866 0.1855
vn -0.8386 -0.5375 0.0889
vn -0.7156 -0.6895 0.1121
vn -0.9916 -0.1266 0.0251
vn -0.7873 -0.5678 -0.2402
vn -0.9644 -0.1202 -0.2357
vn -0.8001 -0.5948 -0.0785
vn -0.9798 -0.1285 0.1529
vn -0.9862 -0.1300 -0.1026
vn -0.5596 -0.2673 -0.7845
vn -0.7530 -0.1250 -0.6460
vn -0.8914 -0.2725 -0.3622
vn -0.8422 -0.5073 -0.1824
vn -0.9166 -0.3360 -0.2167
vn -0.9607 -0.0012 -0.2775
vn -0.9586 -0.1819 -0.2190
vn -0.9775 0.1216 -0.1725
vn -0.9786 -0.2030 -0.0343
vn -0.9273 -0.3286 0.1795
vn -0.9848 -0.1734 0.0029
vn -0.9846 -0.1744 0.0095
vn -0.9738 0.1904 -0.1242
vn -0.9849 -0.1733 0.0027
vn -0.8016 0.5519 -0.2300
vn -0.7377 0.5813 -0.3434
vn -0.9980 0.0633 -0.0024
vn -0.9797 -0.1520 0.1308
vn -0.9712 -0.1979 0.1323
vn -0.9830 -0.1380 0.1211
vn -0.9686 0.2451 -0.0421
vn -0.9312 -0.1881 0.3122
vn -0.9473 0.2086 -0.2430
vn -0.9531 -0.0969 0.2869
vn -0.9247 0.1947 -0.3271
vn -0.4616 0.3964 -0.7936
vn -0.9664 0.2329 -0.1085
vn -0.7424 0.5337 -0.4049
vn -0.5291 0.4853 -0.6961
vn -0.8287 0.5014 -0.2485
vn -0.3400 0.6394 -0.6896
vn -0.6816 0.6225 -0.3846
vn -0.4863 0.7811 -0.3916
vn -0.1735 0.8254 -0.5373
vn -0.6011 0.7327 -0.3191
vn -0.3673 0.8617 -0.3501
vn -0.5268 0.7958 -0.2986
vn -0.0815 0.9353 -0.3443
vn -0.3177 0.9167 -0.2422
vn -0.0230 0.9886 -0.1491
vn -0.5169 0.8407 -0.1611
vn -0.2953 0.9492 -0.1085
vn -0.5407 0.8174 -0.1988
vn -0.5946 0.7851 -0.1733
vn -0.3462 0.9351 -0.0763
vn -0.3500 0.9308 0.1056
vn 0.0241 0.9997 0.0013
vn -0.9268 0.3333 0.1733
vn -0.9862 -0.1298 -0.1024
vn -0.9799 -0.1283 0.1529
vn -0.9163 0.3979 -0.0459
vn -0.9644 -0.1200 -0.2357
vn -0.7170 0.6491 0.2540
vn -0.6980 0.7151 0.0380
vn -0.3213 0.8726 0.3678
vn -0.9448 0.2823 -0.1665
vn -0.9917 -0.1263 0.0251
vn -0.8295 0.5553 -0.0600
vn -0.9608 0.2564 0.1057
vn -0.2793 0.9544 0.1057
vn -0.2573 0.9659 -0.0279
vn -0.3288 0.8974 0.2944
vn -0.6545 0.7546 -0.0475
vn -0.8481 0.5026 0.1679
vn -0.6502 0.7355 0.1904
vn -0.3424 0.8672 0.3615
vn -0.8363 0.5318 0.1336
vn -0.6133 0.7830 0.1040
vn -0.9731 0.2189 0.0714
vn -0.9943 -0.1006 -0.0348
vn -0.8247 0.5607 -0.0736
vn -0.9431 0.2574 -0.2107
vn -0.7658 0.5382 -0.3520
vn -0.8916 0.0313 -0.4518
vn -0.8827 -0.3755 -0.2827
vn -0.6540 -0.2173 -0.7246
vn -0.7691 0.2570 -0.5852
vn -0.5987 0.1053 -0.7940
vn -0.7314 0.2147 -0.6473
vn -0.7531 -0.1248 -0.6460
vn -0.4968 -0.0297 -0.8673
vn -0.9321 0.1756 -0.3168
vn -0.9608 -0.0012 -0.2773
vn -0.8915 -0.2724 -0.3621
vn 0.5565 -0.6168 -0.5567
vn 0.5849 -0.6330 -0.5071
vn 0.3629 -0.6343 -0.6826
vn 0.8673 0.1827 -0.4631
vn 0.8112 -0.0190 -0.5845
vn 0.7542 0.3249 -0.5706
vn 0.6910 0.1008 -0.7158
vn 0.7049 -0.1443 -0.6945
vn 0.6317 -0.3160 -0.7079
vn 0.6967 -0.3849 -0.6054
vn -0.5289 0.4852 -0.6963
vn -0.4615 0.3963 -0.7937
vn -0.1219 0.6385 -0.7599
vn -0.3397 0.6393 -0.6898
vn -0.1733 0.8253 -0.5375
vn 0.0458 0.7949 -0.6051
vn 0.1726 -0.5049 -0.8458
vn -0.0087 -0.6347 -0.7727
vn 0.1504 -0.8550 -0.4964
vn 0.0489 -0.3781 -0.9245
vn 0.1244 -0.7210 -0.6817
vn -0.0797 -0.7090 -0.7007
vn 0.3810 -0.5452 -0.7467
vn 0.4110 -0.8212 -0.3959
vn -0.6539 -0.2172 -0.7247
vn -0.3006 -0.1436 -0.9429
vn -0.5682 -0.3966 -0.7210
vn -0.4967 -0.0297 -0.8674
vn -0.5594 -0.2672 -0.7847
vn -0.8915 0.0314 -0.4520
vn -0.5986 0.1054 -0.7941
vn -0.7690 0.2568 -0.5854
vn -0.7313 0.2147 -0.6474
vn -0.7530 -0.1249 -0.6461
vn 0.7598 0.6127 0.2174
vn 0.9021 0.4304 0.0308
vn 0.7898 0.6112 0.0503
vn 0.9109 0.4125 0.0123
vn 0.8284 0.5576 -0.0533
vn 0.8711 0.4361 0.2259
vn 0.6476 0.5635 0.5129
vn 0.7634 0.3983 0.5084
vn 0.6216 0.6098 0.4916
vn 0.9789 0.0805 0.1879
vn 0.7653 0.4596 0.4507
vn 0.6606 0.7395 0.1291
vn 0.9001 0.0544 0.4323
vn 0.9217 0.3789 -0.0833
vn 0.9079 0.3253 -0.2643
vn 0.8253 0.4461 -0.3462
vn 0.8673 0.1828 -0.4630
vn 0.7542 0.3252 -0.5704
vn -0.1732 0.8254 -0.5374
vn 0.0848 0.9198 -0.3831
vn 0.0459 0.7950 -0.6049
vn -0.0813 0.9353 -0.3443
vn -0.0227 0.9886 -0.1491
vn 0.1826 0.9806 -0.0713
vn 0.0076 0.9996 -0.0266
vn -0.2952 0.9493 -0.1084
vn 0.2280 0.9735 0.0192
vn 0.0243 0.9997 0.0014
vn 0.2353 0.9507 0.2019
vn -0.3498 0.9308 0.1058
vn 0.0101 0.9774 0.2112
vn 0.0027 0.8745 0.4851
vn 0.2021 0.8278 0.5234
vn 0.8694 0.0329 0.4930
vn 0.9684 0.0926 0.2315
vn 0.7536 0.5846 0.3006
vn 0.6354 0.4967 0.5912
vn 0.9194 0.0599 0.3886
vn 0.9898 0.1100 0.0905
vn 0.8051 0.5838 0.1053
vn 0.6569 0.7443 0.1205
vn 0.5960 0.7234 0.3486
vn 0.6052 0.6972 0.3843
vn 0.4716 0.5922 0.6533
vn -0.3210 0.8727 0.3678
vn 0.1999 0.9547 0.2203
vn -0.2790 0.9544 0.1057
vn -0.2571 0.9660 -0.0279
vn 0.2037 0.8217 0.5323
vn 0.4264 0.8322 0.3545
vn 0.3915 0.5970 0.7002
vn 0.3946 0.9136 0.0984
vn 0.2087 0.9770 0.0447
vn 0.0843 0.9111 0.4035
vn 0.2690 0.8401 0.4711
vn -0.3286 0.8974 0.2945
vn -0.3421 0.8673 0.3617
vn 0.5847 -0.8016 -0.1251
vn 0.8363 -0.5247 -0.1588
vn 0.8532 -0.5011 -0.1449
vn 0.5848 -0.8062 -0.0896
vn 0.8688 -0.4452 -0.2165
vn 0.5370 -0.7726 -0.3388
vn 0.9606 -0.1578 -0.2287
vn 0.9699 0.0346 -0.2410
vn 0.9930 0.0925 -0.0731
vn 0.9841 -0.1596 -0.0785
vn 0.9811 -0.1560 -0.1142
vn 0.8189 -0.4617 -0.3411
vn 0.9668 -0.2212 -0.1280
vn 0.8120 -0.5009 -0.2997
vn 0.5567 -0.6168 -0.5565
vn 0.3629 -0.6345 -0.6824
vn 0.5851 -0.6331 -0.5069
vn 0.8713 0.4358 0.2257
vn 0.9975 0.0683 -0.0194
vn 0.9022 0.4302 0.0308
vn 0.9109 0.4123 0.0123
vn 0.9789 0.0804 0.1877
vn 0.9946 0.0956 -0.0395
vn 0.9713 -0.2215 0.0871
vn 0.9002 0.0542 0.4322
vn 0.9218 0.3786 -0.0832
vn 0.9080 0.3250 -0.2643
vn 0.8674 0.1826 -0.4629
vn 0.9274 -0.1292 -0.3510
vn 0.8113 -0.0192 -0.5844
vn 0.8888 -0.3590 -0.2849
vn 0.8158 -0.5022 -0.2869
vn 0.7050 -0.1445 -0.6943
vn 0.6805 -0.7261 -0.0981
vn 0.6967 -0.3851 -0.6052
vn 0.4734 -0.8807 0.0143
vn 0.4733 -0.8808 0.0144
vn 0.4833 -0.8690 -0.1065
vn 0.6318 -0.3161 -0.7078
vn 0.1229 -0.9286 0.3502
vn 0.6393 -0.7681 0.0356
vn 0.4396 -0.8852 0.1520
vn 0.2817 -0.9409 0.1881
vn 0.2676 -0.9433 0.1962
vn -0.1441 -0.9506 0.2750
vn 0.2309 -0.9429 0.2402
vn 0.6211 -0.7830 -0.0348
vn 0.4492 -0.8931 0.0252
vn 0.2748 -0.9594 -0.0630
vn 0.2936 -0.9526 0.0796
vn 0.2398 -0.9673 0.0828
vn 0.0044 -0.9696 0.2446
vn 0.2255 -0.9688 -0.1028
vn 0.4028 -0.9010 -0.1610
vn 0.1791 -0.9725 -0.1488
vn 0.1506 -0.8550 -0.4963
vn 0.1728 -0.5050 -0.8456
vn 0.4110 -0.8213 -0.3957
vn 0.0099 -0.9719 -0.2353
vn 0.1244 -0.7211 -0.6816
vn 0.3810 -0.5453 -0.7466
vn 0.3307 -0.9430 -0.0366
vn 0.6334 -0.7571 -0.1602
vn 0.6260 -0.7773 0.0624
vn 0.2921 -0.9421 0.1646
vn 0.6094 -0.7710 0.1848
vn 0.2868 -0.9445 0.1602
vn 0.8364 -0.5416 0.0844
vn 0.7917 -0.5618 0.2401
vn 0.6756 -0.7358 0.0459
vn 0.3235 -0.9393 -0.1140
vn 0.7002 -0.6994 0.1436
vn 0.3068 -0.9513 0.0315
vn 0.2650 -0.9113 0.3152
vn 0.6462 -0.6664 0.3718
vn 0.8911 -0.4136 0.1866
vn 0.8186 -0.3921 0.4197
vn 0.8216 -0.5596 0.1086
vn 0.9685 0.0922 0.2314
vn 0.8694 0.0326 0.4930
vn 0.9514 -0.2967 0.0826
vn 0.8996 -0.2924 0.3245
vn 0.9105 -0.2765 0.3074
vn 0.9195 0.0596 0.3886
vn 0.9898 0.1097 0.0905
vn 0.2516 0.1375 0.9580
vn 0.0240 -0.1789 0.9836
vn 0.3662 -0.0977 0.9254
vn 0.3848 -0.3019 0.8723
vn -0.0521 -0.1143 0.9921
vn 0.1612 0.2686 0.9497
vn -0.0494 -0.1645 0.9851
vn -0.1204 -0.1317 0.9839
vn -0.1311 -0.0982 0.9865
vn -0.1468 -0.0589 0.9874
vn -0.0245 0.3194 0.9473
vn -0.0282 -0.1361 0.9903
vn 0.2991 -0.4369 0.8483
vn -0.2395 -0.0051 0.9709
vn -0.2945 0.3288 0.8973
vn -0.4681 0.2650 0.8430
vn 0.0069 -0.2015 0.9795
vn 0.0973 -0.5127 0.8530
vn -0.1646 -0.5165 0.8403
vn -0.1987 -0.0634 0.9780
vn -0.5652 0.1145 0.8170
vn -0.0861 -0.1649 0.9825
vn -0.3248 -0.4808 0.8145
vn -0.1908 -0.0351 0.9810
vn -0.0895 -0.0927 0.9917
vn -0.1727 -0.1035 0.9795
vn -0.4400 -0.3442 0.8294
vn -0.2493 -0.0350 0.9678
vn -0.5576 -0.0894 0.8253
vn 0.4834 -0.8689 -0.1066
vn -0.9305 -0.3441 0.1260
vn -0.9797 -0.1521 0.1309
vn 0.0962 -0.9835 0.1535
vn 0.2675 -0.9433 0.1963
vn 0.2309 -0.9428 0.2403
vn -0.8002 -0.5449 -0.2507
vn -0.9349 -0.3305 0.1294
vn -0.9213 -0.2611 -0.2883
vn -0.8306 -0.5393 0.1389
vn -0.7801 -0.3581 -0.5130
vn -0.9300 -0.3013 0.2108
vn -0.7839 -0.5395 0.3074
vn -0.8984 -0.1331 -0.4186
vn -0.7812 -0.2906 -0.5525
vn -0.9136 -0.0297 -0.4056
vn -0.7326 0.2063 -0.6486
vn -0.6399 0.0767 -0.7646
vn 0.0277 -0.8370 -0.5466
vn 0.3052 -0.5531 -0.7751
vn 0.4135 -0.6377 -0.6499
vn 0.3104 -0.8469 -0.4317
vn 0.1978 -0.8899 -0.4111
vn -0.0346 -0.8597 -0.5096
vn 0.1186 -0.9528 -0.2796
vn -0.1912 -0.9476 -0.2561
vn 0.0451 -0.9906 0.1288
vn -0.1873 -0.9720 0.1416
vn 0.0704 -0.9699 0.2331
vn -0.2058 -0.9258 0.3171
vn -0.9350 -0.3302 0.1294
vn -0.9854 0.1562 0.0677
vn -0.9214 -0.2608 -0.2882
vn -0.9301 -0.3010 0.2106
vn -0.9771 0.2118 0.0196
vn -0.9619 0.1582 -0.2228
vn -0.8984 -0.1329 -0.4185
vn -0.7423 0.6696 0.0246
vn -0.8838 0.4566 -0.1020
vn -0.7127 0.6994 -0.0551
vn -0.9199 0.2704 -0.2840
vn -0.9136 -0.0295 -0.4055
vn -0.8208 0.4991 -0.2779
vn -0.7326 0.2066 -0.6485
vn -0.7505 0.6310 -0.1963
vn -0.4891 0.8060 -0.3334
vn -0.6400 0.0769 -0.7645
vn -0.4408 0.8258 -0.3517
vn -0.4898 0.8381 -0.2401
vn -0.4409 0.8257 -0.3518
vn 0.0074 0.9761 0.2174
vn -0.2673 0.9635 -0.0124
vn -0.6172 0.7857 -0.0432
vn -0.2590 0.9655 0.0268
vn -0.3166 0.9421 0.1108
vn 0.0121 0.9959 0.0893
vn -0.1422 0.9893 0.0321
vn -0.1326 0.9912 -0.0016
vn -0.6851 0.7191 0.1162
vn -0.4990 0.8174 -0.2877
vn -0.7127 0.0663 -0.6983
vn -0.7996 0.1901 -0.5697
vn 0.0848 0.9951 0.0504
vn -0.0650 0.9953 0.0721
vn 0.1359 0.9894 0.0518
vn 0.0123 0.9959 0.0893
vn -0.0870 0.9954 -0.0404
vn 0.1492 0.9769 0.1532
vn 0.8704 0.4862 0.0773
vn 0.9820 0.1798 -0.0573
vn 0.8576 0.4923 0.1489
vn 0.4135 -0.6376 -0.6499
vn 0.3055 -0.5529 -0.7752
vn 0.9082 -0.1909 -0.3724
vn 0.1767 0.9818 0.0694
vn -0.4891 0.8059 -0.3336
vn -0.4411 0.8256 -0.3518
vn 0.0075 0.9760 0.2175
vn 0.0773 0.9541 0.2894
vn 0.1359 0.9894 0.0520
vn -0.2672 0.9636 -0.0124
vn 0.0849 0.9951 0.0505
vn 0.1493 0.9768 0.1533
vn -0.0651 0.9953 0.0719
vn 0.0123 0.9959 0.0894
vn 0.0713 0.9962 0.0504
vn -0.0871 0.9954 -0.0403
vn 0.0122 0.9959 0.0893
vn -0.2588 0.9655 0.0268
vn -0.3164 0.9421 0.1109
vn -0.1419 0.9894 0.0321
vn 0.2093 0.9767 0.0479
vn -0.1324 0.9912 -0.0016
vn 0.9769 0.2132 0.0131
vn 0.9457 0.3154 0.0782
vn 0.9943 -0.1052 0.0180
vn 0.9063 0.4210 0.0373
vn 0.9249 0.3523 0.1430
vn 0.9549 0.2966 -0.0096
vn 0.8823 0.4585 0.1067
vn 0.9784 0.2064 0.0135
vn 0.9931 0.0208 0.1158
vn 0.9820 0.1800 -0.0574
vn 0.8576 0.4923 0.1488
vn 0.9820 0.1800 -0.0573
vn 0.8670 0.4445 0.2252
vn 0.9574 0.2827 0.0582
vn 0.9233 0.3703 0.1019
vn 0.9082 -0.1910 -0.3725
vn 0.8913 -0.1097 -0.4399
vn 0.9770 0.2130 0.0130
vn 0.9943 -0.1054 0.0179
vn 0.9597 -0.2662 0.0898
vn 0.7363 -0.6764 0.0203
vn 0.7542 -0.6566 0.0024
vn 0.4147 -0.9051 0.0937
vn 0.4365 -0.8969 0.0710
vn 0.0707 -0.9699 0.2330
vn 0.9250 0.3521 0.1430
vn 0.9931 0.0207 0.1158
vn 0.9667 -0.2528 -0.0394
vn 0.9784 0.2061 0.0134
vn 0.8355 -0.5405 -0.0992
vn 0.9575 0.2824 0.0583
vn 0.9820 0.1798 -0.0575
vn 0.9303 -0.3431 -0.1293
vn 0.9083 -0.1909 -0.3723
vn 0.3055 -0.5530 -0.7752
vn 0.8914 -0.1096 -0.4397
vn 0.7005 -0.6644 -0.2605
vn 0.7951 -0.5497 -0.2563
vn 0.4136 -0.6377 -0.6498
vn 0.3106 -0.8469 -0.4316
vn 0.5124 -0.7987 -0.3153
vn 0.1981 -0.8898 -0.4111
vn 0.5065 -0.8233 -0.2562
vn 0.6281 -0.7713 -0.1031
vn 0.1189 -0.9528 -0.2795
vn 0.0454 -0.9906 0.1288
vt 51.080502 -41.026001
vt 51.031898 -40.991600
vt 51.048698 -41.016998
vt 51.203300 -41.034698
vt 51.110001 -40.982601
vt 51.245399 -40.988800
vt 51.313400 -41.038700
vt 51.660500 -40.923302
vt 51.543301 -40.924500
vt 51.597000 -40.990101
vt 51.535599 -40.987999
vt 51.466400 -40.937599
vt 51.392601 -40.987999
vt 51.477501 -40.994701
vt 51.364799 -40.937599
vt 51.308102 -40.942402
vt 51.341499 -40.994499
vt 51.191502 -40.945202
vt 51.354401 -41.044300
vt 51.435200 -41.047501
vt 51.601101 -41.059101
vt 51.479099 -41.056400
vt 51.676498 -40.995701
vt 51.680500 -41.053299
vt 51.770599 -40.988800
vt 51.824100 -41.071400
vt 51.865002 -40.989101
vt 52.048901 -41.117699
vt 52.117500 -40.990501
vt 52.047798 -40.990398
vt 52.124599 -41.117500
vt 52.326199 -40.992500
vt 52.352699 -41.128799
vt 52.477100 -41.005100
vt 52.358501 -41.247200
vt 52.494499 -41.144100
vt 52.593800 -41.007500
vt 52.591999 -41.137402
vt 52.765598 -41.006100
vt 52.509701 -41.262199
vt 52.578300 -41.248901
vt 52.744499 -41.233101
vt 52.753601 -41.132198
vt 52.759602 -41.069099
vt 52.847698 -41.245998
vt 52.859001 -41.137600
vt 52.916901 -41.228199
vt 52.929100 -41.127998
vt 52.862400 -41.068401
vt 52.930901 -41.003899
vt 52.865799 -40.999199
vt 52.932701 -40.879799
vt 52.119900 -40.861401
vt 52.049500 -40.865700
vt 52.335701 -40.870201
vt 52.356499 -40.753799
vt 52.489201 -40.869099
vt 52.590401 -40.877499
vt 52.580799 -40.763000
vt 52.753601 -40.871899
vt 52.744701 -40.767502
vt 52.858200 -40.859501
vt 52.915901 -40.755798
vt 52.846001 -40.746899
vt 51.851002 -40.877998
vt 51.777302 -40.909000
vt 51.739899 -40.850899
vt 51.940701 -40.660500
vt 52.100399 -40.616001
vt 51.944000 -40.543301
vt 51.898499 -40.535599
vt 51.901600 -40.466400
vt 51.842300 -40.477501
vt 52.077900 -40.501099
vt 52.168499 -40.518501
vt 52.188702 -40.868301
vt 51.965000 -40.378502
vt 51.890598 -40.364799
vt 51.805401 -40.341499
vt 51.854198 -40.308102
vt 51.861500 -40.192299
vt 51.790901 -40.191502
vt 51.696400 -40.071400
vt 51.684399 -40.110001
vt 51.618999 -40.041698
vt 51.708401 -40.031898
vt 52.028999 -40.366600
vt 51.880402 -40.151600
vt 51.733799 -40.051701
vt 52.094700 -40.388100
vt 51.997398 -40.128201
vt 52.060699 -40.266102
vt 52.140999 -40.286999
vt 52.173401 -40.237999
vt 52.144699 -40.383301
vt 52.236599 -40.401901
vt 52.218201 -40.500099
vt 52.327202 -40.434502
vt 52.314701 -40.555500
vt 52.428101 -40.655602
vt 52.278400 -40.660999
vt 52.371498 -40.854500
vt 52.274899 -40.877102
vt 52.205399 -41.031700
vt 52.360100 -41.013699
vt 52.359200 -41.267700
vt 52.461800 -41.020599
vt 51.842701 -41.911098
vt 51.698101 -41.846001
vt 51.714500 -41.915901
vt 51.859299 -41.837502
vt 51.716400 -41.744701
vt 52.115898 -41.909901
vt 52.122898 -41.839199
vt 52.229900 -41.913898
vt 51.833801 -41.740601
vt 51.718899 -41.580799
vt 51.974098 -41.739300
vt 51.844101 -41.581600
vt 52.248402 -41.843300
vt 52.230400 -41.741299
vt 52.226898 -41.577099
vt 52.114300 -41.738201
vt 51.978802 -41.578701
vt 52.106602 -41.572800
vt 52.303699 -41.447300
vt 51.987202 -41.476898
vt 52.183998 -41.371601
vt 51.823898 -41.476898
vt 51.647202 -41.356499
vt 52.004501 -41.249699
vt 51.808998 -41.149101
vt 52.021702 -41.047600
vt 51.665798 -41.090000
vt 51.535400 -41.119900
vt 51.560299 -41.049500
vt 51.852299 -41.047501
vt 51.747299 -41.025101
vt 52.059299 -40.897800
vt 51.932301 -40.851002
vt 51.842999 -40.921299
vt 52.112900 -40.786598
vt 52.028999 -40.739899
vt 51.948898 -40.777302
vt 51.941502 -41.219799
vt 52.147701 -41.292400
vt 52.035500 -41.156200
vt 51.816799 -41.054600
vt 51.952301 -41.043201
vt 51.811199 -40.990700
vt 51.970299 -40.990398
vt 52.127899 -41.035702
vt 52.291599 -40.991600
vt 52.285999 -41.016998
vt 52.266201 -40.956402
vt 52.303600 -40.955200
vt 52.002602 -40.940701
vt 51.826599 -40.926399
vt 52.167801 -41.087299
vt 52.134899 -40.989101
vt 52.068600 -41.071400
vt 52.377701 -40.989399
vt 52.437801 -41.117699
vt 52.486698 -40.990398
vt 52.238499 -41.219601
vt 52.349300 -41.219200
vt 52.439701 -40.865700
vt 52.157001 -40.868999
vt 52.334202 -40.754700
vt 52.252701 -40.767300
vt 52.147701 -40.688400
vt 51.940701 -40.760899
vt 52.067699 -40.877998
vt 51.765701 -40.991199
vt 51.983200 -41.102402
vt 52.084202 -40.990299
vt 52.118401 -41.078400
vt 52.314701 -40.990398
vt 51.730499 -41.114799
vt 51.595600 -40.996700
vt 51.576099 -41.128700
vt 51.408001 -41.008598
vt 51.668499 -41.235001
vt 51.411999 -41.135502
vt 51.238400 -40.997501
vt 51.509102 -41.257000
vt 52.327499 -41.063900
vt 52.548801 -41.057999
vt 52.602402 -40.990398
vt 52.751400 -41.054600
vt 52.788101 -40.990700
vt 52.762001 -40.926399
vt 52.565498 -40.927502
vt 52.344398 -40.917900
vt 52.126900 -40.903900
vt 52.145500 -40.830502
vt 51.979401 -40.876202
vt 51.732300 -40.759300
vt 51.733200 -40.871700
vt 51.579899 -40.870300
vt 51.085300 -41.224998
vt 51.155300 -41.243801
vt 51.143101 -41.135799
vt 51.072399 -41.125801
vt 51.424301 -41.245800
vt 51.259201 -41.231800
vt 51.248901 -41.131001
vt 51.243698 -41.064201
vt 51.139198 -41.067402
vt 51.135300 -40.998901
vt 51.070400 -41.004002
vt 51.086102 -40.757999
vt 51.143600 -40.860401
vt 51.156700 -40.748100
vt 51.258701 -40.768002
vt 51.068298 -40.882198
vt 51.248798 -40.872299
vt 51.409698 -40.877499
vt 51.422901 -40.763500
vt 51.552700 -40.751202
vt 51.877899 -40.695400
vt 51.846901 -40.496601
vt 51.792599 -40.766899
vt 51.919102 -40.494202
vt 51.868698 -40.420502
vt 51.918999 -40.812599
vt 51.777901 -40.504799
vt 51.723801 -40.476898
vt 51.637798 -40.678200
vt 51.715302 -40.698799
vt 51.726299 -40.874298
vt 51.836399 -40.896702
vt 51.791599 -41.012299
vt 51.982201 -41.041801
vt 51.941502 -40.897598
vt 52.035500 -40.889099
vt 52.147701 -41.046700
vt 51.529900 -41.269501
vt 51.640202 -41.013500
vt 51.537201 -41.016800
vt 51.553200 -40.881599
vt 51.647400 -41.331501
vt 51.635799 -40.878502
vt 51.811001 -41.341599
vt 51.721401 -41.490898
vt 51.568802 -40.672501
vt 51.663799 -40.451199
vt 51.816799 -40.248600
vt 51.866501 -40.273800
vt 51.952301 -40.151501
vt 51.914001 -40.289101
vt 52.112801 -40.155399
vt 52.127899 -40.085999
vt 52.221802 -40.122501
vt 52.285999 -40.048698
vt 52.309601 -40.080502
vt 52.381001 -40.041698
vt 52.291599 -40.031898
vt 52.200802 -40.203300
vt 52.064800 -40.237900
vt 52.092999 -40.307301
vt 52.145000 -40.313400
vt 52.194599 -40.341499
vt 52.191002 -40.245399
vt 52.111599 -40.354401
vt 51.964901 -40.379799
vt 52.031601 -40.435699
vt 52.091999 -40.435200
vt 52.080502 -40.479099
vt 52.157700 -40.477501
vt 52.101501 -40.535599
vt 52.048901 -40.601101
vt 51.974800 -40.721901
vt 52.071602 -40.680500
vt 52.068600 -40.824100
vt 52.167801 -40.917400
vt 52.349300 -41.091599
vt 52.466099 -41.124599
vt 52.437801 -41.048901
vt 52.238499 -41.024399
vt 52.343498 -41.358501
vt 52.194801 -41.159698
vt 52.180199 -41.443298
vt 52.304600 -41.509701
vt 52.171299 -41.547501
vt 52.279900 -41.578300
vt 52.001999 -41.407299
vt 52.033501 -41.557899
vt 52.171700 -41.731098
vt 52.283600 -41.744499
vt 52.174000 -41.842602
vt 52.300900 -41.847698
vt 52.284000 -41.916901
vt 52.169102 -41.912102
vt 51.904301 -41.836399
vt 51.889301 -41.910500
vt 52.025902 -41.737400
vt 51.752602 -41.844700
vt 51.771500 -41.914700
vt 51.882099 -41.740898
vt 51.887600 -41.571701
vt 51.860901 -41.494999
vt 51.770599 -41.575699
vt 51.769501 -41.740799
vt 52.282200 -41.125801
vt 52.171101 -41.173599
vt 52.228500 -41.224998
vt 52.110699 -41.265202
vt 52.212799 -41.096699
vt 52.285801 -41.004002
vt 52.079700 -41.204800
vt 52.215500 -41.002201
vt 51.972698 -40.995899
vt 52.218300 -40.907700
vt 52.289398 -40.882198
vt 51.862701 -41.205200
vt 51.830898 -41.265800
vt 52.172199 -40.811298
vt 52.229900 -40.757999
vt 52.115898 -40.713100
vt 51.773602 -41.176102
vt 51.716000 -41.228199
vt 51.660801 -41.127998
vt 52.083801 -40.776501
vt 51.842701 -40.707802
vt 51.730801 -41.098400
vt 51.657001 -41.003899
vt 51.871799 -40.772400
vt 51.727798 -41.002102
vt 51.724800 -40.905800
vt 51.653099 -40.879799
vt 51.772400 -40.809700
vt 51.714500 -40.755798
vt 51.690399 -41.026001
vt 51.684399 -40.982601
vt 51.618999 -40.990700
vt 51.870399 -40.987999
vt 51.890598 -40.937599
vt 51.805401 -40.994499
vt 51.888401 -41.044300
vt 28.065399 -26.999800
vt 28.318501 -26.950701
vt 28.043600 -26.932501
vt 28.327499 -27.002800
vt 27.885799 -27.001301
vt 28.473200 -26.943399
vt 28.478001 -27.000601
vt 27.871401 -26.955500
vt 27.742500 -27.000700
vt 27.752501 -26.934401
vt 27.642401 -26.938900
vt 27.612801 -26.998501
vt 27.656500 -27.065901
vt 27.742001 -27.067801
vt 27.868500 -27.044701
vt 28.047001 -27.070200
vt 28.318501 -27.055000
vt 28.473200 -27.057600
vt 27.864300 -27.318501
vt 27.945000 -27.287800
vt 27.761200 -27.043600
vt 28.000000 -27.473200
vt 28.058001 -27.458200
vt 27.837999 -27.019400
vt 27.808300 -26.871401
vt 28.056200 -27.281500
vt 27.934299 -27.009899
vt 28.126101 -27.440300
vt 27.898500 -26.860399
vt 27.829000 -26.752501
vt 27.910200 -26.697800
vt 27.880501 -26.642401
vt 27.965401 -26.842600
vt 27.998400 -26.521999
vt 27.870300 -26.612801
vt 27.966400 -26.594000
vt 27.950199 -26.659700
vt 28.032400 -26.775900
vt 28.002001 -26.821301
vt 27.996099 -26.956100
vt 28.029200 -26.921499
vt 28.054899 -27.073299
vt 28.076300 -27.012199
vt 28.167299 -27.244301
vt 28.232500 -27.412300
vt 28.015100 -27.126600
vt 28.033600 -26.963800
vt 28.129700 -26.998501
vt 28.119499 -26.938900
vt 27.934000 -26.944000
vt 27.892200 -27.000601
vt 27.957800 -27.008200
vt 27.923700 -26.933201
vt 27.862700 -27.001801
vt 27.916100 -27.006300
vt 27.989700 -27.090700
vt 28.125500 -27.065901
vt 28.050501 -27.068600
vt 28.336800 -27.006001
vt 28.406000 -26.963800
vt 28.224100 -26.957199
vt 28.221001 -27.000601
vt 28.165501 -27.008200
vt 28.340300 -26.922001
vt 28.178699 -26.907301
vt 28.103800 -26.944000
vt 28.040600 -27.006300
vt 28.114700 -27.000601
vt 27.987801 -26.933201
vt 27.889000 -27.004101
vt 27.988100 -27.001801
vt 28.078501 -26.884701
vt 27.926701 -26.889400
vt 27.755699 -26.931499
vt 27.595301 -27.017900
vt 27.587700 -26.927700
vt 27.750999 -27.072800
vt 27.573099 -27.119499
vt 28.004400 -27.068600
vt 28.095699 -27.106701
vt 27.922501 -27.107201
vt 28.171801 -27.090700
vt 28.331499 -27.048500
vt 28.368700 -27.068600
vt 27.829201 -27.249001
vt 27.823000 -27.426901
vt 27.964300 -27.174999
vt 27.988899 -27.302700
vt 27.912800 -27.450701
vt 27.960899 -27.463200
vt 28.075399 -27.281200
vt 27.928101 -26.995600
vt 27.946899 -27.077499
vt 28.007099 -26.962000
vt 27.964001 -26.904301
vt 28.046200 -26.996000
vt 28.007999 -26.668501
vt 27.989700 -26.828199
vt 28.050501 -26.631300
vt 28.029699 -26.825300
vt 28.129700 -26.612801
vt 28.001600 -26.521999
vt 28.070400 -26.862000
vt 28.089800 -26.696199
vt 28.125500 -26.656500
vt 28.167400 -26.742001
vt 28.135500 -26.872200
vt 28.193001 -26.868500
vt 28.156900 -27.014999
vt 28.104601 -27.037701
vt 28.236900 -27.047001
vt 28.135700 -27.318501
s 1
usemtl Meshpart1Mtl
f 3/1/1 1/2/2 2/3/3
f 5/4/4 4/5/5 3/1/6
f 4/5/5 5/4/4 6/6/7
f 7/7/8 6/6/7 5/4/4
f 8/8/9 9/9/10 10/10/11
f 10/10/11 9/9/10 11/11/12
f 11/11/12 9/9/10 12/12/13
f 12/12/14 14/13/15 13/14/16
f 14/13/15 12/12/14 15/15/17
f 17/16/18 18/6/19 16/17/20
f 17/16/18 19/18/21 18/6/19
f 18/6/19 19/18/21 20/5/22
f 22/13/23 21/19/24 23/20/25
f 23/20/25 24/14/26 22/13/23
f 27/21/27 26/11/28 25/22/29
f 26/11/28 27/21/27 28/10/30
f 27/21/27 29/23/31 28/10/30
f 29/23/31 27/21/27 30/24/32
f 31/25/33 29/23/31 30/24/32
f 31/25/33 30/24/32 32/26/34
f 33/27/35 31/25/33 32/26/34
f 34/28/36 36/29/37 35/30/38
f 36/29/37 34/28/36 37/31/39
f 38/32/40 36/29/37 37/31/39
f 38/32/40 37/31/39 39/33/41
f 39/33/41 40/34/42 38/32/40
f 39/33/41 37/31/39 41/35/43
f 40/34/42 39/33/41 42/36/44
f 41/35/43 42/36/44 39/33/41
f 43/37/45 40/34/42 42/36/44
f 44/38/46 43/37/45 42/36/44
f 43/37/45 44/38/46 45/39/47
f 42/36/44 41/35/43 46/40/48
f 47/41/49 42/36/44 46/40/48
f 42/36/44 47/41/49 44/38/46
f 48/42/50 44/38/46 47/41/49
f 49/43/51 44/38/46 48/42/50
f 44/38/46 49/43/51 50/44/52
f 51/45/53 49/43/51 48/42/50
f 45/39/47 44/38/46 50/44/52
f 52/46/54 49/43/51 51/45/53
f 52/46/54 50/44/52 49/43/51
f 52/46/54 51/45/53 53/47/55
f 53/47/55 54/48/56 52/46/54
f 54/48/56 55/49/57 52/46/54
f 55/49/57 50/44/52 52/46/54
f 55/49/57 45/39/47 50/44/52
f 54/48/56 56/50/58 55/49/57
f 57/51/59 55/49/57 56/50/58
f 57/51/59 45/39/47 55/49/57
f 58/52/60 57/51/59 56/50/58
f 59/32/61 60/53/62 61/29/63
f 62/54/64 61/29/63 60/53/62
f 61/29/63 62/54/64 63/30/65
f 64/55/66 60/53/62 59/32/61
f 65/34/67 64/55/66 59/32/61
f 64/55/66 66/56/68 60/53/62
f 65/34/67 67/57/69 64/55/66
f 67/57/69 66/56/68 64/55/66
f 65/34/67 68/58/70 67/57/69
f 68/58/70 65/34/67 69/37/71
f 68/58/70 69/37/71 45/39/47
f 71/59/72 67/57/69 68/58/70
f 67/57/69 71/59/72 66/56/68
f 45/39/47 72/60/73 68/58/70
f 57/51/59 72/60/73 45/39/47
f 72/60/73 73/61/74 68/58/70
f 73/61/74 71/59/72 68/58/70
f 72/60/73 57/51/59 74/62/75
f 74/62/75 73/61/74 72/60/73
f 58/52/60 74/62/75 57/51/59
f 75/63/76 74/62/75 58/52/60
f 74/62/75 75/63/76 76/64/77
f 73/61/74 74/62/75 76/64/77
f 70/27/78 77/65/79 78/66/80
f 70/27/78 78/66/80 79/25/81
f 79/25/81 78/66/80 80/23/82
f 78/66/80 77/65/79 81/67/83
f 80/23/82 78/66/80 8/8/9
f 8/8/9 10/10/11 80/23/82
f 82/68/84 84/69/85 83/70/86
f 85/71/87 86/72/88 87/73/89
f 83/70/86 84/69/85 88/74/90
f 88/74/90 86/72/91 83/70/86
f 84/69/85 89/75/92 88/74/90
f 84/69/85 90/76/93 89/75/92
f 86/72/91 88/74/90 93/77/94
f 86/72/91 93/77/94 91/78/95
f 92/79/96 91/78/95 94/80/97
f 91/78/95 93/77/94 94/80/97
f 93/77/94 97/81/98 94/80/97
f 97/81/98 95/82/99 94/80/97
f 98/83/100 96/84/101 95/82/99
f 97/81/98 98/83/100 95/82/99
f 96/84/101 98/83/100 99/85/102
f 100/86/103 99/85/102 98/83/100
f 93/77/94 101/87/104 97/81/98
f 88/74/90 101/87/104 93/77/94
f 97/81/98 102/88/105 98/83/100
f 101/87/104 102/88/105 97/81/98
f 103/89/106 98/83/100 102/88/105
f 104/90/107 101/87/104 88/74/90
f 101/87/104 104/90/107 102/88/105
f 89/75/92 104/90/107 88/74/90
f 105/91/108 103/89/106 102/88/105
f 104/90/107 106/92/109 102/88/105
f 102/88/105 106/92/109 105/91/108
f 106/92/109 108/93/110 105/91/108
f 108/93/110 107/94/111 105/91/108
f 109/95/112 108/93/110 106/92/109
f 104/90/107 109/95/112 106/92/109
f 104/90/107 89/75/92 109/95/112
f 109/95/112 110/96/113 108/93/110
f 110/96/113 107/94/111 108/93/110
f 111/97/114 109/95/112 89/75/92
f 111/97/114 110/96/113 109/95/112
f 110/96/113 112/98/115 107/94/111
f 114/99/116 112/98/115 110/96/113
f 111/97/114 114/99/116 110/96/113
f 114/99/116 113/100/117 112/98/115
f 115/101/118 114/99/116 111/97/114
f 89/75/92 115/101/118 111/97/114
f 90/76/93 115/101/118 89/75/92
f 115/101/118 116/102/119 114/99/116
f 116/102/119 113/100/117 114/99/116
f 117/103/120 115/101/118 90/76/93
f 116/102/119 115/101/118 117/103/120
f 90/76/93 118/104/121 117/103/120
f 119/105/122 117/103/120 118/104/121
f 119/105/122 116/102/119 117/103/120
f 118/104/121 120/106/123 119/105/122
f 121/107/124 116/102/119 119/105/122
f 120/106/123 121/107/124 119/105/122
f 130/108/125 129/109/126 128/110/127
f 129/109/126 130/108/125 131/111/128
f 129/109/126 131/111/128 127/112/129
f 130/108/125 132/113/130 131/111/128
f 133/114/131 131/111/128 132/113/130
f 132/113/130 134/115/132 133/114/131
f 131/111/128 135/116/133 127/112/129
f 127/112/129 135/116/133 126/117/134
f 135/116/133 131/111/128 136/118/135
f 133/114/131 136/118/135 131/111/128
f 135/116/133 137/119/136 126/117/134
f 135/116/133 136/118/135 137/119/136
f 134/115/132 138/120/137 133/114/131
f 138/120/137 139/121/138 133/114/131
f 139/121/138 140/122/139 141/123/140
f 133/114/131 139/121/138 141/123/140
f 136/118/135 133/114/131 141/123/140
f 141/123/140 142/124/141 136/118/135
f 136/118/135 142/124/141 137/119/136
f 141/123/140 140/122/139 143/125/142
f 142/124/141 141/123/140 143/125/142
f 143/125/142 140/122/139 144/126/143
f 145/127/144 142/124/141 143/125/142
f 145/127/144 137/119/136 142/124/141
f 144/126/143 146/128/145 143/125/142
f 143/125/142 146/128/145 145/127/144
f 144/126/143 120/106/123 146/128/145
f 137/119/136 145/127/144 147/129/146
f 147/129/146 126/117/134 137/119/136
f 126/117/134 147/129/146 124/130/147
f 145/127/144 148/131/148 147/129/146
f 146/128/145 148/131/148 145/127/144
f 124/130/147 147/129/146 149/132/149
f 148/131/148 149/132/149 147/129/146
f 118/104/121 148/131/148 146/128/145
f 120/106/123 118/104/121 146/128/145
f 148/131/148 150/133/150 149/132/149
f 148/131/148 118/104/121 150/133/150
f 149/132/149 151/134/151 124/130/147
f 124/130/147 151/134/151 122/135/152
f 151/134/151 123/136/153 122/135/152
f 149/132/149 153/137/154 151/134/151
f 153/137/154 152/138/155 151/134/151
f 150/133/150 153/137/154 149/132/149
f 150/133/150 90/76/93 153/137/154
f 150/133/150 118/104/121 90/76/93
f 90/76/93 154/139/156 153/137/154
f 154/139/156 155/140/157 125/141/158
f 154/139/156 156/142/159 155/140/157
f 90/76/93 156/142/159 154/139/156
f 156/142/159 158/143/160 155/140/157
f 157/144/161 158/143/160 82/68/84
f 158/143/160 156/142/159 84/69/85
f 158/143/160 84/69/85 82/68/84
f 90/76/93 84/69/85 156/142/159
f 159/145/162 161/146/163 160/147/164
f 162/148/165 164/149/166 163/150/167
f 165/151/168 163/150/167 164/149/166
f 165/151/168 164/149/166 166/152/169
f 165/151/168 166/152/169 167/153/170
f 167/153/170 166/152/169 168/154/171
f 171/155/172 170/153/173 169/156/100
f 172/151/174 170/153/173 171/155/172
f 172/151/174 171/155/172 173/157/175
f 172/151/174 173/157/175 174/158/176
f 175/150/177 172/151/174 174/158/176
f 178/159/178 177/160/179 176/161/180
f 178/159/178 179/162/181 177/160/179
f 180/163/182 179/162/181 178/159/178
f 180/163/182 181/164/183 179/162/181
f 182/165/184 178/159/178 160/147/164
f 182/165/184 180/163/182 178/159/178
f 160/147/164 161/146/163 182/165/184
f 183/166/185 180/163/182 182/165/184
f 184/167/186 186/162/187 185/164/188
f 184/167/186 187/168/189 186/162/187
f 187/168/189 188/160/190 186/162/187
f 189/169/191 190/170/192 184/167/186
f 190/170/192 187/168/189 184/167/186
f 191/171/193 187/168/189 190/170/192
f 191/171/193 192/172/194 187/168/189
f 187/168/189 193/173/195 188/160/190
f 194/174/196 195/175/197 196/176/198
f 196/176/198 195/175/197 197/177/199
f 196/176/198 197/177/199 198/178/200
f 194/174/196 199/179/201 195/175/197
f 200/180/202 199/179/201 194/174/196
f 200/180/202 201/181/203 199/179/201
f 202/182/204 201/181/203 200/180/202
f 201/181/203 203/183/205 199/179/201
f 201/181/203 202/182/204 204/184/206
f 202/182/204 205/185/207 204/184/206
f 201/181/203 206/186/208 203/183/205
f 201/181/203 204/184/206 206/186/208
f 198/178/200 197/177/199 207/187/209
f 208/188/210 198/178/200 207/187/209
f 198/178/200 208/188/210 209/189/211
f 208/188/210 210/190/212 209/189/211
f 210/190/212 211/191/213 209/189/211
f 212/192/214 214/189/215 213/191/216
f 215/193/217 214/189/215 212/192/214
f 216/194/218 214/189/215 215/193/217
f 216/194/218 217/178/219 214/189/215
f 217/178/219 216/194/218 219/195/220
f 219/195/220 216/194/218 218/196/221
f 220/176/222 217/178/219 219/195/220
f 218/196/221 222/197/223 219/195/220
f 220/176/222 219/195/220 222/197/223
f 223/174/224 220/176/222 222/197/223
f 222/197/223 221/198/225 224/199/226
f 224/199/226 223/174/224 222/197/223
f 221/198/225 225/200/227 224/199/226
f 224/199/226 226/180/228 223/174/224
f 226/180/228 224/199/226 225/200/227
f 228/201/229 227/202/230 229/203/231
f 230/204/232 228/201/229 229/203/231
f 206/186/208 204/184/206 231/205/233
f 232/206/234 231/205/233 204/184/206
f 227/202/230 232/206/234 233/207/235
f 233/207/235 232/206/234 204/184/206
f 229/203/231 227/202/230 233/207/235
f 233/207/235 204/184/206 234/208/236
f 229/203/231 233/207/235 234/208/236
f 204/184/206 205/185/207 234/208/236
f 235/209/237 229/203/231 234/208/236
f 235/209/237 234/208/236 205/185/207
f 230/204/232 229/203/231 235/209/237
f 236/210/238 235/209/237 205/185/207
f 237/211/239 230/204/232 235/209/237
f 237/211/239 235/209/237 236/210/238
f 238/212/240 240/213/241 239/214/242
f 240/213/241 241/215/243 239/214/242
f 242/216/244 240/213/241 238/212/240
f 240/213/241 242/216/244 243/210/245
f 242/216/244 244/211/246 243/210/245
f 243/210/245 245/185/247 240/213/241
f 240/213/241 245/185/247 246/217/248
f 241/215/243 240/213/241 246/217/248
f 245/185/247 247/218/249 246/217/248
f 246/217/248 247/218/249 241/215/243
f 248/182/250 247/218/249 245/185/247
f 225/200/227 247/218/249 248/182/250
f 248/182/250 226/180/228 225/200/227
f 241/215/243 247/218/249 249/219/251
f 225/200/227 249/219/251 247/218/249
f 249/219/251 225/200/227 250/220/252
f 225/200/227 221/198/225 250/220/252
f 251/221/253 252/222/254 253/223/255
f 251/221/253 254/224/256 252/222/254
f 254/224/256 255/225/257 252/222/254
f 253/223/255 256/226/258 251/221/253
f 252/222/254 255/225/257 257/227/259
f 257/227/259 255/225/257 258/228/260
f 257/227/259 258/228/260 259/229/261
f 260/230/262 252/222/254 257/227/259
f 260/230/262 257/227/259 259/229/261
f 252/222/254 260/230/262 253/223/255
f 259/229/261 261/231/263 260/230/262
f 261/231/263 253/223/255 260/230/262
f 261/231/263 262/232/264 253/223/255
f 256/226/258 253/223/255 262/232/264
f 262/232/264 261/231/263 263/233/265
f 264/234/266 262/232/264 263/233/265
f 262/232/264 265/235/267 256/226/258
f 262/232/264 264/234/266 265/235/267
f 265/235/267 266/236/268 256/226/258
f 267/237/269 265/235/267 264/234/266
f 270/238/270 271/239/271 268/240/272
f 271/239/271 269/241/273 268/240/272
f 272/242/274 271/239/271 270/238/270
f 269/241/273 271/239/271 274/243/275
f 272/242/274 263/233/265 271/239/271
f 271/239/271 261/231/263 274/243/275
f 271/239/271 263/233/265 261/231/263
f 275/244/276 263/233/265 272/242/274
f 275/244/276 272/242/274 273/245/277
f 269/241/273 274/243/275 259/229/261
f 274/243/275 261/231/263 259/229/261
f 269/241/273 259/229/261 276/246/278
f 259/229/261 277/247/279 276/246/278
f 277/247/279 259/229/261 258/228/260
f 258/228/260 278/248/280 277/247/279
f 258/228/260 280/249/281 278/248/280
f 280/249/281 279/250/282 278/248/280
f 282/251/283 279/250/282 280/249/281
f 284/252/284 279/250/282 282/251/283
f 281/253/285 279/250/282 284/252/284
f 280/249/281 255/225/257 282/251/283
f 258/228/260 255/225/257 280/249/281
f 255/225/257 284/252/284 282/251/283
f 284/252/284 286/254/286 281/253/285
f 285/255/287 281/253/285 286/254/286
f 287/256/288 285/255/287 286/254/286
f 287/256/289 288/257/290 283/258/291
f 286/254/286 289/259/292 287/256/288
f 286/254/286 284/252/284 291/260/293
f 284/252/284 255/225/257 291/260/293
f 292/261/294 289/259/292 286/254/286
f 292/261/294 286/254/286 291/260/293
f 289/259/292 292/261/294 293/262/295
f 293/262/295 294/263/296 290/264/297
f 294/263/296 293/262/295 295/265/298
f 295/265/298 293/262/295 292/261/294
f 292/261/294 291/260/293 296/266/299
f 291/260/293 255/225/257 296/266/299
f 295/265/298 292/261/294 297/267/300
f 297/267/300 292/261/294 296/266/299
f 298/268/301 295/265/298 297/267/300
f 300/269/302 299/270/303 298/268/301
f 300/269/302 298/268/301 297/267/300
f 301/271/304 299/270/303 300/269/302
f 297/267/300 296/266/299 254/224/256
f 254/224/256 300/269/302 297/267/300
f 255/225/257 254/224/256 296/266/299
f 300/269/302 254/224/256 302/272/305
f 302/272/305 254/224/256 304/273/306
f 304/273/306 303/274/307 302/272/305
f 304/273/306 305/275/308 303/274/307
f 304/273/306 254/224/256 251/221/253
f 256/226/258 305/275/308 304/273/306
f 256/226/258 304/273/306 251/221/253
f 266/236/268 306/276/309 305/275/308
f 266/236/268 305/275/308 256/226/258
f 310/277/310 309/278/311 307/279/312
f 267/237/269 310/277/310 308/280/313
f 309/278/311 310/277/310 311/281/314
f 312/282/315 311/281/314 310/277/310
f 312/282/315 310/277/310 267/237/269
f 311/281/314 312/282/315 313/283/316
f 314/284/317 311/281/314 313/283/316
f 314/284/317 313/283/316 316/285/318
f 316/285/318 315/286/319 314/284/317
f 317/287/320 313/283/316 312/282/315
f 318/288/321 316/285/318 313/283/316
f 313/283/316 317/287/320 318/288/321
f 312/282/315 264/234/266 317/287/320
f 264/234/266 312/282/315 267/237/269
f 315/286/319 316/285/318 319/289/322
f 316/285/318 318/288/321 319/289/322
f 315/286/319 319/289/322 320/290/323
f 321/291/324 320/290/323 319/289/322
f 322/292/325 320/290/323 321/291/324
f 323/293/326 322/292/325 321/291/324
f 324/294/327 323/293/326 321/291/324
f 321/291/324 325/295/328 324/294/327
f 326/296/329 324/294/327 325/295/328
f 321/291/324 327/297/330 325/295/328
f 327/297/330 321/291/324 319/289/322
f 328/298/331 326/296/329 325/295/328
f 319/289/322 318/288/321 327/297/330
f 326/296/329 328/298/331 329/299/332
f 330/300/333 325/295/328 327/297/330
f 330/300/333 327/297/330 318/288/321
f 330/300/333 328/298/331 325/295/328
f 331/301/334 330/300/333 318/288/321
f 318/288/321 332/302/335 331/301/334
f 332/302/335 318/288/321 317/287/320
f 332/302/335 317/287/320 275/244/276
f 275/244/276 317/287/320 264/234/266
f 273/245/277 332/302/335 275/244/276
f 275/244/276 264/234/266 263/233/265
f 333/303/336 332/302/335 273/245/277
f 331/301/334 332/302/335 333/303/336
f 333/303/336 330/300/333 331/301/334
f 333/303/336 334/304/337 330/300/333
f 328/298/331 330/300/333 334/304/337
f 335/305/338 336/306/339 337/307/340
f 338/308/341 337/307/340 336/306/339
f 336/306/339 335/305/338 339/309/342
f 340/310/343 339/309/342 335/305/338
f 336/306/339 341/311/344 338/308/341
f 339/309/342 340/310/343 342/312/345
f 336/306/339 339/309/342 343/313/346
f 339/309/342 342/312/345 343/313/346
f 341/311/344 336/306/339 343/313/346
f 340/310/343 344/314/347 342/312/345
f 342/312/345 344/314/347 343/313/346
f 344/314/347 340/310/343 345/315/348
f 346/316/349 338/308/341 341/311/344
f 346/316/349 341/311/344 343/313/346
f 338/308/341 346/316/349 347/317/350
f 345/315/348 348/318/351 344/314/347
f 344/314/347 348/318/351 343/313/346
f 345/315/348 349/319/352 348/318/351
f 350/320/353 348/318/351 349/319/352
f 351/321/354 347/317/350 346/316/349
f 351/321/354 346/316/349 343/313/346
f 347/317/350 351/321/354 352/322/355
f 352/322/355 351/321/354 353/323/356
f 348/318/351 350/320/353 354/324/357
f 348/318/351 354/324/357 343/313/346
f 355/325/358 354/324/357 350/320/353
f 353/323/356 351/321/354 356/326/359
f 356/326/359 351/321/354 343/313/346
f 357/327/360 353/323/356 356/326/359
f 354/324/357 355/325/358 358/328/361
f 354/324/357 358/328/361 343/313/346
f 359/329/362 357/327/360 356/326/359
f 359/329/362 356/326/359 343/313/346
f 360/330/363 357/327/360 359/329/362
f 360/330/363 359/329/362 343/313/346
f 357/327/360 360/330/363 361/331/364
f 355/325/358 362/332/365 358/328/361
f 358/328/361 362/332/365 343/313/346
f 362/332/365 360/330/363 343/313/346
f 362/332/365 361/331/364 360/330/363
f 362/332/365 355/325/358 363/333/366
f 361/331/364 362/332/365 363/333/366
f 364/334/288 366/335/5 365/336/367
f 367/337/368 368/338/369 369/339/96
f 372/337/370 370/339/371 371/340/372
f 375/341/373 373/342/374 374/343/375
f 373/342/374 375/341/373 376/344/376
f 374/343/375 377/345/377 375/341/373
f 376/344/376 378/346/378 373/342/374
f 378/346/378 376/344/376 379/347/379
f 374/343/375 380/348/380 377/345/377
f 380/348/380 381/349/381 377/345/377
f 381/349/381 380/348/380 382/350/382
f 381/349/381 382/350/382 383/351/383
f 381/349/381 383/351/383 384/352/384
f 388/349/385 386/352/386 387/353/387
f 388/349/385 387/353/387 389/354/388
f 390/355/389 388/349/385 389/354/388
f 388/349/385 390/355/389 391/345/390
f 392/356/391 391/345/390 390/355/389
f 392/356/391 393/341/392 391/345/390
f 394/357/393 393/341/392 392/356/391
f 393/341/392 394/357/393 395/344/394
f 385/358/395 395/344/394 394/357/393
f 395/344/394 385/358/395 396/347/396
f 397/359/397 398/360/398 399/361/399
f 397/359/397 400/362/400 398/360/398
f 401/363/401 398/360/398 400/362/400
f 398/360/398 403/364/402 399/361/399
f 403/364/402 402/365/403 399/361/399
f 401/363/401 404/366/404 398/360/398
f 398/360/398 405/367/405 403/364/402
f 405/367/405 398/360/398 404/366/404
f 404/366/404 401/363/401 406/368/406
f 402/365/403 403/364/402 407/369/407
f 405/367/405 407/369/407 403/364/402
f 402/365/403 407/369/407 408/370/408
f 407/369/407 411/371/409 408/370/408
f 408/370/408 411/371/409 409/372/410
f 405/367/405 412/373/411 407/369/407
f 411/371/409 407/369/407 412/373/411
f 414/374/412 410/375/413 413/376/414
f 415/377/415 409/372/410 411/371/409
f 415/377/415 411/371/409 412/373/411
f 413/376/416 409/372/410 415/377/415
f 416/378/417 413/376/416 415/377/415
f 417/379/418 415/377/415 412/373/411
f 417/379/418 412/373/411 420/380/419
f 419/381/420 417/379/418 420/380/419
f 420/380/419 412/373/411 405/367/405
f 421/382/421 419/381/420 420/380/419
f 418/383/422 421/382/421 422/384/423
f 422/384/423 406/368/406 423/385/424
f 406/368/406 422/384/423 404/366/404
f 421/382/421 420/380/419 424/386/425
f 424/386/425 422/384/423 421/382/421
f 424/386/425 420/380/419 405/367/405
f 422/384/423 424/386/425 404/366/404
f 424/386/425 405/367/405 404/366/404
f 427/387/426 426/388/427 425/389/428
f 429/390/429 430/391/430 428/392/431
f 432/393/432 433/394/433 431/395/434
f 434/391/435 435/396/436 436/392/437
f 439/397/438 438/388/439 437/398/440
f 442/399/441 441/347/442 440/400/443
f 442/399/441 440/400/443 444/401/444
f 445/402/445 442/399/441 444/401/444
f 444/401/444 446/403/446 445/402/445
f 443/404/415 447/405/447 444/401/444
f 447/405/447 446/403/446 444/401/444
f 446/403/446 447/405/447 448/406/448
f 450/407/449 449/408/450 448/406/448
f 450/407/449 448/406/448 451/409/451
f 453/410/452 452/411/453 451/409/454
f 448/406/448 447/405/447 454/412/455
f 451/409/451 448/406/448 454/412/455
f 454/412/455 455/413/456 451/409/451
f 453/410/452 451/409/454 456/414/457
f 456/414/457 457/415/458 453/410/452
f 457/415/458 456/414/457 458/416/459
f 459/417/460 461/415/461 460/418/462
f 462/410/463 461/415/461 459/417/460
f 462/410/463 459/417/460 463/419/464
f 462/410/463 463/419/464 464/411/465
f 463/419/464 465/407/466 464/411/465
f 467/420/467 465/407/466 463/419/464
f 463/419/464 466/421/468 467/420/467
f 465/407/466 467/420/467 468/408/435
f 469/422/469 468/408/435 467/420/467
f 470/403/470 469/422/471 471/402/472
f 469/422/471 472/423/473 471/402/472
f 471/402/472 472/423/473 473/399/474
f 474/424/475 473/399/474 472/423/473
f 475/347/476 473/399/474 474/424/475
f 476/425/477 477/426/478 478/427/479
f 477/426/478 479/428/480 478/427/479
f 479/428/480 477/426/478 480/429/481
f 479/428/480 480/429/481 481/430/482
f 481/430/482 482/431/483 479/428/480
f 482/431/483 481/430/482 483/362/484
f 484/432/485 476/425/477 485/433/486
f 485/433/486 476/425/477 478/427/479
f 485/433/486 478/427/479 487/434/487
f 485/433/486 487/434/487 486/435/488
f 478/427/479 488/436/489 487/434/487
f 479/428/480 488/436/489 478/427/479
f 490/437/490 489/438/491 491/439/440
f 486/435/488 493/440/492 489/438/491
f 493/440/492 486/435/488 487/434/487
f 489/438/491 493/440/492 491/439/440
f 491/439/493 494/441/494 492/442/495
f 487/434/487 495/443/496 493/440/492
f 487/434/487 488/436/489 495/443/496
f 491/439/440 493/440/492 496/444/497
f 493/440/492 495/443/496 496/444/497
f 497/445/498 491/439/440 496/444/497
f 498/446/499 497/445/498 496/444/497
f 496/444/497 495/443/496 498/446/499
f 495/443/496 500/447/500 498/446/499
f 499/448/501 498/446/499 500/447/500
f 495/443/496 501/449/502 500/447/500
f 499/448/501 500/447/500 501/449/502
f 488/436/489 502/450/503 495/443/496
f 502/450/503 501/449/502 495/443/496
f 479/428/480 502/450/503 488/436/489
f 502/450/503 479/428/480 482/431/483
f 502/450/503 482/431/483 501/449/502
f 503/451/504 499/448/501 501/449/502
f 482/431/483 503/451/504 501/449/502
f 504/452/505 503/451/504 482/431/483
f 482/431/483 483/362/484 504/452/505
