# Blender 5.2.0 LTS
# www.blender.org
mtllib jaja.mtl
o bug_net_body
v -0.198546 -1.760429 -0.046711
v -0.327681 -2.063837 -0.045473
v -0.339622 -2.058629 -0.009960
v -0.210635 -1.755412 -0.011131
v -0.195822 -1.761318 0.023230
v -0.326684 -2.093132 -0.033958
v -0.324961 -2.064723 0.024342
v -0.324892 -2.093717 0.012045
v -0.334562 -2.089714 -0.010552
v -0.192660 1.479396 -0.365996
v -0.136386 1.667422 -0.168784
v -0.151347 1.571941 -0.106808
v -0.168928 1.623179 -0.135380
v -0.198370 1.414953 -0.271447
v -0.220181 1.452008 -0.314940
v -0.122018 1.657249 0.232487
v -0.163102 1.463999 0.428424
v -0.194394 1.438438 0.378446
v -0.157015 1.614371 0.200067
v -0.175950 1.402983 0.332021
v -0.141689 1.564331 0.168420
v -0.220359 0.156340 -0.021443
v -0.102935 -0.507828 -0.034456
v -0.233324 0.153860 0.014013
v -0.065460 -0.879069 -0.040537
v -0.115883 -0.510376 0.000998
v -0.078419 -0.878114 -0.005134
v -0.062749 -0.879953 0.029087
v -0.100216 -0.508715 0.035359
v -0.217638 0.155452 0.048403
v -0.266673 1.148098 -0.276459
v -0.300949 0.986788 -0.112855
v -0.333266 0.897100 -0.176390
v -0.340796 0.950832 -0.142176
v -0.292250 1.090335 -0.372325
v -0.303429 1.126765 -0.320555
v -0.262625 1.074950 0.422092
v -0.318959 0.886942 0.224883
v -0.291268 0.979174 0.162370
v -0.328896 0.942026 0.193271
v -0.244268 1.136165 0.327010
v -0.277638 1.113165 0.372831
v -0.076227 1.449682 -0.370910
v -0.019889 1.637692 -0.173699
v -0.073338 1.673573 -0.184576
v -0.131892 1.478044 -0.389661
v -0.192660 1.479396 -0.365996
v -0.136386 1.667422 -0.168784
v -0.266673 1.148098 -0.276459
v -0.292250 1.090335 -0.372325
v -0.303429 1.126765 -0.320555
v -0.238156 1.062754 -0.396285
v -0.211571 1.144851 -0.262788
v -0.162910 1.121618 -0.280837
v -0.175753 1.060604 -0.377240
v -0.144458 1.086194 -0.327263
v -0.140482 1.109679 0.322631
v -0.206959 1.046591 0.440845
v -0.146192 1.045236 0.417179
v -0.118675 1.072596 0.366124
v -0.190342 1.133471 0.309207
v -0.244268 1.136165 0.327010
v -0.262625 1.074950 0.422092
v -0.277638 1.113165 0.372831
v -0.187504 0.952694 0.157992
v -0.140482 1.109679 0.322631
v -0.190342 1.133471 0.309207
v -0.235883 0.981391 0.149712
v -0.291268 0.979174 0.162370
v -0.244268 1.136165 0.327010
v -0.166737 -1.773445 -0.062514
v -0.296125 -2.077309 -0.061368
v -0.198546 -1.760429 -0.046711
v -0.327681 -2.063837 -0.045473
v -0.326684 -2.093132 -0.033958
v -0.305887 -2.102045 -0.044429
v -0.284338 -2.111166 -0.035837
v -0.263445 -2.091183 -0.048323
v -0.133936 -1.786794 -0.049437
v -0.175950 1.402983 0.332021
v -0.072189 1.376503 0.327643
v -0.141689 1.564331 0.168420
v -0.037902 1.537845 0.164040
v -0.094092 1.536024 0.155518
v -0.127286 1.379752 0.314004
v -0.141689 1.564331 0.168420
v -0.058019 1.662790 0.243701
v -0.094092 1.536024 0.155518
v -0.037902 1.537845 0.164040
v -0.122018 1.657249 0.232487
v -0.157015 1.614371 0.200067
v -0.005586 1.627535 0.227575
v 0.001948 1.573802 0.193360
v -0.220359 0.156340 -0.021443
v -0.102935 -0.507828 -0.034456
v -0.186342 0.161500 -0.037165
v -0.068957 -0.502626 -0.050176
v -0.151238 0.166269 -0.023977
v -0.065460 -0.879069 -0.040537
v -0.031355 -0.882271 -0.056496
v -0.033842 -0.497759 -0.037019
v 0.004131 -0.885808 -0.043587
v -0.216833 0.867387 -0.181302
v -0.175753 1.060604 -0.377240
v -0.238156 1.062754 -0.396285
v -0.280832 0.861844 -0.192517
v -0.333266 0.897100 -0.176390
v -0.292250 1.090335 -0.372325
v -0.291268 0.979174 0.162370
v -0.265515 0.851059 0.235761
v -0.318959 0.886942 0.224883
v -0.328896 0.942026 0.193271
v -0.235883 0.981391 0.149712
v -0.187504 0.952694 0.157992
v -0.202462 0.857211 0.219968
v -0.169923 0.901454 0.186563
v -0.284338 -2.111166 -0.035837
v -0.274671 -2.115201 -0.013208
v -0.282546 -2.111751 0.010166
v -0.260726 -2.092070 0.021493
v -0.131221 -1.787680 0.020252
v -0.119264 -1.792696 -0.015164
v -0.248775 -2.097283 -0.013989
v -0.263445 -2.091183 -0.048323
v -0.133936 -1.786794 -0.049437
v -0.009956 1.582609 -0.142087
v -0.061218 1.411439 -0.321647
v -0.076227 1.449682 -0.370910
v -0.019889 1.637692 -0.173699
v -0.047585 1.545460 -0.111186
v -0.094584 1.388466 -0.275826
v -0.005586 1.627535 0.227575
v -0.046605 1.434268 0.423509
v -0.035423 1.397867 0.371739
v 0.001948 1.573802 0.193360
v -0.072189 1.376503 0.327643
v -0.037902 1.537845 0.164040
v -0.151238 0.166269 -0.023977
v -0.148521 0.165382 0.045774
v -0.031123 -0.498646 0.032796
v 0.006863 -0.886698 0.026544
v 0.020063 -0.887647 -0.009091
v -0.018174 -0.496134 -0.002627
v -0.135583 0.167869 0.010383
v -0.033842 -0.497759 -0.037019
v 0.004131 -0.885808 -0.043587
v -0.162910 1.121618 -0.280837
v -0.181833 0.910263 -0.148883
v -0.144458 1.086194 -0.327263
v -0.197163 0.960301 -0.117235
v -0.216833 0.867387 -0.181302
v -0.175753 1.060604 -0.377240
v -0.146192 1.045236 0.417179
v -0.169923 0.901454 0.186563
v -0.118675 1.072596 0.366124
v -0.202462 0.857211 0.219968
v -0.187504 0.952694 0.157992
v -0.140482 1.109679 0.322631
v -0.326684 -2.093132 -0.033958
v -0.305887 -2.102045 -0.044429
v -0.284338 -2.111166 -0.035837
v -0.324892 -2.093717 0.012045
v -0.334562 -2.089714 -0.010552
v -0.303353 -2.102871 0.020637
v -0.274671 -2.115201 -0.013208
v -0.282546 -2.111751 0.010166
v -0.047585 1.545460 -0.111186
v -0.094584 1.388466 -0.275826
v -0.148510 1.391165 -0.258023
v -0.102967 1.543244 -0.098528
v -0.151347 1.571941 -0.106808
v -0.198370 1.414953 -0.271447
v -0.146192 1.045236 0.417179
v -0.202462 0.857211 0.219968
v -0.265515 0.851059 0.235761
v -0.206959 1.046591 0.440845
v -0.262625 1.074950 0.422092
v -0.318959 0.886942 0.224883
v -0.094584 1.388466 -0.275826
v -0.076227 1.449682 -0.370910
v -0.061218 1.411439 -0.321647
v -0.131892 1.478044 -0.389661
v -0.148510 1.391165 -0.258023
v -0.198370 1.414953 -0.271447
v -0.192660 1.479396 -0.365996
v -0.220181 1.452008 -0.314940
v -0.072189 1.376503 0.327643
v -0.100703 1.461848 0.447469
v -0.127286 1.379752 0.314004
v -0.175950 1.402983 0.332021
v -0.046605 1.434268 0.423509
v -0.035423 1.397867 0.371739
v -0.163102 1.463999 0.428424
v -0.194394 1.438438 0.378446
v -0.195822 -1.761318 0.023230
v -0.324961 -2.064723 0.024342
v -0.292279 -2.078564 0.037387
v -0.162891 -1.774700 0.036209
v -0.324892 -2.093717 0.012045
v -0.303353 -2.102871 0.020637
v -0.282546 -2.111751 0.010166
v -0.260726 -2.092070 0.021493
v -0.131221 -1.787680 0.020252
v -0.100703 1.461848 0.447469
v -0.058019 1.662790 0.243701
v -0.122018 1.657249 0.232487
v -0.005586 1.627535 0.227575
v -0.163102 1.463999 0.428424
v -0.046605 1.434268 0.423509
v -0.151347 1.571941 -0.106808
v -0.073338 1.673573 -0.184576
v -0.136386 1.667422 -0.168784
v -0.168928 1.623179 -0.135380
v -0.102967 1.543244 -0.098528
v -0.047585 1.545460 -0.111186
v -0.019889 1.637692 -0.173699
v -0.009956 1.582609 -0.142087
v -0.062749 -0.879953 0.029087
v -0.100216 -0.508715 0.035359
v -0.217638 0.155452 0.048403
v -0.182496 0.160245 0.061558
v -0.065112 -0.503880 0.048548
v -0.027509 -0.883526 0.042259
v -0.148521 0.165382 0.045774
v -0.031123 -0.498646 0.032796
v 0.006863 -0.886698 0.026544
v -0.162910 1.121618 -0.280837
v -0.197163 0.960301 -0.117235
v -0.244759 0.988607 -0.104302
v -0.211571 1.144851 -0.262788
v -0.266673 1.148098 -0.276459
v -0.300949 0.986788 -0.112855
v -0.197163 0.960301 -0.117235
v -0.216833 0.867387 -0.181302
v -0.181833 0.910263 -0.148883
v -0.280832 0.861844 -0.192517
v -0.244759 0.988607 -0.104302
v -0.300949 0.986788 -0.112855
v -0.333266 0.897100 -0.176390
v -0.340796 0.950832 -0.142176
v -0.083316 -1.150548 -0.050681
v -0.072742 -0.879708 -0.047652
v -0.088573 -0.879153 -0.004751
v -0.124533 -1.455983 -0.052957
v -0.099118 -1.149639 -0.007778
v -0.080029 -1.151620 0.033698
v -0.069455 -0.880780 0.036728
v -0.121247 -1.457055 0.031423
v -0.139861 -1.452188 -0.010035
v -0.220025 -1.751413 -0.010714
v -0.202164 -1.758606 0.030774
v -0.205452 -1.757533 -0.053667
v -0.315971 0.869275 0.199012
v -0.329402 0.873657 -0.145821
v -0.246103 1.102627 0.443494
v -0.323224 0.921155 0.179877
v -0.261475 1.127386 0.395946
v -0.335093 0.925027 -0.124870
v -0.290351 0.958964 0.160555
v -0.236099 1.140166 0.350370
v -0.186021 1.422908 0.396762
v -0.160724 1.437021 0.444417
v -0.290133 1.136734 -0.339786
v -0.141061 1.634614 0.181847
v -0.109843 1.676596 0.201241
v -0.123275 1.680977 -0.143592
v -0.152931 1.638486 -0.122900
v -0.193150 1.447598 -0.388074
v -0.214679 1.432257 -0.338970
v -0.278529 1.113204 -0.388998
v -0.194986 1.408007 -0.295295
v -0.227775 0.155178 -0.028369
v -0.224495 0.154109 0.055820
v -0.294794 0.593610 -0.020124
v -0.306535 0.901703 -0.015372
v -0.321483 0.904616 0.026986
v -0.291520 0.592543 0.063940
v -0.303290 0.900645 0.067932
v -0.310341 0.590725 0.022563
v -0.243375 0.152077 0.014381
v -0.300781 0.962366 -0.107210
v -0.261276 1.148379 -0.296012
v -0.169810 1.399794 0.351087
v -0.130304 1.585806 0.162286
v -0.140734 1.589209 -0.105479
v -0.290351 0.958964 0.160555
v -0.236099 1.140166 0.350370
v -0.054186 1.683756 0.207758
v -0.109843 1.676596 0.201241
v -0.009450 1.650975 0.197005
v -0.022881 1.655357 -0.147828
v -0.068285 1.688357 -0.154234
v -0.123275 1.680977 -0.143592
v -0.169040 1.124840 -0.299903
v -0.208544 0.938827 -0.111102
v -0.212789 1.143119 -0.281157
v -0.143862 1.116627 0.346478
v -0.198114 0.935425 0.156663
v -0.250239 0.966779 -0.102146
v -0.188919 1.135333 0.331662
v -0.240352 0.963555 0.151689
v -0.300781 0.962366 -0.107210
v -0.261276 1.148379 -0.296012
v 0.014548 -0.886061 0.033230
v -0.088573 -0.879153 -0.004751
v -0.069455 -0.880780 0.036728
v -0.026679 -0.883600 0.052437
v 0.030209 -0.886672 -0.009474
v 0.011274 -0.884994 -0.050833
v -0.072742 -0.879708 -0.047652
v -0.031320 -0.882087 -0.066707
v -0.041952 -1.153860 -0.069746
v 0.011274 -0.884994 -0.050833
v 0.000642 -1.157619 -0.053914
v -0.031320 -0.882087 -0.066707
v -0.083316 -1.150548 -0.050681
v -0.072742 -0.879708 -0.047652
v -0.124533 -1.455983 -0.052957
v -0.205452 -1.757533 -0.053667
v -0.084344 -1.466257 -0.072064
v -0.167095 -1.773325 -0.072743
v -0.042966 -1.476998 -0.056243
v -0.127561 -1.789546 -0.056919
v -0.229009 0.848036 -0.150057
v -0.329402 0.873657 -0.145821
v -0.231262 1.092337 -0.411845
v -0.236099 1.140166 0.350370
v -0.022881 1.655357 -0.147828
v -0.068285 1.688357 -0.154234
v -0.077573 1.376254 0.347195
v -0.123275 1.680977 -0.143592
v -0.141635 1.443371 -0.410876
v -0.092756 1.421978 -0.392310
v -0.193150 1.447598 -0.388074
v -0.178134 1.087584 -0.393234
v -0.278529 1.113204 -0.388998
v -0.224360 0.885180 -0.019543
v -0.211284 0.605067 -0.023357
v -0.144453 0.167599 -0.031488
v -0.186807 0.161614 -0.047389
v -0.253792 0.599545 -0.039215
v -0.227775 0.155178 -0.028369
v -0.266519 0.893634 -0.034952
v -0.294794 0.593610 -0.020124
v -0.306535 0.901703 -0.015372
v -0.143862 1.116627 0.346478
v -0.198114 0.935425 0.156663
v -0.188919 1.135333 0.331662
v -0.240352 0.963555 0.151689
v -0.126063 1.381515 0.332342
v -0.169810 1.399794 0.351087
v -0.130304 1.585806 0.162286
v -0.088614 1.557853 0.153330
v 0.011274 -0.884994 -0.050833
v 0.000642 -1.157619 -0.053914
v 0.014548 -0.886061 0.033230
v -0.042966 -1.476998 -0.056243
v -0.127561 -1.789546 -0.056919
v -0.024521 -1.481854 -0.014904
v -0.109877 -1.796693 -0.015580
v -0.124286 -1.790614 0.027145
v 0.019604 -1.159597 -0.012528
v 0.030209 -0.886672 -0.009474
v 0.003919 -1.158688 0.030211
v -0.039691 -1.478066 0.027821
v -0.229009 0.848036 -0.150057
v -0.215577 0.843655 0.194776
v -0.145709 1.077006 0.439258
v -0.060331 1.411400 0.440181
v -0.124182 1.092347 0.390153
v -0.048727 1.387870 0.390969
v -0.003767 1.599575 0.176054
v -0.009450 1.650975 0.197005
v -0.022881 1.655357 -0.147828
v -0.077573 1.376254 0.347195
v -0.015637 1.603448 -0.128693
v -0.092756 1.421978 -0.392310
v -0.178134 1.087584 -0.393234
v -0.077384 1.397218 -0.344763
v -0.152838 1.101695 -0.345579
v -0.192315 0.606910 0.018172
v -0.224360 0.885180 -0.019543
v -0.205414 0.881244 0.022168
v -0.221055 0.884102 0.065280
v -0.211284 0.605067 -0.023357
v -0.208000 0.603995 0.060959
v -0.125534 0.169653 0.010015
v -0.144453 0.167599 -0.031488
v -0.141171 0.166528 0.052765
v -0.102750 1.384468 -0.299186
v -0.197799 0.889989 -0.130663
v -0.169040 1.124840 -0.299903
v -0.185929 0.886116 0.174084
v -0.208544 0.938827 -0.111102
v -0.143862 1.116627 0.346478
v -0.198114 0.935425 0.156663
v -0.038068 1.562267 0.158394
v -0.048498 1.565670 -0.109371
v -0.202164 -1.758606 0.030774
v -0.109877 -1.796693 -0.015580
v -0.124286 -1.790614 0.027145
v -0.162454 -1.774838 0.046401
v -0.220025 -1.751413 -0.010714
v -0.205452 -1.757533 -0.053667
v -0.127561 -1.789546 -0.056919
v -0.167095 -1.773325 -0.072743
v -0.229009 0.848036 -0.150057
v -0.215577 0.843655 0.194776
v -0.270567 0.836277 0.205418
v -0.284667 0.840876 -0.156574
v -0.315971 0.869275 0.199012
v -0.197222 1.081232 0.462091
v -0.329402 0.873657 -0.145821
v -0.231262 1.092337 -0.411845
v -0.077573 1.376254 0.347195
v -0.194986 1.408007 -0.295295
v -0.224495 0.154109 0.055820
v -0.125534 0.169653 0.010015
v -0.141171 0.166528 0.052765
v -0.182165 0.160100 0.071755
v -0.243375 0.152077 0.014381
v -0.227775 0.155178 -0.028369
v -0.144453 0.167599 -0.031488
v -0.186807 0.161614 -0.047389
v -0.102750 1.384468 -0.299186
v -0.126063 1.381515 0.332342
v -0.169810 1.399794 0.351087
v -0.130304 1.585806 0.162286
v -0.088614 1.557853 0.153330
v -0.038068 1.562267 0.158394
v -0.048498 1.565670 -0.109371
v -0.098501 1.561079 -0.100505
v -0.149933 1.389302 -0.280477
v -0.140734 1.589209 -0.105479
v -0.080029 -1.151620 0.033698
v -0.069455 -0.880780 0.036728
v -0.026679 -0.883600 0.052437
v -0.121247 -1.457055 0.031423
v -0.037310 -1.155374 0.049398
v 0.014548 -0.886061 0.033230
v -0.202164 -1.758606 0.030774
v -0.079702 -1.467770 0.047080
v -0.162454 -1.774838 0.046401
v -0.124286 -1.790614 0.027145
v 0.003919 -1.158688 0.030211
v -0.039691 -1.478066 0.027821
v -0.215577 0.843655 0.194776
v -0.315971 0.869275 0.199012
v -0.197222 1.081232 0.462091
v -0.246103 1.102627 0.443494
v -0.160724 1.437021 0.444417
v -0.107595 1.432267 0.463060
v -0.145709 1.077006 0.439258
v -0.060331 1.411400 0.440181
v -0.054186 1.683756 0.207758
v -0.109843 1.676596 0.201241
v -0.009450 1.650975 0.197005
v -0.194986 1.408007 -0.295295
v -0.221055 0.884102 0.065280
v -0.208000 0.603995 0.060959
v -0.141171 0.166528 0.052765
v -0.182165 0.160100 0.071755
v -0.249152 0.598032 0.079929
v -0.224495 0.154109 0.055820
v -0.261881 0.892121 0.084130
v -0.291520 0.592543 0.063940
v -0.303290 0.900645 0.067932
v -0.102750 1.384468 -0.299186
v -0.169040 1.124840 -0.299903
v -0.208544 0.938827 -0.111102
v -0.212789 1.143119 -0.281157
v -0.250239 0.966779 -0.102146
v -0.300781 0.962366 -0.107210
v -0.261276 1.148379 -0.296012
v -0.149933 1.389302 -0.280477
vn -0.9896 0.1384 0.0403
vn -0.6731 0.2878 -0.6813
vn -0.7565 0.0330 -0.6531
vn -0.9204 0.3888 0.0408
vn -0.6177 0.2698 0.7387
vn -0.7048 -0.5981 -0.3815
vn -0.7034 0.0158 0.7106
vn -0.6735 -0.6083 0.4199
vn -0.8421 -0.5387 0.0259
vn -0.5630 0.6722 -0.4808
vn -0.9697 0.2393 0.0487
vn -0.5631 0.6723 -0.4806
vn -0.9712 0.2316 0.0565
vn -0.7563 -0.3516 0.5517
vn -0.7564 -0.3515 0.5517
vn -0.5232 0.6593 0.5400
vn -0.9703 0.2395 0.0330
vn -0.9705 0.2396 0.0251
vn -0.7972 -0.3382 -0.5001
vn -0.7972 -0.3383 -0.5000
vn -0.7271 -0.1142 -0.6770
vn -0.7262 -0.0889 -0.6817
vn -0.9846 -0.1709 0.0362
vn -0.7127 -0.0603 -0.6989
vn -0.9900 -0.1365 0.0368
vn -0.9939 -0.1042 0.0374
vn -0.6563 -0.0787 0.7504
vn -0.6712 -0.1068 0.7336
vn -0.6723 -0.1322 0.7284
vn -0.4959 0.6683 0.5545
vn -0.9634 0.2621 0.0566
vn -0.9658 0.2546 0.0488
vn -0.8158 -0.3176 -0.4834
vn -0.7760 -0.3306 0.5372
vn -0.9664 0.2549 0.0330
vn -0.7760 -0.3305 0.5372
vn -0.9646 0.2623 0.0252
vn -0.5369 0.6817 -0.4971
vn 0.7759 0.3306 -0.5373
vn 0.1474 0.6941 -0.7046
vn 0.7725 0.3344 -0.5399
vn 0.1475 0.6945 -0.7042
vn -0.5629 0.6723 -0.4808
vn 0.1861 0.8190 -0.5428
vn 0.1861 0.8191 -0.5426
vn 0.1861 0.8190 -0.5429
vn 0.2272 0.7980 0.5582
vn 0.2272 0.7979 0.5583
vn 0.2273 0.7980 0.5582
vn 0.7561 0.3518 -0.5518
vn 0.1475 0.6944 -0.7043
vn 0.7561 0.3517 -0.5518
vn -0.5367 0.6817 -0.4973
vn -0.5366 0.6817 -0.4973
vn -0.0313 0.0108 -0.9995
vn -0.1401 -0.2286 -0.9634
vn -0.6729 0.2878 -0.6815
vn -0.7564 0.0331 -0.6532
vn -0.7049 -0.5980 -0.3815
vn -0.3452 -0.7521 -0.5614
vn 0.0274 -0.9093 -0.4152
vn 0.4993 -0.4980 -0.7090
vn 0.6218 -0.2701 -0.7351
vn -0.2024 -0.6758 -0.7088
vn -0.7971 -0.3384 -0.5001
vn -0.7972 -0.3384 -0.5000
vn 0.4957 -0.6683 -0.5547
vn 0.1038 0.5445 -0.8323
vn 0.1039 0.5445 -0.8323
vn -0.0465 0.0147 -0.9988
vn -0.7261 -0.0889 -0.6818
vn -0.7269 -0.1143 -0.6771
vn -0.0312 0.0107 -0.9995
vn 0.6639 0.1341 -0.7357
vn -0.7125 -0.0602 -0.6991
vn 0.0108 0.0162 -0.9998
vn 0.6792 0.1048 -0.7264
vn 0.6982 0.0835 -0.7111
vn 0.5231 -0.6593 -0.5400
vn 0.5232 -0.6593 -0.5400
vn -0.2024 -0.6761 -0.7085
vn -0.8157 -0.3176 -0.4835
vn -0.8156 -0.3177 -0.4835
vn -0.1676 -0.5180 -0.8388
vn -0.1675 -0.5180 -0.8388
vn -0.1677 -0.5180 -0.8388
vn 0.5526 -0.5154 0.6550
vn 0.9204 -0.3888 -0.0408
vn 0.6770 -0.2882 0.6772
vn 0.0587 -0.9195 0.3886
vn 0.7867 -0.6162 -0.0385
vn 0.1945 -0.9807 -0.0200
vn 0.4995 -0.4980 -0.7089
vn 0.6220 -0.2702 -0.7349
vn 0.9664 -0.2548 -0.0330
vn 0.9646 -0.2625 -0.0252
vn 0.7760 0.3305 -0.5372
vn 0.7726 0.3343 -0.5397
vn 0.5369 -0.6816 0.4972
vn 0.5369 -0.6816 0.4971
vn 0.8157 0.3175 0.4835
vn 0.9658 -0.2546 -0.0488
vn 0.9654 -0.2545 -0.0566
vn 0.4959 -0.6683 -0.5545
vn 0.9946 0.0969 -0.0375
vn 0.7338 0.0871 0.6737
vn 0.7515 0.0661 0.6564
vn 0.9900 0.1364 -0.0367
vn 0.7193 0.1160 0.6849
vn 0.9846 0.1709 -0.0362
vn 0.6640 0.1341 -0.7356
vn 0.6983 0.0834 -0.7110
vn 0.7972 0.3383 0.5000
vn 0.9724 -0.2320 -0.0251
vn 0.9703 -0.2396 -0.0329
vn 0.5233 -0.6592 -0.5400
vn 0.5630 -0.6723 0.4807
vn 0.9697 -0.2393 -0.0488
vn 0.9712 -0.2317 -0.0565
vn 0.7564 0.3515 -0.5517
vn 0.7563 0.3515 -0.5517
vn -0.7047 -0.5981 -0.3816
vn -0.3453 -0.7521 -0.5613
vn -0.8421 -0.5388 0.0260
vn -0.6736 -0.6082 0.4198
vn -0.3013 -0.7665 0.5672
vn 0.5367 -0.6817 0.4973
vn -0.1475 -0.6944 0.7043
vn 0.5367 -0.6817 0.4972
vn -0.1474 -0.6942 0.7045
vn -0.7562 -0.3518 0.5517
vn -0.7561 -0.3517 0.5518
vn 0.5629 -0.6723 0.4808
vn -0.1474 -0.6941 0.7046
vn -0.1475 -0.6945 0.7042
vn -0.7759 -0.3306 0.5373
vn -0.7759 -0.3306 0.5374
vn -0.2272 -0.7980 -0.5582
vn -0.2272 -0.7979 -0.5583
vn -0.2273 -0.7980 -0.5582
vn -0.1861 -0.8190 0.5428
vn -0.1861 -0.8189 0.5429
vn -0.1862 -0.8190 0.5428
vn -0.0650 -0.2531 0.9653
vn -0.7033 0.0156 0.7108
vn 0.0465 -0.0146 0.9988
vn -0.6737 -0.6083 0.4198
vn 0.5525 -0.5153 0.6552
vn 0.6769 -0.2882 0.6773
vn 0.2024 0.6761 0.7085
vn 0.2024 0.6758 0.7088
vn 0.8156 0.3177 0.4836
vn 0.8157 0.3176 0.4835
vn 0.1668 0.5145 0.8411
vn 0.1668 0.5144 0.8412
vn 0.1669 0.5144 0.8412
vn -0.6710 -0.1068 0.7337
vn 0.0313 -0.0108 0.9995
vn -0.6561 -0.0785 0.7506
vn 0.0466 -0.0147 0.9988
vn 0.0884 -0.0090 0.9960
vn 0.7337 0.0871 0.6739
vn 0.7514 0.0661 0.6565
vn 0.7971 0.3384 0.5001
vn 0.2024 0.6758 0.7087
vn 0.2024 0.6759 0.7087
vn -0.4957 0.6683 0.5546
vn -0.4958 0.6683 0.5546
vn -0.1039 -0.5445 0.8323
vn -0.1038 -0.5445 0.8323
vn -0.7338 0.0352 -0.6785
vn -0.7240 0.0732 -0.6859
vn -0.9986 0.0352 0.0393
vn -0.9957 0.0832 0.0398
vn -0.7140 0.1437 -0.6853
vn -0.6684 0.0551 0.7418
vn -0.6787 0.0172 0.7342
vn -0.6583 0.1256 0.7422
vn -0.9803 0.1933 0.0406
vn -0.9641 0.2623 0.0409
vn -0.6392 0.1693 0.7502
vn -0.6954 0.1876 -0.6937
vn -0.8383 -0.4813 -0.2560
vn -0.8164 -0.4885 0.3081
vn -0.9780 0.2008 0.0564
vn -0.9690 0.2309 0.0879
vn -0.7041 -0.1136 0.7010
vn -0.9792 0.2013 0.0250
vn -0.5540 0.8006 -0.2285
vn -0.6623 0.4390 -0.6072
vn -0.9612 0.2614 0.0880
vn -0.5645 0.4335 0.7025
vn -0.9727 0.2320 -0.0064
vn -0.9547 0.2922 0.0566
vn -0.4827 0.8184 0.3118
vn -0.5047 0.8256 -0.2524
vn -0.9559 0.2926 0.0252
vn -0.6169 0.4507 -0.6452
vn -0.9649 0.2627 -0.0063
vn -0.7566 -0.0963 -0.6468
vn -0.7411 -0.0809 0.6665
vn -0.7699 -0.0204 -0.6379
vn -0.7437 -0.0604 -0.6658
vn -0.9986 -0.0374 0.0384
vn -0.6897 -0.0781 0.7199
vn -0.7179 -0.0375 0.6951
vn -0.9948 -0.0945 0.0377
vn -0.6716 -0.1143 0.7320
vn -0.7266 -0.0964 -0.6803
vn -0.9875 -0.1536 0.0365
vn -0.5338 0.7939 0.2910
vn -0.6126 0.4229 0.6678
vn -0.7909 -0.0647 -0.6085
vn -0.8697 -0.4358 -0.2318
vn -0.8494 -0.4424 0.2877
vn 0.8163 0.4886 -0.3081
vn 0.2432 0.8888 0.3884
vn 0.8383 0.4813 0.2560
vn 0.2132 0.8986 -0.3835
vn -0.4826 0.8185 0.3118
vn 0.8696 0.4359 0.2317
vn 0.7908 0.0647 0.6086
vn 0.1314 0.3626 0.9226
vn 0.8493 0.4425 -0.2877
vn 0.8696 0.4359 0.2319
vn 0.8494 0.4425 -0.2877
vn 0.0597 0.3859 -0.9206
vn 0.7411 0.0809 -0.6665
vn 0.2131 0.8986 -0.3835
vn -0.5337 0.7940 0.2911
vn -0.5539 0.8007 -0.2283
vn -0.6622 0.4390 -0.6072
vn -0.5337 0.7941 0.2910
vn 0.1313 0.3625 0.9227
vn -0.6125 0.4228 0.6679
vn 0.0605 0.9981 0.0103
vn 0.0604 0.9981 0.0103
vn 0.0604 0.9981 0.0104
vn -0.0237 0.0087 -0.9997
vn 0.6786 -0.0172 -0.7343
vn 0.6855 -0.0515 -0.7262
vn -0.0389 0.0127 -0.9992
vn -0.7239 0.0733 -0.6860
vn -0.7336 0.0351 -0.6786
vn -0.7139 0.1435 -0.6854
vn -0.6953 0.1876 -0.6938
vn -0.0084 0.0049 -1.0000
vn 0.6740 -0.1296 -0.7272
vn 0.6707 -0.1774 -0.7202
vn 0.0597 0.3860 -0.9206
vn 0.2132 0.8986 -0.3836
vn 0.8164 0.4885 -0.3081
vn -0.5046 0.8256 -0.2524
vn 0.7040 0.1136 -0.7010
vn -0.6169 0.4506 -0.6453
vn 0.5643 -0.4335 -0.7026
vn -0.7565 -0.0965 -0.6468
vn -0.1315 -0.3625 -0.9227
vn -0.8383 -0.4814 -0.2560
vn 0.4828 -0.8184 -0.3118
vn -0.0390 0.0127 -0.9992
vn 0.6686 0.0743 -0.7399
vn 0.6715 0.1143 -0.7321
vn -0.0561 0.0090 -0.9984
vn 0.6522 0.0385 -0.7571
vn -0.7265 -0.0964 -0.6803
vn -0.1037 0.0129 -0.9945
vn -0.7436 -0.0604 -0.6659
vn -0.7697 -0.0203 -0.6380
vn 0.0596 0.3859 -0.9206
vn 0.6124 -0.4229 -0.6679
vn 0.7411 0.0810 -0.6665
vn 0.8494 0.4425 -0.2876
vn -0.6621 0.4391 -0.6073
vn -0.1314 -0.3626 -0.9227
vn -0.7908 -0.0648 -0.6086
vn -0.2432 -0.8888 -0.3884
vn -0.8696 -0.4360 -0.2318
vn 0.9788 -0.2009 -0.0407
vn 0.6708 -0.1774 -0.7201
vn 0.6742 -0.1297 -0.7271
vn 0.6856 -0.0516 -0.7261
vn 0.9642 -0.2621 -0.0409
vn 0.7246 -0.1949 0.6610
vn 0.9957 -0.0832 -0.0398
vn 0.6787 -0.0172 -0.7342
vn 0.9986 -0.0354 -0.0393
vn 0.7338 -0.0351 0.6785
vn 0.7400 -0.0693 0.6690
vn 0.7285 -0.1473 0.6690
vn 0.5048 -0.8255 0.2524
vn 0.9649 -0.2626 0.0062
vn 0.6170 -0.4506 0.6452
vn 0.9727 -0.2321 0.0064
vn 0.7566 0.0965 0.6467
vn 0.9792 -0.2012 -0.0250
vn 0.8383 0.4813 0.2559
vn 0.8164 0.4884 -0.3081
vn 0.6126 -0.4228 -0.6678
vn 0.9780 -0.2008 -0.0564
vn 0.7041 0.1134 -0.7009
vn 0.5643 -0.4336 -0.7025
vn 0.9690 -0.2309 -0.0879
vn 0.9612 -0.2614 -0.0880
vn 0.4828 -0.8184 -0.3117
vn 0.9946 0.0970 -0.0375
vn 0.6523 0.0385 -0.7570
vn 0.9981 0.0472 -0.0383
vn 0.7092 0.0199 0.7047
vn 0.6687 0.0744 -0.7398
vn 0.7243 0.0561 0.6872
vn 0.9875 0.1535 -0.0365
vn 0.6716 0.1142 -0.7321
vn 0.7266 0.0963 0.6802
vn 0.6623 -0.4391 0.6071
vn 0.9547 -0.2922 -0.0566
vn 0.7909 0.0646 0.6086
vn 0.9559 -0.2927 -0.0252
vn 0.8697 0.4358 0.2319
vn 0.7412 0.0809 -0.6663
vn 0.8495 0.4424 -0.2876
vn 0.5338 -0.7939 -0.2911
vn 0.5540 -0.8006 0.2284
vn -0.3818 -0.9242 0.0031
vn -0.3818 -0.9243 0.0031
vn 0.4826 -0.8185 -0.3118
vn 0.5046 -0.8256 0.2524
vn -0.2131 -0.8986 0.3835
vn -0.2432 -0.8888 -0.3885
vn -0.8163 -0.4886 0.3081
vn -0.0596 -0.3861 0.9205
vn -0.1316 -0.3626 -0.9226
vn 0.1461 -0.9891 -0.0183
vn 0.1459 -0.9891 -0.0182
vn 0.1457 -0.9892 -0.0182
vn 0.1461 -0.9891 -0.0182
vn 0.1458 -0.9891 -0.0182
vn 0.1459 -0.9891 -0.0183
vn -0.8696 -0.4359 -0.2317
vn -0.7908 -0.0646 -0.6087
vn 0.6125 -0.4227 -0.6679
vn -0.2432 -0.8889 -0.3883
vn 0.5336 -0.7940 -0.2911
vn 0.5538 -0.8006 0.2285
vn -0.8696 -0.4358 -0.2319
vn -0.2132 -0.8986 0.3835
vn 0.6621 -0.4390 0.6073
vn -0.8494 -0.4425 0.2877
vn -0.6682 0.0552 0.7419
vn 0.0389 -0.0127 0.9992
vn -0.6786 0.0172 0.7343
vn 0.0541 -0.0166 0.9984
vn -0.6582 0.1256 0.7423
vn 0.7336 -0.0352 0.6786
vn -0.6390 0.1692 0.7503
vn 0.0694 -0.0204 0.9974
vn 0.7398 -0.0692 0.6692
vn 0.7284 -0.1472 0.6691
vn 0.7245 -0.1950 0.6611
vn -0.8164 -0.4883 0.3082
vn -0.0597 -0.3859 0.9206
vn -0.7040 -0.1136 0.7010
vn 0.1315 0.3626 0.9226
vn -0.5643 0.4336 0.7025
vn 0.6169 -0.4506 0.6453
vn 0.5047 -0.8256 0.2524
vn 0.7565 0.0965 0.6468
vn 0.2432 0.8888 0.3885
vn -0.4827 0.8184 0.3117
vn 0.7242 0.0561 0.6873
vn 0.0388 -0.0126 0.9992
vn 0.7266 0.0963 0.6803
vn 0.0217 -0.0164 0.9996
vn 0.7091 0.0199 0.7048
vn -0.6714 -0.1143 0.7322
vn -0.0259 -0.0123 0.9996
vn -0.6895 -0.0781 0.7200
vn -0.7178 -0.0373 0.6952
vn 0.6622 -0.4391 0.6072
vn 0.1315 0.3624 0.9227
vn 0.7908 0.0648 0.6086
vn 0.1314 0.3627 0.9226
vn 0.8696 0.4360 0.2317
vn -0.5336 0.7940 0.2911
vn -0.7411 -0.0810 0.6665
vn -0.6125 0.4230 0.6678
vt 52.000000 -29.718500
vt 51.986198 -29.590799
vt 51.986198 -29.719299
vt 52.000000 -29.590000
vt 52.013802 -29.590799
vt 51.990898 -29.730400
vt 52.013802 -29.719299
vt 52.009102 -29.730400
vt 52.000000 -29.729900
vt 51.844200 -28.352301
vt 51.934700 -28.294800
vt 51.921902 -28.274700
vt 51.864101 -28.365400
vt 51.946499 -28.312599
vt 51.881699 -28.377399
vt 52.080299 -28.276800
vt 52.137798 -28.367300
vt 52.157902 -28.354401
vt 52.067200 -28.296600
vt 52.119999 -28.379101
vt 52.055199 -28.314301
vt 51.986198 -28.860300
vt 51.986198 -29.102699
vt 52.000000 -28.862499
vt 51.986301 -29.240900
vt 52.000000 -29.104900
vt 52.000000 -29.241800
vt 52.013699 -29.240900
vt 52.013802 -29.102699
vt 52.013802 -28.860300
vt 51.880001 -28.486000
vt 51.932800 -28.568501
vt 51.944801 -28.550900
vt 51.862202 -28.497801
vt 51.919701 -28.588400
vt 51.842098 -28.510700
vt 52.155800 -28.512899
vt 52.065300 -28.570400
vt 52.078098 -28.590401
vt 52.135899 -28.499800
vt 52.053501 -28.552500
vt 52.118301 -28.487801
vt 51.881100 -28.844200
vt 51.857399 -28.916599
vt 51.881100 -28.921900
vt 51.857399 -28.835800
vt 51.833698 -28.844200
vt 51.833698 -28.921900
vt 51.836300 -28.879999
vt 51.833698 -28.842100
vt 51.825001 -28.862200
vt 51.857399 -28.833700
vt 51.857399 -28.886299
vt 51.878601 -28.879999
vt 51.881100 -28.842100
vt 51.889801 -28.862200
vt 51.878601 -29.118299
vt 51.857399 -29.164200
vt 51.881100 -29.155800
vt 51.889801 -29.135900
vt 51.857399 -29.112101
vt 51.836300 -29.118299
vt 51.833698 -29.155800
vt 51.825001 -29.135900
vt 51.878601 -29.053499
vt 51.857399 -29.049299
vt 51.836300 -29.053499
vt 51.844299 -29.592699
vt 51.864101 -29.721399
vt 51.857899 -29.590799
vt 51.877701 -29.719299
vt 51.874699 -29.730400
vt 51.865700 -29.731800
vt 51.856701 -29.733200
vt 51.850498 -29.723499
vt 51.830700 -29.594601
vt 52.142601 -28.320499
vt 52.163700 -28.379101
vt 52.163700 -28.314301
vt 52.121399 -28.379101
vt 52.121399 -28.314301
vt 52.142601 -28.383301
vt 52.142601 -28.268400
vt 52.166302 -28.276800
vt 52.174999 -28.296600
vt 52.118900 -28.276800
vt 52.110199 -28.296600
vt 52.040699 -28.855000
vt 51.943699 -29.102699
vt 52.053501 -28.860300
vt 51.931000 -29.097401
vt 52.028000 -28.849800
vt 51.893101 -29.240900
vt 51.879501 -29.238800
vt 51.918301 -29.092100
vt 51.865799 -29.236700
vt 52.118900 -28.588400
vt 52.142601 -28.516001
vt 52.118900 -28.510700
vt 52.142601 -28.596701
vt 52.166302 -28.588400
vt 52.166302 -28.510700
vt 52.163700 -28.552500
vt 52.142601 -28.598900
vt 52.166302 -28.590401
vt 52.174999 -28.570400
vt 52.142601 -28.546301
vt 52.121399 -28.552500
vt 52.118900 -28.590401
vt 52.110199 -28.570400
vt 51.986198 -29.723499
vt 52.000000 -29.595301
vt 51.986198 -29.594601
vt 51.990898 -29.733200
vt 52.000000 -29.724400
vt 52.000000 -29.733801
vt 52.009102 -29.733200
vt 52.013802 -29.723499
vt 52.013802 -29.594601
vt 52.065300 -28.294800
vt 52.135899 -28.365400
vt 52.155800 -28.352301
vt 52.078098 -28.274700
vt 52.053501 -28.312599
vt 52.118301 -28.377399
vt 51.919701 -28.276800
vt 51.842098 -28.354401
vt 51.862202 -28.367300
vt 51.932800 -28.296600
vt 51.880001 -28.379101
vt 51.944801 -28.314301
vt 52.000000 -29.235800
vt 51.986198 -29.092100
vt 51.986198 -29.236700
vt 52.000000 -29.089899
vt 51.986198 -28.849800
vt 52.000000 -28.847601
vt 52.013802 -28.849800
vt 52.013802 -29.092100
vt 52.013802 -29.236700
vt 52.119999 -28.486000
vt 52.067200 -28.568501
vt 52.137798 -28.497801
vt 52.055199 -28.550900
vt 52.080299 -28.588400
vt 52.157902 -28.510700
vt 51.844200 -28.512899
vt 51.934700 -28.570400
vt 51.864101 -28.499800
vt 51.921902 -28.590401
vt 51.946499 -28.552500
vt 51.881699 -28.487801
vt 51.856701 -28.990900
vt 51.874699 -28.990900
vt 51.865700 -28.987200
vt 51.878399 -29.000000
vt 51.853001 -29.000000
vt 51.874699 -29.009100
vt 51.856701 -29.009100
vt 51.865700 -29.012800
vt 52.121399 -28.946501
vt 52.142601 -28.887899
vt 52.121399 -28.881701
vt 52.142601 -28.950701
vt 52.163700 -28.946501
vt 52.163700 -28.881701
vt 52.118900 -29.155800
vt 52.142601 -29.083401
vt 52.118900 -29.078100
vt 52.142601 -29.164200
vt 52.166302 -29.155800
vt 52.166302 -29.078100
vt 52.118900 -28.844200
vt 52.110199 -28.864100
vt 52.142601 -28.835800
vt 52.166302 -28.844200
vt 52.174999 -28.864100
vt 52.121399 -29.120001
vt 52.142601 -29.166300
vt 52.142601 -29.113701
vt 52.163700 -29.120001
vt 52.118900 -29.157900
vt 52.110199 -29.137800
vt 52.166302 -29.157900
vt 52.174999 -29.137800
vt 52.135899 -29.721399
vt 52.142101 -29.590799
vt 52.122299 -29.719299
vt 52.155701 -29.592699
vt 52.125301 -29.730400
vt 52.134300 -29.731800
vt 52.143299 -29.733200
vt 52.149502 -29.723499
vt 52.169300 -29.594601
vt 51.857399 -28.349199
vt 51.857399 -28.268400
vt 51.833698 -28.276800
vt 51.881100 -28.276800
vt 51.833698 -28.354401
vt 51.881100 -28.354401
vt 51.836300 -28.312599
vt 51.857399 -28.266199
vt 51.833698 -28.274700
vt 51.825001 -28.294800
vt 51.857399 -28.318800
vt 51.878601 -28.312599
vt 51.881100 -28.274700
vt 51.889801 -28.294800
vt 52.056301 -29.102699
vt 51.959301 -28.855000
vt 51.946499 -28.860300
vt 52.106899 -29.240900
vt 52.069000 -29.097401
vt 52.120499 -29.238800
vt 51.972000 -28.849800
vt 52.081699 -29.092100
vt 52.134201 -29.236700
vt 51.878601 -28.486000
vt 51.857399 -28.544701
vt 51.878601 -28.550900
vt 51.857399 -28.481899
vt 51.836300 -28.486000
vt 51.836300 -28.550900
vt 51.881100 -28.588400
vt 51.889801 -28.568501
vt 51.857399 -28.596701
vt 51.833698 -28.588400
vt 51.825001 -28.568501
vt 41.983299 -3.313880
vt 41.983299 -3.418440
vt 42.000000 -3.315180
vt 42.000000 -3.419580
vt 41.983299 -3.539210
vt 42.016701 -3.418440
vt 42.016701 -3.313880
vt 42.016701 -3.539210
vt 42.000000 -3.539200
vt 42.000000 -3.661390
vt 42.016701 -3.662350
vt 41.983299 -3.662350
vt 41.931900 -2.668900
vt 42.068100 -2.668900
vt 42.060200 -2.649800
vt 42.145199 -2.564720
vt 42.164299 -2.572630
vt 41.939800 -2.649800
vt 42.052898 -2.632160
vt 42.127602 -2.557420
vt 42.145199 -2.444410
vt 42.164299 -2.436490
vt 41.854801 -2.564720
vt 42.060200 -2.359330
vt 42.068100 -2.340230
vt 41.931900 -2.340230
vt 41.939800 -2.359330
vt 41.835701 -2.436490
vt 41.854801 -2.444410
vt 41.835701 -2.572630
vt 41.872398 -2.451710
vt 41.983601 -2.655820
vt 41.983398 -2.772430
vt 42.000000 -2.656110
vt 42.016602 -2.772430
vt 42.016399 -2.655820
vt 42.000000 -2.775000
vt 42.016602 -2.933470
vt 41.983398 -2.933470
vt 42.000000 -2.936130
vt 41.947102 -2.632160
vt 41.872398 -2.557420
vt 42.127602 -2.451710
vt 42.052898 -2.376960
vt 41.947102 -2.376960
vt 41.872700 -2.931930
vt 41.852299 -3.071460
vt 41.872700 -3.068070
vt 41.852299 -2.928540
vt 41.831799 -2.931930
vt 41.831799 -3.068070
vt 41.871101 -2.947150
vt 41.871101 -2.872400
vt 41.852299 -2.879030
vt 41.871101 -3.052850
vt 41.852299 -2.949890
vt 41.852299 -3.120970
vt 41.871101 -3.127600
vt 41.852299 -3.050110
vt 41.833500 -2.947150
vt 41.833500 -3.052850
vt 41.833500 -3.127600
vt 41.833500 -2.872400
vt 42.131802 -3.016590
vt 42.092300 -3.000000
vt 42.099098 -3.016660
vt 42.115501 -3.023520
vt 42.138500 -3.000000
vt 42.131802 -2.983410
vt 42.099098 -2.983340
vt 42.115501 -2.976480
vt 41.862000 -3.415690
vt 41.868198 -3.307710
vt 41.845699 -3.412950
vt 41.884499 -3.310780
vt 41.878502 -3.418440
vt 41.900902 -3.313880
vt 41.864399 -3.539210
vt 41.847698 -3.539230
vt 41.865898 -3.662350
vt 41.849400 -3.664660
vt 41.831100 -3.539270
vt 41.833000 -3.666990
vt 42.147701 -2.433110
vt 42.147701 -2.332050
vt 42.127300 -2.340230
vt 42.168201 -2.340230
vt 42.127300 -2.436490
vt 42.168201 -2.436490
vt 42.127300 -2.572630
vt 42.168201 -2.572630
vt 42.147701 -2.576020
vt 42.168201 -2.668900
vt 42.127300 -2.668900
vt 42.045898 -2.927030
vt 42.098900 -2.759900
vt 42.030602 -2.920580
vt 42.114300 -2.766180
vt 42.131199 -2.654110
vt 42.061199 -2.933470
vt 42.147900 -2.655020
vt 42.129700 -2.772430
vt 42.164299 -2.655820
vt 42.147701 -2.554670
vt 42.128899 -2.451710
vt 42.128899 -2.557420
vt 42.128899 -2.632160
vt 42.147701 -2.625540
vt 42.166500 -2.557420
vt 42.147701 -2.454460
vt 42.166500 -2.451710
vt 42.147701 -2.383590
vt 42.166500 -2.376960
vt 42.000000 -3.539290
vt 42.016602 -3.666990
vt 42.016602 -3.539270
vt 42.016602 -3.412950
vt 42.000000 -3.667950
vt 41.983398 -3.666990
vt 42.000000 -3.411810
vt 42.016602 -3.307710
vt 42.000000 -3.306460
vt 41.983398 -3.307710
vt 41.983398 -3.412950
vt 41.983398 -3.539270
vt 42.000000 -2.757300
vt 42.016701 -2.654110
vt 42.000000 -2.653720
vt 41.983299 -2.654110
vt 42.016602 -2.759900
vt 41.983398 -2.759900
vt 42.000000 -2.917910
vt 42.016602 -2.920580
vt 41.983398 -2.920580
vt 41.865898 -3.016660
vt 41.826199 -3.000000
vt 41.833000 -3.016590
vt 41.849400 -3.023520
vt 41.872799 -3.000000
vt 41.865898 -2.983340
vt 41.833000 -2.983410
vt 41.849400 -2.976480
vt 42.127300 -2.931930
vt 42.127300 -3.068070
vt 42.147701 -3.071460
vt 42.147701 -2.928540
vt 42.168201 -3.068070
vt 42.147701 -3.172510
vt 42.168201 -2.931930
vt 42.147701 -2.827490
vt 42.061199 -3.016620
vt 42.024200 -3.000000
vt 42.030602 -3.016630
vt 42.045898 -3.023520
vt 42.067600 -3.000000
vt 42.061199 -2.983380
vt 42.030602 -2.983370
vt 42.045898 -2.976480
vt 42.166500 -3.052850
vt 42.147701 -3.120970
vt 42.166500 -3.127600
vt 42.128899 -3.127600
vt 42.147701 -3.050110
vt 42.128899 -3.052850
vt 42.128899 -2.947150
vt 42.147701 -2.949890
vt 42.147701 -2.879030
vt 42.128899 -2.872400
vt 42.166500 -2.947150
vt 42.166500 -2.872400
vt 42.121498 -3.418440
vt 42.115501 -3.310780
vt 42.099098 -3.313880
vt 42.138000 -3.415690
vt 42.135601 -3.539210
vt 42.131802 -3.307710
vt 42.134102 -3.662350
vt 42.152302 -3.539230
vt 42.150600 -3.664660
vt 42.154301 -3.412950
vt 42.168900 -3.539270
vt 42.167000 -3.666990
vt 41.831799 -2.668900
vt 41.852299 -2.576020
vt 41.831799 -2.572630
vt 41.852299 -2.433110
vt 41.831799 -2.436490
vt 41.872700 -2.572630
vt 41.872700 -2.668900
vt 41.872700 -2.436490
vt 41.852299 -2.332050
vt 41.831799 -2.340230
vt 41.872700 -2.340230
vt 41.901100 -2.759900
vt 41.954102 -2.927030
vt 41.969398 -2.920580
vt 41.885700 -2.766180
vt 41.868801 -2.654110
vt 41.938801 -2.933470
vt 41.852100 -2.655020
vt 41.870300 -2.772430
vt 41.835701 -2.655820
vt 41.871101 -2.451710
vt 41.852299 -2.554670
vt 41.871101 -2.557420
vt 41.852299 -2.625540
vt 41.871101 -2.632160
vt 41.833500 -2.632160
vt 41.833500 -2.451710
vt 41.833500 -2.557420
vt 41.852299 -2.454460
s 1
usemtl Meshpart1Mtl.002
f 3/1/1 1/2/2 2/3/3
f 1/2/2 3/1/1 4/4/4
f 4/4/4 3/1/1 5/5/5
f 3/1/1 2/3/3 6/6/6
f 7/7/7 5/5/5 3/1/1
f 3/1/1 8/8/8 7/7/7
f 9/9/9 3/1/1 6/6/6
f 8/8/8 3/1/1 9/9/9
f 10/10/10 13/11/11 11/12/12
f 13/11/11 10/10/10 15/13/13
f 12/14/14 15/13/13 14/15/15
f 15/13/13 12/14/14 13/11/11
f 16/16/16 18/17/17 17/18/16
f 18/17/17 16/16/16 19/19/18
f 19/19/18 20/20/19 18/17/17
f 20/20/19 19/19/18 21/21/20
f 22/22/21 23/23/22 24/24/23
f 23/23/22 25/25/24 26/26/25
f 26/26/25 24/24/23 23/23/22
f 27/27/26 26/26/25 25/25/24
f 28/28/27 26/26/25 27/27/26
f 29/29/28 24/24/23 26/26/25
f 26/26/25 28/28/27 29/29/28
f 24/24/23 29/29/28 30/30/29
f 31/31/30 34/32/31 32/33/30
f 34/32/31 31/31/30 36/34/32
f 33/35/33 36/34/32 35/36/33
f 36/34/32 33/35/33 34/32/31
f 37/37/34 40/38/35 38/39/36
f 40/38/35 37/37/34 42/40/37
f 39/41/38 42/40/37 41/42/38
f 42/40/37 39/41/38 40/38/35
f 43/43/39 45/44/40 44/45/41
f 45/44/40 43/43/39 46/46/42
f 45/44/40 46/46/42 47/47/10
f 45/44/40 47/47/10 48/48/43
f 49/49/44 50/50/44 51/51/44
f 49/49/44 52/52/45 50/50/44
f 53/53/46 52/52/45 49/49/44
f 52/52/45 53/53/46 54/54/44
f 54/54/44 55/55/44 52/52/45
f 55/55/44 54/54/44 56/56/44
f 57/57/47 58/58/48 59/59/49
f 57/57/47 59/59/49 60/60/47
f 61/61/47 58/58/48 57/57/47
f 58/58/48 61/61/47 62/62/49
f 62/62/49 63/63/47 58/58/48
f 63/63/47 62/62/49 64/64/47
f 65/65/50 67/61/51 66/57/52
f 67/61/51 65/65/50 68/66/51
f 67/61/51 68/66/51 69/67/53
f 69/67/53 70/62/54 67/61/51
f 71/68/55 72/69/56 73/70/57
f 74/71/58 73/70/57 72/69/56
f 72/69/56 75/72/59 74/71/58
f 75/72/59 72/69/56 76/73/60
f 77/74/61 76/73/60 72/69/56
f 72/69/56 78/75/62 77/74/61
f 79/76/63 78/75/62 71/68/55
f 72/69/56 71/68/55 78/75/62
f 84/77/64 80/78/65 82/79/66
f 81/80/67 84/77/64 83/81/67
f 80/78/65 84/77/64 85/82/64
f 84/77/64 81/80/67 85/82/64
f 86/79/68 87/83/68 88/77/68
f 87/83/68 89/81/69 88/77/68
f 87/83/68 86/79/68 90/84/68
f 90/84/68 86/79/68 91/85/69
f 89/81/69 87/83/68 92/86/68
f 89/81/69 92/86/68 93/87/69
f 96/88/70 95/89/71 94/90/72
f 95/89/71 96/88/70 97/91/73
f 98/92/74 97/91/73 96/88/70
f 97/91/73 99/93/75 95/89/71
f 99/93/75 97/91/73 100/94/76
f 97/91/73 98/92/74 101/95/77
f 100/94/76 101/95/77 102/96/78
f 101/95/77 100/94/76 97/91/73
f 103/97/79 105/98/64 104/99/80
f 105/98/64 103/97/79 106/100/81
f 105/98/64 106/100/81 107/101/82
f 107/101/82 108/102/83 105/98/64
f 109/103/84 110/104/85 111/105/86
f 109/103/84 111/105/86 112/106/84
f 113/107/85 110/104/85 109/103/84
f 110/104/85 113/107/85 114/108/85
f 114/108/85 115/109/85 110/104/85
f 115/109/85 114/108/85 116/110/85
f 120/111/87 122/112/88 121/113/89
f 119/114/90 123/115/91 120/111/87
f 123/115/91 119/114/90 118/116/92
f 122/112/88 120/111/87 123/115/91
f 117/117/61 123/115/91 118/116/92
f 124/118/93 122/112/88 123/115/91
f 123/115/91 117/117/61 124/118/93
f 122/112/88 124/118/93 125/119/94
f 126/120/95 127/121/96 128/122/97
f 128/122/97 129/123/98 126/120/95
f 127/121/96 126/120/95 130/124/99
f 130/124/99 131/125/100 127/121/96
f 132/126/101 133/127/101 134/128/102
f 134/128/102 135/129/103 132/126/101
f 135/129/103 134/128/102 136/130/104
f 136/130/104 137/131/104 135/129/103
f 142/132/105 140/133/106 141/134/107
f 143/135/108 139/136/109 140/133/106
f 140/133/106 142/132/105 143/135/108
f 139/136/109 143/135/108 144/137/110
f 143/135/108 138/138/111 144/137/110
f 142/132/105 145/139/77 143/135/108
f 138/138/111 143/135/108 145/139/77
f 145/139/77 142/132/105 146/140/112
f 147/141/113 148/142/114 149/143/115
f 148/142/114 147/141/113 150/144/113
f 151/145/116 149/143/115 148/142/114
f 149/143/115 151/145/116 152/146/116
f 153/147/117 154/148/118 155/149/119
f 154/148/118 153/147/117 156/150/117
f 157/151/120 155/149/119 154/148/118
f 155/149/119 157/151/120 158/152/121
f 161/153/61 159/154/122 160/155/123
f 159/154/122 161/153/61 163/156/124
f 163/156/124 161/153/61 165/157/92
f 163/156/124 165/157/92 162/158/125
f 162/158/125 166/159/90 164/160/126
f 162/158/125 165/157/92 166/159/90
f 167/161/127 169/162/128 168/163/129
f 169/162/128 167/161/127 170/164/130
f 171/165/131 169/162/128 170/164/130
f 169/162/128 171/165/131 172/166/132
f 173/167/133 175/168/134 174/169/133
f 175/168/134 173/167/133 176/170/135
f 175/168/134 176/170/135 177/171/136
f 177/171/136 178/172/137 175/168/134
f 179/163/138 180/173/138 181/174/138
f 179/163/138 182/175/139 180/173/138
f 183/162/138 182/175/139 179/163/138
f 182/175/139 183/162/138 184/166/140
f 184/166/140 185/176/140 182/175/139
f 185/176/140 184/166/140 186/177/138
f 187/178/141 188/179/141 189/180/142
f 188/179/141 190/181/141 189/180/142
f 188/179/141 187/178/141 191/182/141
f 191/182/141 187/178/141 192/183/141
f 190/181/141 188/179/141 193/184/141
f 190/181/141 193/184/141 194/185/143
f 197/186/144 195/187/5 196/188/145
f 195/187/5 197/186/144 198/189/146
f 196/188/145 199/190/147 197/186/144
f 197/186/144 199/190/147 200/191/126
f 201/192/90 197/186/144 200/191/126
f 202/193/148 198/189/146 197/186/144
f 197/186/144 201/192/90 202/193/148
f 198/189/146 202/193/148 203/194/149
f 204/195/150 205/196/151 206/197/16
f 204/195/150 207/198/152 205/196/151
f 206/197/16 208/199/16 204/195/150
f 207/198/152 204/195/150 209/200/153
f 210/201/154 211/202/155 212/203/156
f 210/201/154 212/203/156 213/204/154
f 214/205/155 211/202/155 210/201/154
f 211/202/155 214/205/155 215/206/154
f 215/206/154 216/207/155 211/202/155
f 216/207/155 215/206/154 217/208/155
f 219/209/157 221/210/158 220/211/29
f 218/212/159 222/213/160 219/209/157
f 221/210/158 219/209/157 222/213/160
f 222/213/160 218/212/159 223/214/161
f 222/213/160 224/215/109 221/210/158
f 223/214/161 225/216/162 222/213/160
f 224/215/109 222/213/160 225/216/162
f 225/216/162 223/214/161 226/217/163
f 227/218/164 229/219/165 228/220/164
f 229/219/165 227/218/164 230/221/166
f 231/222/167 229/219/165 230/221/166
f 229/219/165 231/222/167 232/223/168
f 233/220/169 234/224/170 235/225/170
f 233/220/169 236/226/170 234/224/170
f 237/219/170 236/226/170 233/220/169
f 236/226/170 237/219/170 238/223/169
f 238/223/169 239/227/170 236/226/170
f 239/227/170 238/223/169 240/228/169
usemtl Meshpart2Mtl.002
f 242/229/171 241/230/172 243/231/173
f 245/232/174 243/231/173 241/230/172
f 241/230/172 244/233/175 245/232/174
f 246/234/176 243/231/173 245/232/174
f 243/231/173 246/234/176 247/235/177
f 245/232/174 248/236/178 246/234/176
f 248/236/178 245/232/174 249/237/179
f 249/237/179 245/232/174 244/233/175
f 249/237/179 250/238/180 248/236/178
f 244/233/175 250/238/180 249/237/179
f 251/239/181 248/236/178 250/238/180
f 250/238/180 244/233/175 252/240/182
f 254/241/183 253/242/184 256/243/185
f 253/242/184 257/244/186 256/243/185
f 257/244/186 253/242/184 255/245/187
f 254/241/183 256/243/185 258/246/188
f 257/244/186 259/247/189 256/243/185
f 258/246/188 256/243/185 259/247/189
f 259/247/189 257/244/186 260/248/190
f 255/245/187 261/249/191 257/244/186
f 261/249/191 260/248/190 257/244/186
f 255/245/187 262/250/192 261/249/191
f 263/251/193 254/241/183 258/246/188
f 264/252/194 261/249/191 262/250/192
f 262/250/192 265/253/195 264/252/194
f 265/253/195 266/254/196 267/255/197
f 265/253/195 267/255/197 264/252/194
f 268/256/198 267/255/197 266/254/196
f 267/255/197 268/256/198 269/257/199
f 270/258/200 269/257/199 268/256/198
f 254/241/183 263/251/193 270/258/200
f 269/257/199 270/258/200 263/251/193
f 267/255/197 269/257/199 271/259/201
f 263/251/193 271/259/201 269/257/199
f 275/260/202 274/261/203 276/262/204
f 276/262/204 277/263/205 278/264/206
f 279/265/207 273/266/208 277/263/205
f 277/263/205 276/262/204 279/265/207
f 279/265/207 276/262/204 274/261/203
f 274/261/203 272/267/209 279/265/207
f 273/266/208 279/265/207 280/268/210
f 280/268/210 279/265/207 272/267/209
f 258/246/188 259/247/189 281/269/211
f 282/270/212 258/246/188 281/269/211
f 258/246/188 282/270/212 263/251/193
f 271/259/201 263/251/193 282/270/212
f 260/248/190 261/249/191 283/271/213
f 264/252/194 283/271/213 261/249/191
f 283/271/213 264/252/194 284/272/214
f 264/252/194 285/273/215 284/272/214
f 267/255/197 271/259/201 285/273/215
f 264/252/194 267/255/197 285/273/215
f 291/274/216 288/275/217 290/276/218
f 288/275/217 291/274/216 292/277/219
f 293/278/196 288/275/217 292/277/219
f 288/275/217 293/278/196 289/279/220
f 295/280/221 294/281/222 296/282/223
f 298/283/224 295/280/225 299/284/217
f 298/283/226 300/285/227 297/286/228
f 299/284/217 301/287/229 298/283/224
f 301/287/229 299/284/217 302/288/230
f 302/288/230 286/289/231 301/287/229
f 287/290/232 301/287/229 286/289/231
f 302/288/233 296/282/234 303/291/235
f 304/292/236 305/293/236 306/294/237
f 304/292/236 306/294/237 307/295/236
f 308/296/236 305/293/236 304/292/236
f 309/297/236 305/293/236 308/296/236
f 305/293/236 309/297/236 310/298/237
f 310/298/237 309/297/236 311/299/238
f 312/300/239 313/301/240 314/302/241
f 313/301/240 312/300/239 315/303/242
f 316/304/243 315/303/242 312/300/239
f 315/303/242 316/304/243 317/305/244
f 312/300/239 318/306/245 316/304/243
f 320/307/239 319/308/246 318/306/245
f 318/306/245 312/300/239 320/307/239
f 319/308/246 320/307/239 321/309/247
f 314/302/241 320/307/239 312/300/239
f 322/310/248 321/309/247 320/307/239
f 320/307/239 314/302/241 322/310/248
f 321/309/247 322/310/248 323/311/249
f 332/312/250 329/313/251 328/314/252
f 332/312/250 331/315/253 329/313/251
f 328/314/252 333/316/254 332/312/250
f 331/315/253 332/312/250 334/317/255
f 335/318/256 332/312/250 333/316/254
f 336/319/257 334/317/255 332/312/250
f 332/312/250 326/320/258 336/319/257
f 332/312/250 335/318/256 326/320/258
f 325/321/259 336/319/257 326/320/258
f 324/322/260 326/320/258 335/318/256
f 340/323/261 338/324/262 339/325/263
f 338/324/262 340/323/261 341/326/264
f 341/326/264 337/327/265 338/324/262
f 342/328/266 341/326/264 340/323/261
f 337/327/265 341/326/264 343/329/267
f 344/330/268 343/329/267 341/326/264
f 341/326/264 342/328/266 344/330/268
f 343/329/267 344/330/268 345/331/269
f 348/332/270 330/333/271 346/334/272
f 348/332/270 347/335/273 349/336/219
f 349/336/219 327/337/274 348/332/270
f 327/337/274 350/338/275 348/332/270
f 330/333/271 348/332/270 350/338/275
f 350/338/275 327/337/274 351/339/276
f 353/340/277 330/333/271 350/338/275
f 350/338/275 352/341/278 353/340/277
f 359/342/279 358/343/280 357/344/281
f 355/345/282 359/342/279 357/344/281
f 358/343/280 359/342/279 360/346/283
f 359/342/279 361/347/284 360/346/283
f 359/342/279 355/345/282 362/348/285
f 354/349/286 362/348/285 355/345/282
f 362/348/285 354/349/286 363/350/287
f 356/351/288 362/348/285 363/350/287
f 362/348/285 356/351/288 364/352/289
f 364/352/289 359/342/279 362/348/285
f 359/342/279 364/352/289 365/353/290
f 361/347/284 359/342/279 365/353/290
f 367/241/291 370/251/292 368/258/293
f 368/258/293 371/257/294 369/256/295
f 371/257/294 368/258/293 370/251/292
f 372/255/296 369/256/295 371/257/294
f 369/256/295 372/255/296 373/254/297
f 372/255/296 374/253/298 373/254/297
f 372/255/296 371/257/294 375/259/299
f 374/253/298 372/255/296 376/252/300
f 377/250/301 374/253/298 376/252/300
f 378/245/302 377/250/301 379/249/303
f 376/252/300 379/249/303 377/250/301
f 380/244/304 366/242/305 378/245/302
f 378/245/302 379/249/303 380/244/304
f 381/354/306 382/355/307 383/356/308
f 384/357/309 381/354/306 383/356/308
f 382/355/307 381/354/306 385/358/310
f 381/354/306 384/357/309 386/359/311
f 387/360/312 385/358/310 381/354/306
f 386/359/311 387/360/312 381/354/306
f 385/358/310 387/360/312 388/361/313
f 387/360/312 386/359/311 389/362/314
f 376/252/300 390/271/315 379/249/303
f 380/244/304 379/249/303 390/271/315
f 366/242/305 380/244/304 391/243/316
f 367/241/291 366/242/305 391/243/316
f 392/248/317 391/243/316 380/244/304
f 380/244/304 390/271/315 392/248/317
f 391/243/316 393/246/318 367/241/291
f 370/251/292 367/241/291 393/246/318
f 391/243/316 392/248/317 394/247/319
f 393/246/318 391/243/316 394/247/319
f 393/246/318 395/270/320 370/251/292
f 371/257/294 370/251/292 395/270/320
f 394/247/319 396/269/321 393/246/318
f 395/270/320 393/246/318 396/269/321
f 371/257/294 395/270/320 375/259/299
f 375/259/299 397/273/322 372/255/296
f 397/273/322 376/252/300 372/255/296
f 376/252/300 397/273/322 398/272/323
f 390/271/315 376/252/300 398/272/323
f 399/363/324 400/364/325 401/365/324
f 399/363/324 401/365/324 402/366/325
f 403/367/324 400/364/325 399/363/324
f 404/368/325 400/364/325 403/367/324
f 400/364/325 404/368/325 405/369/325
f 405/369/325 404/368/325 406/370/324
f 407/371/326 408/372/327 409/373/328
f 409/373/328 410/374/329 407/371/326
f 410/374/329 409/373/328 411/375/330
f 412/376/331 409/373/328 408/372/327
f 412/376/331 411/375/330 409/373/328
f 411/375/330 413/377/259 410/374/329
f 414/378/332 410/374/329 413/377/259
f 414/378/332 407/371/326 410/374/329
f 417/379/333 418/380/334 419/381/334
f 417/379/333 419/381/334 420/382/334
f 421/383/335 418/380/334 417/379/333
f 422/384/336 418/380/334 421/383/335
f 418/380/334 422/384/336 423/385/337
f 423/385/337 422/384/336 424/386/338
f 428/387/339 426/388/258 427/389/340
f 415/390/341 429/391/342 430/392/343
f 429/391/342 431/393/344 430/392/343
f 428/387/345 432/394/346 429/391/342
f 431/393/344 429/391/342 432/394/346
f 431/393/344 433/395/331 425/396/347
f 433/395/331 431/393/344 432/394/346
f 434/397/348 433/395/331 432/394/346
f 434/397/348 416/398/201 433/395/331
f 432/394/346 428/387/345 434/397/348
f 435/399/349 437/400/350 436/401/351
f 437/400/350 435/399/349 439/402/352
f 438/403/353 439/402/352 435/399/349
f 439/402/352 440/404/354 437/400/350
f 441/405/355 442/406/352 438/403/353
f 439/402/352 438/403/353 442/406/352
f 442/406/352 441/405/355 443/407/356
f 440/404/354 439/402/352 445/408/357
f 442/406/352 445/408/357 439/402/352
f 445/408/357 442/406/352 446/409/358
f 443/407/356 446/409/358 442/406/352
f 446/409/358 443/407/356 444/410/359
f 448/411/360 449/412/361 450/413/362
f 452/414/363 450/413/362 449/412/361
f 450/413/362 452/414/363 451/415/364
f 452/414/363 449/412/361 453/416/365
f 447/417/366 453/416/365 449/412/361
f 453/416/365 454/418/367 452/414/363
f 455/419/368 451/415/364 452/414/363
f 454/418/367 455/419/368 452/414/363
f 451/415/364 455/419/368 456/420/369
f 455/419/368 454/418/367 457/421/218
f 460/422/370 462/423/371 461/424/372
f 462/423/371 460/422/370 463/425/373
f 459/426/374 463/425/373 460/422/370
f 463/425/373 464/427/375 462/423/371
f 465/428/376 463/425/373 459/426/374
f 465/428/376 466/429/377 463/425/373
f 464/427/375 463/425/373 466/429/377
f 467/430/378 466/429/377 465/428/376
f 468/431/379 471/432/380 469/433/381
f 471/432/382 472/434/368 470/435/383
f 471/432/382 473/436/384 472/434/368
f 471/432/380 458/437/385 474/438/386
f 471/432/380 468/431/379 475/439/361
f 458/437/385 471/432/380 475/439/361
