# Blender 5.2.0 LTS
# www.blender.org
mtllib lifeguardwhistlewrapsplit.mtl
o brah
v 0.202792 -0.156554 0.096337
v 0.146685 -0.190814 0.096337
v 0.146685 -0.190814 -0.084922
v 0.202792 -0.156554 -0.084922
v 0.146685 -0.190814 -0.084922
v 0.202792 -0.156554 -0.084922
v 0.146685 -0.122284 -0.084922
v 0.223744 -0.461204 -0.107542
v 0.223744 -0.461204 0.118948
v 0.193501 -0.439164 0.005708
v 0.209925 -0.461204 0.133768
v 0.209925 -0.461204 -0.122352
v 0.199673 -0.461204 0.133768
v 0.199673 -0.461204 -0.122352
v 0.173431 -0.461204 0.133768
v 0.173431 -0.461204 -0.122352
v 0.160730 -0.461204 0.118948
v 0.160730 -0.461204 -0.107542
v 0.146685 -0.122284 0.096337
v 0.202792 -0.156554 0.096337
v 0.202792 -0.156554 -0.084922
v 0.146685 -0.122284 -0.084922
v 0.146685 -0.122284 0.096337
v 0.202792 -0.156554 0.096337
v 0.146685 -0.190814 0.096337
vn -0.8019 -0.0000 -0.5975
vn -0.4477 0.7332 0.5119
vn -0.4489 0.7324 -0.5119
vn -0.8019 -0.0000 0.5975
vn -0.4489 -0.7324 0.5119
vn -0.4489 0.7324 0.5119
vn -0.2125 -0.9680 0.1338
vn -0.2125 -0.9680 -0.1338
vn -0.0157 -0.9999 -0.0000
vn -0.0551 -0.9847 -0.1654
vn -0.0552 -0.9847 0.1654
vn -0.0000 -0.9849 -0.1733
vn -0.0000 -0.9849 0.1733
vn 0.0631 -0.9855 -0.1577
vn 0.0631 -0.9855 0.1577
vn 0.2127 -0.9689 -0.1260
vn 0.2127 -0.9690 0.1260
vn -0.4478 -0.7331 -0.5119
vn -0.4489 -0.7324 -0.5119
vn -0.8019 -0.0000 -0.5974
vt 13.997800 -16.988701
vt 14.004800 -17.011299
vt 14.004800 -16.988701
vt 13.997800 -17.011299
vt 13.995200 -16.978800
vt 13.995200 -16.987400
vt 14.002200 -16.983101
vt 14.004800 -17.014200
vt 14.004800 -16.985800
vt 14.001000 -17.000000
vt 14.003100 -16.983999
vt 14.003100 -17.016001
vt 14.001800 -16.983999
vt 14.001800 -17.016001
vt 13.998500 -16.983999
vt 13.998500 -17.016001
vt 13.996900 -16.985800
vt 13.996900 -17.014200
vt 14.002200 -17.011299
vt 14.002200 -16.988701
vt 13.995200 -16.988701
vt 13.995200 -17.011299
vt 14.004800 -16.978800
vt 13.997800 -16.983101
vt 14.004800 -16.987400
s 1
usemtl Meshpart1Mtl.008
f 1/1/1 3/2/2 2/3/3
f 3/2/2 1/1/1 4/4/4
f 7/5/5 5/6/6 6/7/4
f 8/8/7 9/9/8 10/10/9
f 9/9/8 11/11/10 10/10/9
f 12/12/11 8/8/7 10/10/9
f 11/11/10 13/13/12 10/10/9
f 14/14/13 12/12/11 10/10/9
f 13/13/12 15/15/14 10/10/9
f 16/16/15 14/14/13 10/10/9
f 15/15/14 17/17/16 10/10/9
f 18/18/17 16/16/15 10/10/9
f 17/17/16 18/18/17 10/10/9
f 21/19/4 20/20/1 19/21/18
f 19/21/18 22/22/5 21/19/4
f 23/23/19 24/24/20 25/25/3
o hospital
v 0.138330 -0.241659 -0.028753
v 0.138330 -0.241659 0.028747
v 0.164303 -0.241659 -0.028753
v 0.164303 -0.241659 0.028747
v 0.138330 -0.302779 0.025877
v 0.138330 -0.299659 0.086247
v 0.164303 -0.302779 0.025877
v 0.164303 -0.299659 0.086247
v 0.138330 -0.299659 -0.086243
v 0.138330 -0.302779 -0.025873
v 0.164303 -0.299659 -0.086243
v 0.164303 -0.302779 -0.025873
v 0.164303 -0.362039 0.086247
v 0.164303 -0.299659 0.086247
v 0.138330 -0.362039 0.086247
v 0.138330 -0.299659 0.086247
v 0.164303 -0.241659 0.028747
v 0.138330 -0.302779 0.025877
v 0.164303 -0.302779 0.025877
v 0.138330 -0.241659 0.028747
v 0.164303 -0.420039 0.028747
v 0.164303 -0.358919 0.025877
v 0.138330 -0.420039 0.028747
v 0.138330 -0.358919 0.025877
v 0.138330 -0.299659 -0.086243
v 0.138330 -0.358919 -0.025873
v 0.138330 -0.302779 -0.025873
v 0.138330 -0.362039 -0.086243
v 0.138330 -0.420039 -0.028753
v 0.138330 -0.420039 0.028747
v 0.138330 -0.358919 0.025877
v 0.138330 -0.302779 0.025877
v 0.138330 -0.241659 -0.028753
v 0.138330 -0.241659 0.028747
v 0.138330 -0.299659 0.086247
v 0.138330 -0.362039 0.086247
v 0.164303 -0.420039 -0.028753
v 0.164303 -0.420039 0.028747
v 0.138330 -0.420039 -0.028753
v 0.138330 -0.420039 0.028747
v 0.164303 -0.362039 -0.086243
v 0.164303 -0.358919 -0.025873
v 0.138330 -0.362039 -0.086243
v 0.138330 -0.358919 -0.025873
v 0.164303 -0.358919 0.025877
v 0.164303 -0.362039 0.086247
v 0.138330 -0.358919 0.025877
v 0.138330 -0.362039 0.086247
v 0.164303 -0.299659 -0.086243
v 0.164303 -0.362039 -0.086243
v 0.138330 -0.299659 -0.086243
v 0.138330 -0.362039 -0.086243
v 0.164303 -0.420039 -0.028753
v 0.138330 -0.358919 -0.025873
v 0.164303 -0.358919 -0.025873
v 0.138330 -0.420039 -0.028753
v 0.164303 -0.241659 -0.028753
v 0.164303 -0.302779 -0.025873
v 0.138330 -0.241659 -0.028753
v 0.138330 -0.302779 -0.025873
vn -0.0000 1.0000 -0.0000
vn -0.0000 0.9985 -0.0550
vn -0.0000 0.9985 0.0550
vn -0.0000 0.9985 0.0551
vn -0.0000 -0.0000 1.0000
vn -0.0000 -0.0469 0.9989
vn -0.0000 -0.0472 0.9989
vn -0.0000 0.0472 0.9989
vn -0.0000 0.0469 0.9989
vn -1.0000 -0.0000 -0.0000
vn -0.0000 -1.0000 -0.0000
vn -0.0000 -0.9985 0.0550
vn -0.0000 -0.9985 -0.0550
vn -0.0000 -0.0000 -1.0000
vn -0.0000 0.0471 -0.9989
vn -0.0000 -0.0471 -0.9989
vt 32.001598 -7.003590
vt 32.001598 -6.996410
vt 31.998400 -7.003590
vt 31.998400 -6.996410
vt 32.001598 -6.996770
vt 32.001598 -6.989220
vt 31.998400 -6.996770
vt 31.998400 -6.989220
vt 32.001598 -7.010780
vt 32.001598 -7.003230
vt 31.998400 -7.010780
vt 31.998400 -7.003230
vt 32.001598 -7.003900
vt 32.001598 -6.996100
vt 31.998400 -7.003900
vt 31.998400 -6.996100
vt 32.001598 -6.988850
vt 31.998400 -6.996490
vt 32.001598 -6.996490
vt 31.998400 -6.988850
vt 32.001598 -7.011150
vt 32.001598 -7.003510
vt 31.998400 -7.011150
vt 31.998400 -7.003510
vt 31.989201 -6.996100
vt 31.996799 -7.003510
vt 31.996799 -6.996490
vt 31.989201 -7.003900
vt 31.996401 -7.011150
vt 32.003601 -7.011150
vt 32.003201 -7.003510
vt 32.003201 -6.996490
vt 31.996401 -6.988850
vt 32.003601 -6.988850
vt 32.010799 -6.996100
vt 32.010799 -7.003900
s 1
usemtl Meshpart1Mtl.009
f 26/26/21 27/27/21 28/28/21
f 28/28/21 27/27/21 29/29/21
f 30/30/22 31/31/22 32/32/22
f 32/32/22 31/31/22 33/33/22
f 34/34/23 35/35/23 36/36/23
f 36/36/23 35/35/23 37/37/24
f 38/38/25 39/39/25 40/40/25
f 40/40/25 39/39/25 41/41/25
f 42/42/26 43/43/26 44/44/27
f 43/43/26 42/42/26 45/45/26
f 46/46/28 47/47/29 48/48/29
f 48/48/29 47/47/29 49/49/29
f 50/50/30 51/51/30 52/52/30
f 51/51/30 50/50/30 53/53/30
f 51/51/30 54/54/30 55/55/30
f 56/56/30 51/51/30 55/55/30
f 51/51/30 56/56/30 52/52/30
f 52/52/30 56/56/30 57/57/30
f 57/57/30 58/58/30 52/52/30
f 58/58/30 57/57/30 59/59/30
f 56/56/30 60/60/30 57/57/30
f 60/60/30 56/56/30 61/61/30
f 62/26/31 63/27/31 64/28/31
f 64/28/31 63/27/31 65/29/31
f 66/34/32 67/35/32 68/36/32
f 68/36/32 67/35/32 69/37/32
f 70/30/33 71/31/33 72/32/33
f 72/32/33 71/31/33 73/33/33
f 74/41/34 75/40/34 76/39/34
f 76/39/34 75/40/34 77/38/34
f 78/48/35 79/47/35 80/49/35
f 79/47/35 78/48/35 81/46/35
f 82/45/36 83/43/36 84/42/36
f 84/42/36 83/43/36 85/44/36
o vircle
v 0.359503 0.128670 0.000001
v 0.359905 0.143100 0.111481
v 0.359503 0.254580 0.125911
v 0.359905 0.366060 0.111481
v 0.359905 0.254580 0.157651
v 0.359503 0.343610 0.089031
v 0.359503 0.380490 0.000001
v 0.359905 0.412230 0.000001
v 0.359503 0.165550 0.089031
v 0.359905 0.096930 0.000001
v 0.359905 0.143100 -0.111479
v 0.359503 0.165550 -0.089039
v 0.359905 0.254580 -0.157659
v 0.359503 0.254580 -0.125909
v 0.359905 0.366060 -0.111479
v 0.359503 0.343610 -0.089029
v 0.305073 0.165550 0.089031
v 0.305073 0.128670 0.000001
v 0.332288 0.176460 0.078121
v 0.332288 0.144100 0.000001
v 0.332288 0.176460 -0.078119
v 0.359503 0.128670 0.000001
v 0.304671 0.366060 0.111481
v 0.332288 0.377470 0.122891
v 0.332288 0.428370 0.000001
v 0.304671 0.412230 0.000001
v 0.359905 0.366060 0.111481
v 0.359905 0.412230 0.000001
v 0.359503 0.165550 0.089031
v 0.359503 0.165550 -0.089039
v 0.359905 0.366060 -0.111479
v 0.332288 0.377470 -0.122889
v 0.304671 0.366060 -0.111479
v 0.305073 0.165550 -0.089039
v 0.304671 0.143100 0.111481
v 0.304671 0.254580 0.157651
v 0.332288 0.176460 -0.078119
v 0.332288 0.254580 0.173791
v 0.332288 0.131690 0.122891
v 0.304671 0.366060 0.111481
v 0.359905 0.143100 0.111481
v 0.332288 0.377470 0.122891
v 0.359905 0.366060 0.111481
v 0.359905 0.254580 0.157651
v 0.359503 0.165550 -0.089039
v 0.359503 0.254580 -0.125909
v 0.332288 0.254580 -0.110478
v 0.305073 0.254580 -0.125909
v 0.332288 0.332700 -0.078119
v 0.359503 0.343610 -0.089029
v 0.305073 0.343610 -0.089029
v 0.305073 0.165550 -0.089039
v 0.304671 0.143100 0.111481
v 0.304671 0.096930 0.000001
v 0.304671 0.143100 -0.111479
v 0.305073 0.165550 0.089031
v 0.305073 0.128670 0.000001
v 0.305073 0.254580 0.125911
v 0.304671 0.254580 0.157651
v 0.304671 0.366060 0.111481
v 0.305073 0.343610 0.089031
v 0.305073 0.380490 0.000001
v 0.304671 0.412230 0.000001
v 0.305073 0.254580 -0.125909
v 0.305073 0.343610 -0.089029
v 0.304671 0.366060 -0.111479
v 0.304671 0.254580 -0.157659
v 0.305073 0.165550 -0.089039
v 0.304671 0.143100 0.111481
v 0.304671 0.096930 0.000001
v 0.332288 0.080790 0.000001
v 0.304671 0.143100 -0.111479
v 0.332288 0.131690 0.122891
v 0.359905 0.143100 0.111481
v 0.332288 0.332700 0.078121
v 0.305073 0.343610 0.089031
v 0.305073 0.380490 0.000001
v 0.359503 0.343610 0.089031
v 0.359503 0.380490 0.000001
v 0.359905 0.096930 0.000001
v 0.359905 0.143100 -0.111479
v 0.332288 0.131690 -0.122889
v 0.332288 0.332700 -0.078119
v 0.359503 0.343610 -0.089029
v 0.332288 0.365060 0.000001
v 0.305073 0.343610 -0.089029
v 0.304671 0.143100 -0.111479
v 0.305073 0.165550 0.089031
v 0.305073 0.254580 0.125911
v 0.332288 0.176460 0.078121
v 0.332288 0.254580 0.110482
v 0.359503 0.254580 0.125911
v 0.332288 0.332700 0.078121
v 0.305073 0.343610 0.089031
v 0.359503 0.343610 0.089031
v 0.359503 0.165550 0.089031
v 0.359905 0.143100 -0.111479
v 0.332288 0.131690 -0.122889
v 0.332288 0.254580 -0.173799
v 0.359905 0.254580 -0.157659
v 0.359905 0.366060 -0.111479
v 0.332288 0.377470 -0.122889
v 0.304671 0.366060 -0.111479
v 0.304671 0.254580 -0.157659
vn 0.8165 -0.4082 0.4083
vn 0.9154 -0.0000 -0.4024
vn 0.8185 -0.0000 0.5745
vn 0.8165 0.4083 0.4082
vn 0.9157 -0.2842 -0.2842
vn 0.9154 -0.4024 -0.0000
vn 0.8185 0.5745 -0.0000
vn 0.9157 0.2842 -0.2841
vn 0.8185 -0.5745 -0.0000
vn 0.9154 0.4025 -0.0000
vn 0.8165 -0.4083 -0.4083
vn 0.9157 0.2841 0.2842
vn 0.8185 -0.0000 -0.5745
vn 0.9154 -0.0000 0.4025
vn 0.8165 0.4083 -0.4083
vn 0.9157 -0.2842 0.2841
vn -0.9154 0.4025 -0.0000
vn -0.9157 0.2842 -0.2842
vn -0.0000 0.7071 -0.7071
vn -0.0000 1.0000 -0.0000
vn -0.0000 0.7071 0.7071
vn -0.8165 0.4082 0.4083
vn -0.8185 0.5745 -0.0000
vn 0.8165 0.4082 0.4083
vn 0.9157 0.2841 -0.2842
vn 0.9157 0.2842 0.2841
vn 0.8165 0.4082 -0.4083
vn -0.8165 0.4082 -0.4083
vn -0.9157 0.2841 0.2842
vn -0.8165 -0.4083 0.4082
vn -0.0000 -0.0000 1.0000
vn -0.8185 -0.0000 0.5745
vn -0.0000 -0.7071 0.7071
vn -0.8165 0.4083 0.4082
vn 0.8165 -0.4083 0.4082
vn 0.9154 -0.0000 0.4024
vn -0.9154 -0.0000 0.4024
vn 0.9157 -0.2841 0.2842
vn -0.9157 -0.2842 0.2841
vn -0.9157 0.2841 0.2841
vn -0.8185 -0.5745 -0.0000
vn -0.9157 0.2841 -0.2842
vn -0.8165 -0.4083 -0.4083
vn -0.9154 -0.0000 -0.4024
vn -0.9157 -0.2842 -0.2841
vn -0.9154 -0.4024 -0.0000
vn -0.8165 0.4083 -0.4083
vn -0.9157 -0.2842 0.2842
vn -0.9154 -0.0000 0.4025
vn -0.8185 -0.0000 -0.5745
vn -0.9157 0.2842 0.2841
vn -0.8165 -0.4082 0.4083
vn -0.0000 -1.0000 -0.0000
vn -0.8165 -0.4082 -0.4083
vn -0.0000 -0.7071 -0.7071
vn -0.9157 -0.2841 -0.2842
vn 0.9157 -0.2842 -0.2841
vn 0.8165 -0.4082 -0.4083
vn -0.9157 -0.2841 0.2841
vn -0.9157 0.2842 -0.2841
vn -0.0000 -0.0000 -1.0000
vn 0.8165 -0.4083 -0.4082
vn -0.8165 -0.4083 -0.4082
vn 0.8165 0.4083 -0.4082
vn -0.8165 0.4082 -0.4082
vt 55.986099 -1.013930
vt 55.984299 -1.000000
vt 55.980301 -1.000000
vt 55.986099 -0.986065
vt 55.988899 -0.988871
vt 56.000000 -0.984261
vt 56.000000 -0.980293
vt 55.988899 -1.011130
vt 56.000000 -1.019710
vt 56.000000 -1.015740
vt 56.013901 -1.013930
vt 56.011101 -1.011130
vt 56.019699 -1.000000
vt 56.015701 -1.000000
vt 56.013901 -0.986065
vt 56.011101 -0.988871
vt 56.003399 -1.000000
vt 56.003399 -0.988871
vt 56.000000 -0.990235
vt 56.000000 -1.000000
vt 56.000000 -1.009770
vt 55.996601 -1.000000
vt 56.003502 -0.986065
vt 56.000000 -0.984639
vt 56.003502 -1.000000
vt 55.996498 -0.986065
vt 55.996498 -1.000000
vt 55.996601 -0.988871
vt 55.996601 -1.011130
vt 55.996498 -1.013930
vt 56.000000 -1.015360
vt 56.003502 -1.013930
vt 56.003399 -1.011130
s 1
usemtl Meshpart1Mtl.010
f 87/62/37 88/63/38 90/64/39
f 89/65/40 90/64/39 88/63/38
f 88/63/38 91/66/41 89/65/40
f 92/67/42 89/65/40 91/66/41
f 89/65/40 92/67/42 93/68/43
f 88/63/38 87/62/37 94/69/44
f 95/70/45 94/69/44 87/62/37
f 94/69/44 95/70/45 86/71/46
f 96/72/47 86/71/46 95/70/45
f 86/71/46 96/72/47 97/73/48
f 98/74/49 97/73/48 96/72/47
f 97/73/48 98/74/49 99/75/50
f 100/76/51 99/75/50 98/74/49
f 99/75/50 100/76/51 101/77/52
f 92/67/42 100/76/51 93/68/43
f 100/76/51 92/67/42 101/77/52
f 103/78/53 102/79/54 104/80/55
f 104/80/55 105/81/56 103/78/53
f 106/82/57 103/78/53 105/81/56
f 104/80/55 107/83/46 105/81/56
f 106/82/57 105/81/56 107/83/46
f 110/81/56 108/84/58 109/85/57
f 108/84/58 110/81/56 111/86/59
f 110/81/56 109/85/57 112/87/60
f 110/81/56 112/87/60 113/88/43
f 107/83/46 104/80/55 114/89/61
f 107/83/46 115/90/62 106/82/57
f 110/81/56 116/91/63 117/92/55
f 116/91/63 110/81/56 113/88/43
f 110/81/56 118/93/64 111/86/59
f 118/93/64 110/81/56 117/92/55
f 103/78/53 106/82/57 119/94/65
f 120/91/66 123/81/67 121/88/68
f 123/81/67 120/91/66 124/92/69
f 125/87/70 121/88/68 123/81/67
f 123/81/67 124/92/69 126/93/71
f 123/81/67 127/85/57 125/87/70
f 123/81/67 128/84/40 127/85/57
f 128/84/40 123/81/67 129/86/39
f 126/93/71 129/86/39 123/81/67
f 131/78/72 122/82/57 130/94/62
f 122/82/57 131/78/72 132/81/67
f 133/83/73 122/82/57 132/81/67
f 131/78/72 134/80/69 132/81/67
f 134/80/69 133/83/73 132/81/67
f 131/78/72 135/79/74 134/80/69
f 133/83/73 134/80/69 136/89/75
f 122/82/57 133/83/73 137/90/76
f 139/70/77 138/72/66 141/73/78
f 139/70/77 141/73/78 142/71/53
f 140/62/79 139/70/77 142/71/53
f 138/72/66 143/75/80 141/73/78
f 143/75/80 138/72/66 144/74/68
f 145/76/58 143/75/80 144/74/68
f 143/75/80 145/76/58 146/77/81
f 145/76/58 147/67/82 146/77/81
f 147/67/82 145/76/58 148/68/59
f 147/67/82 151/65/83 150/66/84
f 149/63/85 150/66/84 151/65/83
f 151/65/83 147/67/82 148/68/59
f 151/65/83 152/64/86 149/63/85
f 152/64/86 153/69/87 149/63/85
f 153/69/87 152/64/86 140/62/79
f 140/62/79 142/71/53 153/69/87
f 154/87/88 155/88/77 156/81/89
f 157/91/90 156/81/89 155/88/77
f 156/81/89 158/85/69 154/87/88
f 156/81/89 159/84/37 158/85/69
f 162/83/82 160/80/91 161/89/92
f 164/78/42 163/79/93 160/80/91
f 159/84/37 156/81/89 165/86/45
f 166/93/94 165/86/45 156/81/89
f 156/81/89 167/92/91 166/93/94
f 156/81/89 157/91/90 167/92/91
f 164/78/42 168/82/69 169/94/74
f 168/82/69 164/78/42 170/81/89
f 164/78/42 160/80/91 170/81/89
f 160/80/91 162/83/82 170/81/89
f 162/83/82 168/82/69 170/81/89
f 168/82/69 162/83/82 171/90/95
f 174/78/80 175/82/55 173/94/96
f 175/82/55 174/78/80 176/81/97
f 177/83/38 175/82/55 176/81/97
f 174/78/80 178/80/91 176/81/97
f 178/80/91 177/83/38 176/81/97
f 178/80/91 174/78/80 179/79/92
f 177/83/38 178/80/91 180/89/93
f 177/83/38 181/90/44 175/82/55
f 184/81/97 182/91/98 183/92/91
f 184/81/97 183/92/91 172/93/99
f 182/91/98 184/81/97 185/88/49
f 186/87/100 185/88/49 184/81/97
f 184/81/97 187/85/55 186/87/100
f 184/81/97 188/84/101 187/85/55
f 188/84/101 184/81/97 189/86/86
f 172/93/99 189/86/86 184/81/97
