# Blender 5.2.0 LTS
# www.blender.org
mtllib LIFEGUARDBLACK.mtl
o lifeguard_whistle_wrapsplit_(hospital_and_the_spin_thingy)
v 0.414028 -0.207668 -0.031184
v 0.414028 -0.207668 0.026316
v 0.440001 -0.207668 -0.031184
v 0.440001 -0.207668 0.026316
v 0.414028 -0.268788 0.023446
v 0.414028 -0.265668 0.083816
v 0.440001 -0.268788 0.023446
v 0.440001 -0.265668 0.083816
v 0.414028 -0.265668 -0.088674
v 0.414028 -0.268788 -0.028304
v 0.440001 -0.265668 -0.088674
v 0.440001 -0.268788 -0.028304
v 0.440001 -0.328038 0.083816
v 0.440001 -0.265668 0.083816
v 0.414028 -0.328038 0.083816
v 0.414028 -0.265668 0.083816
v 0.440001 -0.207668 0.026316
v 0.414028 -0.268788 0.023446
v 0.440001 -0.268788 0.023446
v 0.414028 -0.207668 0.026316
v 0.440001 -0.386048 0.026316
v 0.440001 -0.324928 0.023446
v 0.414028 -0.386048 0.026316
v 0.414028 -0.324928 0.023446
v 0.414028 -0.265668 -0.088674
v 0.414028 -0.324928 -0.028304
v 0.414028 -0.268788 -0.028304
v 0.414028 -0.328038 -0.088674
v 0.414028 -0.386048 -0.031184
v 0.414028 -0.386048 0.026316
v 0.414028 -0.324928 0.023446
v 0.414028 -0.268788 0.023446
v 0.414028 -0.207668 -0.031184
v 0.414028 -0.207668 0.026316
v 0.414028 -0.265668 0.083816
v 0.414028 -0.328038 0.083816
v 0.440001 -0.386048 -0.031184
v 0.440001 -0.386048 0.026316
v 0.414028 -0.386048 -0.031184
v 0.414028 -0.386048 0.026316
v 0.440001 -0.328038 -0.088674
v 0.440001 -0.324928 -0.028304
v 0.414028 -0.328038 -0.088674
v 0.414028 -0.324928 -0.028304
v 0.440001 -0.324928 0.023446
v 0.440001 -0.328038 0.083816
v 0.414028 -0.324928 0.023446
v 0.414028 -0.328038 0.083816
v 0.440001 -0.265668 -0.088674
v 0.440001 -0.328038 -0.088674
v 0.414028 -0.265668 -0.088674
v 0.414028 -0.328038 -0.088674
v 0.440001 -0.386048 -0.031184
v 0.414028 -0.324928 -0.028304
v 0.440001 -0.324928 -0.028304
v 0.414028 -0.386048 -0.031184
v 0.440001 -0.207668 -0.031184
v 0.440001 -0.268788 -0.028304
v 0.414028 -0.207668 -0.031184
v 0.414028 -0.268788 -0.028304
v 0.490957 -0.115408 0.095106
v 0.434850 -0.149668 0.095106
v 0.434850 -0.149668 -0.086154
v 0.490957 -0.115408 -0.086154
v 0.434850 -0.149668 -0.086154
v 0.490957 -0.115408 -0.086154
v 0.434850 -0.081148 -0.086154
v 0.511909 -0.420058 -0.108774
v 0.511909 -0.420058 0.117716
v 0.481666 -0.398028 0.004476
v 0.498090 -0.420058 0.132536
v 0.498090 -0.420058 -0.123584
v 0.487838 -0.420058 0.132536
v 0.487838 -0.420058 -0.123584
v 0.461596 -0.420058 0.132536
v 0.461596 -0.420058 -0.123584
v 0.448895 -0.420058 0.117716
v 0.448895 -0.420058 -0.108774
v 0.434850 -0.081148 0.095106
v 0.490957 -0.115408 0.095106
v 0.490957 -0.115408 -0.086154
v 0.434850 -0.081148 -0.086154
v 0.434850 -0.081148 0.095106
v 0.490957 -0.115408 0.095106
v 0.434850 -0.149668 0.095106
v 0.633227 0.185452 0.000326
v 0.633629 0.199882 0.111806
v 0.633227 0.311362 0.126236
v 0.633629 0.422842 0.111806
v 0.633629 0.311362 0.157976
v 0.633227 0.400392 0.089356
v 0.633227 0.437272 0.000326
v 0.633629 0.469012 0.000326
v 0.633227 0.222332 0.089356
v 0.633629 0.153712 0.000326
v 0.633629 0.199882 -0.111154
v 0.633227 0.222332 -0.088714
v 0.633629 0.311362 -0.157334
v 0.633227 0.311362 -0.125584
v 0.633629 0.422842 -0.111154
v 0.633227 0.400392 -0.088704
v 0.578797 0.222332 0.089356
v 0.578797 0.185452 0.000326
v 0.606012 0.233242 0.078446
v 0.606012 0.200882 0.000326
v 0.606012 0.233242 -0.077794
v 0.633227 0.185452 0.000326
v 0.578395 0.422842 0.111806
v 0.606012 0.434252 0.123216
v 0.606012 0.485152 0.000326
v 0.578395 0.469012 0.000326
v 0.633629 0.422842 0.111806
v 0.633629 0.469012 0.000326
v 0.633227 0.222332 0.089356
v 0.633227 0.222332 -0.088714
v 0.633629 0.422842 -0.111154
v 0.606012 0.434252 -0.122564
v 0.578395 0.422842 -0.111154
v 0.578797 0.222332 -0.088714
v 0.578395 0.199882 0.111806
v 0.578395 0.311362 0.157976
v 0.606012 0.233242 -0.077794
v 0.606012 0.311362 0.174116
v 0.606012 0.188472 0.123216
v 0.578395 0.422842 0.111806
v 0.633629 0.199882 0.111806
v 0.606012 0.434252 0.123216
v 0.633629 0.422842 0.111806
v 0.633629 0.311362 0.157976
v 0.633227 0.222332 -0.088714
v 0.633227 0.311362 -0.125584
v 0.606012 0.311362 -0.110154
v 0.578797 0.311362 -0.125584
v 0.606012 0.389482 -0.077794
v 0.633227 0.400392 -0.088704
v 0.578797 0.400392 -0.088704
v 0.578797 0.222332 -0.088714
v 0.578395 0.199882 0.111806
v 0.578395 0.153712 0.000326
v 0.578395 0.199882 -0.111154
v 0.578797 0.222332 0.089356
v 0.578797 0.185452 0.000326
v 0.578797 0.311362 0.126236
v 0.578395 0.311362 0.157976
v 0.578395 0.422842 0.111806
v 0.578797 0.400392 0.089356
v 0.578797 0.437272 0.000326
v 0.578395 0.469012 0.000326
v 0.578797 0.311362 -0.125584
v 0.578797 0.400392 -0.088704
v 0.578395 0.422842 -0.111154
v 0.578395 0.311362 -0.157334
v 0.578797 0.222332 -0.088714
v 0.578395 0.199882 0.111806
v 0.578395 0.153712 0.000326
v 0.606012 0.137572 0.000326
v 0.578395 0.199882 -0.111154
v 0.606012 0.188472 0.123216
v 0.633629 0.199882 0.111806
v 0.606012 0.389482 0.078446
v 0.578797 0.400392 0.089356
v 0.578797 0.437272 0.000326
v 0.633227 0.400392 0.089356
v 0.633227 0.437272 0.000326
v 0.633629 0.153712 0.000326
v 0.633629 0.199882 -0.111154
v 0.606012 0.188472 -0.122564
v 0.606012 0.389482 -0.077794
v 0.633227 0.400392 -0.088704
v 0.606012 0.421842 0.000326
v 0.578797 0.400392 -0.088704
v 0.578395 0.199882 -0.111154
v 0.578797 0.222332 0.089356
v 0.578797 0.311362 0.126236
v 0.606012 0.233242 0.078446
v 0.606012 0.311362 0.110806
v 0.633227 0.311362 0.126236
v 0.606012 0.389482 0.078446
v 0.578797 0.400392 0.089356
v 0.633227 0.400392 0.089356
v 0.633227 0.222332 0.089356
v 0.633629 0.199882 -0.111154
v 0.606012 0.188472 -0.122564
v 0.606012 0.311362 -0.173474
v 0.633629 0.311362 -0.157334
v 0.633629 0.422842 -0.111154
v 0.606012 0.434252 -0.122564
v 0.578395 0.422842 -0.111154
v 0.578395 0.311362 -0.157334
vn -0.0000 1.0000 -0.0000
vn -0.0000 0.9985 -0.0550
vn -0.0000 0.9985 -0.0551
vn -0.0000 0.9985 0.0550
vn -0.0000 0.9985 0.0551
vn -0.0000 -0.0000 1.0000
vn -0.0000 -0.0469 0.9989
vn -0.0000 -0.0472 0.9989
vn -0.0000 0.0469 0.9989
vn -1.0000 -0.0000 -0.0000
vn -0.0000 -1.0000 -0.0000
vn -0.0000 -0.9985 0.0550
vn -0.0000 -0.9985 -0.0550
vn -0.0000 -0.0000 -1.0000
vn -0.0000 0.0471 -0.9989
vn -0.0000 -0.0471 -0.9989
vn -0.8019 -0.0000 -0.5975
vn -0.4477 0.7332 0.5119
vn -0.4489 0.7324 -0.5119
vn -0.8019 -0.0000 0.5975
vn -0.4489 -0.7324 0.5119
vn -0.4489 0.7324 0.5119
vn -0.2125 -0.9680 0.1338
vn -0.2125 -0.9680 -0.1338
vn -0.0157 -0.9999 -0.0000
vn -0.0551 -0.9847 -0.1654
vn -0.0552 -0.9847 0.1654
vn -0.0000 -0.9849 -0.1733
vn -0.0000 -0.9849 0.1733
vn 0.0631 -0.9855 -0.1577
vn 0.0631 -0.9855 0.1577
vn 0.2127 -0.9690 -0.1260
vn 0.2127 -0.9690 0.1260
vn -0.4477 -0.7332 -0.5119
vn -0.4489 -0.7324 -0.5119
vn -0.8019 -0.0000 -0.5974
vn 0.8165 -0.4082 0.4083
vn 0.9154 -0.0000 -0.4024
vn 0.8185 -0.0000 0.5745
vn 0.8165 0.4083 0.4082
vn 0.9157 -0.2842 -0.2842
vn 0.9154 -0.4024 -0.0000
vn 0.8185 0.5745 -0.0000
vn 0.9157 0.2842 -0.2841
vn 0.8185 -0.5745 -0.0000
vn 0.9154 0.4025 -0.0000
vn 0.8165 -0.4083 -0.4083
vn 0.9157 0.2841 0.2842
vn 0.8185 -0.0000 -0.5745
vn 0.9154 -0.0000 0.4025
vn 0.8165 0.4083 -0.4083
vn 0.9157 -0.2842 0.2841
vn -0.9154 0.4025 -0.0000
vn -0.9157 0.2842 -0.2842
vn -0.0000 0.7071 -0.7071
vn -0.0000 0.7071 0.7071
vn -0.8165 0.4082 0.4083
vn -0.8185 0.5745 -0.0000
vn 0.8165 0.4082 0.4083
vn 0.9157 0.2841 -0.2842
vn 0.9157 0.2842 0.2841
vn 0.8165 0.4082 -0.4083
vn -0.8165 0.4082 -0.4083
vn -0.9157 0.2841 0.2842
vn -0.8165 -0.4083 0.4082
vn -0.8185 -0.0000 0.5745
vn -0.0000 -0.7071 0.7071
vn -0.8165 0.4083 0.4082
vn 0.8165 -0.4083 0.4082
vn 0.9154 -0.0000 0.4024
vn -0.9154 -0.0000 0.4024
vn 0.9157 -0.2841 0.2842
vn -0.9157 -0.2842 0.2841
vn -0.9157 0.2841 0.2841
vn -0.8185 -0.5745 -0.0000
vn -0.9157 0.2841 -0.2842
vn -0.8165 -0.4083 -0.4083
vn -0.9154 -0.0000 -0.4024
vn -0.9157 -0.2842 -0.2841
vn -0.9154 -0.4024 -0.0000
vn -0.8165 0.4083 -0.4083
vn -0.9157 -0.2842 0.2842
vn -0.9154 -0.0000 0.4025
vn -0.8185 -0.0000 -0.5745
vn -0.9157 0.2842 0.2841
vn -0.8165 -0.4082 0.4083
vn -0.8165 -0.4082 -0.4083
vn -0.0000 -0.7071 -0.7071
vn -0.9157 -0.2841 -0.2842
vn 0.9157 -0.2842 -0.2841
vn 0.8165 -0.4082 -0.4083
vn -0.9157 -0.2841 0.2841
vn -0.9157 0.2842 -0.2841
vn 0.8165 -0.4083 -0.4082
vn -0.8165 -0.4083 -0.4082
vn 0.8165 0.4083 -0.4082
vn -0.8165 0.4082 -0.4082
vt 22.001600 -37.003601
vt 22.001600 -36.996399
vt 21.998400 -37.003601
vt 21.998400 -36.996399
vt 22.001600 -36.996799
vt 22.001600 -36.989201
vt 21.998400 -36.996799
vt 21.998400 -36.989201
vt 22.001600 -37.010799
vt 22.001600 -37.003201
vt 21.998400 -37.010799
vt 21.998400 -37.003201
vt 22.001600 -37.003899
vt 22.001600 -36.996101
vt 21.998400 -37.003899
vt 21.998400 -36.996101
vt 22.001600 -36.988800
vt 21.998400 -36.996498
vt 22.001600 -36.996498
vt 21.998400 -36.988800
vt 22.001600 -37.011200
vt 22.001600 -37.003502
vt 21.998400 -37.011200
vt 21.998400 -37.003502
vt 21.989201 -36.996101
vt 21.996799 -37.003502
vt 21.996799 -36.996498
vt 21.989201 -37.003899
vt 21.996401 -37.011200
vt 22.003599 -37.011200
vt 22.003201 -37.003502
vt 22.003201 -36.996498
vt 21.996401 -36.988800
vt 22.003599 -36.988800
vt 22.010799 -36.996101
vt 22.010799 -37.003899
vt 1.997800 -36.988701
vt 2.004820 -37.011299
vt 2.004820 -36.988701
vt 1.997800 -37.011299
vt 1.995180 -36.978802
vt 1.995180 -36.987400
vt 2.002200 -36.983101
vt 2.004820 -37.014198
vt 2.004820 -36.985802
vt 2.001040 -37.000000
vt 2.003090 -36.984001
vt 2.003090 -37.015999
vt 2.001810 -36.984001
vt 2.001810 -37.015999
vt 1.998530 -36.984001
vt 1.998530 -37.015999
vt 1.996940 -36.985802
vt 1.996940 -37.014198
vt 2.002200 -37.011299
vt 2.002200 -36.988701
vt 1.995180 -36.988701
vt 1.995180 -37.011299
vt 2.004820 -36.978802
vt 1.997800 -36.983101
vt 2.004820 -36.987400
vt 9.986060 -3.013930
vt 9.984260 -3.000000
vt 9.980290 -3.000000
vt 9.986060 -2.986070
vt 9.988870 -2.988870
vt 10.000000 -2.984260
vt 10.000000 -2.980290
vt 9.988870 -3.011130
vt 10.000000 -3.019710
vt 10.000000 -3.015740
vt 10.013900 -3.013930
vt 10.011100 -3.011130
vt 10.019700 -3.000000
vt 10.015700 -3.000000
vt 10.013900 -2.986070
vt 10.011100 -2.988870
vt 10.003400 -3.000000
vt 10.003400 -2.988870
vt 10.000000 -2.990230
vt 10.000000 -3.000000
vt 10.000000 -3.009770
vt 9.996600 -3.000000
vt 10.003500 -2.986070
vt 10.000000 -2.984640
vt 10.003500 -3.000000
vt 9.996550 -2.986070
vt 9.996550 -3.000000
vt 9.996600 -2.988870
vt 9.996600 -3.011130
vt 9.996550 -3.013930
vt 10.000000 -3.015360
vt 10.003500 -3.013930
vt 10.003400 -3.011130
s 1
usemtl Meshpart1Mtl.005
f 1/1/1 2/2/1 3/3/1
f 3/3/1 2/2/1 4/4/1
f 5/5/2 6/6/3 7/7/3
f 7/7/3 6/6/3 8/8/3
f 9/9/4 10/10/5 11/11/5
f 11/11/5 10/10/5 12/12/5
f 13/13/6 14/14/6 15/15/6
f 15/15/6 14/14/6 16/16/6
f 17/17/7 18/18/7 19/19/8
f 18/18/7 17/17/7 20/20/7
f 21/21/9 22/22/9 23/23/9
f 23/23/9 22/22/9 24/24/9
f 25/25/10 26/26/10 27/27/10
f 26/26/10 25/25/10 28/28/10
f 26/26/10 29/29/10 30/30/10
f 31/31/10 26/26/10 30/30/10
f 26/26/10 31/31/10 27/27/10
f 27/27/10 31/31/10 32/32/10
f 32/32/10 33/33/10 27/27/10
f 33/33/10 32/32/10 34/34/10
f 31/31/10 35/35/10 32/32/10
f 35/35/10 31/31/10 36/36/10
f 37/1/11 38/2/11 39/3/11
f 39/3/11 38/2/11 40/4/11
f 41/9/12 42/10/12 43/11/12
f 43/11/12 42/10/12 44/12/12
f 45/5/13 46/6/13 47/7/13
f 47/7/13 46/6/13 48/8/13
f 49/16/14 50/15/14 51/14/14
f 51/14/14 50/15/14 52/13/14
f 53/23/15 54/22/15 55/24/15
f 54/22/15 53/23/15 56/21/15
f 57/20/16 58/18/16 59/17/16
f 59/17/16 58/18/16 60/19/16
f 61/37/17 63/38/18 62/39/19
f 63/38/18 61/37/17 64/40/20
f 67/41/21 65/42/22 66/43/20
f 68/44/23 69/45/24 70/46/25
f 69/45/24 71/47/26 70/46/25
f 72/48/27 68/44/23 70/46/25
f 71/47/26 73/49/28 70/46/25
f 74/50/29 72/48/27 70/46/25
f 73/49/28 75/51/30 70/46/25
f 76/52/31 74/50/29 70/46/25
f 75/51/30 77/53/32 70/46/25
f 78/54/33 76/52/31 70/46/25
f 77/53/32 78/54/33 70/46/25
f 81/55/20 80/56/17 79/57/34
f 79/57/34 82/58/21 81/55/20
f 83/59/35 84/60/36 85/61/19
f 87/62/37 88/63/38 90/64/39
f 89/65/40 90/64/39 88/63/38
f 88/63/38 91/66/41 89/65/40
f 92/67/42 89/65/40 91/66/41
f 89/65/40 92/67/42 93/68/43
f 88/63/38 87/62/37 94/69/44
f 95/70/45 94/69/44 87/62/37
f 94/69/44 95/70/45 86/71/46
f 96/72/47 86/71/46 95/70/45
f 86/71/46 96/72/47 97/73/48
f 98/74/49 97/73/48 96/72/47
f 97/73/48 98/74/49 99/75/50
f 100/76/51 99/75/50 98/74/49
f 99/75/50 100/76/51 101/77/52
f 92/67/42 100/76/51 93/68/43
f 100/76/51 92/67/42 101/77/52
f 103/78/53 102/79/54 104/80/55
f 104/80/55 105/81/1 103/78/53
f 106/82/56 103/78/53 105/81/1
f 104/80/55 107/83/46 105/81/1
f 106/82/56 105/81/1 107/83/46
f 110/81/1 108/84/57 109/85/56
f 108/84/57 110/81/1 111/86/58
f 110/81/1 109/85/56 112/87/59
f 110/81/1 112/87/59 113/88/43
f 107/83/46 104/80/55 114/89/60
f 107/83/46 115/90/61 106/82/56
f 110/81/1 116/91/62 117/92/55
f 116/91/62 110/81/1 113/88/43
f 110/81/1 118/93/63 111/86/58
f 118/93/63 110/81/1 117/92/55
f 103/78/53 106/82/56 119/94/64
f 120/91/65 123/81/6 121/88/66
f 123/81/6 120/91/65 124/92/67
f 125/87/68 121/88/66 123/81/6
f 123/81/6 124/92/67 126/93/69
f 123/81/6 127/85/56 125/87/68
f 123/81/6 128/84/40 127/85/56
f 128/84/40 123/81/6 129/86/39
f 126/93/69 129/86/39 123/81/6
f 131/78/70 122/82/56 130/94/61
f 122/82/56 131/78/70 132/81/6
f 133/83/71 122/82/56 132/81/6
f 131/78/70 134/80/67 132/81/6
f 134/80/67 133/83/71 132/81/6
f 131/78/70 135/79/72 134/80/67
f 133/83/71 134/80/67 136/89/73
f 122/82/56 133/83/71 137/90/74
f 139/70/75 138/72/65 141/73/76
f 139/70/75 141/73/76 142/71/53
f 140/62/77 139/70/75 142/71/53
f 138/72/65 143/75/78 141/73/76
f 143/75/78 138/72/65 144/74/66
f 145/76/57 143/75/78 144/74/66
f 143/75/78 145/76/57 146/77/79
f 145/76/57 147/67/80 146/77/79
f 147/67/80 145/76/57 148/68/58
f 147/67/80 151/65/81 150/66/82
f 149/63/83 150/66/82 151/65/81
f 151/65/81 147/67/80 148/68/58
f 151/65/81 152/64/84 149/63/83
f 152/64/84 153/69/85 149/63/83
f 153/69/85 152/64/84 140/62/77
f 140/62/77 142/71/53 153/69/85
f 154/87/86 155/88/75 156/81/11
f 157/91/87 156/81/11 155/88/75
f 156/81/11 158/85/67 154/87/86
f 156/81/11 159/84/37 158/85/67
f 162/83/80 160/80/88 161/89/89
f 164/78/42 163/79/90 160/80/88
f 159/84/37 156/81/11 165/86/45
f 166/93/91 165/86/45 156/81/11
f 156/81/11 167/92/88 166/93/91
f 156/81/11 157/91/87 167/92/88
f 164/78/42 168/82/67 169/94/72
f 168/82/67 164/78/42 170/81/11
f 164/78/42 160/80/88 170/81/11
f 160/80/88 162/83/80 170/81/11
f 162/83/80 168/82/67 170/81/11
f 168/82/67 162/83/80 171/90/92
f 174/78/78 175/82/55 173/94/93
f 175/82/55 174/78/78 176/81/14
f 177/83/38 175/82/55 176/81/14
f 174/78/78 178/80/88 176/81/14
f 178/80/88 177/83/38 176/81/14
f 178/80/88 174/78/78 179/79/89
f 177/83/38 178/80/88 180/89/90
f 177/83/38 181/90/44 175/82/55
f 184/81/14 182/91/94 183/92/88
f 184/81/14 183/92/88 172/93/95
f 182/91/94 184/81/14 185/88/49
f 186/87/96 185/88/49 184/81/14
f 184/81/14 187/85/55 186/87/96
f 184/81/14 188/84/97 187/85/55
f 188/84/97 184/81/14 189/86/84
f 172/93/95 189/86/84 184/81/14
