# Blender 5.2.0 LTS
# www.blender.org
mtllib okkk_.mtl
o bug_net_body
v -0.000168 -1.514737 -0.046711
v -0.088455 -1.832443 -0.045473
v -0.100975 -1.828844 -0.009960
v -0.012810 -1.511346 -0.011131
v 0.002649 -1.515261 0.023230
v -0.083630 -1.861356 -0.033958
v -0.085642 -1.832966 0.024342
v -0.081777 -1.861701 0.012045
v -0.091888 -1.858998 -0.010552
v -0.418640 1.697954 -0.365996
v -0.387476 1.891731 -0.168784
v -0.389803 1.795113 -0.106808
v -0.413944 1.843607 -0.135380
v -0.415862 1.633318 -0.271447
v -0.442338 1.667198 -0.314940
v -0.371900 1.883527 0.232487
v -0.387321 1.686561 0.428424
v -0.414996 1.657122 0.378446
v -0.400980 1.836435 0.200067
v -0.392067 1.624388 0.332021
v -0.379232 1.788833 0.168420
v -0.272825 0.382667 -0.021443
v -0.069429 -0.260402 -0.034456
v -0.285354 0.378510 0.014013
v 0.016343 -0.623538 -0.040537
v -0.081931 -0.264624 0.000998
v 0.003371 -0.624288 -0.005134
v 0.019147 -0.624059 0.029087
v -0.066618 -0.260926 0.035359
v -0.270012 0.382143 0.048403
v -0.448627 1.359816 -0.276459
v -0.461482 1.195407 -0.112855
v -0.481774 1.102259 -0.176390
v -0.496276 1.154542 -0.142176
v -0.466419 1.299201 -0.372325
v -0.482273 1.333853 -0.320555
v -0.435034 1.287829 0.422092
v -0.466261 1.094062 0.224883
v -0.450887 1.189127 0.162370
v -0.483326 1.147371 0.193271
v -0.424853 1.350921 0.327010
v -0.454922 1.323748 0.372831
v -0.299319 1.683745 -0.370910
v -0.268089 1.877514 -0.173699
v -0.325777 1.906086 -0.184576
v -0.358219 1.704573 -0.389661
v -0.418640 1.697954 -0.365996
v -0.387476 1.891731 -0.168784
v -0.448627 1.359816 -0.276459
v -0.466419 1.299201 -0.372325
v -0.482273 1.333853 -0.320555
v -0.409178 1.278942 -0.396285
v -0.393575 1.363814 -0.262788
v -0.342290 1.347154 -0.280837
v -0.347032 1.284984 -0.377240
v -0.319357 1.314452 -0.327263
v -0.318491 1.338256 0.322631
v -0.376134 1.267004 0.440845
v -0.315713 1.273620 0.417179
v -0.292015 1.304348 0.366124
v -0.371037 1.355312 0.309207
v -0.424853 1.350921 0.327010
v -0.435034 1.287829 0.422092
v -0.454922 1.323748 0.372831
v -0.344549 1.176464 0.157992
v -0.318491 1.338256 0.322631
v -0.371037 1.355312 0.309207
v -0.396269 1.198578 0.149712
v -0.450887 1.189127 0.162370
v -0.424853 1.350921 0.327010
v 0.033072 -1.523475 -0.062514
v -0.055406 -1.841667 -0.061368
v -0.000168 -1.514737 -0.046711
v -0.088455 -1.832443 -0.045473
v -0.083630 -1.861356 -0.033958
v -0.061844 -1.867468 -0.044429
v -0.039287 -1.873688 -0.035837
v -0.021190 -1.851141 -0.048323
v 0.067339 -1.532412 -0.049437
v -0.392067 1.624388 0.332021
v -0.285731 1.611726 0.327643
v -0.379232 1.788833 0.168420
v -0.272870 1.776167 0.164040
v -0.328338 1.767004 0.155518
v -0.340780 1.607730 0.314004
v -0.379232 1.788833 0.168420
v -0.309178 1.897403 0.243701
v -0.328338 1.767004 0.155518
v -0.272870 1.776167 0.164040
v -0.371900 1.883527 0.232487
v -0.400980 1.836435 0.200067
v -0.252579 1.869317 0.227575
v -0.238073 1.817034 0.193360
v -0.272825 0.382667 -0.021443
v -0.069429 -0.260402 -0.034456
v -0.239777 0.392237 -0.037165
v -0.036425 -0.250795 -0.050176
v -0.205600 0.401562 -0.023977
v 0.016343 -0.623538 -0.040537
v 0.050574 -0.622246 -0.056496
v -0.002250 -0.241371 -0.037019
v 0.086217 -0.621104 -0.043587
v -0.362453 1.088051 -0.181302
v -0.347032 1.284984 -0.377240
v -0.409178 1.278942 -0.396285
v -0.425175 1.074174 -0.192517
v -0.481774 1.102259 -0.176390
v -0.466419 1.299201 -0.372325
v -0.450887 1.189127 0.162370
v -0.408577 1.065488 0.235761
v -0.466261 1.094062 0.224883
v -0.483326 1.147371 0.193271
v -0.396269 1.198578 0.149712
v -0.344549 1.176464 0.157992
v -0.346873 1.079845 0.219968
v -0.320409 1.127968 0.186563
v -0.039287 -1.873688 -0.035837
v -0.029174 -1.876422 -0.013208
v -0.037434 -1.874033 0.010166
v -0.018378 -1.851664 0.021493
v 0.070145 -1.532935 0.020252
v 0.082657 -1.536342 -0.015164
v -0.005848 -1.855268 -0.013989
v -0.021190 -1.851141 -0.048323
v 0.067339 -1.532412 -0.049437
v -0.251028 1.824206 -0.142087
v -0.279431 1.647797 -0.321647
v -0.299319 1.683745 -0.370910
v -0.268089 1.877514 -0.173699
v -0.283467 1.782449 -0.111186
v -0.309500 1.620653 -0.275826
v -0.252579 1.869317 0.227575
v -0.267933 1.672343 0.423509
v -0.252080 1.637720 0.371739
v -0.238073 1.817034 0.193360
v -0.285731 1.611726 0.327643
v -0.272870 1.776167 0.164040
v -0.205600 0.401562 -0.023977
v -0.202790 0.401039 0.045774
v 0.000562 -0.241895 0.032796
v 0.089043 -0.621630 0.026544
v 0.102253 -0.620841 -0.009091
v 0.013070 -0.237708 -0.002627
v -0.190289 0.405199 0.010383
v -0.002250 -0.241371 -0.037019
v 0.086217 -0.621104 -0.043587
v -0.342290 1.347154 -0.280837
v -0.333369 1.135141 -0.148883
v -0.319357 1.314452 -0.327263
v -0.355121 1.182741 -0.117235
v -0.362453 1.088051 -0.181302
v -0.347032 1.284984 -0.377240
v -0.315713 1.273620 0.417179
v -0.320409 1.127968 0.186563
v -0.292015 1.304348 0.366124
v -0.346873 1.079845 0.219968
v -0.344549 1.176464 0.157992
v -0.318491 1.338256 0.322631
v -0.083630 -1.861356 -0.033958
v -0.061844 -1.867468 -0.044429
v -0.039287 -1.873688 -0.035837
v -0.081777 -1.861701 0.012045
v -0.091888 -1.858998 -0.010552
v -0.059224 -1.867955 0.020637
v -0.029174 -1.876422 -0.013208
v -0.037434 -1.874033 0.010166
v -0.283467 1.782449 -0.111186
v -0.309500 1.620653 -0.275826
v -0.363316 1.616266 -0.258023
v -0.338082 1.772999 -0.098528
v -0.389803 1.795113 -0.106808
v -0.415862 1.633318 -0.271447
v -0.315713 1.273620 0.417179
v -0.346873 1.079845 0.219968
v -0.408577 1.065488 0.235761
v -0.376134 1.267004 0.440845
v -0.435034 1.287829 0.422092
v -0.466261 1.094062 0.224883
v -0.309500 1.620653 -0.275826
v -0.299319 1.683745 -0.370910
v -0.279431 1.647797 -0.321647
v -0.358219 1.704573 -0.389661
v -0.363316 1.616266 -0.258023
v -0.415862 1.633318 -0.271447
v -0.418640 1.697954 -0.365996
v -0.442338 1.667198 -0.314940
v -0.285731 1.611726 0.327643
v -0.325178 1.692600 0.447469
v -0.340780 1.607730 0.314004
v -0.392067 1.624388 0.332021
v -0.267933 1.672343 0.423509
v -0.252080 1.637720 0.371739
v -0.387321 1.686561 0.428424
v -0.414996 1.657122 0.378446
v 0.002649 -1.515261 0.023230
v -0.085642 -1.832966 0.024342
v -0.051429 -1.842407 0.037387
v 0.037049 -1.524215 0.036209
v -0.081777 -1.861701 0.012045
v -0.059224 -1.867955 0.020637
v -0.037434 -1.874033 0.010166
v -0.018378 -1.851664 0.021493
v 0.070145 -1.532935 0.020252
v -0.325178 1.692600 0.447469
v -0.309178 1.897403 0.243701
v -0.371900 1.883527 0.232487
v -0.252579 1.869317 0.227575
v -0.387321 1.686561 0.428424
v -0.267933 1.672343 0.423509
v -0.389803 1.795113 -0.106808
v -0.325777 1.906086 -0.184576
v -0.387476 1.891731 -0.168784
v -0.413944 1.843607 -0.135380
v -0.338082 1.772999 -0.098528
v -0.283467 1.782449 -0.111186
v -0.268089 1.877514 -0.173699
v -0.251028 1.824206 -0.142087
v 0.019147 -0.624059 0.029087
v -0.066618 -0.260926 0.035359
v -0.270012 0.382143 0.048403
v -0.235800 0.391496 0.061558
v -0.032449 -0.251535 0.048548
v 0.054551 -0.622986 0.042259
v -0.202790 0.401039 0.045774
v 0.000562 -0.241895 0.032796
v 0.089043 -0.621630 0.026544
v -0.342290 1.347154 -0.280837
v -0.355121 1.182741 -0.117235
v -0.406014 1.204570 -0.104302
v -0.393575 1.363814 -0.262788
v -0.448627 1.359816 -0.276459
v -0.461482 1.195407 -0.112855
v -0.355121 1.182741 -0.117235
v -0.362453 1.088051 -0.181302
v -0.333369 1.135141 -0.148883
v -0.425175 1.074174 -0.192517
v -0.406014 1.204570 -0.104302
v -0.461482 1.195407 -0.112855
v -0.481774 1.102259 -0.176390
v -0.496276 1.154542 -0.142176
v 0.034196 -0.895017 -0.050681
v 0.009208 -0.625125 -0.047652
v -0.006560 -0.626648 -0.004751
v 0.033335 -1.203219 -0.052957
v 0.018411 -0.896185 -0.007778
v 0.037595 -0.895649 0.033698
v 0.012606 -0.625758 0.036728
v 0.036734 -1.203852 0.031423
v 0.017642 -1.201465 -0.010035
v -0.022643 -1.508611 -0.010714
v -0.003994 -1.513403 0.030774
v -0.007394 -1.512770 -0.053667
v -0.460985 1.076939 0.199012
v -0.474873 1.079524 -0.145821
v -0.422279 1.317431 0.443494
v -0.474969 1.127422 0.179877
v -0.440762 1.339964 0.395946
v -0.487244 1.129706 -0.124870
v -0.447332 1.169211 0.160555
v -0.417278 1.355957 0.350370
v -0.404661 1.642823 0.396762
v -0.381430 1.660127 0.444417
v -0.470397 1.345478 -0.339786
v -0.387814 1.858593 0.181847
v -0.362363 1.904301 0.201241
v -0.376253 1.906887 -0.143592
v -0.400089 1.860877 -0.122900
v -0.414962 1.666366 -0.388074
v -0.434296 1.648337 -0.338970
v -0.455811 1.323671 -0.388998
v -0.411597 1.626875 -0.295295
v -0.280025 0.380543 -0.028369
v -0.276633 0.379913 0.055820
v -0.403887 0.806422 -0.020124
v -0.455876 1.110324 -0.015372
v -0.471077 1.111254 0.026986
v -0.400501 0.805793 0.063940
v -0.452521 1.109699 0.067932
v -0.418922 0.801526 0.022563
v -0.295084 0.375425 0.014381
v -0.458117 1.171218 -0.107210
v -0.443313 1.360802 -0.296012
v -0.385562 1.622030 0.351087
v -0.370758 1.811615 0.162286
v -0.381543 1.813622 -0.105479
v -0.447332 1.169211 0.160555
v -0.417278 1.355957 0.350370
v -0.308123 1.918690 0.207758
v -0.362363 1.904301 0.201241
v -0.259479 1.892050 0.197005
v -0.273368 1.894635 -0.147828
v -0.322704 1.921404 -0.154234
v -0.376253 1.906887 -0.143592
v -0.348789 1.349546 -0.299903
v -0.363591 1.159961 -0.111102
v -0.394555 1.361938 -0.281157
v -0.322752 1.344701 0.346478
v -0.352806 1.157954 0.156663
v -0.408588 1.182212 -0.102146
v -0.369872 1.357345 0.331662
v -0.398364 1.180310 0.151689
v -0.458117 1.171218 -0.107210
v -0.443313 1.360802 -0.296012
v 0.096578 -0.619992 0.033230
v -0.006560 -0.626648 -0.004751
v 0.012606 -0.625758 0.036728
v 0.055383 -0.622951 0.052437
v 0.112184 -0.618546 -0.009474
v 0.093192 -0.619362 -0.050833
v 0.009208 -0.625125 -0.047652
v 0.050584 -0.622058 -0.066707
v 0.075637 -0.892884 -0.069746
v 0.093192 -0.619362 -0.050833
v 0.118356 -0.891031 -0.053914
v 0.050584 -0.622058 -0.066707
v 0.034196 -0.895017 -0.050681
v 0.009208 -0.625125 -0.047652
v 0.033335 -1.203219 -0.052957
v -0.007394 -1.512770 -0.053667
v 0.074524 -1.208141 -0.072064
v 0.032701 -1.523402 -0.072743
v 0.116952 -1.213371 -0.056243
v 0.074019 -1.534306 -0.056919
v -0.371989 1.067272 -0.150057
v -0.474873 1.079524 -0.145821
v -0.406219 1.309174 -0.411845
v -0.417278 1.355957 0.350370
v -0.273368 1.894635 -0.147828
v -0.322704 1.921404 -0.154234
v -0.291036 1.610774 0.347195
v -0.376253 1.906887 -0.143592
v -0.363337 1.668922 -0.410876
v -0.312077 1.654115 -0.392310
v -0.414962 1.666366 -0.388074
v -0.352926 1.311420 -0.393234
v -0.455811 1.323671 -0.388998
v -0.372245 1.104704 -0.019543
v -0.322597 0.828717 -0.023357
v -0.199047 0.403770 -0.031488
v -0.240253 0.392290 -0.047389
v -0.364016 0.817676 -0.039215
v -0.280025 0.380543 -0.028369
v -0.415148 1.107565 -0.034952
v -0.403887 0.806422 -0.020124
v -0.455876 1.110324 -0.015372
v -0.322752 1.344701 0.346478
v -0.352806 1.157954 0.156663
v -0.369872 1.357345 0.331662
v -0.398364 1.180310 0.151689
v -0.339798 1.609638 0.332342
v -0.385562 1.622030 0.351087
v -0.370758 1.811615 0.162286
v -0.325766 1.789362 0.153330
v 0.093192 -0.619362 -0.050833
v 0.118356 -0.891031 -0.053914
v 0.096578 -0.619992 0.033230
v 0.116952 -1.213371 -0.056243
v 0.074019 -1.534306 -0.056919
v 0.135874 -1.215769 -0.014904
v 0.092486 -1.539075 -0.015580
v 0.077405 -1.534935 0.027145
v 0.137415 -0.890509 -0.012528
v 0.112184 -0.618546 -0.009474
v 0.121745 -0.891662 0.030211
v 0.120338 -1.214001 0.027821
v -0.371989 1.067272 -0.150057
v -0.358100 1.064687 0.194776
v -0.319394 1.305179 0.439258
v -0.278546 1.647874 0.440181
v -0.300062 1.323208 0.390153
v -0.263961 1.626067 0.390969
v -0.247113 1.841837 0.176054
v -0.259479 1.892050 0.197005
v -0.273368 1.894635 -0.147828
v -0.291036 1.610774 0.347195
v -0.259389 1.844122 -0.128693
v -0.312077 1.654115 -0.392310
v -0.352926 1.311420 -0.393234
v -0.293595 1.631581 -0.344763
v -0.329696 1.328722 -0.345579
v -0.304033 0.833028 0.018172
v -0.372245 1.104704 -0.019543
v -0.352947 1.103284 0.022168
v -0.368828 1.104069 0.065280
v -0.322597 0.828717 -0.023357
v -0.319201 0.828084 0.060959
v -0.180560 0.408284 0.010015
v -0.199047 0.403770 -0.031488
v -0.195654 0.403138 0.052765
v -0.317073 1.615619 -0.299186
v -0.346543 1.112951 -0.130663
v -0.348789 1.349546 -0.299903
v -0.334268 1.110666 0.174084
v -0.363591 1.159961 -0.111102
v -0.322752 1.344701 0.346478
v -0.352806 1.157954 0.156663
v -0.276233 1.800358 0.158394
v -0.287019 1.802366 -0.109371
v -0.003994 -1.513403 0.030774
v 0.092486 -1.539075 -0.015580
v 0.077405 -1.534935 0.027145
v 0.037500 -1.524295 0.046401
v -0.022643 -1.508611 -0.010714
v -0.007394 -1.512770 -0.053667
v 0.074019 -1.534306 -0.056919
v 0.032701 -1.523402 -0.072743
v -0.371989 1.067272 -0.150057
v -0.358100 1.064687 0.194776
v -0.411650 1.050171 0.205418
v -0.426231 1.052884 -0.156574
v -0.460985 1.076939 0.199012
v -0.371017 1.302623 0.462091
v -0.474873 1.079524 -0.145821
v -0.406219 1.309174 -0.411845
v -0.291036 1.610774 0.347195
v -0.411597 1.626875 -0.295295
v -0.276633 0.379913 0.055820
v -0.180560 0.408284 0.010015
v -0.195654 0.403138 0.052765
v -0.235453 0.391396 0.071755
v -0.295084 0.375425 0.014381
v -0.280025 0.380543 -0.028369
v -0.199047 0.403770 -0.031488
v -0.240253 0.392290 -0.047389
v -0.317073 1.615619 -0.299186
v -0.339798 1.609638 0.332342
v -0.385562 1.622030 0.351087
v -0.370758 1.811615 0.162286
v -0.325766 1.789362 0.153330
v -0.276233 1.800358 0.158394
v -0.287019 1.802366 -0.109371
v -0.335990 1.791265 -0.100505
v -0.364482 1.614232 -0.280477
v -0.381543 1.813622 -0.105479
v 0.037595 -0.895649 0.033698
v 0.012606 -0.625758 0.036728
v 0.055383 -0.622951 0.052437
v 0.036734 -1.203852 0.031423
v 0.080437 -0.893777 0.049398
v 0.096578 -0.619992 0.033230
v -0.003994 -1.513403 0.030774
v 0.079324 -1.209034 0.047080
v 0.037500 -1.524295 0.046401
v 0.077405 -1.534935 0.027145
v 0.121745 -0.891662 0.030211
v 0.120338 -1.214001 0.027821
v -0.358100 1.064687 0.194776
v -0.460985 1.076939 0.199012
v -0.371017 1.302623 0.462091
v -0.422279 1.317431 0.443494
v -0.381430 1.660127 0.444417
v -0.328136 1.662372 0.463060
v -0.319394 1.305179 0.439258
v -0.278546 1.647874 0.440181
v -0.308123 1.918690 0.207758
v -0.362363 1.904301 0.201241
v -0.259479 1.892050 0.197005
v -0.411597 1.626875 -0.295295
v -0.368828 1.104069 0.065280
v -0.319201 0.828084 0.060959
v -0.195654 0.403138 0.052765
v -0.235453 0.391396 0.071755
v -0.359217 0.816783 0.079929
v -0.276633 0.379913 0.055820
v -0.410352 1.106672 0.084130
v -0.400501 0.805793 0.063940
v -0.452521 1.109699 0.067932
v -0.317073 1.615619 -0.299186
v -0.348789 1.349546 -0.299903
v -0.363591 1.159961 -0.111102
v -0.394555 1.361938 -0.281157
v -0.408588 1.182212 -0.102146
v -0.458117 1.171218 -0.107210
v -0.443313 1.360802 -0.296012
v -0.364482 1.614232 -0.280477
vn -0.9992 0.0077 0.0403
vn -0.7050 0.1972 -0.6813
vn -0.7543 -0.0663 -0.6531
vn -0.9634 0.2650 0.0408
vn -0.6477 0.1866 0.7387
vn -0.6204 -0.6853 -0.3815
vn -0.6994 -0.0765 0.7106
vn -0.5881 -0.6912 0.4199
vn -0.7643 -0.6443 0.0259
vn -0.6462 0.5927 -0.4808
vn -0.9927 0.1103 0.0487
vn -0.6463 0.5927 -0.4806
vn -0.9931 0.1024 0.0565
vn -0.7038 -0.4476 0.5517
vn -0.6051 0.5851 0.5400
vn -0.9933 0.1103 0.0330
vn -0.9936 0.1105 0.0251
vn -0.7460 -0.4397 -0.5001
vn -0.7461 -0.4398 -0.5000
vn -0.7058 -0.2085 -0.6770
vn -0.7083 -0.1833 -0.6817
vn -0.9538 -0.2984 0.0362
vn -0.6987 -0.1531 -0.6989
vn -0.9635 -0.2650 0.0368
vn -0.9716 -0.2335 0.0374
vn -0.6403 -0.1639 0.7504
vn -0.6514 -0.1938 0.7336
vn -0.6492 -0.2191 0.7284
vn -0.5792 0.5976 0.5545
vn -0.9894 0.1337 0.0566
vn -0.5791 0.5976 0.5545
vn -0.9908 0.1259 0.0488
vn -0.7672 -0.4217 -0.4834
vn -0.7260 -0.4293 0.5372
vn -0.9915 0.1261 0.0330
vn -0.7260 -0.4292 0.5372
vn -0.9907 0.1337 0.0252
vn -0.6215 0.6055 -0.4971
vn 0.7259 0.4294 -0.5373
vn 0.0552 0.7075 -0.7046
vn 0.7220 0.4327 -0.5399
vn 0.0553 0.7078 -0.7042
vn -0.6461 0.5927 -0.4808
vn -0.6461 0.5928 -0.4808
vn 0.0772 0.8363 -0.5428
vn 0.0772 0.8364 -0.5426
vn 0.0772 0.8363 -0.5429
vn 0.1208 0.8209 0.5582
vn 0.1208 0.8208 0.5583
vn 0.7036 0.4478 -0.5518
vn 0.0553 0.7078 -0.7043
vn 0.7036 0.4477 -0.5518
vn -0.6213 0.6055 -0.4973
vn -0.6213 0.6056 -0.4973
vn -0.0324 0.0066 -0.9995
vn -0.1090 -0.2450 -0.9634
vn -0.7048 0.1972 -0.6815
vn -0.7543 -0.0663 -0.6532
vn -0.6205 -0.6852 -0.3815
vn -0.2437 -0.7909 -0.5614
vn 0.1463 -0.8979 -0.4152
vn 0.5602 -0.4283 -0.7090
vn 0.6518 -0.1863 -0.7351
vn -0.1121 -0.6964 -0.7088
vn -0.7460 -0.4399 -0.5001
vn -0.7460 -0.4399 -0.5000
vn 0.5790 -0.5976 -0.5547
vn 0.5789 -0.5976 -0.5547
vn -0.1121 -0.6965 -0.7088
vn 0.0316 0.5534 -0.8323
vn 0.0317 0.5534 -0.8323
vn -0.0481 0.0084 -0.9988
vn -0.7082 -0.1833 -0.6818
vn -0.7057 -0.2085 -0.6771
vn -0.0323 0.0065 -0.9995
vn 0.6407 0.2199 -0.7357
vn -0.6985 -0.1530 -0.6991
vn 0.0085 0.0175 -0.9998
vn 0.6596 0.1929 -0.7264
vn 0.6812 0.1742 -0.7111
vn 0.6050 -0.5851 -0.5400
vn -0.1121 -0.6967 -0.7085
vn -0.7670 -0.4217 -0.4835
vn -0.7670 -0.4218 -0.4835
vn -0.0983 -0.5355 -0.8388
vn -0.0982 -0.5355 -0.8388
vn -0.0984 -0.5355 -0.8388
vn -0.0982 -0.5354 -0.8388
vn 0.6153 -0.4386 0.6550
vn 0.9634 -0.2649 -0.0408
vn 0.7089 -0.1971 0.6772
vn 0.1786 -0.9039 0.3886
vn 0.8606 -0.5078 -0.0385
vn 0.3213 -0.9468 -0.0200
vn 0.5604 -0.4283 -0.7089
vn 0.6520 -0.1864 -0.7349
vn 0.9915 -0.1261 -0.0330
vn 0.9907 -0.1339 -0.0252
vn 0.7260 0.4293 -0.5372
vn 0.7222 0.4326 -0.5397
vn 0.6216 -0.6054 0.4972
vn 0.6216 -0.6054 0.4971
vn 0.7671 0.4216 0.4835
vn 0.9908 -0.1259 -0.0488
vn 0.9904 -0.1259 -0.0566
vn 0.5791 -0.5976 -0.5545
vn 0.9733 0.2264 -0.0375
vn 0.7161 0.1825 0.6737
vn 0.7364 0.1640 0.6564
vn 0.9636 0.2649 -0.0367
vn 0.6980 0.2092 0.6849
vn 0.9538 0.2984 -0.0362
vn 0.6408 0.2199 -0.7356
vn 0.6597 0.1929 -0.7264
vn 0.6813 0.1742 -0.7110
vn 0.7461 0.4398 0.5000
vn 0.9944 -0.1027 -0.0251
vn 0.9933 -0.1105 -0.0329
vn 0.6051 -0.5850 -0.5400
vn 0.6462 -0.5927 0.4807
vn 0.9927 -0.1103 -0.0488
vn 0.9931 -0.1025 -0.0565
vn 0.6462 -0.5928 0.4807
vn 0.7038 0.4476 -0.5517
vn 0.1462 -0.8979 -0.4152
vn -0.6203 -0.6852 -0.3816
vn -0.2438 -0.7909 -0.5613
vn -0.7642 -0.6444 0.0260
vn -0.5882 -0.6912 0.4198
vn -0.1983 -0.7993 0.5672
vn 0.6213 -0.6055 0.4973
vn -0.0553 -0.7078 0.7043
vn 0.6214 -0.6056 0.4972
vn -0.0552 -0.7075 0.7045
vn -0.7036 -0.4478 0.5517
vn -0.7036 -0.4477 0.5518
vn 0.6461 -0.5927 0.4808
vn -0.0552 -0.7075 0.7046
vn 0.6461 -0.5928 0.4808
vn -0.0553 -0.7078 0.7042
vn -0.7259 -0.4294 0.5373
vn -0.7259 -0.4294 0.5374
vn -0.1208 -0.8209 -0.5582
vn -0.1208 -0.8208 -0.5583
vn -0.0772 -0.8363 0.5428
vn -0.0772 -0.8362 0.5429
vn -0.0773 -0.8363 0.5428
vn -0.0313 -0.2594 0.9653
vn -0.6992 -0.0767 0.7108
vn 0.0480 -0.0084 0.9988
vn 0.6152 -0.4385 0.6552
vn 0.7088 -0.1971 0.6773
vn 0.1121 0.6968 0.7085
vn 0.1121 0.6965 0.7088
vn -0.6050 0.5851 0.5400
vn 0.7670 0.4218 0.4836
vn 0.7671 0.4217 0.4835
vn 0.0980 0.5319 0.8411
vn 0.0980 0.5318 0.8412
vn 0.0981 0.5318 0.8412
vn 0.0979 0.5318 0.8412
vn 0.0980 0.5319 0.8412
vn -0.6512 -0.1938 0.7337
vn 0.0325 -0.0066 0.9995
vn -0.6401 -0.1638 0.7506
vn 0.0481 -0.0084 0.9988
vn 0.0888 0.0026 0.9960
vn 0.6979 0.2092 0.6849
vn 0.7159 0.1824 0.6739
vn 0.7363 0.1640 0.6565
vn 0.7459 0.4399 0.5001
vn 0.1121 0.6965 0.7087
vn 0.1121 0.6966 0.7087
vn -0.5790 0.5977 0.5546
vn -0.5790 0.5976 0.5546
vn -0.0316 -0.5534 0.8323
vn -0.0317 -0.5534 0.8323
vn -0.7320 -0.0612 -0.6785
vn -0.7274 -0.0222 -0.6859
vn -0.9946 -0.0959 0.0393
vn -0.9981 -0.0479 0.0398
vn -0.7266 0.0489 -0.6853
vn -0.6698 -0.0329 0.7418
vn -0.6751 -0.0718 0.7342
vn -0.6691 0.0383 0.7422
vn -0.9972 0.0633 0.0406
vn -0.9902 0.1337 0.0409
vn -0.6559 0.0841 0.7502
vn -0.7140 0.0949 -0.6937
vn -0.7681 -0.5869 -0.2560
vn -0.7454 -0.5912 0.3081
vn -0.9959 0.0710 0.0564
vn -0.9909 0.1020 0.0879
vn -0.6832 -0.2048 0.7010
vn -0.9971 0.0713 0.0250
vn -0.6540 0.7211 -0.2285
vn -0.7141 0.3485 -0.6072
vn -0.9872 0.1333 0.0880
vn -0.6164 0.3558 0.7025
vn -0.9947 0.1026 -0.0064
vn -0.9847 0.1647 0.0566
vn -0.5857 0.7481 0.3118
vn -0.6085 0.7524 -0.2524
vn -0.9860 0.1649 0.0252
vn -0.6707 0.3660 -0.6452
vn -0.9910 0.1340 -0.0063
vn -0.7374 -0.1946 -0.6468
vn -0.7242 -0.1773 0.6665
vn -0.7606 -0.1210 -0.6379
vn -0.7294 -0.1573 -0.6658
vn -0.9851 -0.1678 0.0384
vn -0.6735 -0.1678 0.7199
vn -0.7069 -0.1312 0.6951
vn -0.9739 -0.2240 0.0377
vn -0.6508 -0.2012 0.7320
vn -0.7077 -0.1907 -0.6803
vn -0.9588 -0.2816 0.0365
vn -0.6332 0.7172 0.2910
vn -0.6627 0.3390 0.6678
vn -0.7756 -0.1677 -0.6085
vn -0.8051 -0.5459 -0.2318
vn -0.7842 -0.5498 0.2877
vn 0.7453 0.5913 -0.3081
vn 0.1247 0.9130 0.3884
vn 0.7681 0.5870 0.2560
vn 0.0936 0.9188 -0.3835
vn -0.5856 0.7482 0.3118
vn 0.8051 0.5461 0.2317
vn 0.7755 0.1677 0.6086
vn 0.0828 0.3767 0.9226
vn 0.7841 0.5499 -0.2877
vn 0.8050 0.5460 0.2319
vn 0.0087 0.3904 -0.9206
vn 0.7241 0.1773 -0.6665
vn -0.6330 0.7173 0.2911
vn -0.6540 0.7212 -0.2283
vn -0.7140 0.3484 -0.6072
vn -0.6331 0.7173 0.2910
vn 0.0827 0.3766 0.9227
vn -0.6626 0.3389 0.6679
vn -0.0707 0.9974 0.0103
vn -0.0708 0.9974 0.0103
vn -0.0709 0.9974 0.0103
vn -0.0709 0.9974 0.0104
vn -0.0246 0.0056 -0.9997
vn 0.6750 0.0718 -0.7343
vn 0.6863 0.0387 -0.7262
vn -0.0402 0.0074 -0.9992
vn -0.7272 -0.0222 -0.6860
vn -0.7319 -0.0613 -0.6786
vn -0.7265 0.0488 -0.6854
vn -0.0246 0.0055 -0.9997
vn -0.7138 0.0950 -0.6938
vn -0.0089 0.0038 -1.0000
vn 0.6852 -0.0402 -0.7272
vn 0.6881 -0.0881 -0.7202
vn 0.0086 0.3905 -0.9206
vn 0.0936 0.9187 -0.3836
vn 0.7454 0.5912 -0.3081
vn -0.6084 0.7524 -0.2524
vn 0.6831 0.2048 -0.7010
vn -0.6706 0.3660 -0.6453
vn 0.6162 -0.3559 -0.7026
vn -0.7374 -0.1948 -0.6468
vn -0.0829 -0.3766 -0.9227
vn -0.7680 -0.5870 -0.2560
vn 0.5858 -0.7481 -0.3118
vn -0.0403 0.0075 -0.9992
vn 0.6531 0.1612 -0.7399
vn 0.6507 0.2012 -0.7321
vn -0.0568 0.0016 -0.9984
vn 0.6415 0.1236 -0.7571
vn -0.1045 -0.0008 -0.9945
vn -0.7293 -0.1573 -0.6659
vn -0.7605 -0.1210 -0.6380
vn 0.0086 0.3904 -0.9206
vn 0.6626 -0.3391 -0.6679
vn 0.7841 0.5500 -0.2876
vn 0.0937 0.9188 -0.3835
vn -0.7139 0.3486 -0.6073
vn -0.0828 -0.3766 -0.9227
vn -0.7755 -0.1678 -0.6086
vn -0.1247 -0.9130 -0.3884
vn -0.8050 -0.5461 -0.2318
vn 0.9966 -0.0710 -0.0407
vn 0.6882 -0.0880 -0.7201
vn 0.6854 -0.0403 -0.7271
vn 0.6865 0.0386 -0.7261
vn 0.9902 -0.1336 -0.0409
vn 0.7439 -0.0983 0.6610
vn 0.9981 0.0479 -0.0398
vn 0.6751 0.0718 -0.7342
vn 0.9946 0.0957 -0.0393
vn 0.7321 0.0613 0.6785
vn 0.7427 0.0282 0.6690
vn 0.7415 -0.0506 0.6690
vn 0.6085 -0.7523 0.2524
vn 0.9910 -0.1339 0.0062
vn 0.6707 -0.3660 0.6452
vn 0.9947 -0.1027 0.0064
vn 0.7375 0.1947 0.6467
vn 0.9972 -0.0712 -0.0250
vn 0.7681 0.5870 0.2559
vn 0.6627 -0.3390 -0.6678
vn 0.9959 -0.0710 -0.0564
vn 0.6832 0.2046 -0.7009
vn 0.6162 -0.3560 -0.7025
vn 0.9909 -0.1020 -0.0879
vn 0.9872 -0.1333 -0.0880
vn 0.5858 -0.7481 -0.3117
vn 0.9733 0.2265 -0.0375
vn 0.6416 0.1236 -0.7570
vn 0.9834 0.1775 -0.0383
vn 0.7005 0.1126 0.7047
vn 0.6532 0.1613 -0.7398
vn 0.7107 0.1505 0.6872
vn 0.9589 0.2815 -0.0365
vn 0.6508 0.2012 -0.7321
vn 0.7078 0.1906 0.6802
vn 0.7141 -0.3486 0.6071
vn 0.9847 -0.1647 -0.0566
vn 0.7756 0.1676 0.6086
vn 0.9860 -0.1649 -0.0252
vn 0.8051 0.5459 0.2319
vn 0.7243 0.1773 -0.6663
vn 0.7842 0.5498 -0.2876
vn 0.6332 -0.7172 -0.2911
vn 0.6541 -0.7211 0.2284
vn -0.2574 -0.9663 0.0031
vn -0.2575 -0.9663 0.0031
vn 0.5856 -0.7482 -0.3118
vn 0.6084 -0.7524 0.2524
vn -0.0936 -0.9188 0.3835
vn -0.1247 -0.9130 -0.3885
vn -0.7453 -0.5913 0.3081
vn -0.0086 -0.3906 0.9205
vn -0.7680 -0.5871 -0.2560
vn -0.0830 -0.3767 -0.9226
vn 0.2744 -0.9614 -0.0183
vn 0.2742 -0.9615 -0.0182
vn 0.2740 -0.9615 -0.0182
vn 0.2743 -0.9615 -0.0182
vn 0.2741 -0.9615 -0.0182
vn 0.2742 -0.9615 -0.0183
vn -0.8051 -0.5461 -0.2317
vn -0.7755 -0.1676 -0.6087
vn 0.6626 -0.3388 -0.6679
vn -0.1247 -0.9131 -0.3883
vn 0.6330 -0.7173 -0.2911
vn 0.6539 -0.7212 0.2285
vn -0.8050 -0.5460 -0.2319
vn 0.7139 -0.3485 0.6073
vn -0.7841 -0.5500 0.2877
vn -0.7241 -0.1772 0.6665
vn -0.6697 -0.0328 0.7419
vn 0.0402 -0.0074 0.9992
vn -0.6750 -0.0718 0.7343
vn 0.0558 -0.0093 0.9984
vn -0.6690 0.0383 0.7423
vn 0.7319 0.0612 0.6786
vn -0.6557 0.0840 0.7503
vn 0.0715 -0.0111 0.9974
vn 0.7425 0.0283 0.6692
vn 0.7414 -0.0505 0.6691
vn 0.7438 -0.0984 0.6611
vn -0.7454 -0.5911 0.3082
vn -0.0087 -0.3904 0.9206
vn -0.6831 -0.2048 0.7010
vn 0.0829 0.3767 0.9226
vn -0.6162 0.3559 0.7025
vn 0.6706 -0.3660 0.6453
vn 0.6085 -0.7524 0.2524
vn 0.7373 0.1947 0.6468
vn 0.1247 0.9130 0.3885
vn -0.5857 0.7482 0.3117
vn 0.7106 0.1505 0.6873
vn 0.0401 -0.0074 0.9992
vn 0.7077 0.1906 0.6803
vn 0.0237 -0.0134 0.9996
vn 0.7004 0.1126 0.7048
vn -0.6507 -0.2013 0.7322
vn -0.0241 -0.0156 0.9996
vn -0.6734 -0.1677 0.7200
vn -0.7068 -0.1310 0.6952
vn 0.7140 -0.3486 0.6072
vn 0.0829 0.3765 0.9227
vn 0.7755 0.1678 0.6086
vn 0.0828 0.3768 0.9226
vn 0.8050 0.5461 0.2317
vn -0.7241 -0.1773 0.6665
vn -0.6626 0.3391 0.6678
vt 52.000000 -29.718500
vt 51.986198 -29.590799
vt 51.986198 -29.719299
vt 52.000000 -29.590000
vt 52.013802 -29.590799
vt 51.990898 -29.730400
vt 52.013802 -29.719299
vt 52.009102 -29.730400
vt 52.000000 -29.729900
vt 51.844200 -28.352301
vt 51.934700 -28.294800
vt 51.921902 -28.274700
vt 51.864101 -28.365400
vt 51.946499 -28.312599
vt 51.881699 -28.377399
vt 52.080299 -28.276800
vt 52.137798 -28.367300
vt 52.157902 -28.354401
vt 52.067200 -28.296600
vt 52.119999 -28.379101
vt 52.055199 -28.314301
vt 51.986198 -28.860300
vt 51.986198 -29.102699
vt 52.000000 -28.862499
vt 51.986301 -29.240900
vt 52.000000 -29.104900
vt 52.000000 -29.241800
vt 52.013699 -29.240900
vt 52.013802 -29.102699
vt 52.013802 -28.860300
vt 51.880001 -28.486000
vt 51.932800 -28.568501
vt 51.944801 -28.550900
vt 51.862202 -28.497801
vt 51.919701 -28.588400
vt 51.842098 -28.510700
vt 52.155800 -28.512899
vt 52.065300 -28.570400
vt 52.078098 -28.590401
vt 52.135899 -28.499800
vt 52.053501 -28.552500
vt 52.118301 -28.487801
vt 51.881100 -28.844200
vt 51.857399 -28.916599
vt 51.881100 -28.921900
vt 51.857399 -28.835800
vt 51.833698 -28.844200
vt 51.833698 -28.921900
vt 51.836300 -28.879999
vt 51.833698 -28.842100
vt 51.825001 -28.862200
vt 51.857399 -28.833700
vt 51.857399 -28.886299
vt 51.878601 -28.879999
vt 51.881100 -28.842100
vt 51.889801 -28.862200
vt 51.878601 -29.118299
vt 51.857399 -29.164200
vt 51.881100 -29.155800
vt 51.889801 -29.135900
vt 51.857399 -29.112101
vt 51.836300 -29.118299
vt 51.833698 -29.155800
vt 51.825001 -29.135900
vt 51.878601 -29.053499
vt 51.857399 -29.049299
vt 51.836300 -29.053499
vt 51.844299 -29.592699
vt 51.864101 -29.721399
vt 51.857899 -29.590799
vt 51.877701 -29.719299
vt 51.874699 -29.730400
vt 51.865700 -29.731800
vt 51.856701 -29.733200
vt 51.850498 -29.723499
vt 51.830700 -29.594601
vt 52.142601 -28.320499
vt 52.163700 -28.379101
vt 52.163700 -28.314301
vt 52.121399 -28.379101
vt 52.121399 -28.314301
vt 52.142601 -28.383301
vt 52.142601 -28.268400
vt 52.166302 -28.276800
vt 52.174999 -28.296600
vt 52.118900 -28.276800
vt 52.110199 -28.296600
vt 52.040699 -28.855000
vt 51.943699 -29.102699
vt 52.053501 -28.860300
vt 51.931000 -29.097401
vt 52.028000 -28.849800
vt 51.893101 -29.240900
vt 51.879501 -29.238800
vt 51.918301 -29.092100
vt 51.865799 -29.236700
vt 52.118900 -28.588400
vt 52.142601 -28.516001
vt 52.118900 -28.510700
vt 52.142601 -28.596701
vt 52.166302 -28.588400
vt 52.166302 -28.510700
vt 52.163700 -28.552500
vt 52.142601 -28.598900
vt 52.166302 -28.590401
vt 52.174999 -28.570400
vt 52.142601 -28.546301
vt 52.121399 -28.552500
vt 52.118900 -28.590401
vt 52.110199 -28.570400
vt 51.986198 -29.723499
vt 52.000000 -29.595301
vt 51.986198 -29.594601
vt 51.990898 -29.733200
vt 52.000000 -29.724400
vt 52.000000 -29.733801
vt 52.009102 -29.733200
vt 52.013802 -29.723499
vt 52.013802 -29.594601
vt 52.065300 -28.294800
vt 52.135899 -28.365400
vt 52.155800 -28.352301
vt 52.078098 -28.274700
vt 52.053501 -28.312599
vt 52.118301 -28.377399
vt 51.919701 -28.276800
vt 51.842098 -28.354401
vt 51.862202 -28.367300
vt 51.932800 -28.296600
vt 51.880001 -28.379101
vt 51.944801 -28.314301
vt 52.000000 -29.235800
vt 51.986198 -29.092100
vt 51.986198 -29.236700
vt 52.000000 -29.089899
vt 51.986198 -28.849800
vt 52.000000 -28.847601
vt 52.013802 -28.849800
vt 52.013802 -29.092100
vt 52.013802 -29.236700
vt 52.119999 -28.486000
vt 52.067200 -28.568501
vt 52.137798 -28.497801
vt 52.055199 -28.550900
vt 52.080299 -28.588400
vt 52.157902 -28.510700
vt 51.844200 -28.512899
vt 51.934700 -28.570400
vt 51.864101 -28.499800
vt 51.921902 -28.590401
vt 51.946499 -28.552500
vt 51.881699 -28.487801
vt 51.856701 -28.990900
vt 51.874699 -28.990900
vt 51.865700 -28.987200
vt 51.878399 -29.000000
vt 51.853001 -29.000000
vt 51.874699 -29.009100
vt 51.856701 -29.009100
vt 51.865700 -29.012800
vt 52.121399 -28.946501
vt 52.142601 -28.887899
vt 52.121399 -28.881701
vt 52.142601 -28.950701
vt 52.163700 -28.946501
vt 52.163700 -28.881701
vt 52.118900 -29.155800
vt 52.142601 -29.083401
vt 52.118900 -29.078100
vt 52.142601 -29.164200
vt 52.166302 -29.155800
vt 52.166302 -29.078100
vt 52.118900 -28.844200
vt 52.110199 -28.864100
vt 52.142601 -28.835800
vt 52.166302 -28.844200
vt 52.174999 -28.864100
vt 52.121399 -29.120001
vt 52.142601 -29.166300
vt 52.142601 -29.113701
vt 52.163700 -29.120001
vt 52.118900 -29.157900
vt 52.110199 -29.137800
vt 52.166302 -29.157900
vt 52.174999 -29.137800
vt 52.135899 -29.721399
vt 52.142101 -29.590799
vt 52.122299 -29.719299
vt 52.155701 -29.592699
vt 52.125301 -29.730400
vt 52.134300 -29.731800
vt 52.143299 -29.733200
vt 52.149502 -29.723499
vt 52.169300 -29.594601
vt 51.857399 -28.349199
vt 51.857399 -28.268400
vt 51.833698 -28.276800
vt 51.881100 -28.276800
vt 51.833698 -28.354401
vt 51.881100 -28.354401
vt 51.836300 -28.312599
vt 51.857399 -28.266199
vt 51.833698 -28.274700
vt 51.825001 -28.294800
vt 51.857399 -28.318800
vt 51.878601 -28.312599
vt 51.881100 -28.274700
vt 51.889801 -28.294800
vt 52.056301 -29.102699
vt 51.959301 -28.855000
vt 51.946499 -28.860300
vt 52.106899 -29.240900
vt 52.069000 -29.097401
vt 52.120499 -29.238800
vt 51.972000 -28.849800
vt 52.081699 -29.092100
vt 52.134201 -29.236700
vt 51.878601 -28.486000
vt 51.857399 -28.544701
vt 51.878601 -28.550900
vt 51.857399 -28.481899
vt 51.836300 -28.486000
vt 51.836300 -28.550900
vt 51.881100 -28.588400
vt 51.889801 -28.568501
vt 51.857399 -28.596701
vt 51.833698 -28.588400
vt 51.825001 -28.568501
vt 41.983299 -3.313880
vt 41.983299 -3.418440
vt 42.000000 -3.315180
vt 42.000000 -3.419580
vt 41.983299 -3.539210
vt 42.016701 -3.418440
vt 42.016701 -3.313880
vt 42.016701 -3.539210
vt 42.000000 -3.539200
vt 42.000000 -3.661390
vt 42.016701 -3.662350
vt 41.983299 -3.662350
vt 41.931900 -2.668900
vt 42.068100 -2.668900
vt 42.060200 -2.649800
vt 42.145199 -2.564720
vt 42.164299 -2.572630
vt 41.939800 -2.649800
vt 42.052898 -2.632160
vt 42.127602 -2.557420
vt 42.145199 -2.444410
vt 42.164299 -2.436490
vt 41.854801 -2.564720
vt 42.060200 -2.359330
vt 42.068100 -2.340230
vt 41.931900 -2.340230
vt 41.939800 -2.359330
vt 41.835701 -2.436490
vt 41.854801 -2.444410
vt 41.835701 -2.572630
vt 41.872398 -2.451710
vt 41.983601 -2.655820
vt 41.983398 -2.772430
vt 42.000000 -2.656110
vt 42.016602 -2.772430
vt 42.016399 -2.655820
vt 42.000000 -2.775000
vt 42.016602 -2.933470
vt 41.983398 -2.933470
vt 42.000000 -2.936130
vt 41.947102 -2.632160
vt 41.872398 -2.557420
vt 42.127602 -2.451710
vt 42.052898 -2.376960
vt 41.947102 -2.376960
vt 41.872700 -2.931930
vt 41.852299 -3.071460
vt 41.872700 -3.068070
vt 41.852299 -2.928540
vt 41.831799 -2.931930
vt 41.831799 -3.068070
vt 41.871101 -2.947150
vt 41.871101 -2.872400
vt 41.852299 -2.879030
vt 41.871101 -3.052850
vt 41.852299 -2.949890
vt 41.852299 -3.120970
vt 41.871101 -3.127600
vt 41.852299 -3.050110
vt 41.833500 -2.947150
vt 41.833500 -3.052850
vt 41.833500 -3.127600
vt 41.833500 -2.872400
vt 42.131802 -3.016590
vt 42.092300 -3.000000
vt 42.099098 -3.016660
vt 42.115501 -3.023520
vt 42.138500 -3.000000
vt 42.131802 -2.983410
vt 42.099098 -2.983340
vt 42.115501 -2.976480
vt 41.862000 -3.415690
vt 41.868198 -3.307710
vt 41.845699 -3.412950
vt 41.884499 -3.310780
vt 41.878502 -3.418440
vt 41.900902 -3.313880
vt 41.864399 -3.539210
vt 41.847698 -3.539230
vt 41.865898 -3.662350
vt 41.849400 -3.664660
vt 41.831100 -3.539270
vt 41.833000 -3.666990
vt 42.147701 -2.433110
vt 42.147701 -2.332050
vt 42.127300 -2.340230
vt 42.168201 -2.340230
vt 42.127300 -2.436490
vt 42.168201 -2.436490
vt 42.127300 -2.572630
vt 42.168201 -2.572630
vt 42.147701 -2.576020
vt 42.168201 -2.668900
vt 42.127300 -2.668900
vt 42.045898 -2.927030
vt 42.098900 -2.759900
vt 42.030602 -2.920580
vt 42.114300 -2.766180
vt 42.131199 -2.654110
vt 42.061199 -2.933470
vt 42.147900 -2.655020
vt 42.129700 -2.772430
vt 42.164299 -2.655820
vt 42.147701 -2.554670
vt 42.128899 -2.451710
vt 42.128899 -2.557420
vt 42.128899 -2.632160
vt 42.147701 -2.625540
vt 42.166500 -2.557420
vt 42.147701 -2.454460
vt 42.166500 -2.451710
vt 42.147701 -2.383590
vt 42.166500 -2.376960
vt 42.000000 -3.539290
vt 42.016602 -3.666990
vt 42.016602 -3.539270
vt 42.016602 -3.412950
vt 42.000000 -3.667950
vt 41.983398 -3.666990
vt 42.000000 -3.411810
vt 42.016602 -3.307710
vt 42.000000 -3.306460
vt 41.983398 -3.307710
vt 41.983398 -3.412950
vt 41.983398 -3.539270
vt 42.000000 -2.757300
vt 42.016701 -2.654110
vt 42.000000 -2.653720
vt 41.983299 -2.654110
vt 42.016602 -2.759900
vt 41.983398 -2.759900
vt 42.000000 -2.917910
vt 42.016602 -2.920580
vt 41.983398 -2.920580
vt 41.865898 -3.016660
vt 41.826199 -3.000000
vt 41.833000 -3.016590
vt 41.849400 -3.023520
vt 41.872799 -3.000000
vt 41.865898 -2.983340
vt 41.833000 -2.983410
vt 41.849400 -2.976480
vt 42.127300 -2.931930
vt 42.127300 -3.068070
vt 42.147701 -3.071460
vt 42.147701 -2.928540
vt 42.168201 -3.068070
vt 42.147701 -3.172510
vt 42.168201 -2.931930
vt 42.147701 -2.827490
vt 42.061199 -3.016620
vt 42.024200 -3.000000
vt 42.030602 -3.016630
vt 42.045898 -3.023520
vt 42.067600 -3.000000
vt 42.061199 -2.983380
vt 42.030602 -2.983370
vt 42.045898 -2.976480
vt 42.166500 -3.052850
vt 42.147701 -3.120970
vt 42.166500 -3.127600
vt 42.128899 -3.127600
vt 42.147701 -3.050110
vt 42.128899 -3.052850
vt 42.128899 -2.947150
vt 42.147701 -2.949890
vt 42.147701 -2.879030
vt 42.128899 -2.872400
vt 42.166500 -2.947150
vt 42.166500 -2.872400
vt 42.121498 -3.418440
vt 42.115501 -3.310780
vt 42.099098 -3.313880
vt 42.138000 -3.415690
vt 42.135601 -3.539210
vt 42.131802 -3.307710
vt 42.134102 -3.662350
vt 42.152302 -3.539230
vt 42.150600 -3.664660
vt 42.154301 -3.412950
vt 42.168900 -3.539270
vt 42.167000 -3.666990
vt 41.831799 -2.668900
vt 41.852299 -2.576020
vt 41.831799 -2.572630
vt 41.852299 -2.433110
vt 41.831799 -2.436490
vt 41.872700 -2.572630
vt 41.872700 -2.668900
vt 41.872700 -2.436490
vt 41.852299 -2.332050
vt 41.831799 -2.340230
vt 41.872700 -2.340230
vt 41.901100 -2.759900
vt 41.954102 -2.927030
vt 41.969398 -2.920580
vt 41.885700 -2.766180
vt 41.868801 -2.654110
vt 41.938801 -2.933470
vt 41.852100 -2.655020
vt 41.870300 -2.772430
vt 41.835701 -2.655820
vt 41.871101 -2.451710
vt 41.852299 -2.554670
vt 41.871101 -2.557420
vt 41.852299 -2.625540
vt 41.871101 -2.632160
vt 41.833500 -2.632160
vt 41.833500 -2.451710
vt 41.833500 -2.557420
vt 41.852299 -2.454460
s 1
usemtl Meshpart1Mtl.002
f 3/1/1 1/2/2 2/3/3
f 1/2/2 3/1/1 4/4/4
f 4/4/4 3/1/1 5/5/5
f 3/1/1 2/3/3 6/6/6
f 7/7/7 5/5/5 3/1/1
f 3/1/1 8/8/8 7/7/7
f 9/9/9 3/1/1 6/6/6
f 8/8/8 3/1/1 9/9/9
f 10/10/10 13/11/11 11/12/12
f 13/11/11 10/10/10 15/13/13
f 12/14/14 15/13/13 14/15/14
f 15/13/13 12/14/14 13/11/11
f 16/16/15 18/17/16 17/18/15
f 18/17/16 16/16/15 19/19/17
f 19/19/17 20/20/18 18/17/16
f 20/20/18 19/19/17 21/21/19
f 22/22/20 23/23/21 24/24/22
f 23/23/21 25/25/23 26/26/24
f 26/26/24 24/24/22 23/23/21
f 27/27/25 26/26/24 25/25/23
f 28/28/26 26/26/24 27/27/25
f 29/29/27 24/24/22 26/26/24
f 26/26/24 28/28/26 29/29/27
f 24/24/22 29/29/27 30/30/28
f 31/31/29 34/32/30 32/33/31
f 34/32/30 31/31/29 36/34/32
f 33/35/33 36/34/32 35/36/33
f 36/34/32 33/35/33 34/32/30
f 37/37/34 40/38/35 38/39/36
f 40/38/35 37/37/34 42/40/37
f 39/41/38 42/40/37 41/42/38
f 42/40/37 39/41/38 40/38/35
f 43/43/39 45/44/40 44/45/41
f 45/44/40 43/43/39 46/46/42
f 45/44/40 46/46/42 47/47/43
f 45/44/40 47/47/43 48/48/44
f 49/49/45 50/50/45 51/51/45
f 49/49/45 52/52/46 50/50/45
f 53/53/47 52/52/46 49/49/45
f 52/52/46 53/53/47 54/54/45
f 54/54/45 55/55/45 52/52/46
f 55/55/45 54/54/45 56/56/45
f 57/57/48 58/58/49 59/59/48
f 57/57/48 59/59/48 60/60/48
f 61/61/48 58/58/49 57/57/48
f 58/58/49 61/61/48 62/62/48
f 62/62/48 63/63/48 58/58/49
f 63/63/48 62/62/48 64/64/48
f 65/65/50 67/61/51 66/57/52
f 67/61/51 65/65/50 68/66/51
f 67/61/51 68/66/51 69/67/53
f 69/67/53 70/62/54 67/61/51
f 71/68/55 72/69/56 73/70/57
f 74/71/58 73/70/57 72/69/56
f 72/69/56 75/72/59 74/71/58
f 75/72/59 72/69/56 76/73/60
f 77/74/61 76/73/60 72/69/56
f 72/69/56 78/75/62 77/74/61
f 79/76/63 78/75/62 71/68/55
f 72/69/56 71/68/55 78/75/62
f 84/77/64 80/78/65 82/79/66
f 81/80/67 84/77/64 83/81/68
f 80/78/65 84/77/64 85/82/69
f 84/77/64 81/80/67 85/82/69
f 86/79/70 87/83/70 88/77/70
f 87/83/70 89/81/71 88/77/70
f 87/83/70 86/79/70 90/84/70
f 90/84/70 86/79/70 91/85/71
f 89/81/71 87/83/70 92/86/70
f 89/81/71 92/86/70 93/87/70
f 96/88/72 95/89/73 94/90/74
f 95/89/73 96/88/72 97/91/75
f 98/92/76 97/91/75 96/88/72
f 97/91/75 99/93/77 95/89/73
f 99/93/77 97/91/75 100/94/78
f 97/91/75 98/92/76 101/95/79
f 100/94/78 101/95/79 102/96/80
f 101/95/79 100/94/78 97/91/75
f 103/97/81 105/98/69 104/99/81
f 105/98/69 103/97/81 106/100/82
f 105/98/69 106/100/82 107/101/83
f 107/101/83 108/102/84 105/98/69
f 109/103/85 110/104/86 111/105/87
f 109/103/85 111/105/87 112/106/85
f 113/107/88 110/104/86 109/103/85
f 110/104/86 113/107/88 114/108/86
f 114/108/86 115/109/86 110/104/86
f 115/109/86 114/108/86 116/110/86
f 120/111/89 122/112/90 121/113/91
f 119/114/92 123/115/93 120/111/89
f 123/115/93 119/114/92 118/116/94
f 122/112/90 120/111/89 123/115/93
f 117/117/61 123/115/93 118/116/94
f 124/118/95 122/112/90 123/115/93
f 123/115/93 117/117/61 124/118/95
f 122/112/90 124/118/95 125/119/96
f 126/120/97 127/121/98 128/122/99
f 128/122/99 129/123/100 126/120/97
f 127/121/98 126/120/97 130/124/101
f 130/124/101 131/125/102 127/121/98
f 132/126/103 133/127/103 134/128/104
f 134/128/104 135/129/105 132/126/103
f 135/129/105 134/128/104 136/130/106
f 136/130/106 137/131/106 135/129/105
f 142/132/107 140/133/108 141/134/109
f 143/135/110 139/136/111 140/133/108
f 140/133/108 142/132/107 143/135/110
f 139/136/111 143/135/110 144/137/112
f 143/135/110 138/138/113 144/137/112
f 142/132/107 145/139/114 143/135/110
f 138/138/113 143/135/110 145/139/114
f 145/139/114 142/132/107 146/140/115
f 147/141/116 148/142/117 149/143/118
f 148/142/117 147/141/116 150/144/116
f 151/145/119 149/143/118 148/142/117
f 149/143/118 151/145/119 152/146/119
f 153/147/120 154/148/121 155/149/122
f 154/148/121 153/147/120 156/150/123
f 157/151/124 155/149/122 154/148/121
f 155/149/122 157/151/124 158/152/124
f 161/153/125 159/154/126 160/155/127
f 159/154/126 161/153/125 163/156/128
f 163/156/128 161/153/125 165/157/94
f 163/156/128 165/157/94 162/158/129
f 162/158/129 166/159/92 164/160/130
f 162/158/129 165/157/94 166/159/92
f 167/161/131 169/162/132 168/163/133
f 169/162/132 167/161/131 170/164/134
f 171/165/135 169/162/132 170/164/134
f 169/162/132 171/165/135 172/166/136
f 173/167/137 175/168/138 174/169/139
f 175/168/138 173/167/137 176/170/140
f 175/168/138 176/170/140 177/171/141
f 177/171/141 178/172/142 175/168/138
f 179/163/143 180/173/143 181/174/143
f 179/163/143 182/175/144 180/173/143
f 183/162/143 182/175/144 179/163/143
f 182/175/144 183/162/143 184/166/143
f 184/166/143 185/176/143 182/175/144
f 185/176/143 184/166/143 186/177/143
f 187/178/145 188/179/145 189/180/146
f 188/179/145 190/181/145 189/180/146
f 188/179/145 187/178/145 191/182/145
f 191/182/145 187/178/145 192/183/145
f 190/181/145 188/179/145 193/184/145
f 190/181/145 193/184/145 194/185/147
f 197/186/148 195/187/5 196/188/149
f 195/187/5 197/186/148 198/189/150
f 196/188/149 199/190/129 197/186/148
f 197/186/148 199/190/129 200/191/130
f 201/192/92 197/186/148 200/191/130
f 202/193/151 198/189/150 197/186/148
f 197/186/148 201/192/92 202/193/151
f 198/189/150 202/193/151 203/194/152
f 204/195/153 205/196/154 206/197/155
f 204/195/153 207/198/156 205/196/154
f 206/197/155 208/199/155 204/195/153
f 207/198/156 204/195/153 209/200/157
f 210/201/158 211/202/159 212/203/160
f 210/201/158 212/203/160 213/204/158
f 214/205/161 211/202/159 210/201/158
f 211/202/159 214/205/161 215/206/158
f 215/206/158 216/207/162 211/202/159
f 216/207/162 215/206/158 217/208/159
f 219/209/163 221/210/164 220/211/28
f 218/212/165 222/213/166 219/209/163
f 221/210/164 219/209/163 222/213/166
f 222/213/166 218/212/165 223/214/167
f 222/213/166 224/215/168 221/210/164
f 223/214/167 225/216/169 222/213/166
f 224/215/168 222/213/166 225/216/169
f 225/216/169 223/214/167 226/217/170
f 227/218/171 229/219/172 228/220/171
f 229/219/172 227/218/171 230/221/173
f 231/222/174 229/219/172 230/221/173
f 229/219/172 231/222/174 232/223/175
f 233/220/176 234/224/176 235/225/176
f 233/220/176 236/226/176 234/224/176
f 237/219/176 236/226/176 233/220/176
f 236/226/176 237/219/176 238/223/177
f 238/223/177 239/227/176 236/226/176
f 239/227/176 238/223/177 240/228/177
usemtl Meshpart2Mtl.002
f 242/229/178 241/230/179 243/231/180
f 245/232/181 243/231/180 241/230/179
f 241/230/179 244/233/182 245/232/181
f 246/234/183 243/231/180 245/232/181
f 243/231/180 246/234/183 247/235/184
f 245/232/181 248/236/185 246/234/183
f 248/236/185 245/232/181 249/237/186
f 249/237/186 245/232/181 244/233/182
f 249/237/186 250/238/187 248/236/185
f 244/233/182 250/238/187 249/237/186
f 251/239/188 248/236/185 250/238/187
f 250/238/187 244/233/182 252/240/189
f 254/241/190 253/242/191 256/243/192
f 253/242/191 257/244/193 256/243/192
f 257/244/193 253/242/191 255/245/194
f 254/241/190 256/243/192 258/246/195
f 257/244/193 259/247/196 256/243/192
f 258/246/195 256/243/192 259/247/196
f 259/247/196 257/244/193 260/248/197
f 255/245/194 261/249/198 257/244/193
f 261/249/198 260/248/197 257/244/193
f 255/245/194 262/250/199 261/249/198
f 263/251/200 254/241/190 258/246/195
f 264/252/201 261/249/198 262/250/199
f 262/250/199 265/253/202 264/252/201
f 265/253/202 266/254/203 267/255/204
f 265/253/202 267/255/204 264/252/201
f 268/256/205 267/255/204 266/254/203
f 267/255/204 268/256/205 269/257/206
f 270/258/207 269/257/206 268/256/205
f 254/241/190 263/251/200 270/258/207
f 269/257/206 270/258/207 263/251/200
f 267/255/204 269/257/206 271/259/208
f 263/251/200 271/259/208 269/257/206
f 275/260/209 274/261/210 276/262/211
f 276/262/211 277/263/212 278/264/213
f 279/265/214 273/266/215 277/263/212
f 277/263/212 276/262/211 279/265/214
f 279/265/214 276/262/211 274/261/210
f 274/261/210 272/267/216 279/265/214
f 273/266/215 279/265/214 280/268/217
f 280/268/217 279/265/214 272/267/216
f 258/246/195 259/247/196 281/269/218
f 282/270/219 258/246/195 281/269/218
f 258/246/195 282/270/219 263/251/200
f 271/259/208 263/251/200 282/270/219
f 260/248/197 261/249/198 283/271/220
f 264/252/201 283/271/220 261/249/198
f 283/271/220 264/252/201 284/272/221
f 264/252/201 285/273/222 284/272/221
f 267/255/204 271/259/208 285/273/222
f 264/252/201 267/255/204 285/273/222
f 291/274/223 288/275/224 290/276/225
f 288/275/224 291/274/223 292/277/226
f 293/278/203 288/275/224 292/277/226
f 288/275/224 293/278/203 289/279/227
f 295/280/228 294/281/229 296/282/230
f 298/283/231 295/280/232 299/284/224
f 298/283/231 300/285/233 297/286/234
f 299/284/224 301/287/226 298/283/231
f 301/287/226 299/284/224 302/288/235
f 302/288/235 286/289/236 301/287/226
f 287/290/237 301/287/226 286/289/236
f 302/288/238 296/282/239 303/291/240
f 304/292/241 305/293/241 306/294/242
f 304/292/241 306/294/242 307/295/242
f 308/296/241 305/293/241 304/292/241
f 309/297/242 305/293/241 308/296/241
f 305/293/241 309/297/242 310/298/243
f 310/298/243 309/297/242 311/299/244
f 312/300/245 313/301/246 314/302/247
f 313/301/246 312/300/245 315/303/248
f 316/304/249 315/303/248 312/300/245
f 315/303/248 316/304/249 317/305/250
f 312/300/245 318/306/251 316/304/249
f 320/307/252 319/308/253 318/306/251
f 318/306/251 312/300/245 320/307/252
f 319/308/253 320/307/252 321/309/254
f 314/302/247 320/307/252 312/300/245
f 322/310/255 321/309/254 320/307/252
f 320/307/252 314/302/247 322/310/255
f 321/309/254 322/310/255 323/311/256
f 332/312/257 329/313/258 328/314/259
f 332/312/257 331/315/260 329/313/258
f 328/314/259 333/316/261 332/312/257
f 331/315/260 332/312/257 334/317/262
f 335/318/263 332/312/257 333/316/261
f 336/319/264 334/317/262 332/312/257
f 332/312/257 326/320/265 336/319/264
f 332/312/257 335/318/263 326/320/265
f 325/321/266 336/319/264 326/320/265
f 324/322/267 326/320/265 335/318/263
f 340/323/268 338/324/269 339/325/270
f 338/324/269 340/323/268 341/326/271
f 341/326/271 337/327/272 338/324/269
f 342/328/216 341/326/271 340/323/268
f 337/327/272 341/326/271 343/329/273
f 344/330/274 343/329/273 341/326/271
f 341/326/271 342/328/216 344/330/274
f 343/329/273 344/330/274 345/331/275
f 348/332/276 330/333/277 346/334/234
f 348/332/276 347/335/278 349/336/279
f 349/336/279 327/337/280 348/332/276
f 327/337/280 350/338/281 348/332/276
f 330/333/277 348/332/276 350/338/281
f 350/338/281 327/337/280 351/339/282
f 353/340/283 330/333/277 350/338/281
f 350/338/281 352/341/284 353/340/283
f 359/342/285 358/343/286 357/344/287
f 355/345/288 359/342/285 357/344/287
f 358/343/286 359/342/285 360/346/289
f 359/342/285 361/347/290 360/346/289
f 359/342/285 355/345/288 362/348/291
f 354/349/292 362/348/291 355/345/288
f 362/348/291 354/349/292 363/350/293
f 356/351/294 362/348/291 363/350/293
f 362/348/291 356/351/294 364/352/295
f 364/352/295 359/342/285 362/348/291
f 359/342/285 364/352/295 365/353/296
f 361/347/290 359/342/285 365/353/296
f 367/241/297 370/251/298 368/258/299
f 368/258/299 371/257/300 369/256/301
f 371/257/300 368/258/299 370/251/298
f 372/255/302 369/256/301 371/257/300
f 369/256/301 372/255/302 373/254/303
f 372/255/302 374/253/259 373/254/303
f 372/255/302 371/257/300 375/259/304
f 374/253/259 372/255/302 376/252/305
f 377/250/306 374/253/259 376/252/305
f 378/245/307 377/250/306 379/249/308
f 376/252/305 379/249/308 377/250/306
f 380/244/309 366/242/310 378/245/307
f 378/245/307 379/249/308 380/244/309
f 381/354/311 382/355/312 383/356/313
f 384/357/314 381/354/311 383/356/313
f 382/355/312 381/354/311 385/358/315
f 381/354/311 384/357/314 386/359/316
f 387/360/317 385/358/315 381/354/311
f 386/359/316 387/360/317 381/354/311
f 385/358/315 387/360/317 388/361/318
f 387/360/317 386/359/316 389/362/319
f 376/252/305 390/271/320 379/249/308
f 380/244/309 379/249/308 390/271/320
f 366/242/310 380/244/309 391/243/321
f 367/241/297 366/242/310 391/243/321
f 392/248/322 391/243/321 380/244/309
f 380/244/309 390/271/320 392/248/322
f 391/243/321 393/246/323 367/241/297
f 370/251/298 367/241/297 393/246/323
f 391/243/321 392/248/322 394/247/324
f 393/246/323 391/243/321 394/247/324
f 393/246/323 395/270/325 370/251/298
f 371/257/300 370/251/298 395/270/325
f 394/247/324 396/269/326 393/246/323
f 395/270/325 393/246/323 396/269/326
f 371/257/300 395/270/325 375/259/304
f 375/259/304 397/273/327 372/255/302
f 397/273/327 376/252/305 372/255/302
f 376/252/305 397/273/327 398/272/328
f 390/271/320 376/252/305 398/272/328
f 399/363/329 400/364/329 401/365/330
f 399/363/329 401/365/330 402/366/329
f 403/367/329 400/364/329 399/363/329
f 404/368/329 400/364/329 403/367/329
f 400/364/329 404/368/329 405/369/329
f 405/369/329 404/368/329 406/370/330
f 407/371/331 408/372/332 409/373/333
f 409/373/333 410/374/334 407/371/331
f 410/374/334 409/373/333 411/375/335
f 412/376/336 409/373/333 408/372/332
f 412/376/336 411/375/335 409/373/333
f 411/375/335 413/377/337 410/374/334
f 414/378/338 410/374/334 413/377/337
f 414/378/338 407/371/331 410/374/334
f 417/379/339 418/380/340 419/381/340
f 417/379/339 419/381/340 420/382/340
f 421/383/341 418/380/340 417/379/339
f 422/384/342 418/380/340 421/383/341
f 418/380/340 422/384/342 423/385/343
f 423/385/343 422/384/342 424/386/344
f 428/387/345 426/388/265 427/389/346
f 415/390/347 429/391/348 430/392/349
f 429/391/348 431/393/350 430/392/349
f 428/387/351 432/394/333 429/391/348
f 431/393/350 429/391/348 432/394/333
f 431/393/350 433/395/336 425/396/352
f 433/395/336 431/393/350 432/394/333
f 434/397/353 433/395/336 432/394/333
f 434/397/353 416/398/354 433/395/336
f 432/394/333 428/387/351 434/397/353
f 435/399/355 437/400/356 436/401/357
f 437/400/356 435/399/355 439/402/358
f 438/403/359 439/402/358 435/399/355
f 439/402/358 440/404/360 437/400/356
f 441/405/361 442/406/358 438/403/359
f 439/402/358 438/403/359 442/406/358
f 442/406/358 441/405/361 443/407/362
f 440/404/360 439/402/358 445/408/363
f 442/406/358 445/408/363 439/402/358
f 445/408/363 442/406/358 446/409/364
f 443/407/362 446/409/364 442/406/358
f 446/409/364 443/407/362 444/410/365
f 448/411/366 449/412/367 450/413/368
f 452/414/369 450/413/368 449/412/367
f 450/413/368 452/414/369 451/415/370
f 452/414/369 449/412/367 453/416/371
f 447/417/372 453/416/371 449/412/367
f 453/416/371 454/418/373 452/414/369
f 455/419/374 451/415/370 452/414/369
f 454/418/373 455/419/374 452/414/369
f 451/415/370 455/419/374 456/420/375
f 455/419/374 454/418/373 457/421/225
f 460/422/376 462/423/377 461/424/378
f 462/423/377 460/422/376 463/425/379
f 459/426/380 463/425/379 460/422/376
f 463/425/379 464/427/381 462/423/377
f 465/428/382 463/425/379 459/426/380
f 465/428/382 466/429/383 463/425/379
f 464/427/381 463/425/379 466/429/383
f 467/430/384 466/429/383 465/428/382
f 468/431/385 471/432/386 469/433/387
f 471/432/388 472/434/374 470/435/389
f 471/432/388 473/436/235 472/434/374
f 471/432/386 458/437/390 474/438/391
f 471/432/386 468/431/385 475/439/367
f 458/437/390 471/432/386 475/439/367
