# Blender 5.2.0 LTS
# www.blender.org
mtllib sas_.mtl
o bug_net_body
v 0.286579 -1.487380 -0.046711
v 0.260031 -1.816055 -0.045473
v 0.247056 -1.814891 -0.009960
v 0.273524 -1.486444 -0.011131
v 0.289444 -1.487362 0.023230
v 0.270242 -1.843532 -0.033958
v 0.262892 -1.816036 0.024342
v 0.272127 -1.843520 0.012045
v 0.261687 -1.842780 -0.010552
v -0.732498 1.588003 -0.365996
v -0.738580 1.784176 -0.168784
v -0.722575 1.688864 -0.106808
v -0.755459 1.731912 -0.135380
v -0.717534 1.525062 -0.271447
v -0.749945 1.553317 -0.314940
v -0.721732 1.779069 0.232487
v -0.699588 1.582745 0.428424
v -0.721190 1.548599 0.378446
v -0.741372 1.727323 0.200067
v -0.692479 1.520798 0.332021
v -0.711006 1.684699 0.168420
v -0.340332 0.324101 -0.021443
v -0.018879 -0.268837 -0.034456
v -0.351847 0.317648 0.014013
v 0.134085 -0.609170 -0.040537
v -0.030356 -0.275349 0.000998
v 0.121489 -0.612362 -0.005134
v 0.136937 -0.609151 0.029087
v -0.016019 -0.268819 0.035359
v -0.337470 0.324119 0.048403
v -0.697932 1.250303 -0.276459
v -0.679432 1.086433 -0.112855
v -0.681724 0.991128 -0.176390
v -0.705861 1.039720 -0.142176
v -0.703928 1.187416 -0.372325
v -0.726055 1.218440 -0.320555
v -0.670958 1.182190 0.422092
v -0.664939 0.986016 0.224883
v -0.667839 1.082272 0.162370
v -0.691787 1.035130 0.193271
v -0.672904 1.246069 0.327010
v -0.697286 1.213695 0.372831
v -0.612644 1.596639 -0.370910
v -0.618660 1.792816 -0.173699
v -0.680714 1.809951 -0.184576
v -0.674422 1.605940 -0.389661
v -0.732498 1.588003 -0.365996
v -0.738580 1.784176 -0.168784
v -0.697932 1.250303 -0.276459
v -0.703928 1.187416 -0.372325
v -0.726055 1.218440 -0.320555
v -0.643887 1.178359 -0.396285
v -0.644632 1.264650 -0.262788
v -0.591121 1.257999 -0.280837
v -0.584008 1.196056 -0.377240
v -0.562412 1.230230 -0.327263
v -0.566068 1.253767 0.322631
v -0.609180 1.172892 0.440845
v -0.551104 1.190826 0.417179
v -0.533652 1.225484 0.366124
v -0.620893 1.260568 0.309207
v -0.672904 1.246069 0.327010
v -0.670958 1.182190 0.422092
v -0.697286 1.213695 0.372831
v -0.561027 1.089968 0.157992
v -0.566068 1.253767 0.322631
v -0.620893 1.260568 0.309207
v -0.615998 1.101891 0.149712
v -0.667839 1.082272 0.162370
v -0.672904 1.246069 0.327010
v 0.320872 -1.489668 -0.062514
v 0.294228 -1.818856 -0.061368
v 0.286579 -1.487380 -0.046711
v 0.260031 -1.816055 -0.045473
v 0.270242 -1.843532 -0.033958
v 0.292791 -1.845409 -0.044429
v 0.316118 -1.847247 -0.035837
v 0.329619 -1.821682 -0.048323
v 0.356211 -1.491957 -0.049437
v -0.692479 1.520798 0.332021
v -0.585669 1.528494 0.327643
v -0.711006 1.684699 0.168420
v -0.604170 1.692397 0.164040
v -0.656900 1.672899 0.155518
v -0.638966 1.514150 0.314004
v -0.711006 1.684699 0.168420
v -0.662771 1.804567 0.243701
v -0.656900 1.672899 0.155518
v -0.604170 1.692397 0.164040
v -0.721732 1.779069 0.232487
v -0.741372 1.727323 0.200067
v -0.601879 1.787704 0.227575
v -0.577738 1.739112 0.193360
v -0.340332 0.324101 -0.021443
v -0.018879 -0.268837 -0.034456
v -0.309693 0.339754 -0.037165
v 0.011710 -0.253156 -0.050176
v -0.277899 0.355381 -0.023977
v 0.134085 -0.609170 -0.040537
v 0.167452 -0.601421 -0.056496
v 0.043483 -0.237433 -0.037019
v 0.202235 -0.593553 -0.043587
v -0.561870 0.999764 -0.181302
v -0.584008 1.196056 -0.377240
v -0.643887 1.178359 -0.396285
v -0.620831 0.974265 -0.192517
v -0.681724 0.991128 -0.176390
v -0.703928 1.187416 -0.372325
v -0.667839 1.082272 0.162370
v -0.602889 0.968878 0.235761
v -0.664939 0.986016 0.224883
v -0.691787 1.035130 0.193271
v -0.615998 1.101891 0.149712
v -0.561027 1.089968 0.157992
v -0.545019 0.994656 0.219968
v -0.528143 1.046919 0.186563
v 0.316118 -1.847247 -0.035837
v 0.326565 -1.848017 -0.013208
v 0.318003 -1.847235 0.010166
v 0.332479 -1.821663 0.021493
v 0.359066 -1.491939 0.020252
v 0.371996 -1.492916 -0.015164
v 0.345465 -1.822829 -0.013989
v 0.329619 -1.821682 -0.048323
v 0.356211 -1.491957 -0.049437
v -0.591816 1.743702 -0.142087
v -0.586311 1.565106 -0.321647
v -0.612644 1.596639 -0.370910
v -0.618660 1.792816 -0.173699
v -0.615764 1.696559 -0.111186
v -0.610698 1.532760 -0.275826
v -0.601879 1.787704 0.227575
v -0.579668 1.591385 0.423509
v -0.557547 1.560389 0.371739
v -0.577738 1.739112 0.193360
v -0.585669 1.528494 0.327643
v -0.604170 1.692397 0.164040
v -0.277899 0.355381 -0.023977
v -0.275041 0.355399 0.045774
v 0.046343 -0.237415 0.032796
v 0.205109 -0.593534 0.026544
v 0.217931 -0.590259 -0.009091
v 0.057833 -0.230936 -0.002627
v -0.263554 0.361850 0.010383
v 0.043483 -0.237433 -0.037019
v 0.202235 -0.593553 -0.043587
v -0.591121 1.257999 -0.280837
v -0.542227 1.051509 -0.148883
v -0.562412 1.230230 -0.327263
v -0.572596 1.094130 -0.117235
v -0.561870 0.999764 -0.181302
v -0.584008 1.196056 -0.377240
v -0.551104 1.190826 0.417179
v -0.528143 1.046919 0.186563
v -0.533652 1.225484 0.366124
v -0.545019 0.994656 0.219968
v -0.561027 1.089968 0.157992
v -0.566068 1.253767 0.322631
v 0.270242 -1.843532 -0.033958
v 0.292791 -1.845409 -0.044429
v 0.316118 -1.847247 -0.035837
v 0.272127 -1.843520 0.012045
v 0.261687 -1.842780 -0.010552
v 0.295456 -1.845391 0.020637
v 0.326565 -1.848017 -0.013208
v 0.318003 -1.847235 0.010166
v -0.615764 1.696559 -0.111186
v -0.610698 1.532760 -0.275826
v -0.662710 1.518265 -0.258023
v -0.667603 1.676941 -0.098528
v -0.722575 1.688864 -0.106808
v -0.717534 1.525062 -0.271447
v -0.551104 1.190826 0.417179
v -0.545019 0.994656 0.219968
v -0.602889 0.968878 0.235761
v -0.609180 1.172892 0.440845
v -0.670958 1.182190 0.422092
v -0.664939 0.986016 0.224883
v -0.610698 1.532760 -0.275826
v -0.612644 1.596639 -0.370910
v -0.586311 1.565106 -0.321647
v -0.674422 1.605940 -0.389661
v -0.662710 1.518265 -0.258023
v -0.717534 1.525062 -0.271447
v -0.732498 1.588003 -0.365996
v -0.749945 1.553317 -0.314940
v -0.585669 1.528494 0.327643
v -0.639712 1.600439 0.447469
v -0.638966 1.514150 0.314004
v -0.692479 1.520798 0.332021
v -0.579668 1.591385 0.423509
v -0.557547 1.560389 0.371739
v -0.699588 1.582745 0.428424
v -0.721190 1.548599 0.378446
v 0.289444 -1.487362 0.023230
v 0.262892 -1.816036 0.024342
v 0.298274 -1.818830 0.037387
v 0.324917 -1.489642 0.036209
v 0.272127 -1.843520 0.012045
v 0.295456 -1.845391 0.020637
v 0.318003 -1.847235 0.010166
v 0.332479 -1.821663 0.021493
v 0.359066 -1.491939 0.020252
v -0.639712 1.600439 0.447469
v -0.662771 1.804567 0.243701
v -0.721732 1.779069 0.232487
v -0.601879 1.787704 0.227575
v -0.699588 1.582745 0.428424
v -0.579668 1.591385 0.423509
v -0.722575 1.688864 -0.106808
v -0.680714 1.809951 -0.184576
v -0.738580 1.784176 -0.168784
v -0.755459 1.731912 -0.135380
v -0.667603 1.676941 -0.098528
v -0.615764 1.696559 -0.111186
v -0.618660 1.792816 -0.173699
v -0.591816 1.743702 -0.142087
v 0.136937 -0.609151 0.029087
v -0.016019 -0.268819 0.035359
v -0.337470 0.324119 0.048403
v -0.305648 0.339780 0.061558
v 0.015754 -0.253130 0.048548
v 0.171498 -0.601395 0.042259
v -0.275041 0.355399 0.045774
v 0.046343 -0.237415 0.032796
v 0.205109 -0.593534 0.026544
v -0.591121 1.257999 -0.280837
v -0.572596 1.094130 -0.117235
v -0.626701 1.105930 -0.104302
v -0.644632 1.264650 -0.262788
v -0.697932 1.250303 -0.276459
v -0.679432 1.086433 -0.112855
v -0.572596 1.094130 -0.117235
v -0.561870 0.999764 -0.181302
v -0.542227 1.051509 -0.148883
v -0.620831 0.974265 -0.192517
v -0.626701 1.105930 -0.104302
v -0.679432 1.086433 -0.112855
v -0.681724 0.991128 -0.176390
v -0.705861 1.039720 -0.142176
v 0.203007 -0.872361 -0.050681
v 0.127379 -0.612079 -0.047652
v 0.112185 -0.616559 -0.004751
v 0.260505 -1.175153 -0.052957
v 0.187728 -0.876496 -0.007778
v 0.206464 -0.872338 0.033698
v 0.130836 -0.612057 0.036728
v 0.263962 -1.175131 0.031423
v 0.244764 -1.176401 -0.010035
v 0.263351 -1.485620 -0.010714
v 0.282570 -1.486795 0.030774
v 0.279111 -1.486817 -0.053667
v -0.656517 0.970201 0.199012
v -0.670644 0.970110 -0.145821
v -0.664037 1.213672 0.443494
v -0.679805 1.017124 0.179877
v -0.686451 1.232298 0.395946
v -0.692290 1.017043 -0.124870
v -0.660578 1.063389 0.160555
v -0.666419 1.252448 0.350370
v -0.708335 1.536515 0.396762
v -0.688800 1.557904 0.444417
v -0.716594 1.232103 -0.339786
v -0.732639 1.751573 0.181847
v -0.716301 1.801273 0.201241
v -0.730429 1.801182 -0.143592
v -0.745124 1.751492 -0.122900
v -0.722907 1.557683 -0.388074
v -0.738478 1.536320 -0.338970
v -0.698144 1.213451 -0.388998
v -0.712127 1.519543 -0.295295
v -0.347000 0.320653 -0.028369
v -0.343550 0.320676 0.055820
v -0.549242 0.715384 -0.020124
v -0.657821 1.003949 -0.015372
v -0.672923 1.001985 0.026986
v -0.545798 0.715407 0.063940
v -0.654408 1.003971 0.067932
v -0.563078 0.707730 0.022563
v -0.360818 0.312777 0.014381
v -0.671548 1.063318 -0.107210
v -0.692901 1.252277 -0.296012
v -0.685645 1.519714 0.351087
v -0.706998 1.708673 0.162286
v -0.717968 1.708602 -0.105479
v -0.660578 1.063389 0.160555
v -0.666419 1.252448 0.350370
v -0.665765 1.825669 0.207758
v -0.716301 1.801273 0.201241
v -0.612958 1.808719 0.197005
v -0.627085 1.808628 -0.147828
v -0.680596 1.825574 -0.154234
v -0.730429 1.801182 -0.143592
v -0.597955 1.259118 -0.299903
v -0.576601 1.070159 -0.111102
v -0.645240 1.262622 -0.281157
v -0.571472 1.259289 0.346478
v -0.565631 1.070230 0.156663
v -0.624996 1.083489 -0.102146
v -0.620133 1.262785 0.331662
v -0.614597 1.083557 0.151689
v -0.671548 1.063318 -0.107210
v -0.692901 1.252277 -0.296012
v 0.212198 -0.590499 0.033230
v 0.112185 -0.616559 -0.004751
v 0.130836 -0.612057 0.036728
v 0.172308 -0.601203 0.052437
v 0.227248 -0.586125 -0.009474
v 0.208754 -0.590522 -0.050833
v 0.127379 -0.612079 -0.047652
v 0.167427 -0.601235 -0.066707
v 0.243295 -0.862421 -0.069746
v 0.208754 -0.590522 -0.050833
v 0.284891 -0.852515 -0.053914
v 0.167427 -0.601235 -0.066707
v 0.203007 -0.872361 -0.050681
v 0.127379 -0.612079 -0.047652
v 0.260505 -1.175153 -0.052957
v 0.279111 -1.486817 -0.053667
v 0.301881 -1.172189 -0.072064
v 0.320494 -1.489667 -0.072743
v 0.344532 -1.169292 -0.056243
v 0.363129 -1.492552 -0.056919
v -0.567301 0.977556 -0.150057
v -0.670644 0.970110 -0.145821
v -0.646704 1.208604 -0.411845
v -0.666419 1.252448 0.350370
v -0.627085 1.808628 -0.147828
v -0.680596 1.825574 -0.154234
v -0.590698 1.526555 0.347195
v -0.730429 1.801182 -0.143592
v -0.672699 1.569965 -0.410876
v -0.619563 1.565129 -0.392310
v -0.722907 1.557683 -0.388074
v -0.594800 1.220898 -0.393234
v -0.698144 1.213451 -0.388998
v -0.574638 1.014263 -0.019543
v -0.473642 0.752664 -0.023357
v -0.271883 0.358789 -0.031488
v -0.310170 0.339716 -0.047389
v -0.512222 0.733982 -0.039215
v -0.347000 0.320653 -0.028369
v -0.617307 1.008950 -0.034952
v -0.549242 0.715384 -0.020124
v -0.657821 1.003949 -0.015372
v -0.571472 1.259289 0.346478
v -0.565631 1.070230 0.156663
v -0.620133 1.262785 0.331662
v -0.614597 1.083557 0.151689
v -0.638363 1.516209 0.332342
v -0.685645 1.519714 0.351087
v -0.706998 1.708673 0.162286
v -0.658607 1.695340 0.153330
v 0.208754 -0.590522 -0.050833
v 0.284891 -0.852515 -0.053914
v 0.212198 -0.590499 0.033230
v 0.344532 -1.169292 -0.056243
v 0.363129 -1.492552 -0.056919
v 0.363566 -1.168065 -0.014904
v 0.382165 -1.493739 -0.015580
v 0.366573 -1.492529 0.027145
v 0.303506 -0.848395 -0.012528
v 0.227248 -0.586125 -0.009474
v 0.288338 -0.852493 0.030211
v 0.347976 -1.169270 0.027821
v -0.567301 0.977556 -0.150057
v -0.553173 0.977647 0.194776
v -0.560693 1.221118 0.439258
v -0.585457 1.565349 0.440181
v -0.545123 1.242480 0.390153
v -0.567007 1.546697 0.390969
v -0.591310 1.761755 0.176054
v -0.612958 1.808719 0.197005
v -0.627085 1.808628 -0.147828
v -0.590698 1.526555 0.347195
v -0.603796 1.761675 -0.128693
v -0.619563 1.565129 -0.392310
v -0.594800 1.220898 -0.393234
v -0.597149 1.546502 -0.344763
v -0.575265 1.242285 -0.345579
v -0.456230 0.760412 0.018172
v -0.574638 1.014263 -0.019543
v -0.555420 1.016521 0.022168
v -0.571162 1.014286 0.065280
v -0.473642 0.752664 -0.023357
v -0.470188 0.752686 0.060959
v -0.254585 0.366721 0.010015
v -0.271883 0.358789 -0.031488
v -0.268431 0.358811 0.052765
v -0.617181 1.526384 -0.299186
v -0.550962 1.027226 -0.130663
v -0.597955 1.259118 -0.299903
v -0.538476 1.027306 0.174084
v -0.576601 1.070159 -0.111102
v -0.571472 1.259289 0.346478
v -0.565631 1.070230 0.156663
v -0.612051 1.715514 0.158394
v -0.623022 1.715443 -0.109371
v 0.282570 -1.486795 0.030774
v 0.382165 -1.493739 -0.015580
v 0.366573 -1.492529 0.027145
v 0.325375 -1.489635 0.046401
v 0.263351 -1.485620 -0.010714
v 0.279111 -1.486817 -0.053667
v 0.363129 -1.492552 -0.056919
v 0.320494 -1.489667 -0.072743
v -0.567301 0.977556 -0.150057
v -0.553173 0.977647 0.194776
v -0.603007 0.953256 0.205418
v -0.617838 0.953160 -0.156574
v -0.656517 0.970201 0.199012
v -0.610899 1.208835 0.462091
v -0.670644 0.970110 -0.145821
v -0.646704 1.208604 -0.411845
v -0.590698 1.526555 0.347195
v -0.712127 1.519543 -0.295295
v -0.343550 0.320676 0.055820
v -0.254585 0.366721 0.010015
v -0.268431 0.358811 0.052765
v -0.305288 0.339747 0.071755
v -0.360818 0.312777 0.014381
v -0.347000 0.320653 -0.028369
v -0.271883 0.358789 -0.031488
v -0.310170 0.339716 -0.047389
v -0.617181 1.526384 -0.299186
v -0.638363 1.516209 0.332342
v -0.685645 1.519714 0.351087
v -0.706998 1.708673 0.162286
v -0.658607 1.695340 0.153330
v -0.612051 1.715514 0.158394
v -0.623022 1.715443 -0.109371
v -0.669006 1.695273 -0.100505
v -0.663470 1.516047 -0.280477
v -0.717968 1.708602 -0.105479
v 0.206464 -0.872338 0.033698
v 0.130836 -0.612057 0.036728
v 0.172308 -0.601203 0.052437
v 0.263962 -1.175131 0.031423
v 0.248177 -0.862389 0.049398
v 0.212198 -0.590499 0.033230
v 0.282570 -1.486795 0.030774
v 0.306763 -1.172157 0.047080
v 0.325375 -1.489635 0.046401
v 0.366573 -1.492529 0.027145
v 0.288338 -0.852493 0.030211
v 0.347976 -1.169270 0.027821
v -0.553173 0.977647 0.194776
v -0.656517 0.970201 0.199012
v -0.610899 1.208835 0.462091
v -0.664037 1.213672 0.443494
v -0.688800 1.557904 0.444417
v -0.636894 1.570197 0.463060
v -0.560693 1.221118 0.439258
v -0.585457 1.565349 0.440181
v -0.665765 1.825669 0.207758
v -0.716301 1.801273 0.201241
v -0.612958 1.808719 0.197005
v -0.712127 1.519543 -0.295295
v -0.571162 1.014286 0.065280
v -0.470188 0.752686 0.060959
v -0.268431 0.358811 0.052765
v -0.305288 0.339747 0.071755
v -0.507341 0.734014 0.079929
v -0.343550 0.320676 0.055820
v -0.612428 1.008981 0.084130
v -0.545798 0.715407 0.063940
v -0.654408 1.003971 0.067932
v -0.617181 1.526384 -0.299186
v -0.597955 1.259118 -0.299903
v -0.576601 1.070159 -0.111102
v -0.645240 1.262622 -0.281157
v -0.624996 1.083489 -0.102146
v -0.671548 1.063318 -0.107210
v -0.692901 1.252277 -0.296012
v -0.663470 1.516047 -0.280477
vn -0.9825 -0.1816 0.0403
vn -0.7295 0.0602 -0.6813
vn -0.7281 -0.2079 -0.6531
vn -0.9961 0.0778 0.0408
vn -0.6713 0.0606 0.7387
vn -0.4794 -0.7903 -0.3815
vn -0.6723 -0.2075 0.7106
vn -0.4466 -0.7901 0.4199
vn -0.6285 -0.7774 0.0259
vn -0.7467 0.4597 -0.4808
vn -0.9956 -0.0796 0.0487
vn -0.7468 0.4597 -0.4806
vn -0.9946 -0.0874 0.0565
vn -0.6063 -0.5728 0.5517
vn -0.6063 -0.5727 0.5517
vn -0.7049 0.4600 0.5400
vn -0.9963 -0.0797 0.0330
vn -0.9965 -0.0796 0.0251
vn -0.6493 -0.5730 -0.5001
vn -0.6493 -0.5731 -0.5000
vn -0.6536 -0.3383 -0.6770
vn -0.6608 -0.3140 -0.6817
vn -0.8800 -0.4735 0.0362
vn -0.6571 -0.2826 -0.6989
vn -0.8960 -0.4425 0.0368
vn -0.9099 -0.4132 0.0374
vn -0.5977 -0.2822 0.7504
vn -0.6029 -0.3136 0.7336
vn -0.5960 -0.3380 0.7284
vn -0.6818 0.4772 0.5545
vn -0.9968 -0.0560 0.0566
vn -0.9968 -0.0639 0.0488
vn -0.6735 -0.5593 -0.4834
vn -0.6316 -0.5590 0.5372
vn -0.9974 -0.0639 0.0330
vn -0.6316 -0.5589 0.5372
vn -0.9981 -0.0562 0.0252
vn -0.7249 0.4769 -0.4971
vn 0.6315 0.5590 -0.5373
vn -0.0797 0.7051 -0.7046
vn 0.6271 0.5615 -0.5399
vn -0.0797 0.7055 -0.7042
vn -0.0825 0.8358 -0.5428
vn -0.0825 0.8358 -0.5429
vn -0.0368 0.8289 0.5582
vn -0.0368 0.8288 0.5583
vn 0.6061 0.5728 -0.5518
vn -0.0797 0.7054 -0.7043
vn -0.7247 0.4769 -0.4973
vn -0.7247 0.4770 -0.4973
vn -0.0331 0.0003 -0.9995
vn -0.0606 -0.2612 -0.9634
vn -0.7294 0.0602 -0.6815
vn -0.7281 -0.2079 -0.6532
vn -0.4795 -0.7903 -0.3815
vn -0.0896 -0.8227 -0.5613
vn 0.3136 -0.8540 -0.4152
vn 0.6312 -0.3145 -0.7090
vn 0.6753 -0.0596 -0.7351
vn 0.0218 -0.7051 -0.7088
vn -0.6492 -0.5731 -0.5000
vn 0.6816 -0.4772 -0.5546
vn 0.6816 -0.4772 -0.5547
vn -0.0737 0.5494 -0.8323
vn -0.0488 -0.0008 -0.9988
vn -0.6607 -0.3140 -0.6818
vn -0.6535 -0.3383 -0.6771
vn -0.0330 0.0003 -0.9995
vn 0.5875 0.3372 -0.7357
vn -0.6569 -0.2825 -0.6990
vn 0.0051 0.0188 -0.9998
vn 0.6112 0.3143 -0.7264
vn 0.6359 0.3000 -0.7110
vn 0.7048 -0.4600 -0.5400
vn 0.0217 -0.7051 -0.7088
vn 0.7049 -0.4600 -0.5400
vn 0.0218 -0.7055 -0.7084
vn -0.6734 -0.5593 -0.4835
vn -0.6733 -0.5593 -0.4835
vn 0.0049 -0.5444 -0.8388
vn 0.0049 -0.5443 -0.8389
vn 0.0048 -0.5444 -0.8388
vn 0.6872 -0.3142 0.6550
vn 0.9961 -0.0778 -0.0408
vn 0.7334 -0.0593 0.6773
vn 0.3465 -0.8538 0.3886
vn 0.9412 -0.3357 -0.0385
vn 0.4947 -0.8688 -0.0200
vn 0.6313 -0.3145 -0.7089
vn 0.6755 -0.0596 -0.7350
vn 0.9974 0.0639 -0.0330
vn 0.9981 0.0561 -0.0252
vn 0.6316 0.5590 -0.5372
vn 0.6272 0.5615 -0.5397
vn 0.7249 -0.4768 0.4972
vn 0.7249 -0.4768 0.4971
vn 0.6734 0.5592 0.4835
vn 0.9968 0.0639 -0.0488
vn 0.9963 0.0639 -0.0566
vn 0.6818 -0.4772 -0.5545
vn 0.9129 0.4065 -0.0375
vn 0.6686 0.3147 0.6738
vn 0.6920 0.3004 0.6565
vn 0.8960 0.4425 -0.0367
vn 0.6457 0.3376 0.6849
vn 0.8800 0.4735 -0.0362
vn 0.5875 0.3372 -0.7356
vn 0.6360 0.3000 -0.7110
vn 0.6493 0.5731 0.5000
vn 0.9959 0.0874 -0.0251
vn 0.9963 0.0796 -0.0329
vn 0.7049 -0.4599 -0.5400
vn 0.7467 -0.4597 0.4807
vn 0.9956 0.0796 -0.0487
vn 0.9946 0.0874 -0.0565
vn 0.6063 0.5727 -0.5517
vn -0.4794 -0.7903 -0.3816
vn -0.0897 -0.8227 -0.5613
vn -0.6284 -0.7774 0.0260
vn -0.4467 -0.7901 0.4198
vn -0.0434 -0.8224 0.5672
vn 0.7247 -0.4769 0.4973
vn 0.0797 -0.7054 0.7043
vn 0.7248 -0.4770 0.4972
vn 0.0797 -0.7052 0.7045
vn -0.6061 -0.5729 0.5517
vn -0.6061 -0.5728 0.5518
vn 0.7467 -0.4597 0.4808
vn 0.0797 -0.7051 0.7046
vn 0.0797 -0.7055 0.7042
vn -0.6315 -0.5590 0.5373
vn 0.0368 -0.8289 -0.5582
vn 0.0368 -0.8289 -0.5583
vn 0.0825 -0.8358 0.5428
vn 0.0825 -0.8357 0.5429
vn 0.0824 -0.8358 0.5428
vn 0.0184 -0.2607 0.9653
vn -0.6721 -0.2076 0.7107
vn 0.0487 0.0008 0.9988
vn 0.6871 -0.3141 0.6551
vn 0.7333 -0.0593 0.6773
vn -0.0218 0.7054 0.7085
vn -0.0217 0.7051 0.7088
vn 0.6733 0.5593 0.4835
vn 0.6734 0.5593 0.4835
vn -0.0045 0.5408 0.8411
vn -0.0045 0.5408 0.8412
vn -0.0044 0.5408 0.8412
vn -0.6028 -0.3136 0.7337
vn 0.0331 -0.0003 0.9995
vn -0.5976 -0.2820 0.7506
vn 0.0488 0.0008 0.9988
vn 0.0867 0.0194 0.9960
vn 0.6685 0.3146 0.6739
vn 0.6919 0.3004 0.6565
vn 0.6492 0.5731 0.5001
vn -0.0218 0.7052 0.7087
vn -0.6817 0.4772 0.5546
vn 0.0737 -0.5494 0.8323
vn -0.7072 -0.1987 -0.6785
vn -0.7100 -0.1595 -0.6859
vn -0.9585 -0.2824 0.0393
vn -0.9709 -0.2360 0.0398
vn -0.7227 -0.0895 -0.6853
vn -0.6515 -0.1591 0.7418
vn -0.6493 -0.1983 0.7342
vn -0.6642 -0.0891 0.7422
vn -0.9911 -0.1266 0.0406
vn -0.9976 -0.0561 0.0409
vn -0.6599 -0.0416 0.7502
vn -0.7190 -0.0420 -0.6937
vn -0.6431 -0.7217 -0.2560
vn -0.6200 -0.7216 0.3081
vn -0.9913 -0.1188 0.0564
vn -0.9923 -0.0874 0.0879
vn -0.6320 -0.3304 0.7009
vn -0.9926 -0.1188 0.0250
vn -0.7787 0.5843 -0.2285
vn -0.7671 0.2070 -0.6072
vn -0.9945 -0.0560 0.0880
vn -0.6726 0.2327 0.7025
vn -0.9961 -0.0875 -0.0064
vn -0.9981 -0.0247 0.0566
vn -0.7168 0.6238 0.3118
vn -0.7399 0.6236 -0.2524
vn -0.9994 -0.0247 0.0252
vn -0.7278 0.2324 -0.6452
vn -0.9984 -0.0560 -0.0063
vn -0.6873 -0.3307 -0.6468
vn -0.6775 -0.3112 0.6665
vn -0.7239 -0.2628 -0.6379
vn -0.6864 -0.2925 -0.6658
vn -0.9355 -0.3512 0.0384
vn -0.6295 -0.2922 0.7199
vn -0.6692 -0.2626 0.6951
vn -0.9138 -0.4043 0.0377
vn -0.6010 -0.3208 0.7321
vn -0.6588 -0.3212 -0.6803
vn -0.8882 -0.4580 0.0365
vn -0.7575 0.5844 0.2910
vn -0.7148 0.2074 0.6678
vn -0.7298 -0.3115 -0.6086
vn -0.6872 -0.6885 -0.2318
vn -0.6659 -0.6884 0.2877
vn 0.6199 0.7216 -0.3081
vn -0.0504 0.9201 0.3884
vn 0.6431 0.7218 0.2560
vn -0.0820 0.9199 -0.3835
vn -0.7167 0.6238 0.3118
vn 0.6871 0.6886 0.2317
vn 0.7298 0.3115 0.6086
vn 0.0100 0.3856 0.9226
vn 0.6658 0.6884 -0.2877
vn 0.6871 0.6886 0.2319
vn -0.0654 0.3850 -0.9206
vn 0.6775 0.3112 -0.6665
vn -0.7574 0.5845 0.2911
vn -0.7787 0.5844 -0.2283
vn -0.7671 0.2070 -0.6073
vn -0.7574 0.5845 0.2910
vn 0.0099 0.3854 0.9227
vn -0.7148 0.2074 0.6679
vn -0.2583 0.9660 0.0103
vn -0.2584 0.9660 0.0103
vn -0.2584 0.9660 0.0104
vn -0.0252 0.0008 -0.9997
vn 0.6492 0.1983 -0.7343
vn 0.6666 0.1679 -0.7262
vn -0.0409 -0.0003 -0.9992
vn -0.7099 -0.1594 -0.6860
vn -0.7071 -0.1987 -0.6786
vn -0.7226 -0.0896 -0.6854
vn -0.7189 -0.0419 -0.6938
vn -0.0095 0.0020 -1.0000
vn 0.6804 0.0902 -0.7272
vn 0.6924 0.0438 -0.7202
vn -0.0655 0.3850 -0.9206
vn -0.0820 0.9199 -0.3836
vn 0.6200 0.7216 -0.3081
vn -0.7398 0.6236 -0.2524
vn 0.6320 0.3304 -0.7010
vn -0.7278 0.2324 -0.6453
vn 0.6725 -0.2328 -0.7026
vn -0.6872 -0.3308 -0.6468
vn -0.0101 -0.3855 -0.9227
vn -0.6430 -0.7218 -0.2560
vn 0.7168 -0.6237 -0.3118
vn -0.0411 -0.0003 -0.9992
vn 0.6108 0.2819 -0.7399
vn 0.6009 0.3208 -0.7321
vn -0.0561 -0.0092 -0.9984
vn 0.6066 0.2428 -0.7571
vn -0.1024 -0.0205 -0.9945
vn -0.6863 -0.2925 -0.6659
vn -0.7238 -0.2628 -0.6380
vn 0.7148 -0.2075 -0.6679
vn 0.6658 0.6884 -0.2876
vn -0.0819 0.9199 -0.3835
vn -0.7670 0.2071 -0.6073
vn -0.0100 -0.3855 -0.9226
vn -0.7297 -0.3115 -0.6086
vn 0.0504 -0.9201 -0.3884
vn -0.6871 -0.6886 -0.2318
vn 0.9921 0.1189 -0.0407
vn 0.6924 0.0439 -0.7201
vn 0.6806 0.0902 -0.7271
vn 0.6667 0.1679 -0.7261
vn 0.9976 0.0562 -0.0409
vn 0.7490 0.0443 0.6610
vn 0.9709 0.2360 -0.0398
vn 0.6493 0.1983 -0.7342
vn 0.9585 0.2823 -0.0393
vn 0.7072 0.1988 0.6785
vn 0.7239 0.1683 0.6691
vn 0.7377 0.0907 0.6690
vn 0.7399 -0.6235 0.2524
vn 0.9984 0.0561 0.0062
vn 0.7278 -0.2324 0.6452
vn 0.9961 0.0874 0.0064
vn 0.6873 0.3308 0.6467
vn 0.9926 0.1189 -0.0250
vn 0.7148 -0.2074 -0.6678
vn 0.9913 0.1188 -0.0564
vn 0.6321 0.3303 -0.7009
vn 0.6725 -0.2329 -0.7025
vn 0.9923 0.0874 -0.0879
vn 0.9945 0.0560 -0.0880
vn 0.7168 -0.6237 -0.3117
vn 0.9129 0.4066 -0.0375
vn 0.6066 0.2428 -0.7570
vn 0.9320 0.3605 -0.0383
vn 0.6665 0.2432 0.7047
vn 0.6108 0.2820 -0.7398
vn 0.6693 0.2823 0.6872
vn 0.8882 0.4579 -0.0365
vn 0.6010 0.3208 -0.7321
vn 0.6589 0.3212 0.6803
vn 0.7671 -0.2071 0.6072
vn 0.9981 0.0247 -0.0566
vn 0.7298 0.3114 0.6086
vn 0.9994 0.0247 -0.0252
vn 0.6872 0.6885 0.2319
vn 0.6776 0.3112 -0.6664
vn 0.6659 0.6884 -0.2876
vn 0.7574 -0.5844 -0.2911
vn 0.7788 -0.5843 0.2284
vn -0.0699 -0.9976 0.0031
vn -0.0699 -0.9975 0.0031
vn 0.7167 -0.6238 -0.3118
vn 0.7399 -0.6236 0.2524
vn 0.0820 -0.9199 0.3835
vn 0.0504 -0.9201 -0.3885
vn -0.6199 -0.7216 0.3081
vn 0.0655 -0.3851 0.9205
vn -0.0101 -0.3856 -0.9226
vn 0.4514 -0.8921 -0.0183
vn 0.4512 -0.8922 -0.0182
vn 0.4511 -0.8923 -0.0182
vn 0.4513 -0.8922 -0.0182
vn 0.4512 -0.8923 -0.0182
vn 0.4513 -0.8922 -0.0183
vn -0.6871 -0.6886 -0.2317
vn -0.7297 -0.3114 -0.6087
vn 0.7148 -0.2073 -0.6679
vn 0.0504 -0.9201 -0.3883
vn 0.7574 -0.5845 -0.2911
vn 0.7787 -0.5844 0.2285
vn -0.6871 -0.6885 -0.2319
vn 0.7670 -0.2071 0.6073
vn -0.6658 -0.6884 0.2877
vn -0.6775 -0.3111 0.6665
vn -0.6514 -0.1590 0.7419
vn 0.0409 0.0003 0.9992
vn -0.6492 -0.1983 0.7343
vn 0.0566 0.0014 0.9984
vn -0.6642 -0.0891 0.7423
vn 0.7071 0.1987 0.6786
vn -0.6598 -0.0416 0.7503
vn 0.0723 0.0026 0.9974
vn 0.7238 0.1683 0.6692
vn 0.7376 0.0907 0.6691
vn 0.7490 0.0442 0.6611
vn -0.6201 -0.7215 0.3082
vn 0.0654 -0.3850 0.9206
vn -0.6320 -0.3304 0.7010
vn 0.0101 0.3856 0.9226
vn -0.6725 0.2328 0.7025
vn 0.7278 -0.2324 0.6453
vn 0.6872 0.3308 0.6468
vn -0.0504 0.9201 0.3885
vn -0.7168 0.6238 0.3117
vn 0.6693 0.2823 0.6873
vn 0.0408 0.0003 0.9992
vn 0.6588 0.3211 0.6803
vn 0.0258 -0.0087 0.9996
vn 0.6664 0.2432 0.7048
vn -0.6009 -0.3208 0.7322
vn -0.0207 -0.0199 0.9996
vn -0.6295 -0.2922 0.7200
vn -0.6692 -0.2624 0.6952
vn 0.7670 -0.2071 0.6072
vn 0.0101 0.3854 0.9227
vn 0.7297 0.3116 0.6086
vn 0.6871 0.6886 0.2318
vn -0.7148 0.2075 0.6678
vt 52.000000 -29.718500
vt 51.986198 -29.590799
vt 51.986198 -29.719299
vt 52.000000 -29.590000
vt 52.013802 -29.590799
vt 51.990898 -29.730400
vt 52.013802 -29.719299
vt 52.009102 -29.730400
vt 52.000000 -29.729900
vt 51.844200 -28.352301
vt 51.934700 -28.294800
vt 51.921902 -28.274700
vt 51.864101 -28.365400
vt 51.946499 -28.312599
vt 51.881699 -28.377399
vt 52.080299 -28.276800
vt 52.137798 -28.367300
vt 52.157902 -28.354401
vt 52.067200 -28.296600
vt 52.119999 -28.379101
vt 52.055199 -28.314301
vt 51.986198 -28.860300
vt 51.986198 -29.102699
vt 52.000000 -28.862499
vt 51.986301 -29.240900
vt 52.000000 -29.104900
vt 52.000000 -29.241800
vt 52.013699 -29.240900
vt 52.013802 -29.102699
vt 52.013802 -28.860300
vt 51.880001 -28.486000
vt 51.932800 -28.568501
vt 51.944801 -28.550900
vt 51.862202 -28.497801
vt 51.919701 -28.588400
vt 51.842098 -28.510700
vt 52.155800 -28.512899
vt 52.065300 -28.570400
vt 52.078098 -28.590401
vt 52.135899 -28.499800
vt 52.053501 -28.552500
vt 52.118301 -28.487801
vt 51.881100 -28.844200
vt 51.857399 -28.916599
vt 51.881100 -28.921900
vt 51.857399 -28.835800
vt 51.833698 -28.844200
vt 51.833698 -28.921900
vt 51.836300 -28.879999
vt 51.833698 -28.842100
vt 51.825001 -28.862200
vt 51.857399 -28.833700
vt 51.857399 -28.886299
vt 51.878601 -28.879999
vt 51.881100 -28.842100
vt 51.889801 -28.862200
vt 51.878601 -29.118299
vt 51.857399 -29.164200
vt 51.881100 -29.155800
vt 51.889801 -29.135900
vt 51.857399 -29.112101
vt 51.836300 -29.118299
vt 51.833698 -29.155800
vt 51.825001 -29.135900
vt 51.878601 -29.053499
vt 51.857399 -29.049299
vt 51.836300 -29.053499
vt 51.844299 -29.592699
vt 51.864101 -29.721399
vt 51.857899 -29.590799
vt 51.877701 -29.719299
vt 51.874699 -29.730400
vt 51.865700 -29.731800
vt 51.856701 -29.733200
vt 51.850498 -29.723499
vt 51.830700 -29.594601
vt 52.142601 -28.320499
vt 52.163700 -28.379101
vt 52.163700 -28.314301
vt 52.121399 -28.379101
vt 52.121399 -28.314301
vt 52.142601 -28.383301
vt 52.142601 -28.268400
vt 52.166302 -28.276800
vt 52.174999 -28.296600
vt 52.118900 -28.276800
vt 52.110199 -28.296600
vt 52.040699 -28.855000
vt 51.943699 -29.102699
vt 52.053501 -28.860300
vt 51.931000 -29.097401
vt 52.028000 -28.849800
vt 51.893101 -29.240900
vt 51.879501 -29.238800
vt 51.918301 -29.092100
vt 51.865799 -29.236700
vt 52.118900 -28.588400
vt 52.142601 -28.516001
vt 52.118900 -28.510700
vt 52.142601 -28.596701
vt 52.166302 -28.588400
vt 52.166302 -28.510700
vt 52.163700 -28.552500
vt 52.142601 -28.598900
vt 52.166302 -28.590401
vt 52.174999 -28.570400
vt 52.142601 -28.546301
vt 52.121399 -28.552500
vt 52.118900 -28.590401
vt 52.110199 -28.570400
vt 51.986198 -29.723499
vt 52.000000 -29.595301
vt 51.986198 -29.594601
vt 51.990898 -29.733200
vt 52.000000 -29.724400
vt 52.000000 -29.733801
vt 52.009102 -29.733200
vt 52.013802 -29.723499
vt 52.013802 -29.594601
vt 52.065300 -28.294800
vt 52.135899 -28.365400
vt 52.155800 -28.352301
vt 52.078098 -28.274700
vt 52.053501 -28.312599
vt 52.118301 -28.377399
vt 51.919701 -28.276800
vt 51.842098 -28.354401
vt 51.862202 -28.367300
vt 51.932800 -28.296600
vt 51.880001 -28.379101
vt 51.944801 -28.314301
vt 52.000000 -29.235800
vt 51.986198 -29.092100
vt 51.986198 -29.236700
vt 52.000000 -29.089899
vt 51.986198 -28.849800
vt 52.000000 -28.847601
vt 52.013802 -28.849800
vt 52.013802 -29.092100
vt 52.013802 -29.236700
vt 52.119999 -28.486000
vt 52.067200 -28.568501
vt 52.137798 -28.497801
vt 52.055199 -28.550900
vt 52.080299 -28.588400
vt 52.157902 -28.510700
vt 51.844200 -28.512899
vt 51.934700 -28.570400
vt 51.864101 -28.499800
vt 51.921902 -28.590401
vt 51.946499 -28.552500
vt 51.881699 -28.487801
vt 51.856701 -28.990900
vt 51.874699 -28.990900
vt 51.865700 -28.987200
vt 51.878399 -29.000000
vt 51.853001 -29.000000
vt 51.874699 -29.009100
vt 51.856701 -29.009100
vt 51.865700 -29.012800
vt 52.121399 -28.946501
vt 52.142601 -28.887899
vt 52.121399 -28.881701
vt 52.142601 -28.950701
vt 52.163700 -28.946501
vt 52.163700 -28.881701
vt 52.118900 -29.155800
vt 52.142601 -29.083401
vt 52.118900 -29.078100
vt 52.142601 -29.164200
vt 52.166302 -29.155800
vt 52.166302 -29.078100
vt 52.118900 -28.844200
vt 52.110199 -28.864100
vt 52.142601 -28.835800
vt 52.166302 -28.844200
vt 52.174999 -28.864100
vt 52.121399 -29.120001
vt 52.142601 -29.166300
vt 52.142601 -29.113701
vt 52.163700 -29.120001
vt 52.118900 -29.157900
vt 52.110199 -29.137800
vt 52.166302 -29.157900
vt 52.174999 -29.137800
vt 52.135899 -29.721399
vt 52.142101 -29.590799
vt 52.122299 -29.719299
vt 52.155701 -29.592699
vt 52.125301 -29.730400
vt 52.134300 -29.731800
vt 52.143299 -29.733200
vt 52.149502 -29.723499
vt 52.169300 -29.594601
vt 51.857399 -28.349199
vt 51.857399 -28.268400
vt 51.833698 -28.276800
vt 51.881100 -28.276800
vt 51.833698 -28.354401
vt 51.881100 -28.354401
vt 51.836300 -28.312599
vt 51.857399 -28.266199
vt 51.833698 -28.274700
vt 51.825001 -28.294800
vt 51.857399 -28.318800
vt 51.878601 -28.312599
vt 51.881100 -28.274700
vt 51.889801 -28.294800
vt 52.056301 -29.102699
vt 51.959301 -28.855000
vt 51.946499 -28.860300
vt 52.106899 -29.240900
vt 52.069000 -29.097401
vt 52.120499 -29.238800
vt 51.972000 -28.849800
vt 52.081699 -29.092100
vt 52.134201 -29.236700
vt 51.878601 -28.486000
vt 51.857399 -28.544701
vt 51.878601 -28.550900
vt 51.857399 -28.481899
vt 51.836300 -28.486000
vt 51.836300 -28.550900
vt 51.881100 -28.588400
vt 51.889801 -28.568501
vt 51.857399 -28.596701
vt 51.833698 -28.588400
vt 51.825001 -28.568501
vt 41.983299 -3.313880
vt 41.983299 -3.418440
vt 42.000000 -3.315180
vt 42.000000 -3.419580
vt 41.983299 -3.539210
vt 42.016701 -3.418440
vt 42.016701 -3.313880
vt 42.016701 -3.539210
vt 42.000000 -3.539200
vt 42.000000 -3.661390
vt 42.016701 -3.662350
vt 41.983299 -3.662350
vt 41.931900 -2.668900
vt 42.068100 -2.668900
vt 42.060200 -2.649800
vt 42.145199 -2.564720
vt 42.164299 -2.572630
vt 41.939800 -2.649800
vt 42.052898 -2.632160
vt 42.127602 -2.557420
vt 42.145199 -2.444410
vt 42.164299 -2.436490
vt 41.854801 -2.564720
vt 42.060200 -2.359330
vt 42.068100 -2.340230
vt 41.931900 -2.340230
vt 41.939800 -2.359330
vt 41.835701 -2.436490
vt 41.854801 -2.444410
vt 41.835701 -2.572630
vt 41.872398 -2.451710
vt 41.983601 -2.655820
vt 41.983398 -2.772430
vt 42.000000 -2.656110
vt 42.016602 -2.772430
vt 42.016399 -2.655820
vt 42.000000 -2.775000
vt 42.016602 -2.933470
vt 41.983398 -2.933470
vt 42.000000 -2.936130
vt 41.947102 -2.632160
vt 41.872398 -2.557420
vt 42.127602 -2.451710
vt 42.052898 -2.376960
vt 41.947102 -2.376960
vt 41.872700 -2.931930
vt 41.852299 -3.071460
vt 41.872700 -3.068070
vt 41.852299 -2.928540
vt 41.831799 -2.931930
vt 41.831799 -3.068070
vt 41.871101 -2.947150
vt 41.871101 -2.872400
vt 41.852299 -2.879030
vt 41.871101 -3.052850
vt 41.852299 -2.949890
vt 41.852299 -3.120970
vt 41.871101 -3.127600
vt 41.852299 -3.050110
vt 41.833500 -2.947150
vt 41.833500 -3.052850
vt 41.833500 -3.127600
vt 41.833500 -2.872400
vt 42.131802 -3.016590
vt 42.092300 -3.000000
vt 42.099098 -3.016660
vt 42.115501 -3.023520
vt 42.138500 -3.000000
vt 42.131802 -2.983410
vt 42.099098 -2.983340
vt 42.115501 -2.976480
vt 41.862000 -3.415690
vt 41.868198 -3.307710
vt 41.845699 -3.412950
vt 41.884499 -3.310780
vt 41.878502 -3.418440
vt 41.900902 -3.313880
vt 41.864399 -3.539210
vt 41.847698 -3.539230
vt 41.865898 -3.662350
vt 41.849400 -3.664660
vt 41.831100 -3.539270
vt 41.833000 -3.666990
vt 42.147701 -2.433110
vt 42.147701 -2.332050
vt 42.127300 -2.340230
vt 42.168201 -2.340230
vt 42.127300 -2.436490
vt 42.168201 -2.436490
vt 42.127300 -2.572630
vt 42.168201 -2.572630
vt 42.147701 -2.576020
vt 42.168201 -2.668900
vt 42.127300 -2.668900
vt 42.045898 -2.927030
vt 42.098900 -2.759900
vt 42.030602 -2.920580
vt 42.114300 -2.766180
vt 42.131199 -2.654110
vt 42.061199 -2.933470
vt 42.147900 -2.655020
vt 42.129700 -2.772430
vt 42.164299 -2.655820
vt 42.147701 -2.554670
vt 42.128899 -2.451710
vt 42.128899 -2.557420
vt 42.128899 -2.632160
vt 42.147701 -2.625540
vt 42.166500 -2.557420
vt 42.147701 -2.454460
vt 42.166500 -2.451710
vt 42.147701 -2.383590
vt 42.166500 -2.376960
vt 42.000000 -3.539290
vt 42.016602 -3.666990
vt 42.016602 -3.539270
vt 42.016602 -3.412950
vt 42.000000 -3.667950
vt 41.983398 -3.666990
vt 42.000000 -3.411810
vt 42.016602 -3.307710
vt 42.000000 -3.306460
vt 41.983398 -3.307710
vt 41.983398 -3.412950
vt 41.983398 -3.539270
vt 42.000000 -2.757300
vt 42.016701 -2.654110
vt 42.000000 -2.653720
vt 41.983299 -2.654110
vt 42.016602 -2.759900
vt 41.983398 -2.759900
vt 42.000000 -2.917910
vt 42.016602 -2.920580
vt 41.983398 -2.920580
vt 41.865898 -3.016660
vt 41.826199 -3.000000
vt 41.833000 -3.016590
vt 41.849400 -3.023520
vt 41.872799 -3.000000
vt 41.865898 -2.983340
vt 41.833000 -2.983410
vt 41.849400 -2.976480
vt 42.127300 -2.931930
vt 42.127300 -3.068070
vt 42.147701 -3.071460
vt 42.147701 -2.928540
vt 42.168201 -3.068070
vt 42.147701 -3.172510
vt 42.168201 -2.931930
vt 42.147701 -2.827490
vt 42.061199 -3.016620
vt 42.024200 -3.000000
vt 42.030602 -3.016630
vt 42.045898 -3.023520
vt 42.067600 -3.000000
vt 42.061199 -2.983380
vt 42.030602 -2.983370
vt 42.045898 -2.976480
vt 42.166500 -3.052850
vt 42.147701 -3.120970
vt 42.166500 -3.127600
vt 42.128899 -3.127600
vt 42.147701 -3.050110
vt 42.128899 -3.052850
vt 42.128899 -2.947150
vt 42.147701 -2.949890
vt 42.147701 -2.879030
vt 42.128899 -2.872400
vt 42.166500 -2.947150
vt 42.166500 -2.872400
vt 42.121498 -3.418440
vt 42.115501 -3.310780
vt 42.099098 -3.313880
vt 42.138000 -3.415690
vt 42.135601 -3.539210
vt 42.131802 -3.307710
vt 42.134102 -3.662350
vt 42.152302 -3.539230
vt 42.150600 -3.664660
vt 42.154301 -3.412950
vt 42.168900 -3.539270
vt 42.167000 -3.666990
vt 41.831799 -2.668900
vt 41.852299 -2.576020
vt 41.831799 -2.572630
vt 41.852299 -2.433110
vt 41.831799 -2.436490
vt 41.872700 -2.572630
vt 41.872700 -2.668900
vt 41.872700 -2.436490
vt 41.852299 -2.332050
vt 41.831799 -2.340230
vt 41.872700 -2.340230
vt 41.901100 -2.759900
vt 41.954102 -2.927030
vt 41.969398 -2.920580
vt 41.885700 -2.766180
vt 41.868801 -2.654110
vt 41.938801 -2.933470
vt 41.852100 -2.655020
vt 41.870300 -2.772430
vt 41.835701 -2.655820
vt 41.871101 -2.451710
vt 41.852299 -2.554670
vt 41.871101 -2.557420
vt 41.852299 -2.625540
vt 41.871101 -2.632160
vt 41.833500 -2.632160
vt 41.833500 -2.451710
vt 41.833500 -2.557420
vt 41.852299 -2.454460
s 1
usemtl Meshpart1Mtl.001
f 3/1/1 1/2/2 2/3/3
f 1/2/2 3/1/1 4/4/4
f 4/4/4 3/1/1 5/5/5
f 3/1/1 2/3/3 6/6/6
f 7/7/7 5/5/5 3/1/1
f 3/1/1 8/8/8 7/7/7
f 9/9/9 3/1/1 6/6/6
f 8/8/8 3/1/1 9/9/9
f 10/10/10 13/11/11 11/12/12
f 13/11/11 10/10/10 15/13/13
f 12/14/14 15/13/13 14/15/15
f 15/13/13 12/14/14 13/11/11
f 16/16/16 18/17/17 17/18/16
f 18/17/17 16/16/16 19/19/18
f 19/19/18 20/20/19 18/17/17
f 20/20/19 19/19/18 21/21/20
f 22/22/21 23/23/22 24/24/23
f 23/23/22 25/25/24 26/26/25
f 26/26/25 24/24/23 23/23/22
f 27/27/26 26/26/25 25/25/24
f 28/28/27 26/26/25 27/27/26
f 29/29/28 24/24/23 26/26/25
f 26/26/25 28/28/27 29/29/28
f 24/24/23 29/29/28 30/30/29
f 31/31/30 34/32/31 32/33/30
f 34/32/31 31/31/30 36/34/32
f 33/35/33 36/34/32 35/36/33
f 36/34/32 33/35/33 34/32/31
f 37/37/34 40/38/35 38/39/36
f 40/38/35 37/37/34 42/40/37
f 39/41/38 42/40/37 41/42/38
f 42/40/37 39/41/38 40/38/35
f 43/43/39 45/44/40 44/45/41
f 45/44/40 43/43/39 46/46/42
f 45/44/40 46/46/42 47/47/10
f 45/44/40 47/47/10 48/48/10
f 49/49/43 50/50/43 51/51/43
f 49/49/43 52/52/43 50/50/43
f 53/53/44 52/52/43 49/49/43
f 52/52/43 53/53/44 54/54/43
f 54/54/43 55/55/43 52/52/43
f 55/55/43 54/54/43 56/56/43
f 57/57/45 58/58/46 59/59/45
f 57/57/45 59/59/45 60/60/45
f 61/61/45 58/58/46 57/57/45
f 58/58/46 61/61/45 62/62/45
f 62/62/45 63/63/45 58/58/46
f 63/63/45 62/62/45 64/64/45
f 65/65/47 67/61/48 66/57/47
f 67/61/48 65/65/47 68/66/48
f 67/61/48 68/66/48 69/67/49
f 69/67/49 70/62/50 67/61/48
f 71/68/51 72/69/52 73/70/53
f 74/71/54 73/70/53 72/69/52
f 72/69/52 75/72/55 74/71/54
f 75/72/55 72/69/52 76/73/56
f 77/74/57 76/73/56 72/69/52
f 72/69/52 78/75/58 77/74/57
f 79/76/59 78/75/58 71/68/51
f 72/69/52 71/68/51 78/75/58
f 84/77/60 80/78/61 82/79/61
f 81/80/62 84/77/60 83/81/63
f 80/78/61 84/77/60 85/82/60
f 84/77/60 81/80/62 85/82/60
f 86/79/64 87/83/64 88/77/64
f 87/83/64 89/81/64 88/77/64
f 87/83/64 86/79/64 90/84/64
f 90/84/64 86/79/64 91/85/64
f 89/81/64 87/83/64 92/86/64
f 89/81/64 92/86/64 93/87/64
f 96/88/65 95/89/66 94/90/67
f 95/89/66 96/88/65 97/91/68
f 98/92/69 97/91/68 96/88/65
f 97/91/68 99/93/70 95/89/66
f 99/93/70 97/91/68 100/94/71
f 97/91/68 98/92/69 101/95/72
f 100/94/71 101/95/72 102/96/73
f 101/95/72 100/94/71 97/91/68
f 103/97/74 105/98/75 104/99/76
f 105/98/75 103/97/74 106/100/77
f 105/98/75 106/100/77 107/101/78
f 107/101/78 108/102/79 105/98/75
f 109/103/80 110/104/81 111/105/82
f 109/103/80 111/105/82 112/106/82
f 113/107/80 110/104/81 109/103/80
f 110/104/81 113/107/80 114/108/80
f 114/108/80 115/109/80 110/104/81
f 115/109/80 114/108/80 116/110/80
f 120/111/83 122/112/84 121/113/85
f 119/114/86 123/115/87 120/111/83
f 123/115/87 119/114/86 118/116/88
f 122/112/84 120/111/83 123/115/87
f 117/117/57 123/115/87 118/116/88
f 124/118/89 122/112/84 123/115/87
f 123/115/87 117/117/57 124/118/89
f 122/112/84 124/118/89 125/119/90
f 126/120/91 127/121/92 128/122/93
f 128/122/93 129/123/94 126/120/91
f 127/121/92 126/120/91 130/124/95
f 130/124/95 131/125/96 127/121/92
f 132/126/97 133/127/97 134/128/98
f 134/128/98 135/129/99 132/126/97
f 135/129/99 134/128/98 136/130/100
f 136/130/100 137/131/100 135/129/99
f 142/132/101 140/133/102 141/134/103
f 143/135/104 139/136/105 140/133/102
f 140/133/102 142/132/101 143/135/104
f 139/136/105 143/135/104 144/137/106
f 143/135/104 138/138/107 144/137/106
f 142/132/101 145/139/72 143/135/104
f 138/138/107 143/135/104 145/139/72
f 145/139/72 142/132/101 146/140/108
f 147/141/109 148/142/110 149/143/111
f 148/142/110 147/141/109 150/144/109
f 151/145/112 149/143/111 148/142/110
f 149/143/111 151/145/112 152/146/112
f 153/147/113 154/148/114 155/149/115
f 154/148/114 153/147/113 156/150/113
f 157/151/116 155/149/115 154/148/114
f 155/149/115 157/151/116 158/152/116
f 161/153/57 159/154/117 160/155/118
f 159/154/117 161/153/57 163/156/119
f 163/156/119 161/153/57 165/157/88
f 163/156/119 165/157/88 162/158/120
f 162/158/120 166/159/86 164/160/121
f 162/158/120 165/157/88 166/159/86
f 167/161/122 169/162/123 168/163/124
f 169/162/123 167/161/122 170/164/125
f 171/165/126 169/162/123 170/164/125
f 169/162/123 171/165/126 172/166/127
f 173/167/128 175/168/129 174/169/128
f 175/168/129 173/167/128 176/170/130
f 175/168/129 176/170/130 177/171/131
f 177/171/131 178/172/131 175/168/129
f 179/163/132 180/173/132 181/174/132
f 179/163/132 182/175/133 180/173/132
f 183/162/132 182/175/133 179/163/132
f 182/175/133 183/162/132 184/166/132
f 184/166/132 185/176/132 182/175/133
f 185/176/132 184/166/132 186/177/132
f 187/178/134 188/179/134 189/180/135
f 188/179/134 190/181/134 189/180/135
f 188/179/134 187/178/134 191/182/134
f 191/182/134 187/178/134 192/183/134
f 190/181/134 188/179/134 193/184/134
f 190/181/134 193/184/134 194/185/136
f 197/186/137 195/187/5 196/188/138
f 195/187/5 197/186/137 198/189/139
f 196/188/138 199/190/120 197/186/137
f 197/186/137 199/190/120 200/191/121
f 201/192/86 197/186/137 200/191/121
f 202/193/140 198/189/139 197/186/137
f 197/186/137 201/192/86 202/193/140
f 198/189/139 202/193/140 203/194/141
f 204/195/142 205/196/143 206/197/16
f 204/195/142 207/198/144 205/196/143
f 206/197/16 208/199/16 204/195/142
f 207/198/144 204/195/142 209/200/145
f 210/201/146 211/202/147 212/203/148
f 210/201/146 212/203/148 213/204/146
f 214/205/147 211/202/147 210/201/146
f 211/202/147 214/205/147 215/206/146
f 215/206/146 216/207/147 211/202/147
f 216/207/147 215/206/146 217/208/147
f 219/209/149 221/210/150 220/211/29
f 218/212/151 222/213/152 219/209/149
f 221/210/150 219/209/149 222/213/152
f 222/213/152 218/212/151 223/214/153
f 222/213/152 224/215/105 221/210/150
f 223/214/153 225/216/154 222/213/152
f 224/215/105 222/213/152 225/216/154
f 225/216/154 223/214/153 226/217/155
f 227/218/156 229/219/157 228/220/156
f 229/219/157 227/218/156 230/221/157
f 231/222/158 229/219/157 230/221/157
f 229/219/157 231/222/158 232/223/158
f 233/220/159 234/224/159 235/225/159
f 233/220/159 236/226/159 234/224/159
f 237/219/159 236/226/159 233/220/159
f 236/226/159 237/219/159 238/223/159
f 238/223/159 239/227/159 236/226/159
f 239/227/159 238/223/159 240/228/159
usemtl Meshpart2Mtl.001
f 242/229/160 241/230/161 243/231/162
f 245/232/163 243/231/162 241/230/161
f 241/230/161 244/233/164 245/232/163
f 246/234/165 243/231/162 245/232/163
f 243/231/162 246/234/165 247/235/166
f 245/232/163 248/236/167 246/234/165
f 248/236/167 245/232/163 249/237/168
f 249/237/168 245/232/163 244/233/164
f 249/237/168 250/238/169 248/236/167
f 244/233/164 250/238/169 249/237/168
f 251/239/170 248/236/167 250/238/169
f 250/238/169 244/233/164 252/240/171
f 254/241/172 253/242/173 256/243/174
f 253/242/173 257/244/175 256/243/174
f 257/244/175 253/242/173 255/245/176
f 254/241/172 256/243/174 258/246/177
f 257/244/175 259/247/178 256/243/174
f 258/246/177 256/243/174 259/247/178
f 259/247/178 257/244/175 260/248/179
f 255/245/176 261/249/180 257/244/175
f 261/249/180 260/248/179 257/244/175
f 255/245/176 262/250/181 261/249/180
f 263/251/182 254/241/172 258/246/177
f 264/252/183 261/249/180 262/250/181
f 262/250/181 265/253/184 264/252/183
f 265/253/184 266/254/185 267/255/186
f 265/253/184 267/255/186 264/252/183
f 268/256/187 267/255/186 266/254/185
f 267/255/186 268/256/187 269/257/188
f 270/258/189 269/257/188 268/256/187
f 254/241/172 263/251/182 270/258/189
f 269/257/188 270/258/189 263/251/182
f 267/255/186 269/257/188 271/259/190
f 263/251/182 271/259/190 269/257/188
f 275/260/191 274/261/192 276/262/193
f 276/262/193 277/263/194 278/264/195
f 279/265/196 273/266/197 277/263/194
f 277/263/194 276/262/193 279/265/196
f 279/265/196 276/262/193 274/261/192
f 274/261/192 272/267/198 279/265/196
f 273/266/197 279/265/196 280/268/199
f 280/268/199 279/265/196 272/267/198
f 258/246/177 259/247/178 281/269/200
f 282/270/201 258/246/177 281/269/200
f 258/246/177 282/270/201 263/251/182
f 271/259/190 263/251/182 282/270/201
f 260/248/179 261/249/180 283/271/202
f 264/252/183 283/271/202 261/249/180
f 283/271/202 264/252/183 284/272/203
f 264/252/183 285/273/204 284/272/203
f 267/255/186 271/259/190 285/273/204
f 264/252/183 267/255/186 285/273/204
f 291/274/205 288/275/206 290/276/207
f 288/275/206 291/274/205 292/277/208
f 293/278/185 288/275/206 292/277/208
f 288/275/206 293/278/185 289/279/209
f 295/280/210 294/281/211 296/282/212
f 298/283/213 295/280/214 299/284/206
f 298/283/213 300/285/215 297/286/216
f 299/284/206 301/287/208 298/283/213
f 301/287/208 299/284/206 302/288/217
f 302/288/217 286/289/218 301/287/208
f 287/290/219 301/287/208 286/289/218
f 302/288/220 296/282/221 303/291/222
f 304/292/223 305/293/223 306/294/223
f 304/292/223 306/294/223 307/295/223
f 308/296/223 305/293/223 304/292/223
f 309/297/223 305/293/223 308/296/223
f 305/293/223 309/297/223 310/298/224
f 310/298/224 309/297/223 311/299/225
f 312/300/226 313/301/227 314/302/228
f 313/301/227 312/300/226 315/303/229
f 316/304/230 315/303/229 312/300/226
f 315/303/229 316/304/230 317/305/231
f 312/300/226 318/306/232 316/304/230
f 320/307/226 319/308/233 318/306/232
f 318/306/232 312/300/226 320/307/226
f 319/308/233 320/307/226 321/309/234
f 314/302/228 320/307/226 312/300/226
f 322/310/235 321/309/234 320/307/226
f 320/307/226 314/302/228 322/310/235
f 321/309/234 322/310/235 323/311/236
f 332/312/237 329/313/238 328/314/239
f 332/312/237 331/315/240 329/313/238
f 328/314/239 333/316/241 332/312/237
f 331/315/240 332/312/237 334/317/242
f 335/318/243 332/312/237 333/316/241
f 336/319/244 334/317/242 332/312/237
f 332/312/237 326/320/245 336/319/244
f 332/312/237 335/318/243 326/320/245
f 325/321/246 336/319/244 326/320/245
f 324/322/247 326/320/245 335/318/243
f 340/323/248 338/324/249 339/325/250
f 338/324/249 340/323/248 341/326/251
f 341/326/251 337/327/252 338/324/249
f 342/328/198 341/326/251 340/323/248
f 337/327/252 341/326/251 343/329/253
f 344/330/254 343/329/253 341/326/251
f 341/326/251 342/328/198 344/330/254
f 343/329/253 344/330/254 345/331/255
f 348/332/237 330/333/256 346/334/216
f 348/332/237 347/335/257 349/336/258
f 349/336/258 327/337/259 348/332/237
f 327/337/259 350/338/260 348/332/237
f 330/333/256 348/332/237 350/338/260
f 350/338/260 327/337/259 351/339/261
f 353/340/262 330/333/256 350/338/260
f 350/338/260 352/341/263 353/340/262
f 359/342/264 358/343/265 357/344/266
f 355/345/267 359/342/264 357/344/266
f 358/343/265 359/342/264 360/346/268
f 359/342/264 361/347/269 360/346/268
f 359/342/264 355/345/267 362/348/270
f 354/349/271 362/348/270 355/345/267
f 362/348/270 354/349/271 363/350/272
f 356/351/273 362/348/270 363/350/272
f 362/348/270 356/351/273 364/352/274
f 364/352/274 359/342/264 362/348/270
f 359/342/264 364/352/274 365/353/275
f 361/347/269 359/342/264 365/353/275
f 367/241/276 370/251/277 368/258/278
f 368/258/278 371/257/279 369/256/280
f 371/257/279 368/258/278 370/251/277
f 372/255/281 369/256/280 371/257/279
f 369/256/280 372/255/281 373/254/207
f 372/255/281 374/253/239 373/254/207
f 372/255/281 371/257/279 375/259/282
f 374/253/239 372/255/281 376/252/283
f 377/250/284 374/253/239 376/252/283
f 378/245/285 377/250/284 379/249/286
f 376/252/283 379/249/286 377/250/284
f 380/244/287 366/242/288 378/245/285
f 378/245/285 379/249/286 380/244/287
f 381/354/289 382/355/290 383/356/291
f 384/357/292 381/354/289 383/356/291
f 382/355/290 381/354/289 385/358/293
f 381/354/289 384/357/292 386/359/294
f 387/360/295 385/358/293 381/354/289
f 386/359/294 387/360/295 381/354/289
f 385/358/293 387/360/295 388/361/296
f 387/360/295 386/359/294 389/362/297
f 376/252/283 390/271/298 379/249/286
f 380/244/287 379/249/286 390/271/298
f 366/242/288 380/244/287 391/243/299
f 367/241/276 366/242/288 391/243/299
f 392/248/300 391/243/299 380/244/287
f 380/244/287 390/271/298 392/248/300
f 391/243/299 393/246/301 367/241/276
f 370/251/277 367/241/276 393/246/301
f 391/243/299 392/248/300 394/247/302
f 393/246/301 391/243/299 394/247/302
f 393/246/301 395/270/303 370/251/277
f 371/257/279 370/251/277 395/270/303
f 394/247/302 396/269/304 393/246/301
f 395/270/303 393/246/301 396/269/304
f 371/257/279 395/270/303 375/259/282
f 375/259/282 397/273/305 372/255/281
f 397/273/305 376/252/283 372/255/281
f 376/252/283 397/273/305 398/272/306
f 390/271/298 376/252/283 398/272/306
f 399/363/307 400/364/307 401/365/307
f 399/363/307 401/365/307 402/366/307
f 403/367/308 400/364/307 399/363/307
f 404/368/307 400/364/307 403/367/308
f 400/364/307 404/368/307 405/369/307
f 405/369/307 404/368/307 406/370/307
f 407/371/309 408/372/310 409/373/311
f 409/373/311 410/374/312 407/371/309
f 410/374/312 409/373/311 411/375/313
f 412/376/314 409/373/311 408/372/310
f 412/376/314 411/375/313 409/373/311
f 411/375/313 413/377/246 410/374/312
f 414/378/315 410/374/312 413/377/246
f 414/378/315 407/371/309 410/374/312
f 417/379/316 418/380/317 419/381/318
f 417/379/316 419/381/318 420/382/317
f 421/383/318 418/380/317 417/379/316
f 422/384/319 418/380/317 421/383/318
f 418/380/317 422/384/319 423/385/320
f 423/385/320 422/384/319 424/386/321
f 428/387/322 426/388/245 427/389/323
f 415/390/324 429/391/325 430/392/326
f 429/391/325 431/393/327 430/392/326
f 428/387/328 432/394/311 429/391/325
f 431/393/327 429/391/325 432/394/311
f 431/393/327 433/395/314 425/396/329
f 433/395/314 431/393/327 432/394/311
f 434/397/330 433/395/314 432/394/311
f 434/397/330 416/398/331 433/395/314
f 432/394/311 428/387/328 434/397/330
f 435/399/332 437/400/333 436/401/334
f 437/400/333 435/399/332 439/402/335
f 438/403/336 439/402/335 435/399/332
f 439/402/335 440/404/337 437/400/333
f 441/405/338 442/406/335 438/403/336
f 439/402/335 438/403/336 442/406/335
f 442/406/335 441/405/338 443/407/339
f 440/404/337 439/402/335 445/408/340
f 442/406/335 445/408/340 439/402/335
f 445/408/340 442/406/335 446/409/341
f 443/407/339 446/409/341 442/406/335
f 446/409/341 443/407/339 444/410/342
f 448/411/343 449/412/344 450/413/345
f 452/414/346 450/413/345 449/412/344
f 450/413/345 452/414/346 451/415/347
f 452/414/346 449/412/344 453/416/348
f 447/417/310 453/416/348 449/412/344
f 453/416/348 454/418/349 452/414/346
f 455/419/350 451/415/347 452/414/346
f 454/418/349 455/419/350 452/414/346
f 451/415/347 455/419/350 456/420/351
f 455/419/350 454/418/349 457/421/207
f 460/422/352 462/423/353 461/424/354
f 462/423/353 460/422/352 463/425/355
f 459/426/356 463/425/355 460/422/352
f 463/425/355 464/427/357 462/423/353
f 465/428/358 463/425/355 459/426/356
f 465/428/358 466/429/359 463/425/355
f 464/427/357 463/425/355 466/429/359
f 467/430/360 466/429/359 465/428/358
f 468/431/361 471/432/362 469/433/363
f 471/432/212 472/434/350 470/435/364
f 471/432/212 473/436/217 472/434/350
f 471/432/362 458/437/190 474/438/365
f 471/432/362 468/431/361 475/439/344
f 458/437/190 471/432/362 475/439/344
